<svg xmlns="http://www.w3.org/2000/svg" width="1142.703" height="884.947" viewBox="0 0 1142.703 884.947"><defs><style>.a{fill:#d1f2ff;}.ab,.b{fill:#fff;}.c{fill:#e3eef7;}.d{fill:#afc4d6;}.ai,.e{fill:#fed866;}.aj,.f{fill:#ff9467;}.g{fill:#fcd2c5;}.h{fill:#88cef9;}.i{fill:#393939;}.j{fill:#fe6b6a;}.k{fill:#272063;}.l{fill:#007fcc;}.m{fill:#ffbd00;}.aa,.n{fill:#005589;}.o{fill:#343434;}.p{fill:#98e1fe;}.q{fill:#d3e1ea;}.r,.v{fill:#afc4d5;}.aa,.ab,.ai,.aj,.r,.s,.t,.z{fill-rule:evenodd;}.s,.u{fill:#edf5f8;}.t,.w{fill:#febb00;}.x{fill:#bcebfe;}.y{fill:#802b52;opacity:0.55;}.z{fill:#f4fafd;}.ac{fill:#32b1ff;}.ad{fill:#3c3c3c;}.ae{fill:#fb0;}.af{fill:#ffd385;}.ag{fill:#ff6d6c;}.ah{fill:#ff7653;}.ak{fill:#fbb301;}</style></defs><g transform="translate(4.77 486)"><path class="a" d="M1051.446,326.76c-17.5,8.791-34.242,79.349-57.271,79.349-81.4,0-105.055-294.965-218.325-255.636-58.738,20.4-100.742,182.061-171.97,229.085-74.214,49-167.373-84.747-220.89-84.747-56.364,0-61.511,150.267-106.056,161.592-21.774,5.536-45.837-28.961-66.557-19.964-22.142,9.614-31.8,35.988-43.83,57.915s-37.337,37.491-54.56,38.925H1161.343C1081.247,480.228,1107.772,298.468,1051.446,326.76Z" transform="translate(-111.988 -134.332)"/><g transform="translate(301.624 310.289)"><g transform="translate(13.505 28.259)"><rect class="b" width="70.256" height="60.219"/><g transform="translate(70.256)"><rect class="c" width="25.808" height="60.219"/></g></g><g transform="translate(13.505 28.259)"><path class="d" d="M331.776,411.523h58.642L402.1,374.244H331.776Z" transform="translate(-331.776 -374.244)"/></g><g transform="translate(83.761 28.259)"><path class="d" d="M381.077,375.891l11.384,48.536h14.123V374.244H380.776Z" transform="translate(-380.776 -374.244)"/></g><g transform="translate(0 28.169)"><path class="b" d="M322.357,398.881H394.5l11.748-24.7h-69.96Z" transform="translate(-322.357 -374.182)"/></g><g transform="translate(84.139 28.169)"><path class="c" d="M381.04,374.182l10.554,29.706h25.465l-10.553-29.706Z" transform="translate(-381.04 -374.182)"/></g></g><g transform="translate(143.248 338.548)"><rect class="e" width="70.256" height="60.219"/><g transform="translate(70.256)"><rect class="f" width="25.808" height="60.219"/></g></g><g transform="translate(61.541 144.677)"><g transform="translate(71.774 52.534)"><path class="g" d="M247.864,305.337a11.542,11.542,0,0,1-3.1,1.549c1.276-.191,1.273.608,2.634.6.52-.159,2.136-1.93,1.818-2.374C248.787,304.382,248.357,304.948,247.864,305.337Z" transform="translate(-187.705 -263.049)"/><path class="g" d="M254.069,307.326a14.493,14.493,0,0,0-2.544-.538c-.205-.036-3.143-.535-4.451-.579a19.04,19.04,0,0,0-3.245.118,33.226,33.226,0,0,0-.488,5.649c1.848.115,7.573-.108,7.712-.082,2.3.459,2.881-.337,2.478-1.008-.1-.163,1.46-.479,1.184-1.213a.864.864,0,0,0,.343-.89A3.373,3.373,0,0,0,254.069,307.326Z" transform="translate(-188.332 -262.429)"/><path class="g" d="M221.318,275.877c-.337-1.1-13.049,2.414-14.907,3.8-4.286,3.189,5.9,29.852,11.145,38.665,1.99,3.344,11.281,5.7,8.56-6.223C223.9,302.392,223.174,281.941,221.318,275.877Z" transform="translate(-204.788 -275.668)"/><path class="h" d="M206.591,279.672c-2.859,2.128-1.864,15.494,2.4,26.247,1.306-.174,5.2-1.164,6.5-1.452a75.817,75.817,0,0,0,10.551-3.232c-2.076-9.522-3.223-21.078-4.535-25.358C221.161,274.78,208.449,278.292,206.591,279.672Z" transform="translate(-204.969 -275.668)"/><path class="g" d="M218.873,300.951a4.16,4.16,0,0,0-1.3.087c-2.1.453-4.723,2.392-3.387,6.535,1.455,4.529,31.158,7.11,43.054,6.809a22.644,22.644,0,0,1,.394-5.772C250.409,308.938,225.686,301.718,218.873,300.951Z" transform="translate(-201.128 -264.709)"/></g><path class="g" d="M169.356,346.279c-1.177,3.675-13.985,88.4-13.985,88.4a6.882,6.882,0,0,0,5.49.115s24.26-80.183,24.8-81.772C184,354.014,171.1,348.447,169.356,346.279Z" transform="translate(-154.71 -192.504)"/><path class="i" d="M162.209,408.939c-.542-1.087-1.134-2.711-1.134-2.711l-4.932,1.365s-.469.391-.576,1.819a3.644,3.644,0,0,0-.531,2.918c.27.88,2.8,2.28,4.02,3.464.978.952,2.82,1.527,4.977,1.959s5.044-.049,5.347-1.295C169.978,413.995,163.255,411.031,162.209,408.939Z" transform="translate(-154.91 -166.499)"/><path class="g" d="M155.6,407.094s-.13.958-.237,2.386c0,0,2.476,1.622,3.53,1.336a7.48,7.48,0,0,0,3.113-1.809,11.113,11.113,0,0,1-.931-2.935Z" transform="translate(-154.711 -166.566)"/><path class="j" d="M177.884,305.959S166.426,359.7,163.85,386.38c-2.982,30.9-8.444,63.092-8.444,63.092,1.557,2.859,6.34,1.584,6.455,1.369,0,0,45.163-134.438,45.738-140.2C203.758,311.321,188.187,309.185,177.884,305.959Z" transform="translate(-154.695 -209.994)"/><path class="g" d="M188.321,349.373c-.28,3.848,7.249,89.2,7.249,89.2a6.868,6.868,0,0,0,5.364-1.181s4.67-83.642,4.816-85.313C204.371,353.439,190.522,351.068,188.321,349.373Z" transform="translate(-140.42 -191.162)"/><path class="i" d="M199.913,411.391c-.784-.928-1.742-2.364-1.742-2.364l-4.472,2.488s-.364.489-.132,1.9a3.648,3.648,0,0,0,.173,2.962c.469.79,3.428,1.994,4.723,2.42a15.11,15.11,0,0,0,5.3.727c2.2-.086,4.891-1.237,4.891-2.516C208.653,414.474,201.421,413.181,199.913,411.391Z" transform="translate(-138.246 -165.284)"/><path class="g" d="M193.263,411.126s.1.958.333,2.373c0,0,2.787.991,3.745.465a7.483,7.483,0,0,0,2.6-2.489,11.135,11.135,0,0,1-1.6-2.632Z" transform="translate(-138.273 -165.365)"/><path class="j" d="M184.6,309.525v28.12c2.1,1.655,1.536,26.816,5.322,53.344,4.386,30.733,6.67,63.3,6.67,63.3,2.187,2.41,6.535.047,6.6-.191,0,0,12.192-141.3,11.393-147.031C211.011,308.638,195.375,310.234,184.6,309.525Z" transform="translate(-142.029 -209.511)"/><path class="h" d="M167.247,318.649c-.118,2.227,19.292,5.656,29.133,9.9s22.419,11.032,26.9,8.973c1.981-.91,3.312-17.664,3.312-17.664L173.7,300.932S167.564,312.635,167.247,318.649Z" transform="translate(-149.558 -212.175)"/><path class="g" d="M206.661,257.375c-.42,3-3.586,10.768-5.018,11.982.839,5.985,9.495,8.494,11,5.546-.4-3.759,2.863-9.581,3.053-10.166C213.473,264.438,207.226,258.115,206.661,257.375Z" transform="translate(-134.638 -231.069)"/><path class="g" d="M215.706,251.8c-4.294-.943-7.9,1.98-8.835,6.234-.011.044-.972,4.416-.972,4.416-.7,3.209,3.133,9.341,6.058,9.364,6.915.056,10.984-11.746,11.06-13.162C223.232,254.7,219.7,252.683,215.706,251.8Z" transform="translate(-132.828 -233.563)"/><path class="h" d="M226.728,271.356s-2.453,1.746-4.519.976c-3.01-1.123-6.481-6.522-6.481-6.522s-7.092-.112-9.457-.229c-7.1-.347-10.887,2.339-15.21,8.224-1.332,1.818-11.257,25.549-21.755,48.747-3.153,6.967,50.96,27.008,56.008,22.106,2.059-2,1.96-8.92,11.518-53.191.959-4.439,2.4-9.713-2.04-14.382C233.646,275.881,226.728,271.356,226.728,271.356Z" transform="translate(-148.723 -227.523)"/><g transform="translate(58.343 84.646)"><rect class="e" width="70.256" height="60.219"/><g transform="translate(70.256)"><rect class="f" width="25.808" height="60.219"/></g></g><g transform="translate(44.174 39.927)"><path class="g" d="M227.076,307.974a11.451,11.451,0,0,1-3.437.424c1.266.248,1,1,2.284,1.447.542.023,2.657-1.105,2.5-1.633C228.264,307.38,227.671,307.77,227.076,307.974Z" transform="translate(-169.27 -249.165)"/><path class="g" d="M232.7,311.28c-.229-.109-3.5-1.65-5.027-2.165a28.093,28.093,0,0,0-3.873-1.072,28.581,28.581,0,0,0-2.747,5.11c2.136.779,8.976,2.658,9.127,2.734,2.534,1.265,3.529.733,3.312-.043-.053-.188,1.906.082,1.864-.7a.922.922,0,0,0,.747-.711,3.063,3.063,0,0,0-.609-1.722A20.116,20.116,0,0,0,232.7,311.28Z" transform="translate(-170.39 -249.017)"/><path class="g" d="M203.006,268.8c-.333-1.1-13.056,2.373-14.919,3.748-4.3,3.177,5.811,29.87,11.023,38.7,1.98,3.352,11.265,5.741,8.581-6.2C205.5,295.319,204.844,274.869,203.006,268.8Z" transform="translate(-185.142 -266.132)"/><path class="h" d="M185.871,275.04c-.675,3.5.883,13.739,5.109,24.506,5.972.182,13.293-2.109,17.061-4.631-2.046-9.53-1.771-21.794-4.456-25.372C200.111,264.915,187.609,266.04,185.871,275.04Z" transform="translate(-185.719 -266.875)"/><path class="g" d="M200.308,293.814c-2.135-.278-5.249.677-5.374,5.031-.139,4.753,27,17.1,38.315,20.783a22.764,22.764,0,0,1,2.3-5.311c-6.921-2.1-27.817-17.157-33.984-20.153A4.167,4.167,0,0,0,200.308,293.814Z" transform="translate(-181.722 -255.209)"/></g><path class="k" d="M223.251,253.422s-7.264-8.087-14.5-4.572c-10.9,5.295-3.345,17.359-3.345,17.359.212-3,6.585-12.982,15.7-10.173,0,0,4.241,3.791.652,10.63C225.27,266.137,229.624,256.685,223.251,253.422Z" transform="translate(-134.114 -235.152)"/><path class="g" d="M207.913,255c-1.074-.36-2.582.731-2.944,1.807a3.923,3.923,0,0,0,1.282,3.587,52.93,52.93,0,0,0,3.235-4.276A3.727,3.727,0,0,0,207.913,255Z" transform="translate(-133.232 -232.131)"/><path class="k" d="M194.771,252.824c-2.922,7.841-5.038,8-8.075,9.833-15,9.07,1.24,33.316,5.213,25.488,1.547-3.05-6.69-8.362,6.289-12.147,14.344-4.185,10.392-11.317,10.338-15.971-.205-17.636,7.5-12.425,8.971-8.679.872,2.221,2.106,1.487,2.731-.194C222.784,244.321,204.466,226.806,194.771,252.824Z" transform="translate(-143.828 -239.028)"/><path class="k" d="M209.927,246.947a2.726,2.726,0,0,0-1.676-.056c-2.463.658-2.935,2.1-2.714,3.625a14.4,14.4,0,0,1,6.106-2A3.505,3.505,0,0,0,209.927,246.947Z" transform="translate(-132.97 -235.663)"/></g><g transform="translate(223.905 145.294)"><path class="i" d="M300.72,410.654c-.783-.928-1.742-2.367-1.742-2.367l-4.472,2.486s-.363.493-.132,1.907a3.652,3.652,0,0,0,.174,2.961c.469.79,3.428,2,4.723,2.419a14.971,14.971,0,0,0,5.3.728c2.2-.086,4.891-1.237,4.891-2.518C309.46,413.734,302.228,412.439,300.72,410.654Z" transform="translate(-256.88 -166.222)"/><path class="g" d="M300.238,408.188l-6,1.075a19.309,19.309,0,0,0,.109,3.46s2.789.992,3.746.466a7.491,7.491,0,0,0,2.6-2.492A2.192,2.192,0,0,1,300.238,408.188Z" transform="translate(-256.85 -166.265)"/><path class="l" d="M285.41,311.787v28.118c2.1,1.652,14.361,33.521,19.66,51.91.175.605-7.669,54.66-7.669,60.439,2.188,2.41,6.537.044,6.6-.191,0,0,16.947-27.371,19.673-60.439,3.166-38.411-7.849-79.211-8.279-82.291C311.818,310.9,296.182,312.493,285.41,311.787Z" transform="translate(-260.664 -209.147)"/><path class="i" d="M277.18,411.253c-.707-.986-1.551-2.495-1.551-2.495l-4.653,2.128s-.4.462-.28,1.89a3.648,3.648,0,0,0-.06,2.966c.406.823,3.127,1.8,4.519,2.78,1.118.784,3.028,1.06,5.226,1.143s4.972-.852,5.073-2.128C285.653,415.008,278.544,413.151,277.18,411.253Z" transform="translate(-267.203 -166.018)"/><path class="g" d="M276.5,408.623l-5.94.647s-.069,2.136.053,3.564c0,0,2.7,1.207,3.7.757a7.5,7.5,0,0,0,2.786-2.28A3.161,3.161,0,0,1,276.5,408.623Z" transform="translate(-267.116 -166.077)"/><path class="l" d="M276.24,307.039c-13.383,25.473,4.329,62.728,6.636,86.747,0,0-12.632,33.092-12.632,60.315,1.992,2.575,6.512.559,6.59.327,0-11.062,22.108-39.021,24.546-59.055,4.67-38.348,1.389-79.217,1.2-82.33C298.941,308.327,285.56,303.1,276.24,307.039Z" transform="translate(-267.243 -210.745)"/><path class="g" d="M296.535,253.588c.241,3.018-1.163,11.285-2.3,12.787,2.118,5.659,11.112,6.228,11.942,3.024-1.2-3.585.715-9.975.774-10.589C304.718,259,297.248,254.187,296.535,253.588Z" transform="translate(-256.835 -233.329)"/><path class="g" d="M304.211,246.453c-4.4.011-7.284,3.646-7.274,8,0,.047.011,4.524.011,4.524.007,3.283,5.084,8.439,7.943,7.826,6.765-1.447,8.175-13.848,7.942-15.247C312.185,247.646,308.3,246.442,304.211,246.453Z" transform="translate(-255.664 -236.424)"/><path class="m" d="M326.614,269.368c-1.386-.928-9.119-3.84-9.119-3.84s-2.022,2.235-4.192,1.936c-3.186-.452-7.751-4.954-7.751-4.954s-7.031,1.07-9.277,1.814c-20.115,6.66-31.067,31.423-27.434,90.428,1.028.145,3.741.215,5.015.45l3.735-18.894,1.379,19.945c19.728,9.109,46.752,2.492,48.94-12.131a197.446,197.446,0,0,1-1.472-26.492c.026-2.944.129-5.718.264-8.317.664-12.649,2.327-21.008,2.482-23.05C329.653,280.118,331.962,272.961,326.614,269.368Z" transform="translate(-268.151 -229.459)"/><path class="n" d="M304.787,267.463c-3.182-.44-7.742-4.957-7.742-4.957s-3.615.482-4.74.635a20.416,20.416,0,0,0-4.541,1.19C296.417,269.246,309.277,282,309.277,282s6.012-7.153,6.9-13.577a64.045,64.045,0,0,0-7.193-2.891S306.973,267.768,304.787,267.463Z" transform="translate(-259.643 -229.461)"/><path class="o" d="M297.03,242.522c-6.248,5.573-5.321,16.137.011,20.916,0,0,.886-6.9,3.08-10,18,3.952,19.839-.694,19.776-2.612C319.615,242.14,305.2,235.232,297.03,242.522Z" transform="translate(-257.508 -239.458)"/><path class="g" d="M297.039,250.8c-1.121.162-1.974,1.817-1.811,2.941a3.924,3.924,0,0,0,2.764,2.621,53.493,53.493,0,0,0,.955-5.276A3.7,3.7,0,0,0,297.039,250.8Z" transform="translate(-256.414 -234.55)"/><g transform="translate(45.064 42.214)"><path class="g" d="M348.382,305.62a11.5,11.5,0,0,1-3.385.724c1.283.135,1.081.9,2.4,1.242.542-.026,2.549-1.336,2.351-1.845C349.513,304.924,348.959,305.365,348.382,305.62Z" transform="translate(-279.88 -253.124)"/><path class="g" d="M354.161,308.377c-.238-.09-3.635-1.333-5.2-1.718a28.9,28.9,0,0,0-3.952-.727,28.878,28.878,0,0,0-2.287,5.331c2.2.592,9.173,1.86,9.331,1.924,2.635,1.039,3.58.42,3.3-.333-.07-.182,1.905-.085,1.794-.863a.924.924,0,0,0,.682-.773,3.06,3.06,0,0,0-.758-1.663A19.86,19.86,0,0,0,354.161,308.377Z" transform="translate(-280.866 -252.836)"/><path class="g" d="M320.365,293.876c-2.152-.087-5.169,1.137-4.912,5.486.278,4.747,28.4,14.663,39.99,17.34a22.708,22.708,0,0,1,1.824-5.489c-7.08-1.487-29.216-14.652-35.621-17.1A4.2,4.2,0,0,0,320.365,293.876Z" transform="translate(-292.703 -258.068)"/><path class="g" d="M313.966,270.083c-.654-.948-11.708,6.241-13.063,8.121-3.12,4.337,14.653,26.67,22.311,33.486,2.909,2.585,12.48,2.027,6.28-8.518C324.44,294.575,317.569,275.3,313.966,270.083Z" transform="translate(-299.166 -268.425)"/><path class="m" d="M322.91,285.246c-2.81-6.572-5.758-13.423-7.639-16.147-.292-.423-.485-.036-1.035-.059-2.41-.1-12.659,6.831-14.08,8.8-4.244,5.9,16.213,29.748,22.449,35.326,5.9,5.431,29.188,13.406,39.395,15.763l2.439-8.292c-4.1-.859-29.523-14.3-32.184-15.59C331.943,304.359,325.739,291.858,322.91,285.246Z" transform="translate(-299.581 -268.9)"/></g></g><g transform="translate(156.381 61.624)"><path class="p" d="M260.074,224.942h13.4L275.3,210.3H253.563Z" transform="translate(-206.955 -168.436)"/><g transform="translate(2.908 1.642)"><path class="p" d="M238.342,184.559l-15.258-2.311,10.037,18.222,12.7-4.155c.016-.165.02-6.684.02-6.684C245.837,185.488,242.485,184.559,238.342,184.559Z" transform="translate(-223.084 -182.248)"/><path class="p" d="M233.121,199.737l-10.037,18.222,15.258-2.308c4.142,0,7.494-.929,7.494-5.071,0,0,0-6.521-.02-6.684Z" transform="translate(-223.084 -174.661)"/></g><path class="a" d="M221.056,205.2s103.9-.205,104.082,0C312.936,162.171,226.83,186.136,221.056,205.2Z" transform="translate(-221.056 -181.103)"/><path class="p" d="M221.056,197.909c5.774,19.065,91.88,43.027,104.082,0C324.956,198.113,221.056,197.909,221.056,197.909Z" transform="translate(-221.056 -173.813)"/><path class="p" d="M282.89,187.985c-37.68,0-61.459,14.086-61.828,14.226H325.135C324.953,202.009,320.5,187.985,282.89,187.985Z" transform="translate(-221.053 -178.118)"/><path class="a" d="M282.89,212.14c37.611,0,42.063-14.025,42.245-14.226H221.062C221.43,198.052,245.21,212.14,282.89,212.14Z" transform="translate(-221.053 -173.81)"/><path class="q" d="M293.648,197.918l0-.008,0,0Z" transform="translate(-189.566 -173.814)"/></g><g transform="translate(807.033 63.087)"><path class="a" d="M824.94,196.916a13.172,13.172,0,0,0-10.085,4.952h20.169A13.174,13.174,0,0,0,824.94,196.916Z" transform="translate(-614.124 -175.706)"/><path class="a" d="M836.205,197.68c-4.307,0-7.583,5.129-11.476,4.217-8.505-1.99-12-12.943-21.333-12.943-7.2,0-11.376,8.941-18.023,8.335-10.53-.961-15.276-15.165-26.614-15.165-10.482,0-15.631,12.16-25.315,13.235-5.707.632-9.879-6.217-16.076-6.217-11.69,0-12.718,4.645-23.483,8-3.09.963-5.454,6.987-8.945,6.987-4.1,0-7.748,1.289-10.085,4.157h178.9A20.286,20.286,0,0,0,836.205,197.68Z" transform="translate(-674.855 -182.123)"/></g><g transform="translate(917.033 -215.913)"><path class="a" d="M824.94,196.916a13.172,13.172,0,0,0-10.085,4.952h20.169A13.174,13.174,0,0,0,824.94,196.916Z" transform="translate(-614.124 -175.706)"/><path class="a" d="M836.205,197.68c-4.307,0-7.583,5.129-11.476,4.217-8.505-1.99-12-12.943-21.333-12.943-7.2,0-11.376,8.941-18.023,8.335-10.53-.961-15.276-15.165-26.614-15.165-10.482,0-15.631,12.16-25.315,13.235-5.707.632-9.879-6.217-16.076-6.217-11.69,0-12.718,4.645-23.483,8-3.09.963-5.454,6.987-8.945,6.987-4.1,0-7.748,1.289-10.085,4.157h178.9A20.286,20.286,0,0,0,836.205,197.68Z" transform="translate(-674.855 -182.123)"/></g><g transform="translate(272.229)"><path class="a" d="M311.94,152.916a13.175,13.175,0,0,0-10.085,4.952h20.168A13.169,13.169,0,0,0,311.94,152.916Z" transform="translate(-301.855 -131.706)"/><path class="a" d="M499.965,160.129c-3.493,0-.439-5.761-8.947-6.987-14.53-2.089-11.793-8-23.483-8-6.2,0-10.369,6.849-16.076,6.217-9.682-1.075-14.833-13.235-25.315-13.235-11.338,0-16.084,14.2-26.613,15.165-6.649.606-10.819-8.335-18.024-8.335-9.333,0-12.83,10.953-21.332,12.943-3.893.912-7.17-4.217-11.476-4.217a20.289,20.289,0,0,0-17.554,10.606h178.9C507.71,161.418,504.068,160.129,499.965,160.129Z" transform="translate(-289.149 -138.123)"/></g><g transform="translate(-4.771 -486)"><path class="a" d="M311.94,152.916a13.175,13.175,0,0,0-10.085,4.952h20.168A13.169,13.169,0,0,0,311.94,152.916Z" transform="translate(-301.855 -131.706)"/><path class="a" d="M499.965,160.129c-3.493,0-.439-5.761-8.947-6.987-14.53-2.089-11.793-8-23.483-8-6.2,0-10.369,6.849-16.076,6.217-9.682-1.075-14.833-13.235-25.315-13.235-11.338,0-16.084,14.2-26.613,15.165-6.649.606-10.819-8.335-18.024-8.335-9.333,0-12.83,10.953-21.332,12.943-3.893.912-7.17-4.217-11.476-4.217a20.289,20.289,0,0,0-17.554,10.606h178.9C507.71,161.418,504.068,160.129,499.965,160.129Z" transform="translate(-289.149 -138.123)"/></g><g transform="translate(805.827 258.385)"><g transform="translate(10.29)"><g transform="translate(53.93)"><g transform="translate(9.815 2.907)"><path class="r" d="M725.65,325.766l1.2,8.939,5.165-.695-1.836-13.649Z" transform="translate(-725.65 -320.361)"/></g><g transform="translate(35.96)"><path class="r" d="M743.885,318.334l1.836,13.649,5.168-.695-1.2-8.939Z" transform="translate(-743.885 -318.334)"/></g><g transform="translate(9.815)"><path class="s" d="M730.183,321.241l-4.532,5.4,31.945-4.3-5.8-4.016Z" transform="translate(-725.65 -318.334)"/></g><g transform="translate(0 9.491)"><path class="s" d="M718.8,332.139,724.733,418l64.474-8.673L772.24,324.953Z" transform="translate(-718.805 -324.953)"/></g></g><g transform="translate(85.107 13.876)"><g transform="translate(10.352 3.173)"><path class="r" d="M747.769,337.931l1.773,13.184,5.637-.759-2.708-20.132Z" transform="translate(-747.769 -330.225)"/></g><g transform="translate(38.633)"><path class="r" d="M767.493,328.012l2.709,20.135,5.637-.759L774.066,334.2Z" transform="translate(-767.493 -328.012)"/></g><g transform="translate(10.352)"><path class="t" d="M752.47,331.185l-4.7,7.707,34.854-4.688-6.572-6.192Z" transform="translate(-747.769 -328.012)"/></g><g transform="translate(0 14.822)"><path class="t" d="M740.549,346.191l2.247,62.3,70.347-9.46L798.85,338.35Z" transform="translate(-740.549 -338.35)"/></g></g><g transform="translate(98.998 38.262)"><g transform="translate(0 1.98)"><path class="u" d="M787.4,346.79l-.625-.389-.5.543-.626-.392-.5.543-.625-.392-.5.543-.625-.392-.5.543-.626-.392-.5.543-.624-.392-.5.543-.624-.392-.5.543-.626-.392-.5.543-.625-.392-.5.543-.626-.392-.5.543-.626-.392-.5.543-.626-.392-.5.543-.626-.392-.5.543-.624-.389-.5.54-.625-.389-.5.54-.626-.389-.5.541-.625-.389-.5.541-.624-.389-.5.54-.627-.389-.5.541-.626-.389-.5.541-.627-.389-.5.543-.626-.392-.5.543-.626-.392-.5.543-.625-.392-.5.543-.626-.389-.5.541-.626-.389-.5.54-.626-.389-.5.541-.626-.389-.5.541-.626-.389-.5.54-.627-.389-.5.543-.626-.392-.5.543-.626-.392-.5.543-.629-.389-.5.541.008.07,6.813,50.656,37.164-5-6.813-50.656Z" transform="translate(-750.237 -346.4)"/></g><g transform="translate(43.986 47.752)"><path class="q" d="M780.915,383.67l14.716-1.98-7.945-3.366Z" transform="translate(-780.915 -378.324)"/></g><g transform="translate(44.464)"><path class="v" d="M788.677,345.5l0-.022-.025,0-.611-.465-.466.611-.049.006-.61-.465-.466.61-.049.006-.61-.462-.465.608-.051.006-.61-.462-.466.608-.049.006-.61-.462-.466.608-.021.028-.028-.022-.611-.462-.465.608-.021.028-.028-.022-.609-.462-.038.048.067.493,6.225,46.3,7.945,3.366L788.677,345.5Z" transform="translate(-781.249 -345.02)"/></g><g transform="translate(37.172 0.949)"><path class="q" d="M783.455,345.69v-.008l-.462.5-.623-.389-.5.54-.626-.389-.5.54-.626-.389-.5.54-.625-.389-.5.54-.625-.389-.5.54-.626-.389-.578.624,6.813,50.656,6.771-5.346-6.225-46.3Z" transform="translate(-776.163 -345.682)"/></g></g><g transform="translate(0 11.129)"><g transform="translate(28.269 112.911)"><path class="v" d="M700.907,410.508v5.2l34.676-5.662,79.965,5.662v-5.2l-79.965-5.662Z" transform="translate(-700.907 -404.846)"/></g><g transform="translate(134.299 111.91)"><path class="b" d="M783.535,404.148a8.762,8.762,0,1,0,8.844,8.679A8.765,8.765,0,0,0,783.535,404.148Z" transform="translate(-774.858 -404.148)"/></g><g transform="translate(19.508 111.91)"><path class="b" d="M703.476,404.148a8.762,8.762,0,1,0,8.844,8.679A8.765,8.765,0,0,0,703.476,404.148Z" transform="translate(-694.797 -404.148)"/></g><g transform="translate(24.862 2.965)"><path class="b" d="M827.1,356.1l-29.579-3.239v0l-.007,0-17.663-1.936-.1-.314-.717.224L744.928,347.1l-.013-.036-.09.027-35.684-3.911c-3.134-9.1-5.179-15.016-5.179-15.016l-5.431,1.842L733.857,434.12a5.365,5.365,0,1,0,7.543,4.869c0-.617-2.275-7.662-5.7-17.925,6.813-.869,94.66-12.09,94.67-12.222a6.469,6.469,0,0,0,3.356-5.586l.49-39.071A8.034,8.034,0,0,0,827.1,356.1Zm-15.916,2.549,6.62,21.24-12.025.115-6.868-22.576C803.41,357.876,807.552,358.291,811.184,358.652Zm-17.218-1.715L801,380.051l-12.034.115-7.629-24.481ZM776.374,355.2l7.8,25.017-12.022.115-8.217-26.363C768.077,354.372,772.252,354.787,776.374,355.2Zm-17.4-1.722,8.382,26.9-12.024.115-8.8-28.244Zm-17.4-1.719,8.968,28.779-12.022.116-9.388-30.121Zm-30.514-3.007c.768.075,5.7.559,13.112,1.29l9.555,30.656-11.673.112C718.118,369.294,714.222,357.945,711.058,348.747Zm23.156,67.886c-3.073-9.155-6.823-20.2-10.624-31.333l11.538-.109,9.37,30.067C739.763,415.892,736.149,416.372,734.214,416.633Zm14.9-1.992-9.194-29.5,12.022-.115,8.748,28.062C756.528,413.648,752.622,414.171,749.112,414.642Zm16.192-2.164-8.57-27.494,12.024-.115,8.122,26.061Zm16.19-2.165-7.943-25.489,12.021-.116,7.5,24.056Zm16.19-2.165-7.319-23.484,12-.115,6.716,22.076C805.54,407.1,801.7,407.61,797.685,408.148Zm16-2.142-6.543-21.5,12.058-.118,6.248,20.044C822.664,404.807,818.594,405.351,813.689,406.006Zm15.873-4.439a2.732,2.732,0,0,1-.049.476L824,384.343l5.757-.054Zm.239-21.789-7.206.067-6.451-20.7c6.051.608,9.781.989,9.863,1.014,3.318,1.048,3.95,5.9,3.906,9.5Z" transform="translate(-698.531 -328.164)"/></g><path class="w" d="M709.672,326.1h-.043l-24.164.232a4.308,4.308,0,0,0-2.977,7.39,4.4,4.4,0,0,0,3.057,1.237l24.164-.229a4.315,4.315,0,0,0-.037-8.63Z" transform="translate(-681.191 -326.096)"/></g></g></g><g transform="translate(287.976 161.736)"><g transform="translate(0.001)"><path class="x" d="M316.752,254.843a13.321,13.321,0,0,0-3.914,9.449v82.872A13.364,13.364,0,0,0,326.2,360.532H459.846V250.926H326.205A13.319,13.319,0,0,0,316.752,254.843Z" transform="translate(-312.838 -250.926)"/></g><path class="b" d="M408.265,259.1a6.26,6.26,0,0,0-1.844,4.446v21.507a6.293,6.293,0,0,0,6.294,6.3h6.535v-4.2h-6.535a2.093,2.093,0,0,1-2.1-2.1V276.4h8.634v-4.2h-8.634v-8.65a2.1,2.1,0,0,1,2.1-2.1h6.535v-4.194l-6.535,0A6.243,6.243,0,0,0,408.265,259.1Z" transform="translate(-272.242 -248.179)"/><g transform="translate(0 58.466)"><rect class="n" width="147.009" height="23.613"/></g><g transform="translate(10.222 33.598)"><rect class="b" width="112.594" height="7.474"/></g><g transform="translate(10.223 22.389)"><rect class="b" width="37.064" height="7.476"/></g><g transform="translate(52.491 22.39)"><rect class="b" width="15.427" height="7.473"/></g><g transform="translate(62.281 11.177)"><rect class="b" width="15.427" height="7.476"/></g><g transform="translate(107.388 22.389)"><rect class="b" width="15.426" height="7.476"/></g><g transform="translate(10.222 90.222)"><rect class="b" width="15.427" height="7.476"/></g><g transform="translate(87.127 90.225)"><rect class="b" width="7.714" height="7.473"/></g><g transform="translate(98.471 90.223)"><rect class="b" width="48.538" height="7.473"/></g><g transform="translate(31.861 90.223)"><rect class="b" width="48.294" height="7.473"/></g><g transform="translate(89.555 11.176)"><rect class="b" width="33.261" height="7.477"/></g><g transform="translate(10.224 11.177)"><rect class="b" width="33.259" height="7.476"/></g></g><g transform="translate(244.353 186.321)"><path class="y" d="M293.664,278.258c-1.437-4.449-14.893,1.325-10.107,7.272,6.494,8.1,25.392,22.916,27.011,23.8,1.788.981,5.623,1.022,9.631.72.026-2.944.129-5.718.264-8.317C310.015,295.742,296.326,286.564,293.664,278.258Z" transform="translate(-282.361 -264.339)"/><path class="g" d="M337.324,293.163a11.429,11.429,0,0,1-3.06,1.622c1.272-.221,1.289.578,2.65.538.515-.171,2.088-1.98,1.759-2.416C338.223,292.187,337.808,292.763,337.324,293.163Z" transform="translate(-259.92 -257.449)"/><path class="g" d="M346.408,294.526a20.286,20.286,0,0,0-3.12-.343c-.252-.019-3.86-.288-5.468-.229a28.815,28.815,0,0,0-4,.379,28.8,28.8,0,0,0-.746,5.754c2.274-.033,9.334-.717,9.5-.7,2.819.28,3.559-.571,3.08-1.217-.118-.158,1.809-.6,1.49-1.322a.92.92,0,0,0,.444-.931A3.056,3.056,0,0,0,346.408,294.526Z" transform="translate(-260.443 -256.85)"/><path class="m" d="M331.793,300.064c-4.106-.875-8-1.7-10.907-2.218a22.713,22.713,0,0,0-1.647-1.745c-3.543-3.385-8.221-9.163-12.746-14.749-4.5-5.556-8.752-10.8-11.307-12.913a1.672,1.672,0,0,0-1.468-.314c-2.344.564-10.31,10.028-11.141,12.313C280.1,287.269,306.3,304.63,313.8,308.285c7.18,3.62,31.76,4.934,42.216,4.413l.083-8.641C351.92,304.351,340.76,301.974,331.793,300.064Z" transform="translate(-282.413 -268.073)"/></g><g transform="translate(436.46 52.704)"><path class="n" d="M22.447,0H168.741a22.444,22.444,0,0,1,22.444,22.444V327.8a22.445,22.445,0,0,1-22.445,22.445H22.445A22.445,22.445,0,0,1,0,327.8V22.447A22.447,22.447,0,0,1,22.447,0Z" transform="translate(2.769 -4)"/><path class="z" d="M575.3,179.8H448.133a25.194,25.194,0,0,0-25.121,25.121V486.975a25.542,25.542,0,0,0,25.467,25.467H575.3a25.575,25.575,0,0,0,25.5-25.5V205.308A25.58,25.58,0,0,0,575.3,179.8Z" transform="translate(-413.528 -175.746)"/><rect class="b" width="146.247" height="217.935" rx="8" transform="translate(25.238 89.595)"/><rect class="a" width="103.856" height="56.515" transform="translate(61.359 97.67)"/><g transform="translate(65.9 163.927)"><rect class="a" width="21.549" height="5.368"/><rect class="a" width="47.182" height="5.368" transform="translate(32.273)"/><rect class="u" width="9.804" height="5.368" transform="translate(84.97)"/><rect class="a" width="32.476" height="5.371" transform="translate(62.298 8.499)"/><rect class="a" width="7.762" height="5.371" transform="translate(0 8.499)"/><rect class="a" width="42.893" height="5.371" transform="translate(11.745 8.499)"/><rect class="a" width="25.839" height="5.371" transform="translate(0 17.001)"/><rect class="a" width="63.727" height="5.371" transform="translate(31.048 17.001)"/></g><rect class="a" width="22.852" height="4.34" transform="translate(31.434 98.024)"/><rect class="a" width="22.852" height="4.338" transform="translate(31.434 110.205)"/><rect class="a" width="22.852" height="4.338" transform="translate(31.434 122.384)"/><rect class="a" width="22.852" height="4.341" transform="translate(31.434 134.563)"/><rect class="a" width="22.852" height="4.338" transform="translate(31.434 146.744)"/><rect class="a" width="22.852" height="4.338" transform="translate(31.434 158.923)"/><rect class="a" width="22.852" height="4.341" transform="translate(31.434 171.102)"/><rect class="a" width="22.852" height="4.341" transform="translate(31.434 183.281)"/><rect class="a" width="22.852" height="4.338" transform="translate(31.434 195.462)"/><rect class="a" width="133.781" height="72.801" transform="translate(31.77 211.296)"/><path class="aa" d="M451.986,185.6a16.864,16.864,0,0,0,16.864,16.866h60.973A16.866,16.866,0,0,0,546.689,185.6V178.8h-94.7Z" transform="translate(-400.96 -181.18)"/><path class="b" d="M1.614,0H39.1a1.614,1.614,0,0,1,1.614,1.614V3.061A1.615,1.615,0,0,1,39.1,4.677H1.615A1.615,1.615,0,0,1,0,3.061V1.614A1.614,1.614,0,0,1,1.614,0Z" transform="translate(78.02 10.679)"/><path class="ab" d="M485.834,179.9a2.713,2.713,0,1,0,2.708,2.711A2.711,2.711,0,0,0,485.834,179.9Z" transform="translate(-387.454 -178.705)"/><rect class="ac" width="81" height="20" rx="10" transform="translate(57.771 240.296)"/></g><g transform="translate(501.235 141.446)"><path class="g" d="M541.068,348.77c.122,3.855,16.15,85.12,16.15,85.12a6.88,6.88,0,0,0,5.212-1.731s-3.718-80.826-3.746-82.5C557.453,351.153,543.434,350.228,541.068,348.77Z" transform="translate(-427.092 -188.192)"/><path class="ad" d="M556.944,321.85c-7.362,1.824-14.673,3.643-22.11,4.881l.525,5.044c2.258,1.428,4.3,26.511,10.818,52.507,7.545,30.115,12.891,59.423,12.891,59.423a5.436,5.436,0,0,1,6.541-.873s-1.3-82.031-2.538-122.578C561.13,320.813,559.091,321.318,556.944,321.85Z" transform="translate(-429.796 -200.562)"/><path class="ae" d="M558.751,407.193a12.982,12.982,0,0,1-1.2-1.275s-4.112-.972-5.38,2.045c0,0,.006,3.55.961,4.83.549.737,3.7,4.06,5.245,4.766,1.242.569,3.17.493,5.347.179s4.736-1.739,4.6-3.012C568.061,412.2,560.436,408.813,558.751,407.193Z" transform="translate(-422.277 -163.467)"/><path class="ae" d="M557.286,408.231c-2.129-1.487-5.79,1.075-3.309,4.508a19.891,19.891,0,0,0,4.418,4.016,8.837,8.837,0,0,0,4.5.148c1.832-.265,3.989-1.464,3.876-2.536C566.549,412.242,559.479,409.759,557.286,408.231Z" transform="translate(-421.853 -162.586)"/><g transform="translate(0 42.824)"><path class="g" d="M467.623,290.467c-.357.414,1.094,2.324,1.6,2.529,1.355.126,1.425-.667,2.678-.364a11.382,11.382,0,0,1-2.946-1.821C468.495,290.381,468.119,289.781,467.623,290.467Z" transform="translate(-458.976 -256.443)"/><path class="g" d="M471.488,291.622c-1.6-.165-5.219-.132-5.473-.129a20.139,20.139,0,0,0-3.136.138,3.063,3.063,0,0,0-1.272,1.31.921.921,0,0,0,.384.958c-.367.7,1.527,1.266,1.4,1.414-.52.617.163,1.516,2.994,1.419.171-.006,7.17,1.14,9.437,1.319a28.758,28.758,0,0,0-.368-5.791A29.115,29.115,0,0,0,471.488,291.622Z" transform="translate(-461.575 -255.864)"/><path class="g" d="M511.585,289.269a4.175,4.175,0,0,0-1.286-.205c-6.855.155-32.124,5.13-39.292,4.157a22.737,22.737,0,0,1-.125,5.782c11.82,1.369,41.636,1.46,43.491-2.921C516.073,292.072,513.641,289.907,511.585,289.269Z" transform="translate(-457.538 -256.916)"/><path class="g" d="M524.76,269.784c-5.144,3.708-18.083,19.561-25.728,25.966-9.378,7.854-.55,11.591,3.057,10.131,9.5-3.85,33.737-18.93,32.252-24.06C533.7,279.6,525.692,269.115,524.76,269.784Z" transform="translate(-447.14 -265.293)"/><path class="w" d="M535.395,266.647c-5.3,6.727-8.3,10.219-13.152,15.469-4.881,5.279-9.928,10.738-13.684,13.882a22.518,22.518,0,0,0-1.759,1.636c-2.936.321-6.875.893-11.029,1.5-9.073,1.316-20.364,2.956-24.519,2.392l-.483,8.627c10.4,1.207,35.013,1.507,42.417-1.637,7.725-3.157,25.924-13.131,32.794-17.066C548.089,290.239,535.713,266.245,535.395,266.647Z" transform="translate(-457.588 -266.642)"/></g><path class="g" d="M521.008,352.079c.146,1.672,4.816,82.446,4.816,82.446a6.864,6.864,0,0,0,5.362,1.181s7.529-82.484,7.251-86.333C536.236,351.068,522.387,353.439,521.008,352.079Z" transform="translate(-435.794 -187.931)"/><path class="ad" d="M515.981,307.072c-.8,5.735,11.393,144.163,11.393,144.163a5.443,5.443,0,0,1,6.6.191s2.281-29.7,6.669-60.437c3.787-26.528,3.223-51.69,5.322-53.344v-28.12C535.19,310.234,519.554,308.638,515.981,307.072Z" transform="translate(-437.991 -206.28)"/><path class="u" d="M554.729,312.97c-10.735,1.343-21.494,1.408-32.289,1.629-2.492.052-4.935.1-7.324.009.274,9-.462,14.514.652,22.4,21.223,3.529,44.412,4.957,53.394,2.042,1.616-.523,5.919-2.4,6.131-2.941a171.053,171.053,0,0,0-2.092-28.1A65.465,65.465,0,0,1,554.729,312.97Z" transform="translate(-438.35 -205.874)"/><path class="g" d="M538.375,249.185c-.75.552-8.524,4.856-10.742,4.518.016.617,1.787,5.744.347,9.238.615,3.255,9.82,5.985,12.311.479C539.257,261.848,537.933,252.182,538.375,249.185Z" transform="translate(-432.92 -231.391)"/><path class="g" d="M532.172,241.669c-4.082-.284-8.036.661-8.944,4.516-.327,1.379.255,13.85,6.905,15.746,2.813.8,8.223-4,8.449-7.281,0,0,.311-4.466.314-4.511C539.2,245.8,536.56,241.975,532.172,241.669Z" transform="translate(-434.861 -234.672)"/><path class="w" d="M545.908,258.611a8.233,8.233,0,0,1-6.137,2.174c-4.253-.271-5.853-1.933-5.853-1.933s-7.933,2.837-10.134,3.713c-6.6,2.632-8.085,8.194-7.517,14.195.139,1.457-4.9,48.73-.551,79.5,1.028-.073,3.7-.115,5.01-.143l.974-19.964,4.241,19.934c13.617.076,34.162,1.027,43.328-1.239l.384-18.087,2.82,16.894c.691-.411,2.716-1.2,2.928-1.746.826-28.3-5.94-69.439-6.806-72.9C563.49,258.611,545.908,258.611,545.908,258.611Z" transform="translate(-438.859 -227.302)"/><path class="ae" d="M527.274,407.809a13.356,13.356,0,0,1-1.067,1.389c-1.508,1.789-8.74,5.95-8.74,8.488,0,1.279,2.694,2.43,4.891,2.516s4.124-.036,5.3-.727c1.467-.866,4.255-4.5,4.724-5.288.817-1.372.456-4.9.456-4.9C531.262,406.417,527.274,407.809,527.274,407.809Z" transform="translate(-437.33 -162.728)"/><path class="ae" d="M527.085,410.11c-2.023,1.749-8.8,4.951-8.8,7.087,0,1.078,2.268,2.047,4.118,2.119a8.766,8.766,0,0,0,4.462-.612,19.955,19.955,0,0,0,3.979-4.453C532.955,410.58,529.049,408.412,527.085,410.11Z" transform="translate(-436.975 -161.838)"/><path class="o" d="M542.7,238.868c-6.369-5.034-17.16-.224-20.009,6.314-2.126,4.878-4.078,1.477-3.871.184-.648,3.245.713,6.061,6.988,5.613,1.319-.093-2.921,1.2-2.921,1.2s6.65,13.921,17.015,10.558a15.933,15.933,0,0,0,5.77-4s-3.358.543-1.58-2.185C547.54,251.262,548.318,243.309,542.7,238.868Z" transform="translate(-436.809 -236.775)"/></g><g transform="translate(670.155 152.064)"><g transform="translate(95.019 43.766)"><path class="g" d="M682.263,321.651a11.638,11.638,0,0,1-3.435-.446c1.166.555.718,1.216,1.851,1.969.519.159,2.849-.409,2.835-.955C683.561,321.373,682.89,321.6,682.263,321.651Z" transform="translate(-631.272 -254.534)"/><path class="g" d="M687.221,326.25c-.195-.163-2.981-2.468-4.33-3.349a28.389,28.389,0,0,0-3.481-2,28.511,28.511,0,0,0-3.934,4.263c1.873,1.288,8.029,4.81,8.158,4.924,2.138,1.857,3.233,1.59,3.217.786,0-.2,1.825.555,1.979-.218a.919.919,0,0,0,.9-.5,3.073,3.073,0,0,0-.161-1.82A19.951,19.951,0,0,0,687.221,326.25Z" transform="translate(-632.727 -254.667)"/><path class="g" d="M662.619,275.674c-.3-1.111-13.122,1.986-15.025,3.3-4.387,3.047,4.928,30.028,9.877,39.006,1.88,3.408,11.089,6.072,8.759-5.939C664.331,302.255,664.277,281.794,662.619,275.674Z" transform="translate(-645.317 -274.387)"/><path class="g" d="M661.343,301.819a4.063,4.063,0,0,0-1.126-.652c-2-.8-5.253-.652-6.461,3.531-1.319,4.569,21.887,23.29,31.928,29.678a22.771,22.771,0,0,1,3.547-4.571C683.051,326.047,666.569,306.257,661.343,301.819Z" transform="translate(-642.172 -263.392)"/><path class="af" d="M674.838,321.891c-2.729-3.047-5.314-5.936-7.308-8.012a21.758,21.758,0,0,0-.292-2.321c-.842-4.7-1.2-11.932-1.553-18.93-.347-6.96-.677-13.532-1.474-16.659a1.628,1.628,0,0,0-.975-1.09c-2.168-.9-13.876,1.963-15.843,3.285-5.871,3.954,4.762,32.669,8.565,39.858,3.567,6.975,22.152,22.136,30.68,27.738l5.033-6.752C688.21,336.831,680.795,328.548,674.838,321.891Z" transform="translate(-645.66 -274.705)"/></g><path class="w" d="M582.46,393.385A3.643,3.643,0,0,0,579.8,394.7c-.543.743-.159,3.607-.383,5.3-.179,1.352.46,3.173,1.4,5.16s3.05,4.019,4.228,3.52c2.336-.991.7-8.154,1.758-10.24.548-1.084,1.5-2.529,1.5-2.529l-4.035-3.144S583.672,392.618,582.46,393.385Z" transform="translate(-579.389 -179.732)"/><path class="g" d="M581.531,393.566s.176,2.955,1.035,3.63a7.5,7.5,0,0,0,3.309,1.419,11.123,11.123,0,0,1,1.8-2.5l-4.086-3.784S582.741,392.8,581.531,393.566Z" transform="translate(-578.46 -179.913)"/><path class="ag" d="M623.132,383.677c-4.258,10.672-41.293,45.058-41.293,45.058,1.018,3.091,4.693,4.032,4.845,3.84,0,0,45.8-25.083,54.258-41.021,17.671-33.3,35.182-68.058,36.02-70.967-3.9-.023-18.834-4.925-28.388-9.952C648.573,310.635,633.061,358.785,623.132,383.677Z" transform="translate(-578.326 -215.353)"/><path class="g" d="M642.9,349.383c-.278,3.844,7.251,89.2,7.251,89.2a6.887,6.887,0,0,0,5.362-1.183s4.67-83.644,4.818-85.312C658.952,353.446,645.1,351.076,642.9,349.383Z" transform="translate(-551.842 -198.545)"/><path class="w" d="M654.492,411.4c-.783-.926-1.741-2.363-1.741-2.363l-4.473,2.485s-.363.492-.13,1.907a3.645,3.645,0,0,0,.172,2.959c.469.79,3.43,2,4.724,2.419a14.967,14.967,0,0,0,5.3.728c2.2-.086,4.891-1.237,4.891-2.518C663.234,414.481,656,413.188,654.492,411.4Z" transform="translate(-549.667 -172.667)"/><path class="g" d="M647.843,411.134s.1.961.331,2.376c0,0,2.789.991,3.745.465a7.488,7.488,0,0,0,2.6-2.493,11.1,11.1,0,0,1-1.6-2.631Z" transform="translate(-549.694 -172.748)"/><path class="ag" d="M639.182,309.535v28.118c2.1,1.653,1.537,26.813,5.322,53.344,4.387,30.735,6.67,63.306,6.67,63.306,2.186,2.41,6.535.044,6.6-.191,0,0,12.193-141.3,11.394-147.031C665.591,308.648,649.954,310.241,639.182,309.535Z" transform="translate(-553.451 -216.894)"/><path class="ah" d="M624.3,311.689s-1.2,11.8-1.666,21.4c0,0,15.882,5.173,38.436,1.652l2.2-4.684,1.559,4.683c4.962-.082,7.9-.437,11.077-3.372,1.587-1.467.272-16.838.272-16.838Z" transform="translate(-560.632 -214.896)"/><g transform="translate(60.258 113.952)"><g transform="translate(19.328)"><g transform="translate(20.936)"><path class="ai" d="M649.5,323.656l4.5,9.006,3.409-1.7-2.945-5.9Z" transform="translate(-649.498 -323.656)"/></g><g transform="translate(4.812 7.118)"><path class="ai" d="M638.253,333.432l2.943,5.9,3.411-1.7-4.5-9.009Z" transform="translate(-638.253 -328.621)"/></g><g transform="translate(4.812)"><path class="ai" d="M640.111,330.775l-1.858,4.811,21.084-10.524-4.961-1.406Z" transform="translate(-638.253 -323.656)"/></g><g transform="translate(0 2.434)"><path class="ai" d="M634.9,342.957l24.4,58,42.554-21.241-31.683-54.361Z" transform="translate(-634.896 -325.353)"/></g></g><g transform="translate(0 0.112)"><g transform="translate(42.472 3.61)"><path class="s" d="M651.038,340.621l4.023.863,2.018-9.409-2.957-5.822Z" transform="translate(-651.038 -326.252)"/></g><g transform="translate(21.622)"><path class="s" d="M636.5,337.241l4.023.862,3.082-14.369-5.087,4.1Z" transform="translate(-636.496 -323.734)"/></g><g transform="translate(23.639)"><path class="ab" d="M642.99,323.734l-5.087,4.1,24.873,5.335-2.957-5.822Z" transform="translate(-637.903 -323.734)"/></g><g transform="translate(0 9.586)"><path class="aj" d="M621.416,373.38l50.2,10.77,5.115-44.806-41.605-8.925Z" transform="translate(-621.416 -330.42)"/></g></g></g><path class="g" d="M651.244,261.386c-2.211.383-10.071-3.761-10.832-4.3.5,2.988-.175,11.344-1.177,12.937,2.6,5.453,11.614,5.238,12.161,1.971C649.885,268.534,651.24,262,651.244,261.386Z" transform="translate(-553.428 -238.58)"/><path class="af" d="M674.631,284.217c.652-4.495-.635-9.983-6.28-13.1-1.455-.8-9.414-3.035-9.414-3.035s-1.812,2.406-4.015,2.294c-3.207-.162-8.147-4.266-8.147-4.266s-6.795,2.027-9.086,2.63c-6.875,1.809-8.844,7.157-9.186,13.177-.128,2.251-11.386,46.511-4.326,53.621,5.334,5.371,46.387,5.6,52.637,2.453C681.4,335.692,672.354,299.889,674.631,284.217Z" transform="translate(-560.969 -234.666)"/><path class="ak" d="M640.485,298.17c-.017-8.743-1.8-17.068-.68-25.338a8.057,8.057,0,0,1-2.4,1.646c-14.139,3.913-13.937,33.935-11.181,42.74,1.918,6.129,9.073,14.053,17.16,20.807C638.55,326.972,640.507,310.316,640.485,298.17Z" transform="translate(-559.713 -231.752)"/><g transform="translate(66.166 39.066)"><path class="g" d="M649.42,325.19a11.568,11.568,0,0,1-3.127-1.487c.935.888.305,1.375,1.148,2.445.444.314,2.835.5,2.991-.027C650.739,325.33,650.029,325.342,649.42,325.19Z" transform="translate(-616.533 -248.75)"/><path class="g" d="M653.106,330.734c-.135-.216-2.068-3.27-3.075-4.528a28.8,28.8,0,0,0-2.69-2.985,28.729,28.729,0,0,0-5.064,2.833c1.382,1.807,6.141,7.066,6.228,7.211,1.457,2.429,2.582,2.515,2.816,1.745.056-.186,1.563,1.093,1.948.409a.919.919,0,0,0,1.011-.2,3.078,3.078,0,0,0,.414-1.781A20.209,20.209,0,0,0,653.106,330.734Z" transform="translate(-618.275 -248.959)"/><path class="g" d="M630.936,272.807c-5.114,1.534-4.633,30.077-2.714,40.146.73,3.823,8.659,9.211,10.17-2.929,1.232-9.9,7.53-29.367,7.853-35.7C646.3,273.177,633.156,272.141,630.936,272.807Z" transform="translate(-624.957 -270.919)"/><path class="g" d="M635.258,298.518c-1.652-1.381-4.79-2.248-7.235,1.353-2.673,3.934,13.577,28.932,21.14,38.117a22.683,22.683,0,0,1,4.79-3.239c-4.709-5.491-14.236-29.421-17.826-35.263A4.1,4.1,0,0,0,635.258,298.518Z" transform="translate(-624.585 -260.194)"/><path class="af" d="M638.894,311.837a21.612,21.612,0,0,0,.442-2.3c.658-4.73,7.955-31.552,8.165-34.772a1.622,1.622,0,0,0-.588-1.339c-1.781-1.531-13.8-2.439-16.081-1.792-6.806,1.936-5.609,32.533-4.224,40.546,1.227,7.738,14.19,27.917,20.559,35.888l6.879-4.856c-2.614-3.141-7.093-13.316-10.69-21.492C641.706,317.978,640.146,314.431,638.894,311.837Z" transform="translate(-625.536 -271.427)"/></g><path class="k" d="M656.313,267.668a22.625,22.625,0,0,0-1.52-12.507c-2.161-2.835-9.731,6.279-9.8,6.39,1.265,2.865,4.3,5.752,3.9,9.549-.394,3.693-1.686,5.36,1.121,13.783,4.032,12.107-1.5,25.761,1.213,27,2.471,1.133,10.014-6.074,10.054-19.795.009-2.353-.472-7.272-2.62-10.736A20.039,20.039,0,0,1,656.313,267.668Z" transform="translate(-550.928 -239.654)"/><path class="g" d="M648.21,248.958c-4.377.4-7.578,4.988-7.188,9.325,0,.044.4,4.5.4,4.5.3,3.27,5.8,7.963,8.6,7.1,6.611-2.033,6.935-14.509,6.583-15.884C655.619,250.171,652.288,248.593,648.21,248.958Z" transform="translate(-552.667 -242.13)"/><path class="k" d="M658.74,247.357a6.48,6.48,0,0,0-4.235-.492s-.12-.737-4.145-2.164A11.805,11.805,0,0,0,637.5,249a19.963,19.963,0,0,0-3.19,19.723,17.442,17.442,0,0,1-1.174,15.833c-2.7,4.284-2.555,9.91-2.122,12.557,2.531,15.44,15.488,22.2,19.105,20.482,3.97-1.891-7.038-16.268-2.979-30.623,2.826-9.989-.568-12.8-1.841-16.88-1.666-5.355.171-12.6,2.264-15.372,2.3-3.05,7.307-3.855,7.307-3.855s7.32,1.408,5.481,13.055C663.892,260.393,663.627,249.665,658.74,247.357Z" transform="translate(-557.102 -244.18)"/><path class="g" d="M639.521,256.852a3.928,3.928,0,0,0,2.306,3.035c.464-1.18,1.409-3.563,1.795-5.053a3.711,3.711,0,0,0-1.835-.591C640.652,254.221,639.543,255.719,639.521,256.852Z" transform="translate(-553.304 -239.815)"/></g><g transform="translate(650.498 127.754)"><path class="ab" d="M586.774,227.225c-10.1,0-21.1,7.817-21.1,20.86,0,19.848,21.146,40.823,21.146,40.823s21.146-21.316,21.146-40.823C607.97,235.042,596.3,227.225,586.774,227.225Zm.191,33.069a12.24,12.24,0,1,1,12.242-12.24A12.355,12.355,0,0,1,586.965,260.294Z" transform="translate(-565.679 -227.225)"/></g></g></svg>