<svg xmlns="http://www.w3.org/2000/svg" xmlns:xlink="http://www.w3.org/1999/xlink" width="960" height="1080" viewBox="0 0 960 1080">
  <defs>
    <style>
      .cls-1 {
        clip-path: url(#clip-Artboard_1);
      }

      .cls-2 {
        opacity: 0.65;
      }

      .cls-3 {
        fill: #028adc;
      }

      .cls-4 {
        fill: #88cef9;
      }

      .cls-5 {
        fill: #0377bf;
      }

      .cls-6 {
        opacity: 0.72;
      }
      .cls-7 {
        fill: #32B1FF;
      }

      .cls-8 {
        fill: #d2d2d2;
      }

      .cls-9 {
        fill: #969696;
      }

      .cls-10 {
        opacity: 0.33;
        fill:#fff;
      }
      .bg-w{
        fill: #fff;
      }

      .cls-11 {
        fill: #0093ff;
      }

      .cls-12 {
        fill: #ffd457;
      }

      .cls-13 {
        fill: #005589;
      }

      .cls-14 {
        fill: #f3f4e9;
      }

      .cls-14, .cls-15, .cls-16 {
        font-size: 6px;
        font-family: Montserrat-Regular, Montserrat;
      }

      .cls-15, .cls-16 {
        fill: #37366a;
      }

      .cls-15 {
        opacity: 0.57;
      }

      .cls-17, .cls-19, .cls-23 {
        fill: none;
        stroke-miterlimit: 10;
      }

      .cls-17 {
        stroke: #37366a;
      }

      .cls-17, .cls-19 {
        stroke-width: 0.5px;
      }

      .cls-18 {
        opacity: 0.52;
      }

      .cls-19 {
        stroke: #50c3e2;
      }

      .cls-20 {
        fill: #6756ad;
        opacity: 0.25;
      }

      .cls-21 {
        fill: #f5ba9a;
      }

      .cls-22 {
        fill: #343434;
      }

      .cls-23 {
        stroke: #b96944;
        stroke-width: 0.05px;
      }

      .cls-24 {
        fill: #fd5838;
      }

      .cls-25 {
        fill: #5d95ba;
      }

      .cls-26 {
        fill: #8fcaec;
      }

      .cls-27 {
        fill: #f49e78;
      }

      .cls-28 {
        fill: #514540;
      }

      .cls-29 {
        opacity: 0.28;
      }

      .cls-30 {
        fill: #f28279;
      }

      .cls-31 {
        fill: url(#linear-gradient);
      }

      .cls-32 {
        fill: url(#linear-gradient-2);
      }

      .cls-33 {
        fill: url(#linear-gradient-3);
      }
    </style>
    <linearGradient id="linear-gradient" y1="0.5" x2="1" y2="0.5" gradientUnits="objectBoundingBox">
      <stop offset="0" stop-color="#c3211b"/>
      <stop offset="0" stop-color="#c52619"/>
      <stop offset="0.003" stop-color="#dd5d0e"/>
      <stop offset="0.006" stop-color="#ee8606"/>
      <stop offset="0.008" stop-color="#f99e01"/>
      <stop offset="0.009" stop-color="#fda800"/>
    </linearGradient>
    <linearGradient id="linear-gradient-2" y1="0.5" x2="1" y2="0.5" gradientUnits="objectBoundingBox">
      <stop offset="0" stop-color="#c3211b"/>
      <stop offset="0.128" stop-color="#cd3b16"/>
      <stop offset="0.423" stop-color="#e2720c"/>
      <stop offset="0.677" stop-color="#f19b05"/>
      <stop offset="0.878" stop-color="#fbb301"/>
      <stop offset="1" stop-color="#ffbd00"/>
    </linearGradient>
    <linearGradient id="linear-gradient-3" x1="0.5" y1="1" x2="0.5" gradientUnits="objectBoundingBox">
      <stop offset="0" stop-color="#fda800"/>
      <stop offset="0.136" stop-color="#f99e01"/>
      <stop offset="0.359" stop-color="#ee8606"/>
      <stop offset="0.642" stop-color="#dd5d0e"/>
      <stop offset="0.97" stop-color="#c52619"/>
      <stop offset="1" stop-color="#c3211b"/>
    </linearGradient>
    <clipPath id="clip-Artboard_1">
      <rect width="960" height="1080"/>
    </clipPath>
  </defs>
  <g id="Artboard_1" data-name="Artboard – 1" class="cls-1">
    <rect class="cls-7" width="960" height="1080"/>
    <g id="Group_10742" data-name="Group 10742" class="cls-2" transform="translate(143.341 -983.729) rotate(48)">
      <g id="Group_10634" data-name="Group 10634" transform="translate(695.671 697.539)">
        <path id="Path_6666" data-name="Path 6666" class="cls-3" d="M706.478,697.539l50.91,56.433L720.85,744.51Z" transform="translate(-683.356 -697.539)"/>
        <path id="Path_6667" data-name="Path 6667" class="cls-4" d="M695.671,767.036l23.122-69.5,14.372,46.971Z" transform="translate(-695.671 -697.539)"/>
        <path id="Path_6668" data-name="Path 6668" class="cls-5" d="M769.7,728.955,734.44,746.742l-38.769-4.723,37.494-22.526Z" transform="translate(-695.671 -672.522)"/>
      </g>
    </g>
    <g id="Group_10608" data-name="Group 10608" class="cls-6" transform="matrix(0.616, -0.788, 0.788, 0.616, -664.194, 700.914)">
      <path id="Path_6660" data-name="Path 6660" class="cls-7" d="M1310.566,589.381l35.267-7.213,23.707,27.8-36.292,7.213" transform="translate(63.081 184.438)"/>
      <path id="Path_6661" data-name="Path 6661" class="cls-8" d="M1337.683,688.586l36-6.161,11.122-36.663-37.023,7.213" transform="translate(47.817 148.642)"/>
      <path id="Path_6662" data-name="Path 6662" class="cls-9" d="M1282.444,634.13l24.146,27.948,10.829-35.612-22.682-27.8" transform="translate(78.91 175.15)"/>
    </g>
    <g id="Group_10741" data-name="Group 10741" class="cls-6" transform="matrix(0.616, -0.788, 0.788, 0.616, -1491.99, 1097.313)">
      <path id="Path_6660-2" data-name="Path 6660" class="cls-7" d="M1310.566,589.381l35.267-7.213,23.707,27.8-36.292,7.213" transform="translate(63.081 184.438)"/>
      <path id="Path_6661-2" data-name="Path 6661" class="cls-8" d="M1337.683,688.586l36-6.161,11.122-36.663-37.023,7.213" transform="translate(47.817 148.642)"/>
      <path id="Path_6662-2" data-name="Path 6662" class="cls-9" d="M1282.444,634.13l24.146,27.948,10.829-35.612-22.682-27.8" transform="translate(78.91 175.15)"/>
    </g>
    <g id="Group_10682" data-name="Group 10682" class="cls-6" transform="matrix(0.616, -0.788, 0.788, 0.616, -1401.754, 1586.914)">
      <path id="Path_6660-3" data-name="Path 6660" class="cls-7" d="M1310.566,589.381l35.267-7.213,23.707,27.8-36.292,7.213" transform="translate(63.081 184.438)"/>
      <path id="Path_6661-3" data-name="Path 6661" class="cls-8" d="M1337.683,688.586l36-6.161,11.122-36.663-37.023,7.213" transform="translate(47.817 148.642)"/>
      <path id="Path_6662-3" data-name="Path 6662" class="cls-9" d="M1282.444,634.13l24.146,27.948,10.829-35.612-22.682-27.8" transform="translate(78.91 175.15)"/>
    </g>
    <g id="Group_10739" data-name="Group 10739" transform="translate(98.029 193.535)">
      <g id="Group_10683" data-name="Group 10683" transform="translate(63.858 52.388)">
        <path id="Path_6744" data-name="Path 6744" class="cls-10" d="M60.455,169.373l180.662-.564L195.033,159.4s1.88-51.727-20.692-41.382a40.245,40.245,0,0,0-23.512,32.918s-8.466-20.691-20.692-13.167-17.869,20.691-17.869,20.691-4.388-14.888-12.227-15.732c-6.7-.723-19.45,13.439-26.133,21.4Z" transform="translate(-60.455 3.768)"/>
        <path id="Path_6745" data-name="Path 6745" class="cls-10" d="M367.062,215.967l149.033-.418-38.016-6.988s1.551-38.434-17.069-30.746-19.4,24.457-19.4,24.457-6.983-15.374-17.069-9.783A38.531,38.531,0,0,0,409.8,207.861s-3.62-11.06-10.086-11.687c-5.528-.536-16.045,9.984-21.556,15.9Z" transform="translate(129.801 41.089)"/>
        <path id="Path_6746" data-name="Path 6746" class="cls-10" d="M217.449,85.833l149.033-.465-38.016-7.759s1.551-42.672-17.069-34.136A33.2,33.2,0,0,0,292,70.627s-6.983-17.069-17.069-10.862S260.19,76.834,260.19,76.834,256.57,64.552,250.1,63.855c-5.528-.595-16.045,11.086-21.556,17.657Z" transform="translate(36.963 -42.343)"/>
      </g>
      <g id="Group_10707" data-name="Group 10707" transform="translate(229.296 26.156)">
        <path id="Path_6747" data-name="Path 6747" class="cls-7 bg-w" d="M428.564,70.077,417.23,74.011l-4.915-14.158a50.112,50.112,0,1,0-94.68,32.867l4.915,14.158-11.371,3.948a17.128,17.128,0,0,0-10.519,21.707l31.984,92.133a17.176,17.176,0,0,0,21.76,10.673l117.384-40.751a17.216,17.216,0,0,0,10.619-21.911L450.423,80.542A17.169,17.169,0,0,0,428.564,70.077ZM339.025,85.3A27.458,27.458,0,1,1,390.9,67.285l4.915,14.158L343.94,99.454Zm68.031,83.977,8.167,23.528a1.875,1.875,0,0,1-1.253,2.364l-11.264,3.91a1.846,1.846,0,0,1-2.312-1.126l-8.169-23.528a21.891,21.891,0,1,1,14.831-5.148Z" transform="translate(-77.422 -26.156)"/>
        <path id="Path_6748" data-name="Path 6748" class="cls-11" d="M342.028,356.1c-2.789-5.435,3.742-11.256,9.756-12.331s12.825-.251,17.613-4.045c6.395-5.064,6.067-16.106,13.152-20.15,5.686-3.244,13.215-.149,19.239-2.713,7.484-3.188,9.589-13.614,16.931-17.114,5.853-2.791,13.507.363,16.494,6.117s1.614,13.194-2.528,18.182c-3.24,3.9-8.036,6.636-10.049,11.29-3.152,7.289,1.823,16.121-1.078,23.514C416.2,372.507,390.9,368.4,386.5,382.389c-.977,3.115-.566,6.472-.822,9.728-.758,9.683-7.584,18.14-16.014,22.963s-18.292,6.5-27.982,7.174c-3.959.277-8.132.358-11.66-1.457-3.32-1.71-5.631-4.887-7.435-8.159-11.635-21.109-16.432-48.617,19.438-56.534" transform="translate(-68.53 142.976)"/>
        <path id="Path_6749" data-name="Path 6749" class="cls-12" d="M249.42,370.254c6.257-4.136,2.778-14.293-3.008-19.064s-13.567-7.992-16.406-14.935c-3.789-9.268,3.212-20.884-1.932-29.474-4.127-6.9-14.045-8.117-18.944-14.487-6.087-7.916-2.058-20.338-7.8-28.5-4.58-6.51-14.666-7.746-21.328-3.388s-9.671,13.139-8.245,20.971c1.117,6.124,4.6,11.937,3.949,18.127-1.018,9.694-11.658,16.147-13.008,25.8-2.492,17.827,27.05,28.672,23.326,46.284-.83,3.922-3.291,7.265-4.98,10.9-5.02,10.812-2.812,23.971,3.3,34.206S200,434.657,209.95,441.215c4.068,2.68,8.482,5.281,13.35,5.464,4.581.172,8.968-1.836,12.865-4.249,25.159-15.572,46.856-42.108,13.254-72.176" transform="translate(-162.545 117.607)"/>
        <g id="Group_10685" data-name="Group 10685" transform="translate(248.732 333.47)">
          <g id="Group_10684" data-name="Group 10684" transform="translate(0 23.772)">
            <path id="Path_6750" data-name="Path 6750" class="cls-7" d="M318.327,399.579c8.752-3.774,16.63-10.754,23.164-17.5,17.62-18.187,28.544-41.939,34.289-66.389,5.2-22.125,6.359-45,5.272-67.645-.092-1.917-3.086-1.928-2.992,0,2.441,50.871-7.66,113.3-53.189,144.264a49.487,49.487,0,0,1-8.054,4.683c-1.763.762-.24,3.34,1.51,2.585Z" transform="translate(-316.033 -246.605)"/>
          </g>
          <path id="Path_6751" data-name="Path 6751" class="cls-7" d="M353.156,291.266s2.883-16.481,24.718-19.09C377.874,272.176,369.909,291.679,353.156,291.266Z" transform="translate(-292.998 -206.966)"/>
          <path id="Path_6752" data-name="Path 6752" class="cls-7" d="M348.739,304s6.652-15.351,28.492-12.791C377.231,291.2,364.933,308.309,348.739,304Z" transform="translate(-295.739 -195.337)"/>
          <path id="Path_6753" data-name="Path 6753" class="cls-7" d="M343.015,315.412s9.922-13.47,30.633-6.082C373.648,309.33,357.83,323.245,343.015,315.412Z" transform="translate(-299.291 -185.285)"/>
          <path id="Path_6754" data-name="Path 6754" class="cls-7" d="M355.225,275.351s2.834-16.2,24.3-18.766C379.523,256.585,371.694,275.757,355.225,275.351Z" transform="translate(-291.714 -216.641)"/>
          <path id="Path_6755" data-name="Path 6755" class="cls-7" d="M357.871,262.491s-12.222-11.007-2.995-30.555C354.877,231.936,366.963,248.754,357.871,262.491Z" transform="translate(-294.069 -231.936)"/>
          <path id="Path_6756" data-name="Path 6756" class="cls-7" d="M362.55,270.466s-16.173-2.985-18.539-24.471C344.011,245.995,363.11,254,362.55,270.466Z" transform="translate(-298.673 -223.212)"/>
          <path id="Path_6757" data-name="Path 6757" class="cls-7" d="M361.555,285.7s-16.174-2.985-18.54-24.471C343.015,261.226,362.114,269.233,361.555,285.7Z" transform="translate(-299.291 -213.761)"/>
          <path id="Path_6758" data-name="Path 6758" class="cls-7" d="M358.288,300.437s-15.925-4.111-16.777-25.711C341.511,274.726,360,284.052,358.288,300.437Z" transform="translate(-300.224 -205.384)"/>
          <path id="Path_6759" data-name="Path 6759" class="cls-7" d="M353.761,314.688s-15.925-4.111-16.779-25.711C336.982,288.977,355.474,298.3,353.761,314.688Z" transform="translate(-303.035 -196.541)"/>
        </g>
        <g id="Group_10706" data-name="Group 10706" transform="translate(55.661 112.472)">
          <rect id="Rectangle_5" data-name="Rectangle 5" class="cls-13" width="232.415" height="455.725" rx="21.148"/>
          <rect id="Rectangle_6" data-name="Rectangle 6" class="cls-7 bg-w" width="210.956" height="426.218" rx="14.811" transform="translate(10.729 13.4)"/>
          <path id="Path_6760" data-name="Path 6760" class="cls-13" d="M362.826,105.327H349.107a7.622,7.622,0,0,0-7.621,7.623V118.4a7.622,7.622,0,0,1-7.623,7.621h-61.18a7.622,7.622,0,0,1-7.621-7.621V112.95a7.622,7.622,0,0,0-7.621-7.623H218.483v-3.91H362.826Z" transform="translate(-183.494 -91.927)"/>
          <g id="Group_10705" data-name="Group 10705" transform="translate(40.457 73.752)">
            <g id="Group_10704" data-name="Group 10704">
              <g id="Group_10687" data-name="Group 10687" transform="translate(30.762 283.647)">
                <rect id="Rectangle_7" data-name="Rectangle 7" class="cls-13" width="87.782" height="19.71" rx="0.979"/>
                <text id="Register" class="cls-14" transform="translate(28.746 11.512)"><tspan x="0" y="0">Register</tspan></text>
              </g>
              <g id="Group_10688" data-name="Group 10688" transform="translate(0 47.498)">
                <text id="Email_Address" data-name="Email Address" class="cls-15" transform="translate(0 6)"><tspan x="0" y="0">Email Address</tspan></text>
                <text id="youremail_gmail.c" data-name="youremail@gmail.c" class="cls-16" transform="translate(7.471 27.694)"><tspan x="0" y="0">youremail@gmail.c</tspan></text>
                <rect id="Rectangle_8" data-name="Rectangle 8" class="cls-17" width="160.568" height="24.194" rx="2.759" transform="translate(0 13.707)"/>
              </g>
              <g id="Group_10693" data-name="Group 10693" transform="translate(0 101.351)">
                <g id="Group_10692" data-name="Group 10692">
                  <g id="Group_10689" data-name="Group 10689" class="cls-18">
                    <text id="Country" class="cls-16" transform="translate(0 6)"><tspan x="0" y="0">Country</tspan></text>
                  </g>
                  <g id="Group_10691" data-name="Group 10691" transform="translate(0 13.915)">
                    <g id="Group_10690" data-name="Group 10690" transform="translate(7.471 7.569)">
                      <text id="Your_text" data-name="Your text" class="cls-16" transform="translate(0 6)"><tspan x="0" y="0">Your text</tspan></text>
                    </g>
                    <rect id="Rectangle_9" data-name="Rectangle 9" class="cls-17" width="160.568" height="24.194" rx="2.759"/>
                  </g>
                </g>
              </g>
              <g id="Group_10698" data-name="Group 10698" transform="translate(0 158.212)">
                <g id="Group_10697" data-name="Group 10697">
                  <g id="Group_10694" data-name="Group 10694" class="cls-18">
                    <text id="City" class="cls-16" transform="translate(0 6)"><tspan x="0" y="0">City</tspan></text>
                  </g>
                  <g id="Group_10696" data-name="Group 10696" transform="translate(0 13.918)">
                    <g id="Group_10695" data-name="Group 10695" transform="translate(7.471 7.568)">
                      <text id="Your_City" data-name="Your City" class="cls-16" transform="translate(0 6)"><tspan x="0" y="0">Your City</tspan></text>
                    </g>
                    <rect id="Rectangle_10" data-name="Rectangle 10" class="cls-17" width="160.568" height="24.194" rx="2.759"/>
                  </g>
                </g>
              </g>
              <g id="Group_10703" data-name="Group 10703" transform="translate(0 215.351)">
                <g id="Group_10702" data-name="Group 10702">
                  <g id="Group_10699" data-name="Group 10699" class="cls-18">
                    <text id="Password" class="cls-16" transform="translate(0 6)"><tspan x="0" y="0">Password</tspan></text>
                  </g>
                  <g id="Group_10701" data-name="Group 10701" transform="translate(0 13.916)">
                    <g id="Group_10700" data-name="Group 10700" transform="translate(7.471 7.569)">
                      <text id="Entry_password" data-name="Entry password" class="cls-16" transform="translate(0 6)"><tspan x="0" y="0">Entry password</tspan></text>
                    </g>
                    <rect id="Rectangle_11" data-name="Rectangle 11" class="cls-17" width="160.568" height="24.194" rx="2.759"/>
                  </g>
                </g>
              </g>
            </g>
            <line id="Line_3" data-name="Line 3" class="cls-19" y2="8.537" transform="translate(68.247 69.73)"/>
          </g>
        </g>
      </g>
      <g id="Group_10714" data-name="Group 10714" transform="translate(275.018 284.231)">
        <path id="Path_6762" data-name="Path 6762" class="cls-20" d="M397.335,420.672c0-1.886-46.243-3.416-103.287-3.416s-103.289,1.53-103.289,3.416,46.243,3.416,103.289,3.416S397.335,422.558,397.335,420.672Z" transform="translate(-190.759 -41.546)"/>
        <g id="Group_10713" data-name="Group 10713" transform="translate(34.778)">
          <path id="Path_6763" data-name="Path 6763" class="cls-21" d="M261.228,287.053s10.264,15.85,12.588,8.981,3.745-11.071,3.745-11.071-2.914-4.779-4.458-3.309c-1.614,1.538-3.708-1.258-3.708-1.258Z" transform="translate(-181.809 -126.47)"/>
          <g id="Group_10708" data-name="Group 10708" transform="translate(95.021 21.749)">
            <path id="Path_6764" data-name="Path 6764" class="cls-21" d="M305.986,255.7l4.241-24.627c2.782-.9,5.647-3.048,4.665-6.377a4.891,4.891,0,0,0-3.324-3.121c-.577-.219-3.541-1.07-3.748.073,0-.016,1.612-8.876,1.612-8.876l-28.881-13.938-2.664,17.882c.041-.274-2.807-.914-3.192-.873a4.838,4.838,0,0,0-3.434,2.778c-1.5,3.351,1.4,7.587,5.035,7.644,0,0,.494,7.931,2.334,10.744s10.331,4.758,10.331,4.758l-.932,10.721Z" transform="translate(-270.856 -198.832)"/>
          </g>
          <g id="Group_10709" data-name="Group 10709" transform="translate(96.363 73.749)">
            <path id="Path_6765" data-name="Path 6765" class="cls-12" d="M315.226,237.806c-13.05-3.662-31.381-6.886-31.381-6.886l-12.16,86.6,51.23-1.582Z" transform="translate(-271.684 -230.92)"/>
          </g>
          <g id="Group_10710" data-name="Group 10710" transform="translate(139.904 38.993)">
            <path id="Path_6766" data-name="Path 6766" class="cls-12" d="M298.553,251.114a338.921,338.921,0,0,0,51.388,9.65c-3.9-17.75-6.038-31.32-11.138-46.4,4.87-1.233,14.371-3.662,19.24-4.894,0,0,16.135,56.211,11.238,63.706-8.334,12.753-49.842,4.356-49.842,4.356l-19.634-3.5Z" transform="translate(-298.553 -209.473)"/>
          </g>
          <g id="Group_10711" data-name="Group 10711" transform="translate(40.591 73.766)">
            <path id="Path_6767" data-name="Path 6767" class="cls-12" d="M248.843,256.865s54.991-26.9,57.519-25.907,4.675,13.46,4.675,13.46S291.1,257.1,260.276,271.428l28.038,38.165-13.969,10.02s-38.5-43.271-37.037-52.215C238.438,260.5,248.843,256.865,248.843,256.865Z" transform="translate(-237.268 -230.931)"/>
          </g>
          <path id="Path_6768" data-name="Path 6768" class="cls-21" d="M347.082,224.613s-2.275-15.909-2.547-16.362-.272-3.262-4.358-2.585c0,0-.272-5.041-2.632-5.132a21.368,21.368,0,0,0-4.993.546s-2.658-12.925-4.382-15.165c-1.883-2.449-4.515,4-.431,19.751,0,0,2.264,10.715,1.59,11.109-1.828,1.066-4.341.872-7.819-5.074-3.692-6.315-8.3-4.176-6.025.726s5.485,11.245,7.573,12.969,6.5,1.465,6.5,1.465l.648,2.048Z" transform="translate(-148.516 -185.411)"/>
          <g id="Group_10712" data-name="Group 10712" transform="translate(0 153.696)">
            <path id="Path_6769" data-name="Path 6769" class="cls-22" d="M359.812,285.329c-6.169,93.716-27.119,209.376-27.119,209.376l20.517,8.684H309.518l28.657-204.528h-9.817L255.865,503.521H212.22l24.831-9.054,72.466-214.213Z" transform="translate(-212.22 -280.254)"/>
          </g>
          <path id="Path_6770" data-name="Path 6770" class="cls-22" d="M311.891,224.588c2.442-4.883,5.3-16.735-2.115-20.03a76.189,76.189,0,0,1-10.785-6.145,18.787,18.787,0,0,0-15.375-2.773,14.127,14.127,0,0,0-2.432.911c-5.176,2.541-8.671,16.294-8.671,16.294l5.087,1.274s5.673,25.227,15,30.411l9.321,1.974,5.515,1.24Z" transform="translate(-174.808 -179.445)"/>
          <path id="Path_6771" data-name="Path 6771" class="cls-23" d="M292.411,201.559a32.866,32.866,0,0,0-.175-4.518" transform="translate(-162.568 -178.194)"/>
          <path id="Path_6772" data-name="Path 6772" class="cls-23" d="M292.491,201.191a1.269,1.269,0,0,0,.562-.7,17.52,17.52,0,0,1,1.988-3.222" transform="translate(-162.41 -178.051)"/>
        </g>
      </g>
      <g id="Group_10738" data-name="Group 10738" transform="translate(54.971 273.387)">
        <path id="Path_6773" data-name="Path 6773" class="cls-20" d="M261.549,405.329c0-1.886-46.243-3.416-103.289-3.416s-103.289,1.53-103.289,3.416,46.245,3.418,103.289,3.418S261.549,407.217,261.549,405.329Z" transform="translate(-54.971 -40.222)"/>
        <g id="Group_10737" data-name="Group 10737" transform="translate(6.69)">
          <path id="Path_6774" data-name="Path 6774" class="cls-22" d="M154.245,183.071a47.28,47.28,0,0,0-6.226-.744c-3.7-.344-7.069,2.052-9.867,4.49a32.47,32.47,0,0,0-6.625,8.882c-1.851,3.312-3.578,7.148-2.486,10.78a9.529,9.529,0,0,1,.724,2.789c-.039,3-4.179,4.137-5.474,6.848-1.6,3.35,1.666,7.861-.548,10.841-1.107,1.486-3.235,1.954-4.281,3.484a6.845,6.845,0,0,0-.723,4.223.875.875,0,0,0,.959,1.06c11.831,1.136,23.54-1.421,35.371-.285a20.137,20.137,0,0,0,4.293.107A19.979,19.979,0,0,0,165.2,233.6c10.225-4.661,20.462-5.868,30.454-11.011a2.251,2.251,0,0,0,1.073-.878,1.918,1.918,0,0,0,.12-1.061,6.98,6.98,0,0,0-4.738-5.811c-2.6-.817-5.725-.1-7.9-1.752-1.569-1.191-2.137-3.28-2.345-5.238-.418-3.977.034-8.579-2.846-11.353-2.254-2.173-5.873-2.41-8.137-4.573-1.29-1.233-1.985-2.949-3.026-4.4-3.048-4.241-8.239-6.7-13.611-4.448" transform="translate(-22.109 -176.548)"/>
          <g id="Group_10715" data-name="Group 10715" transform="translate(20.464 140.05)">
            <path id="Path_6775" data-name="Path 6775" class="cls-22" d="M163.628,268.322,97.681,477.014,71.727,487.022h38.518L184.7,290.408a3.247,3.247,0,0,1,3.037-2.1h0a3.249,3.249,0,0,1,3.23,3.593l-19.62,195.119h38.988L184.3,478.414s24.254-113.458,29.652-148.957-2.426-60.585-2.426-60.585S186.256,260.858,163.628,268.322Z" transform="translate(-71.727 -265.141)"/>
          </g>
          <g id="Group_10716" data-name="Group 10716" transform="translate(113.137 62.507)">
            <path id="Path_6776" data-name="Path 6776" class="cls-24" d="M128.914,222.9c6.046-6.315,30.075-7.041,38.761-3.474s24.669,49.711,24.669,49.711l-15.9,6.241L166.586,236.8l-30.913-4.259Z" transform="translate(-128.914 -217.291)"/>
          </g>
          <g id="Group_10717" data-name="Group 10717" transform="translate(111.466 66.617)">
            <path id="Path_6777" data-name="Path 6777" class="cls-24" d="M170.169,240.9s2.708-6.387,3.286-11.318-6.126-9.751-6.126-9.751l-36.371,9.425,2.261,21.665-5.336,43.774,46.214,1.718-4.644-55.329" transform="translate(-127.883 -219.827)"/>
          </g>
          <g id="Group_10718" data-name="Group 10718" transform="translate(116.572 84.012)">
            <path id="Path_6778" data-name="Path 6778" class="cls-25" d="M131.773,235.482a.727.727,0,0,1-.442-.147.738.738,0,0,1-.149-1.034l2.585-3.444a.738.738,0,1,1,1.181.886l-2.583,3.444A.741.741,0,0,1,131.773,235.482Z" transform="translate(-131.034 -230.561)"/>
          </g>
          <g id="Group_10719" data-name="Group 10719" transform="translate(94.225 144.084)">
            <path id="Path_6779" data-name="Path 6779" class="cls-26" d="M117.244,272.484l8.338-4.853" transform="translate(-117.244 -267.631)"/>
          </g>
          <g id="Group_10720" data-name="Group 10720" transform="translate(116.219 8.623)">
            <path id="Path_6780" data-name="Path 6780" class="cls-21" d="M144.822,238.324c-.506-4.831,1.966-9.73-5.827-12.852-10.744-4.3-13.048-41.349,6.359-41.432s18.454,24.369,18.377,31.629-6.471,9.109-8.069,11.737-.217,10.917-.217,10.917Z" transform="translate(-130.816 -184.04)"/>
          </g>
          <g id="Group_10721" data-name="Group 10721" transform="translate(111.764 30.543)">
            <path id="Path_6781" data-name="Path 6781" class="cls-21" d="M135.518,201.875a3.765,3.765,0,1,1-3.726-4.309A4.048,4.048,0,0,1,135.518,201.875Z" transform="translate(-128.067 -197.566)"/>
          </g>
          <g id="Group_10722" data-name="Group 10722" transform="translate(146.58 27.214)">
            <ellipse id="Ellipse_1" data-name="Ellipse 1" class="cls-21" cx="3.726" cy="4.308" rx="3.726" ry="4.308"/>
          </g>
          <path id="Path_6782" data-name="Path 6782" class="cls-7 bg-w" d="M289.756,252.158,284,237.577,121.3,301.448a34.716,34.716,0,1,0,6.484,16.3L251.69,267.573l6.8,14.967,15.113-6.923-5.32-11.909,4.9-2.593,5.761,11.457,10.811-5.772-5.988-12.217ZM93.572,344.389a22.459,22.459,0,1,1,22.459-22.459A22.459,22.459,0,0,1,93.572,344.389Z" transform="translate(-59.099 -142.196)"/>
          <g id="Group_10723" data-name="Group 10723" transform="translate(71.888 68.119)">
            <path id="Path_6783" data-name="Path 6783" class="cls-24" d="M144.709,220.754s-41.022,36.525-41.247,43.3,24.17,42.44,24.17,42.44l12.194-7.71-17.079-31.97,27.785-26.5s.911,6.156,3.132,7.832l1.238-24.374Z" transform="translate(-103.46 -220.754)"/>
          </g>
          <path id="Path_6784" data-name="Path 6784" class="cls-22" d="M159.816,193.929c-5.333.274-28.967,2.679-28.967,2.679s3.457-14.188,14.484-14.745C159.816,181.13,159.816,193.929,159.816,193.929Z" transform="translate(-14.577 -176.786)"/>
          <path id="Path_6785" data-name="Path 6785" class="cls-22" d="M131.248,204.535s19.151-1.794,22.507-10.833c0,0,6.359,8.129,10.083,7.722,0,0,.611-10.7-1.7-12.144s-31.7,1.538-31.7,1.538A46.679,46.679,0,0,0,131.248,204.535Z" transform="translate(-14.946 -172.411)"/>
          <path id="Path_6786" data-name="Path 6786" class="cls-21" d="M118.692,276.045s5.233,11.031,5.532,11.3.932,2.3,3.743.893c0,0,1.334,3.6,3.066,3.133a16.3,16.3,0,0,0,3.5-1.52s2.1,2.8,3.659,1.319c1.82-1.729.1-3.648-1.2-5.732,0,0-4.055-7.265-3.653-7.7,1.086-1.185,2.953-1.609,6.814,1.922,4.1,3.752,6.96,1.162,4.21-1.883s-6.513-6.924-8.415-7.706-5.045.4-5.045.4l-.932-1.339Z" transform="translate(-22.12 -122.617)"/>
          <path id="Path_6787" data-name="Path 6787" class="cls-24" d="M186.518,259.124s-2.938,8.349-8.069,9.752-33.9,7.245-33.9,7.245V264.742Z" transform="translate(-6.078 -128.825)"/>
          <path id="Path_6788" data-name="Path 6788" class="cls-21" d="M153.643,265.012H151.45a14.651,14.651,0,0,0-.8-2.044c-.9-1.46-12.943-2.993-12.723-1.416s2.2,1.966,6.448,2.753c0,0-15.884,3.852-14.39,5.111s11.4-1.633,11.4-1.633-10.749,3.5-9.987,5.879c.436,1.366,11.329-1.846,11.329-1.846s-11.092,3.97-9.127,5.306,14.233-1.672,15.413-2.094,1.635-2.7,1.635-2.7l2.995-.509Z" transform="translate(-15.176 -127.732)"/>
          <g id="Group_10724" data-name="Group 10724" transform="translate(129.404)">
            <path id="Path_6789" data-name="Path 6789" class="cls-22" d="M138.971,179.458c.421,1.757.6,3.944,1.606,5.481.418.637,1.447.042,1.026-.6-.93-1.418-1.1-3.572-1.486-5.2-.178-.742-1.324-.428-1.146.316Z" transform="translate(-138.952 -178.719)"/>
          </g>
          <g id="Group_10725" data-name="Group 10725" transform="translate(130.899 2.306)">
            <path id="Path_6790" data-name="Path 6790" class="cls-22" d="M140.98,184.165q.909-1.619,1.948-3.155c.428-.635-.6-1.23-1.026-.6q-1.04,1.539-1.946,3.155a.594.594,0,0,0,1.024.6Z" transform="translate(-139.875 -180.141)"/>
          </g>
          <g id="Group_10726" data-name="Group 10726" transform="translate(134.285 31.014)">
            <path id="Path_6791" data-name="Path 6791" class="cls-27" d="M141.982,198.144a27.263,27.263,0,0,0,.149,4.082c.081.7.015,1.938.5,2.466.276.3.854.282,1.2.335,1.3.2,2.616.352,3.92.527l-.209-.507a12.13,12.13,0,0,1-3.714,2.424c-.35.149-.049.661.3.512a12.576,12.576,0,0,0,3.834-2.517.3.3,0,0,0-.211-.507c-1.361-.181-4.134-.028-4.84-1.465-.663-1.35-.382-3.912-.337-5.351.013-.382-.58-.382-.593,0Z" transform="translate(-141.964 -197.857)"/>
          </g>
          <g id="Group_10727" data-name="Group 10727" transform="translate(139.8 29.448)">
            <path id="Path_6792" data-name="Path 6792" class="cls-28" d="M145.966,202.827c.172-1.355-.69-4.525,1.016-5.179,1.518-.582,2.475.679,2.713,1.959.149.8.293,1.608.439,2.41.068.376.64.217.572-.157-.358-1.969-.442-5.336-3.379-4.936-2.732.373-1.736,4.162-1.954,5.9-.049.379.546.374.593,0Z" transform="translate(-145.367 -196.891)"/>
          </g>
          <g id="Group_10728" data-name="Group 10728" transform="translate(124.475 30.259)">
            <path id="Path_6793" data-name="Path 6793" class="cls-28" d="M136.511,203.329c.17-1.355-.692-4.526,1.016-5.181,1.517-.582,2.475.679,2.713,1.959.149.8.292,1.608.439,2.411.068.374.64.216.572-.159-.358-1.969-.442-5.336-3.379-4.936-2.734.374-1.736,4.161-1.956,5.905-.047.378.548.374.595,0Z" transform="translate(-135.911 -197.391)"/>
          </g>
          <g id="Group_10729" data-name="Group 10729" transform="translate(129.119 39.358)">
            <path id="Path_6794" data-name="Path 6794" class="cls-27" d="M138.779,203.288c.638,4.941,9.005,5.931,12.079,2.933.274-.267-.146-.687-.42-.42-2.567,2.5-10.493,1.919-11.065-2.513-.049-.374-.643-.379-.595,0Z" transform="translate(-138.776 -203.006)"/>
          </g>
          <g id="Group_10730" data-name="Group 10730" transform="translate(128.415 39.1)">
            <path id="Path_6795" data-name="Path 6795" class="cls-27" d="M138.93,204.217a1.13,1.13,0,0,1,1.249-.771c.374.063.535-.51.157-.572a1.738,1.738,0,0,0-1.979,1.185c-.118.365.454.52.572.159Z" transform="translate(-138.342 -202.847)"/>
          </g>
          <g id="Group_10731" data-name="Group 10731" class="cls-29" transform="translate(122.222 37.068)">
            <path id="Path_6796" data-name="Path 6796" class="cls-30" d="M140.558,202.2c.264.663-.906,1.744-2.692,2.128a4.874,4.874,0,0,1-2.272,0,1.7,1.7,0,0,1-1.021-.648.587.587,0,0,1,.05-.57,1.793,1.793,0,0,1,.66-.591,7.365,7.365,0,0,1,2.035-.731C138.876,201.454,140.3,201.525,140.558,202.2Z" transform="translate(-134.521 -201.593)"/>
          </g>
          <g id="Group_10732" data-name="Group 10732" class="cls-29" transform="translate(141.705 35.709)">
            <path id="Path_6797" data-name="Path 6797" class="cls-30" d="M152.58,201.357c.264.663-.906,1.745-2.692,2.128a4.877,4.877,0,0,1-2.272,0,1.688,1.688,0,0,1-1.019-.65.579.579,0,0,1,.049-.569,1.779,1.779,0,0,1,.66-.591,7.362,7.362,0,0,1,2.035-.731C150.9,200.615,152.317,200.686,152.58,201.357Z" transform="translate(-146.543 -200.754)"/>
          </g>
          <g id="Group_10733" data-name="Group 10733" transform="translate(113.545 32.618)">
            <path id="Path_6798" data-name="Path 6798" class="cls-27" d="M130.861,198.847a1.879,1.879,0,0,0-1.684,2.218,2.148,2.148,0,0,0,2,2.031c.382.026.381-.567,0-.595-1.57-.11-2.069-3-.316-3.061.381-.013.384-.608,0-.593Z" transform="translate(-129.166 -198.847)"/>
          </g>
          <g id="Group_10734" data-name="Group 10734" transform="translate(113.585 33.716)">
            <path id="Path_6799" data-name="Path 6799" class="cls-27" d="M129.261,200.047a2.725,2.725,0,0,0,2.324,1.023c.379-.024.382-.619,0-.595a2.175,2.175,0,0,1-1.9-.849c-.238-.3-.656.125-.42.421Z" transform="translate(-129.191 -199.524)"/>
          </g>
          <g id="Group_10735" data-name="Group 10735" transform="translate(149.799 29.123)">
            <path id="Path_6800" data-name="Path 6800" class="cls-27" d="M151.75,201.206c1.285.3,1.995-.864,2.157-1.977a2.143,2.143,0,0,0-1.883-2.538c-.379-.034-.378.559,0,.593a1.558,1.558,0,0,1,1.324,1.689c-.068.755-.447,1.9-1.441,1.659-.371-.088-.53.485-.157.574Z" transform="translate(-151.538 -196.69)"/>
          </g>
          <g id="Group_10736" data-name="Group 10736" transform="translate(149.856 29.609)">
            <path id="Path_6801" data-name="Path 6801" class="cls-27" d="M152.088,199.268a3.134,3.134,0,0,0,1.023-1.906c.053-.374-.519-.535-.574-.157a2.629,2.629,0,0,1-.87,1.642c-.284.258.138.676.421.421Z" transform="translate(-151.573 -196.99)"/>
          </g>
        </g>
      </g>
    </g>
    <g id="Logo" transform="translate(-163.069 17.62)">
      <g id="Group_10479" data-name="Group 10479" transform="translate(631.069 405.868)">
        <path id="Path_6619" data-name="Path 6619" class="cls-13" d="M631.226,643.781v.864h-.157v-1.908h.548a.537.537,0,0,1,.394.135.529.529,0,0,1,.136.393.51.51,0,0,1-.072.271.429.429,0,0,1-.2.175.339.339,0,0,1,.209.16.591.591,0,0,1,.064.288v.18a.689.689,0,0,0,.017.16.257.257,0,0,0,.058.116v.031h-.161a.272.272,0,0,1-.056-.132,1.017,1.017,0,0,1-.015-.179v-.175a.411.411,0,0,0-.088-.276.3.3,0,0,0-.241-.1Zm0-.134h.373a.382.382,0,0,0,.3-.1.4.4,0,0,0,.094-.28.414.414,0,0,0-.092-.289.359.359,0,0,0-.279-.1h-.391Z" transform="translate(-631.069 -642.708)"/>
        <path id="Path_6620" data-name="Path 6620" class="cls-13" d="M655.29,643.709h-.75v.79h.862v.134h-1.019v-1.91h1.011v.139h-.854v.713h.75Z" transform="translate(-652.217 -642.695)"/>
        <path id="Path_6621" data-name="Path 6621" class="cls-13" d="M674.55,644.3l.032.118h.008l.033-.118.453-1.579h.17l-.589,1.91h-.143l-.589-1.91h.171Z" transform="translate(-669.944 -642.695)"/>
        <path id="Path_6622" data-name="Path 6622" class="cls-13" d="M698.366,643.677a.778.778,0,0,1-.162.531.563.563,0,0,1-.444.183.544.544,0,0,1-.435-.183.789.789,0,0,1-.158-.531v-.535a.8.8,0,0,1,.157-.532.541.541,0,0,1,.434-.184.562.562,0,0,1,.445.185.78.78,0,0,1,.163.531Zm-.156-.539a.663.663,0,0,0-.117-.426.407.407,0,0,0-.334-.143.389.389,0,0,0-.324.143.679.679,0,0,0-.113.426v.539a.686.686,0,0,0,.113.43.39.39,0,0,0,.325.143.405.405,0,0,0,.334-.143.673.673,0,0,0,.116-.43Z" transform="translate(-691.027 -642.426)"/>
        <path id="Path_6623" data-name="Path 6623" class="cls-13" d="M721.261,644.5h.771v.134h-.93v-1.91h.159Z" transform="translate(-712.739 -642.695)"/>
        <path id="Path_6624" data-name="Path 6624" class="cls-13" d="M741.291,642.723v1.337a.6.6,0,0,1-.156.447.554.554,0,0,1-.407.154.534.534,0,0,1-.4-.154.61.61,0,0,1-.152-.447v-1.337h.155v1.338a.494.494,0,0,0,.109.345.368.368,0,0,0,.285.12.392.392,0,0,0,.3-.115.488.488,0,0,0,.111-.35v-1.338Z" transform="translate(-730.044 -642.695)"/>
        <path id="Path_6625" data-name="Path 6625" class="cls-13" d="M763.106,642.862h-.534v1.771h-.157v-1.771h-.533v-.139h1.224Z" transform="translate(-749.731 -642.695)"/>
        <path id="Path_6626" data-name="Path 6626" class="cls-13" d="M785.623,644.633h-.159v-1.91h.159Z" transform="translate(-771.123 -642.695)"/>
        <path id="Path_6627" data-name="Path 6627" class="cls-13" d="M799.653,643.677a.778.778,0,0,1-.162.531.563.563,0,0,1-.444.183.544.544,0,0,1-.435-.183.789.789,0,0,1-.158-.531v-.535a.8.8,0,0,1,.157-.532.541.541,0,0,1,.434-.184.562.562,0,0,1,.445.185.78.78,0,0,1,.163.531Zm-.156-.539a.663.663,0,0,0-.117-.426.407.407,0,0,0-.334-.143.388.388,0,0,0-.324.143.679.679,0,0,0-.113.426v.539a.687.687,0,0,0,.113.43.39.39,0,0,0,.325.143.405.405,0,0,0,.334-.143.673.673,0,0,0,.116-.43Z" transform="translate(-782.906 -642.426)"/>
        <path id="Path_6628" data-name="Path 6628" class="cls-13" d="M823.566,644.633h-.157l-.853-1.6h-.008v1.6h-.159v-1.91h.159l.853,1.6h.008v-1.6h.157Z" transform="translate(-804.618 -642.695)"/>
        <path id="Path_6629" data-name="Path 6629" class="cls-13" d="M846.371,644.1h-.7l-.163.53h-.163l.6-1.91h.143l.6,1.91h-.163Zm-.652-.144h.609l-.3-.982h-.008Z" transform="translate(-825.445 -642.695)"/>
        <path id="Path_6630" data-name="Path 6630" class="cls-13" d="M870.005,643.781v.864h-.157v-1.908h.548a.536.536,0,0,1,.393.135.529.529,0,0,1,.136.393.511.511,0,0,1-.072.271.43.43,0,0,1-.2.175.339.339,0,0,1,.209.16.59.59,0,0,1,.064.288v.18a.693.693,0,0,0,.017.16.258.258,0,0,0,.058.116v.031h-.161a.271.271,0,0,1-.056-.132,1.011,1.011,0,0,1-.015-.179v-.175a.411.411,0,0,0-.088-.276.3.3,0,0,0-.241-.1Zm0-.134h.372a.382.382,0,0,0,.3-.1.4.4,0,0,0,.094-.28.414.414,0,0,0-.092-.289.359.359,0,0,0-.279-.1h-.391Z" transform="translate(-847.669 -642.708)"/>
        <path id="Path_6631" data-name="Path 6631" class="cls-13" d="M891.3,643.734h.008l.462-1.011h.18l-.568,1.209v.7h-.157v-.708l-.565-1.2h.182Z" transform="translate(-866.549 -642.695)"/>
        <path id="Path_6632" data-name="Path 6632" class="cls-13" d="M928.349,643.677a.778.778,0,0,1-.162.531.563.563,0,0,1-.444.183.544.544,0,0,1-.435-.183.789.789,0,0,1-.158-.531v-.535a.8.8,0,0,1,.157-.532.541.541,0,0,1,.434-.184.562.562,0,0,1,.445.185.78.78,0,0,1,.163.531Zm-.156-.539a.664.664,0,0,0-.117-.426.407.407,0,0,0-.334-.143.388.388,0,0,0-.324.143.679.679,0,0,0-.113.426v.539a.687.687,0,0,0,.113.43.39.39,0,0,0,.325.143.405.405,0,0,0,.334-.143.673.673,0,0,0,.116-.43Z" transform="translate(-899.648 -642.426)"/>
        <path id="Path_6633" data-name="Path 6633" class="cls-13" d="M951.213,643.781v.864h-.157v-1.908h.548a.536.536,0,0,1,.393.135.529.529,0,0,1,.136.393.51.51,0,0,1-.072.271.43.43,0,0,1-.2.175.339.339,0,0,1,.209.16.591.591,0,0,1,.064.288v.18a.692.692,0,0,0,.017.16.257.257,0,0,0,.058.116v.031h-.161a.273.273,0,0,1-.056-.132,1.006,1.006,0,0,1-.015-.179v-.175a.412.412,0,0,0-.088-.276.3.3,0,0,0-.241-.1Zm0-.134h.372a.382.382,0,0,0,.3-.1.4.4,0,0,0,.094-.28.414.414,0,0,0-.092-.289.359.359,0,0,0-.279-.1h-.391Z" transform="translate(-921.333 -642.708)"/>
        <path id="Path_6634" data-name="Path 6634" class="cls-13" d="M974.369,644.633v-1.91h.468a.6.6,0,0,1,.487.233.923.923,0,0,1,.189.6v.247a.917.917,0,0,1-.189.6.6.6,0,0,1-.487.231Zm.157-1.771V644.5h.311a.444.444,0,0,0,.374-.2.822.822,0,0,0,.144-.5v-.251a.813.813,0,0,0-.144-.5.444.444,0,0,0-.374-.2Z" transform="translate(-942.481 -642.695)"/>
        <path id="Path_6635" data-name="Path 6635" class="cls-13" d="M998.519,643.709h-.75v.79h.862v.134h-1.019v-1.91h1.011v.139h-.854v.713h.75Z" transform="translate(-963.564 -642.695)"/>
        <path id="Path_6636" data-name="Path 6636" class="cls-13" d="M1019.1,643.781v.864h-.157v-1.908h.548a.537.537,0,0,1,.393.135.529.529,0,0,1,.136.393.51.51,0,0,1-.072.271.43.43,0,0,1-.2.175.34.34,0,0,1,.209.16.591.591,0,0,1,.064.288v.18a.686.686,0,0,0,.017.16.257.257,0,0,0,.058.116v.031h-.161a.273.273,0,0,1-.056-.132,1.023,1.023,0,0,1-.015-.179v-.175a.412.412,0,0,0-.088-.276.3.3,0,0,0-.241-.1Zm0-.134h.372a.382.382,0,0,0,.3-.1.4.4,0,0,0,.094-.28.414.414,0,0,0-.092-.289.359.359,0,0,0-.279-.1h-.391Z" transform="translate(-982.918 -642.708)"/>
        <path id="Path_6637" data-name="Path 6637" class="cls-13" d="M1055.736,642.723l.531,1.672h.008l.532-1.672h.2v1.91h-.156v-.838l.016-.78h-.008l-.539,1.62h-.1l-.538-1.617h-.008l.016.778v.838h-.155v-1.91Z" transform="translate(-1016.107 -642.695)"/>
        <path id="Path_6638" data-name="Path 6638" class="cls-13" d="M1082.679,644.1h-.7l-.163.53h-.163l.6-1.91h.143l.6,1.91h-.163Zm-.652-.144h.609l-.3-.982h-.008Z" transform="translate(-1039.803 -642.695)"/>
        <path id="Path_6639" data-name="Path 6639" class="cls-13" d="M1107.36,644.633h-.157l-.853-1.6h-.008v1.6h-.159v-1.91h.159l.852,1.6h.008v-1.6h.157Z" transform="translate(-1062.052 -642.695)"/>
        <path id="Path_6640" data-name="Path 6640" class="cls-13" d="M1130.167,644.1h-.7l-.162.53h-.163l.6-1.91h.143l.6,1.91h-.163Zm-.652-.144h.609l-.3-.982h-.008Z" transform="translate(-1082.88 -642.695)"/>
        <path id="Path_6641" data-name="Path 6641" class="cls-13" d="M1154.127,644.1a.509.509,0,0,1-.193.2.656.656,0,0,1-.359.09.612.612,0,0,1-.462-.182.727.727,0,0,1-.175-.523v-.568a.727.727,0,0,1,.165-.513.573.573,0,0,1,.442-.178.584.584,0,0,1,.418.141.537.537,0,0,1,.155.393l0,.008h-.147a.43.43,0,0,0-.113-.3.422.422,0,0,0-.311-.1.411.411,0,0,0-.329.141.614.614,0,0,0-.121.409v.571a.618.618,0,0,0,.13.424.445.445,0,0,0,.35.146.5.5,0,0,0,.259-.058.326.326,0,0,0,.135-.141v-.5h-.4v-.138h.555Z" transform="translate(-1104.463 -642.426)"/>
        <path id="Path_6642" data-name="Path 6642" class="cls-13" d="M1178.486,643.709h-.75v.79h.862v.134h-1.019v-1.91h1.011v.139h-.854v.713h.75Z" transform="translate(-1126.815 -642.695)"/>
        <path id="Path_6643" data-name="Path 6643" class="cls-13" d="M1199.06,642.723l.531,1.672h.008l.533-1.672h.2v1.91h-.156v-.838l.016-.78h-.008l-.539,1.62h-.1l-.538-1.617H1199l.016.778v.838h-.155v-1.91Z" transform="translate(-1146.118 -642.695)"/>
        <path id="Path_6644" data-name="Path 6644" class="cls-13" d="M1227.456,643.709h-.75v.79h.862v.134h-1.019v-1.91h1.011v.139h-.854v.713h.75Z" transform="translate(-1171.236 -642.695)"/>
        <path id="Path_6645" data-name="Path 6645" class="cls-13" d="M1249.089,644.633h-.157l-.853-1.6h-.008v1.6h-.159v-1.91h.159l.853,1.6h.008v-1.6h.157Z" transform="translate(-1190.616 -642.695)"/>
        <path id="Path_6646" data-name="Path 6646" class="cls-13" d="M1271.546,642.862h-.534v1.771h-.157v-1.771h-.532v-.139h1.224Z" transform="translate(-1210.944 -642.695)"/>
        <path id="Path_6647" data-name="Path 6647" class="cls-13" d="M1307.022,644.633v-1.91h.48a.553.553,0,0,1,.386.126.485.485,0,0,1,.139.378.444.444,0,0,1-.072.253.381.381,0,0,1-.191.152.371.371,0,0,1,.239.163.6.6,0,0,1-.048.7.507.507,0,0,1-.373.137Zm.157-1.053h.372a.312.312,0,0,0,.232-.1.374.374,0,0,0,.084-.262.358.358,0,0,0-.094-.269.375.375,0,0,0-.272-.091h-.323Zm0,.134v.786h.4a.333.333,0,0,0,.26-.1.415.415,0,0,0,.094-.29.453.453,0,0,0-.083-.283.29.29,0,0,0-.246-.109Z" transform="translate(-1244.235 -642.695)"/>
        <path id="Path_6648" data-name="Path 6648" class="cls-13" d="M1329.868,643.677a.778.778,0,0,1-.162.531.563.563,0,0,1-.444.183.544.544,0,0,1-.435-.183.788.788,0,0,1-.158-.531v-.535a.8.8,0,0,1,.157-.532.541.541,0,0,1,.434-.184.562.562,0,0,1,.445.185.78.78,0,0,1,.163.531Zm-.156-.539a.664.664,0,0,0-.117-.426.407.407,0,0,0-.334-.143.389.389,0,0,0-.324.143.68.68,0,0,0-.113.426v.539a.688.688,0,0,0,.113.43.39.39,0,0,0,.325.143.405.405,0,0,0,.334-.143.673.673,0,0,0,.116-.43Z" transform="translate(-1263.871 -642.426)"/>
        <path id="Path_6649" data-name="Path 6649" class="cls-13" d="M1351.736,642.862h-.534v1.771h-.157v-1.771h-.533v-.139h1.224Z" transform="translate(-1283.686 -642.695)"/>
      </g>
      <path id="Path_6650" data-name="Path 6650" class="cls-13" d="M643.64,485.608a4,4,0,0,1,2.782,1.047,3.3,3.3,0,0,1,1.154,2.529,3.259,3.259,0,0,1-1,2.373,4.111,4.111,0,0,1-2.488,1.154l3.65,4.108h-3.56l-3.371-4.067h-5.114v4.067h-3.06v-11.21Zm-7.946,4.672,7.651.008a1.179,1.179,0,0,0,.859-.311,1,1,0,0,0,.335-.786.959.959,0,0,0-.335-.786,1.072,1.072,0,0,0-.859-.3h-7.651Z" transform="translate(-1.42 -94.307)"/>
      <path id="Path_6651" data-name="Path 6651" class="cls-13" d="M1016.815,485.608v11.21h-3.06v-7.1l-4.566,6.1h-2.627l-4.566-6.1v7.1h-3.06v-11.21h3.175l5.761,7.856,5.761-7.856Z" transform="translate(-333.696 -94.307)"/>
      <path id="Path_6652" data-name="Path 6652" class="cls-13" d="M1218.361,485.608a3.436,3.436,0,0,1,2.4.9,2.846,2.846,0,0,1,.687,3.412,3.122,3.122,0,0,1-.81,1.006,3.335,3.335,0,0,1,1.309,1.146,2.847,2.847,0,0,1,.491,1.612,2.916,2.916,0,0,1-1.006,2.226,3.473,3.473,0,0,1-2.438.908h-11.71v-11.21Zm-8.019,4.566h7.029a1.193,1.193,0,0,0,.843-.319,1.042,1.042,0,0,0,0-1.547,1.193,1.193,0,0,0-.843-.319h-7.029Zm0,4.272h7.8a1.192,1.192,0,0,0,.843-.319.92.92,0,0,0,.344-.777,1.011,1.011,0,0,0-.352-.777,1.152,1.152,0,0,0-.835-.311h-7.8Z" transform="translate(-522.69 -94.307)"/>
      <path id="Path_6653" data-name="Path 6653" class="cls-13" d="M826.03,486.566a3.647,3.647,0,0,0-2.553-.957h-8.764a3.666,3.666,0,0,0-2.553.957,3.025,3.025,0,0,0-1.047,2.316v4.664a3.024,3.024,0,0,0,1.047,2.316,3.666,3.666,0,0,0,2.553.957h6.852l-3.189-2.5h-2.763a1.523,1.523,0,0,1-1.023-.376,1.238,1.238,0,0,1-.417-.933v-3.6a1.166,1.166,0,0,1,.417-.925,1.408,1.408,0,0,1,1.023-.384h6.964a1.322,1.322,0,0,1,1.023.376,1.19,1.19,0,0,1,.417.933v3.6a1.23,1.23,0,0,1-.417.924,1.591,1.591,0,0,1-1.023.385h-1.011v2.5h1.912a3.648,3.648,0,0,0,2.553-.957,2.988,2.988,0,0,0,1.047-2.316v-4.664A2.988,2.988,0,0,0,826.03,486.566Z" transform="translate(-163.32 -94.308)"/>
      <g id="Group_10480" data-name="Group 10480" transform="translate(668.556 381.645)">
        <path id="Path_6654" data-name="Path 6654" class="cls-31" d="M1049.206,381.645l-9.7,5.663-4.868-1.463Z" transform="translate(-1034.644 -381.645)"/>
        <path id="Path_6655" data-name="Path 6655" class="cls-32" d="M1096.743,381.645l-8.863,12.107-.832-6.444Z" transform="translate(-1082.18 -381.645)"/>
        <path id="Path_6656" data-name="Path 6656" class="cls-33" d="M1034.644,426.862l4.868,1.463.832,6.444Z" transform="translate(-1034.644 -422.662)"/>
      </g>
      <g id="Group_10481" data-name="Group 10481" transform="translate(631.214 386.634)">
        <path id="Path_6657" data-name="Path 6657" class="cls-13" d="M635.274,435.365a1.061,1.061,0,0,1,.508.123.948.948,0,0,1,.369.336.857.857,0,0,1,0,.926.942.942,0,0,1-.367.334,1.075,1.075,0,0,1-.508.121h-1.91v.836h-.73v-2.675Zm-1.91,1.248h1.841a.4.4,0,0,0,.258-.092.306.306,0,0,0,.1-.234.294.294,0,0,0-.1-.234.354.354,0,0,0-.258-.092h-1.841Z" transform="translate(-632.634 -435.365)"/>
        <path id="Path_6658" data-name="Path 6658" class="cls-13" d="M678.572,435.365a1,1,0,0,1,.449.1.832.832,0,0,1,.342.285.616.616,0,0,1,.129.393v1.113a.61.61,0,0,1-.131.393.883.883,0,0,1-.342.285.978.978,0,0,1-.447.1h-2.839v-2.675Zm-2.109,2.08h1.955a.38.38,0,0,0,.244-.092.293.293,0,0,0,.1-.221v-.859a.284.284,0,0,0-.1-.223.315.315,0,0,0-.244-.09h-1.955Z" transform="translate(-671.73 -435.365)"/>
        <path id="Path_6659" data-name="Path 6659" class="cls-13" d="M722.691,435.365a1.06,1.06,0,0,1,.508.123.948.948,0,0,1,.369.336.857.857,0,0,1,0,.926.941.941,0,0,1-.367.334,1.075,1.075,0,0,1-.508.121h-1.91v.836h-.73v-2.675Zm-1.91,1.248h1.841a.4.4,0,0,0,.258-.092.306.306,0,0,0,.1-.234.3.3,0,0,0-.1-.234.354.354,0,0,0-.258-.092h-1.841Z" transform="translate(-711.931 -435.365)"/>
      </g>
    </g>
  </g>
</svg>
