<svg xmlns="http://www.w3.org/2000/svg" xmlns:xlink="http://www.w3.org/1999/xlink" width="72.328" height="93.289" viewBox="0 0 72.328 93.289"><defs><style>.a{fill:#32b1ff;fill-rule:evenodd;}.b{fill:#fff;}.c{fill:#005589;}.d{fill:url(#c);}.e{fill:url(#d);}.f{fill:url(#e);}.g{filter:url(#a);}</style><filter id="a" x="3.355" y="2.053" width="68.973" height="68.973" filterUnits="userSpaceOnUse"><feOffset dx="6" dy="6" input="SourceAlpha"/><feGaussianBlur stdDeviation="3" result="b"/><feFlood flood-opacity="0.122"/><feComposite operator="in" in2="b"/><feComposite in="SourceGraphic"/></filter><linearGradient id="c" y1="0.5" x2="1" y2="0.5" gradientUnits="objectBoundingBox"><stop offset="0" stop-color="#c3211b"/><stop offset="0" stop-color="#c52619"/><stop offset="0.003" stop-color="#dd5d0e"/><stop offset="0.006" stop-color="#ee8606"/><stop offset="0.008" stop-color="#f99e01"/><stop offset="0.009" stop-color="#fda800"/></linearGradient><linearGradient id="d" y1="0.5" x2="1" y2="0.5" gradientUnits="objectBoundingBox"><stop offset="0" stop-color="#c3211b"/><stop offset="0.128" stop-color="#cd3b16"/><stop offset="0.423" stop-color="#e2720c"/><stop offset="0.677" stop-color="#f19b05"/><stop offset="0.878" stop-color="#fbb301"/><stop offset="1" stop-color="#ffbd00"/></linearGradient><linearGradient id="e" x1="0.5" y1="1" x2="0.5" gradientUnits="objectBoundingBox"><stop offset="0" stop-color="#fda800"/><stop offset="0.136" stop-color="#f99e01"/><stop offset="0.359" stop-color="#ee8606"/><stop offset="0.642" stop-color="#dd5d0e"/><stop offset="0.97" stop-color="#c52619"/><stop offset="1" stop-color="#c3211b"/></linearGradient></defs><g transform="translate(-1403 -5703.814)"><g transform="translate(7 21.152)"><g transform="translate(1396 5682.662)"><path class="a" d="M597.583,227.225c-15.277,0-31.9,11.822-31.9,31.549,0,30.018,31.98,61.74,31.98,61.74s31.98-32.238,31.98-61.74C629.639,239.047,611.988,227.225,597.583,227.225Zm.288,50.013a18.512,18.512,0,1,1,18.514-18.512A18.685,18.685,0,0,1,597.872,277.238Z" transform="translate(-565.679 -227.225)"/></g><g class="g" transform="matrix(1, 0, 0, 1, 1396, 5682.66)"><ellipse class="b" cx="25.486" cy="25.487" rx="25.486" ry="25.487" transform="translate(6.36 5.05)"/></g><g transform="translate(1409.504 5706.065)"><g transform="translate(0 12.769)"><path class="c" d="M631.152,643.287v.456h-.083v-1.006h.289a.283.283,0,0,1,.208.071.279.279,0,0,1,.072.207.268.268,0,0,1-.038.143.225.225,0,0,1-.108.092.179.179,0,0,1,.11.084.312.312,0,0,1,.034.152v.095a.361.361,0,0,0,.009.085.135.135,0,0,0,.031.061v.017h-.085a.144.144,0,0,1-.029-.069.533.533,0,0,1-.008-.094v-.092a.217.217,0,0,0-.046-.146.159.159,0,0,0-.127-.054Zm0-.071h.2a.2.2,0,0,0,.156-.054.211.211,0,0,0,.049-.148.218.218,0,0,0-.048-.152.189.189,0,0,0-.147-.053h-.206Z" transform="translate(-631.069 -642.722)"/><path class="c" d="M654.86,643.243h-.4v.416h.454v.07h-.537v-1.007h.533v.073h-.45v.376h.4Z" transform="translate(-653.24 -642.708)"/><path class="c" d="M674.255,643.555l.017.062h0l.017-.062.239-.832h.09l-.31,1.007h-.075l-.31-1.007h.09Z" transform="translate(-671.827 -642.708)"/><path class="c" d="M697.8,643.085a.41.41,0,0,1-.085.28.3.3,0,0,1-.234.1.287.287,0,0,1-.229-.1.416.416,0,0,1-.083-.28V642.8a.42.42,0,0,1,.083-.28.285.285,0,0,1,.229-.1.3.3,0,0,1,.234.1.411.411,0,0,1,.086.28Zm-.082-.284a.349.349,0,0,0-.061-.225.215.215,0,0,0-.176-.075.2.2,0,0,0-.171.075.358.358,0,0,0-.059.225v.284a.362.362,0,0,0,.059.227.206.206,0,0,0,.172.075.214.214,0,0,0,.176-.075.355.355,0,0,0,.061-.227Z" transform="translate(-693.931 -642.426)"/><path class="c" d="M721.186,643.659h.406v.07h-.49v-1.007h.084Z" transform="translate(-716.694 -642.708)"/><path class="c" d="M740.765,642.723v.7a.316.316,0,0,1-.082.235.292.292,0,0,1-.214.081.281.281,0,0,1-.209-.081.321.321,0,0,1-.08-.235v-.7h.082v.706a.261.261,0,0,0,.058.182.194.194,0,0,0,.15.063.207.207,0,0,0,.156-.061.257.257,0,0,0,.058-.185v-.706Z" transform="translate(-734.837 -642.708)"/><path class="c" d="M762.527,642.8h-.281v.933h-.083V642.8h-.281v-.073h.645Z" transform="translate(-755.477 -642.708)"/><path class="c" d="M785.547,643.73h-.084v-1.007h.084Z" transform="translate(-777.904 -642.708)"/><path class="c" d="M799.086,643.085a.41.41,0,0,1-.085.28.3.3,0,0,1-.234.1.287.287,0,0,1-.229-.1.417.417,0,0,1-.083-.28V642.8a.42.42,0,0,1,.083-.28.285.285,0,0,1,.229-.1.3.3,0,0,1,.234.1.411.411,0,0,1,.086.28ZM799,642.8a.349.349,0,0,0-.062-.225.215.215,0,0,0-.176-.075.205.205,0,0,0-.171.075.359.359,0,0,0-.059.225v.284a.363.363,0,0,0,.059.227.206.206,0,0,0,.172.075.214.214,0,0,0,.176-.075.355.355,0,0,0,.061-.227Z" transform="translate(-790.258 -642.426)"/><path class="c" d="M823.009,643.73h-.083l-.449-.843h0v.842h-.084v-1.007h.084l.449.843h0v-.842h.083Z" transform="translate(-813.021 -642.708)"/><path class="c" d="M845.887,643.45h-.367l-.086.279h-.086l.319-1.007h.075l.315,1.007h-.086Zm-.344-.076h.321l-.158-.518h0Z" transform="translate(-834.857 -642.708)"/><path class="c" d="M869.931,643.287v.456h-.083v-1.006h.289a.283.283,0,0,1,.207.071.279.279,0,0,1,.072.207.269.269,0,0,1-.038.143.226.226,0,0,1-.108.092.178.178,0,0,1,.11.084.31.31,0,0,1,.034.152v.095a.368.368,0,0,0,.009.085.137.137,0,0,0,.031.061v.017h-.085a.143.143,0,0,1-.029-.069.539.539,0,0,1-.008-.094v-.092a.217.217,0,0,0-.046-.146.159.159,0,0,0-.127-.054Zm0-.071h.2a.2.2,0,0,0,.156-.054.211.211,0,0,0,.05-.148.218.218,0,0,0-.049-.152.189.189,0,0,0-.147-.053h-.206Z" transform="translate(-858.157 -642.722)"/><path class="c" d="M891,643.256h0l.243-.533h.095l-.3.637v.369h-.083v-.373l-.3-.633h.1Z" transform="translate(-877.952 -642.708)"/><path class="c" d="M927.782,643.085a.41.41,0,0,1-.085.28.3.3,0,0,1-.234.1.287.287,0,0,1-.229-.1.416.416,0,0,1-.083-.28V642.8a.42.42,0,0,1,.083-.28.285.285,0,0,1,.229-.1.3.3,0,0,1,.234.1.411.411,0,0,1,.086.28Zm-.082-.284a.349.349,0,0,0-.062-.225.215.215,0,0,0-.176-.075.205.205,0,0,0-.171.075.359.359,0,0,0-.059.225v.284a.363.363,0,0,0,.059.227.206.206,0,0,0,.172.075.214.214,0,0,0,.176-.075.355.355,0,0,0,.061-.227Z" transform="translate(-912.653 -642.426)"/><path class="c" d="M951.139,643.287v.456h-.083v-1.006h.289a.282.282,0,0,1,.207.071.279.279,0,0,1,.072.207.269.269,0,0,1-.038.143.226.226,0,0,1-.108.092.179.179,0,0,1,.11.084.311.311,0,0,1,.034.152v.095a.364.364,0,0,0,.009.085.135.135,0,0,0,.03.061v.017h-.085a.144.144,0,0,1-.029-.069.534.534,0,0,1-.008-.094v-.092a.217.217,0,0,0-.046-.146.159.159,0,0,0-.127-.054Zm0-.071h.2a.2.2,0,0,0,.156-.054.211.211,0,0,0,.049-.148.218.218,0,0,0-.048-.152.189.189,0,0,0-.147-.053h-.206Z" transform="translate(-935.388 -642.722)"/><path class="c" d="M974.369,643.73v-1.007h.247a.315.315,0,0,1,.257.123.487.487,0,0,1,.1.316v.13a.483.483,0,0,1-.1.316.316.316,0,0,1-.257.122Zm.083-.933v.863h.164a.234.234,0,0,0,.2-.1.433.433,0,0,0,.076-.263v-.132a.429.429,0,0,0-.076-.261.234.234,0,0,0-.2-.1Z" transform="translate(-957.56 -642.708)"/><path class="c" d="M998.09,643.243h-.4v.416h.454v.07h-.537v-1.007h.533v.073h-.45v.376h.4Z" transform="translate(-979.664 -642.708)"/><path class="c" d="M1019.03,643.287v.456h-.083v-1.006h.289a.283.283,0,0,1,.207.071.279.279,0,0,1,.072.207.268.268,0,0,1-.038.143.226.226,0,0,1-.108.092.179.179,0,0,1,.11.084.312.312,0,0,1,.034.152v.095a.361.361,0,0,0,.009.085.135.135,0,0,0,.03.061v.017h-.085a.144.144,0,0,1-.029-.069.539.539,0,0,1-.008-.094v-.092a.216.216,0,0,0-.046-.146.159.159,0,0,0-.127-.054Zm0-.071h.2a.2.2,0,0,0,.156-.054.211.211,0,0,0,.049-.148.218.218,0,0,0-.048-.152.189.189,0,0,0-.147-.053h-.206Z" transform="translate(-999.955 -642.722)"/><path class="c" d="M1055.64,642.723l.28.882h0l.281-.882h.107v1.007h-.082v-.442l.008-.411h0l-.284.854h-.055l-.284-.852h0l.008.41v.442h-.082v-1.007Z" transform="translate(-1034.751 -642.708)"/><path class="c" d="M1082.2,643.45h-.367l-.086.279h-.086l.319-1.007h.075l.315,1.007h-.086Zm-.344-.076h.321l-.158-.518h0Z" transform="translate(-1059.595 -642.708)"/><path class="c" d="M1106.8,643.73h-.083l-.449-.843h0v.842h-.084v-1.007h.084l.449.843h0v-.842h.083Z" transform="translate(-1082.921 -642.708)"/><path class="c" d="M1129.683,643.45h-.367l-.086.279h-.086l.319-1.007h.075l.315,1.007h-.086Zm-.344-.076h.321l-.158-.518h0Z" transform="translate(-1104.758 -642.708)"/><path class="c" d="M1153.565,643.31a.269.269,0,0,1-.1.1.346.346,0,0,1-.189.047.323.323,0,0,1-.244-.1.383.383,0,0,1-.092-.276v-.3a.384.384,0,0,1,.087-.27.3.3,0,0,1,.233-.094.308.308,0,0,1,.221.074.283.283,0,0,1,.082.207v0h-.078a.226.226,0,0,0-.059-.157.223.223,0,0,0-.164-.055.217.217,0,0,0-.174.074.325.325,0,0,0-.064.216v.3a.325.325,0,0,0,.069.224.234.234,0,0,0,.184.077.265.265,0,0,0,.136-.03.171.171,0,0,0,.071-.074v-.262h-.209v-.073h.292Z" transform="translate(-1127.386 -642.426)"/><path class="c" d="M1178.057,643.243h-.4v.416h.454v.07h-.537v-1.007h.533v.073h-.45v.376h.4Z" transform="translate(-1150.819 -642.708)"/><path class="c" d="M1198.964,642.723l.28.882h0l.281-.882h.107v1.007h-.082v-.442l.008-.411h0l-.284.854h-.055l-.283-.852h0l.008.41v.442h-.082v-1.007Z" transform="translate(-1171.057 -642.708)"/><path class="c" d="M1227.026,643.243h-.4v.416h.454v.07h-.537v-1.007h.533v.073h-.45v.376h.4Z" transform="translate(-1197.392 -642.708)"/><path class="c" d="M1248.533,643.73h-.083l-.449-.843h0v.842h-.084v-1.007H1248l.449.843h0v-.842h.083Z" transform="translate(-1217.71 -642.708)"/><path class="c" d="M1270.967,642.8h-.281v.933h-.083V642.8h-.281v-.073h.645Z" transform="translate(-1239.022 -642.708)"/><path class="c" d="M1307.022,643.73v-1.007h.253a.292.292,0,0,1,.2.066.256.256,0,0,1,.073.2.235.235,0,0,1-.038.133.2.2,0,0,1-.1.08.2.2,0,0,1,.126.086.317.317,0,0,1-.025.37.267.267,0,0,1-.2.072Zm.083-.555h.2a.164.164,0,0,0,.122-.05.2.2,0,0,0,.044-.138.188.188,0,0,0-.05-.142.2.2,0,0,0-.143-.048h-.17Zm0,.071v.414h.212a.176.176,0,0,0,.137-.055.22.22,0,0,0,.049-.153.239.239,0,0,0-.044-.149.153.153,0,0,0-.13-.058Z" transform="translate(-1273.925 -642.708)"/><path class="c" d="M1329.3,643.085a.41.41,0,0,1-.085.28.3.3,0,0,1-.234.1.287.287,0,0,1-.229-.1.417.417,0,0,1-.083-.28V642.8a.42.42,0,0,1,.083-.28.285.285,0,0,1,.229-.1.3.3,0,0,1,.234.1.41.41,0,0,1,.086.28Zm-.082-.284a.351.351,0,0,0-.062-.225.215.215,0,0,0-.177-.075.2.2,0,0,0-.171.075.359.359,0,0,0-.06.225v.284a.363.363,0,0,0,.06.227.205.205,0,0,0,.171.075.213.213,0,0,0,.176-.075.355.355,0,0,0,.061-.227Z" transform="translate(-1294.512 -642.426)"/><path class="c" d="M1351.158,642.8h-.281v.933h-.083V642.8h-.281v-.073h.645Z" transform="translate(-1315.287 -642.708)"/></g><path class="c" d="M638.435,485.608a2.106,2.106,0,0,1,1.467.552,1.737,1.737,0,0,1,.608,1.333,1.718,1.718,0,0,1-.526,1.251,2.167,2.167,0,0,1-1.311.608l1.924,2.165H638.72l-1.777-2.144h-2.7v2.144h-1.613v-5.909Zm-4.188,2.463,4.033,0a.622.622,0,0,0,.453-.164.529.529,0,0,0,.177-.414.506.506,0,0,0-.177-.414.565.565,0,0,0-.453-.16h-4.033Z" transform="translate(-632.557 -480.518)"/><path class="c" d="M1008.36,485.608v5.909h-1.613v-3.744l-2.407,3.214h-1.385l-2.407-3.214v3.744h-1.613v-5.909h1.674l3.036,4.141,3.037-4.141Z" transform="translate(-980.923 -480.518)"/><path class="c" d="M1213.121,485.608a1.811,1.811,0,0,1,1.264.475,1.5,1.5,0,0,1,.362,1.8,1.646,1.646,0,0,1-.427.53,1.76,1.76,0,0,1,.69.6,1.5,1.5,0,0,1,.259.85,1.537,1.537,0,0,1-.531,1.173,1.83,1.83,0,0,1-1.285.479h-6.173v-5.909Zm-4.227,2.407h3.705a.629.629,0,0,0,.444-.168.549.549,0,0,0,0-.815.629.629,0,0,0-.444-.168h-3.705Zm0,2.252H1213a.628.628,0,0,0,.444-.168.485.485,0,0,0,.181-.41.533.533,0,0,0-.186-.41.608.608,0,0,0-.44-.164h-4.111Z" transform="translate(-1179.068 -480.518)"/><path class="c" d="M818.976,486.114a1.922,1.922,0,0,0-1.346-.5h-4.62a1.932,1.932,0,0,0-1.346.5,1.594,1.594,0,0,0-.552,1.221v2.459a1.594,1.594,0,0,0,.552,1.221,1.933,1.933,0,0,0,1.346.5h3.612l-1.681-1.316h-1.457a.8.8,0,0,1-.539-.2.652.652,0,0,1-.22-.492v-1.9a.614.614,0,0,1,.22-.488.742.742,0,0,1,.539-.2h3.671a.7.7,0,0,1,.539.2.627.627,0,0,1,.22.492v1.9a.648.648,0,0,1-.22.487.838.838,0,0,1-.539.2h-.533v1.316h1.008a1.923,1.923,0,0,0,1.346-.5,1.575,1.575,0,0,0,.552-1.221v-2.459A1.575,1.575,0,0,0,818.976,486.114Z" transform="translate(-802.297 -480.519)"/><g transform="translate(19.76 0)"><path class="d" d="M1042.32,381.645l-5.11,2.985-2.566-.771Z" transform="translate(-1034.644 -381.645)"/><path class="e" d="M1092.159,381.645l-4.672,6.382-.439-3.4Z" transform="translate(-1084.482 -381.645)"/><path class="f" d="M1034.644,426.863l2.566.771.439,3.4Z" transform="translate(-1034.644 -424.649)"/></g><g transform="translate(0.077 2.63)"><path class="c" d="M634.026,435.365a.559.559,0,0,1,.268.065.5.5,0,0,1,.195.177.452.452,0,0,1,0,.488.5.5,0,0,1-.194.176.566.566,0,0,1-.268.064h-1.007v.441h-.385v-1.41Zm-1.007.658h.971a.214.214,0,0,0,.136-.048.162.162,0,0,0,.054-.124.155.155,0,0,0-.054-.124.187.187,0,0,0-.136-.048h-.971Z" transform="translate(-632.634 -435.365)"/><path class="c" d="M677.23,435.365a.53.53,0,0,1,.237.055.438.438,0,0,1,.18.15.325.325,0,0,1,.068.207v.587a.322.322,0,0,1-.069.207.467.467,0,0,1-.18.15.516.516,0,0,1-.236.055h-1.5v-1.41Zm-1.112,1.1h1.031a.2.2,0,0,0,.129-.048.154.154,0,0,0,.053-.116v-.453a.15.15,0,0,0-.053-.117.166.166,0,0,0-.129-.047h-1.031Z" transform="translate(-673.622 -435.365)"/><path class="c" d="M721.443,435.365a.559.559,0,0,1,.268.065.5.5,0,0,1,.195.177.451.451,0,0,1,0,.488.5.5,0,0,1-.194.176.566.566,0,0,1-.268.064h-1.007v.441h-.385v-1.41Zm-1.007.658h.971a.213.213,0,0,0,.136-.048.161.161,0,0,0,.054-.124.155.155,0,0,0-.054-.124.187.187,0,0,0-.136-.048h-.971Z" transform="translate(-715.771 -435.365)"/></g></g></g></g></svg>