<svg xmlns="http://www.w3.org/2000/svg" width="258.463" height="403" viewBox="0 0 258.463 403"><defs><style>.a,.n{fill:#d1f2ff;}.a{font-size:350px;font-family:Play-Bold, Play;font-weight:700;opacity:0.5;}.b{fill:#fcd2c5;}.c{fill:#fabdaa;}.d{fill:#393939;}.e{fill:#7acbfe;}.f{fill:#42b5fc;}.g{fill:#fbb301;}.h{fill:#f19b05;}.i{fill:#ffd648;}.j{fill:#ffbc47;}.k{fill:#fff;}.l{fill:#009fff;}.m{fill:#005589;}.o{fill:#32b1ff;}.p{fill:#e8ab40;}.q{fill:#008ee5;}.r{fill:none;stroke:#000;stroke-miterlimit:10;stroke-width:0.5px;}.s{fill:#f6dadf;}.t{fill:#8a1e41;}.u{fill:#6774ff;}.v{fill:#1631a4;}.w{fill:#e53e51;}.x{fill:#009eff;}.y{fill:#88cef9;}.z{fill:#b2b3b3;}.aa{fill:#cacaca;}.ab{fill:#e6e6e5;}.ac{fill:#eaeaea;}.ad{fill:#028adc;}.ae{fill:#b7b7b7;}.af{fill:#9b9b9b;}</style></defs><g transform="translate(-341 -1435)"><text class="a" transform="translate(443 1761)"><tspan x="-101.5" y="0">1</tspan></text><g transform="translate(416 1623)"><path class="b" d="M1675.874,746.261c-.277.571-1.137.3-2.194-.348a42.641,42.641,0,0,1-5.8-4.861l2.971-7.2,1.276.766c.615.365,1.323.787,1.806,1.067,1.036.6,10.746-9.534,13.335-10.83S1676.782,744.4,1675.874,746.261Z" transform="translate(-1504.717 -637.67)"/><path class="c" d="M1673.68,774.816a42.644,42.644,0,0,1-5.8-4.861l2.971-7.2,1.276.766s-3.383,5.354-2.073,6.367S1673.68,774.816,1673.68,774.816Z" transform="translate(-1504.717 -666.573)"/><path class="d" d="M1680.841,732.819s1.354,1.924.4,3.472-4.286,3.921-4.286,3.921,2.141,2.894,3.636,3.5,2.113.745,2.958-.312,13.391-23.395,11.309-22.325S1680.841,732.819,1680.841,732.819Z" transform="translate(-1511.625 -634.805)"/><path class="e" d="M1161.365,889.285c.044,2.462-1.056,5.013-4.348,7.514-12.9,9.813-49.959,24.546-87.931,27.726-36.5,3.058-54.729-7.732-58.107-11.1-10.66-10.635,16.831-19.034,21.833-29.091s-35.141-6.441-45.928-10.564,9.706-18.086,28.517-22.956c9.96-2.581,31.374-6.314,53.466-7.133,16.343-.607,33.056.383,45.771,4.624,21.781,7.26,37,22.134,43.647,33.009C1159.758,883.72,1161.321,886.445,1161.365,889.285Z" transform="translate(-983.898 -728.07)"/><path class="f" d="M1278.158,889.285c-13.487,7.972-41.113,17.937-69.338,20.3-30.654,2.567-45.96-6.5-48.8-9.326-8.953-8.929,14.135-15.985,18.334-24.428s-29.51-5.41-38.568-8.87,8.151-15.188,23.948-19.277a197.781,197.781,0,0,1,21.924-4.006c16.343-.607,33.056.383,45.77,4.624,21.781,7.26,37,22.134,43.647,33.009C1276.55,883.72,1278.114,886.445,1278.158,889.285Z" transform="translate(-1100.69 -728.07)"/><path class="g" d="M1273.626,1033.1a7.624,7.624,0,0,1-.074,1.057c-.637,4.583-5.359,8.143-11.091,8.143s-10.455-3.56-11.089-8.143a7.605,7.605,0,0,1-.074-1.057c0-5.08,5-9.2,11.163-9.2S1273.626,1028.016,1273.626,1033.1Z" transform="translate(-1187.51 -865.42)"/><path class="h" d="M1273.626,1067.956c0,5.08-5,9.2-11.165,9.2s-11.163-4.12-11.163-9.2a7.606,7.606,0,0,1,.074-1.058c.635,4.583,5.357,8.143,11.089,8.143s10.455-3.56,11.091-8.143A7.625,7.625,0,0,1,1273.626,1067.956Z" transform="translate(-1187.51 -898.164)"/><path class="i" d="M1095.561,893.242a6.352,6.352,0,0,1-.062.882c-.531,3.821-4.469,6.789-9.247,6.789s-8.717-2.968-9.246-6.789a6.352,6.352,0,0,1-.062-.882c0-4.236,4.167-7.671,9.307-7.671S1095.561,889.006,1095.561,893.242Z" transform="translate(-1054.748 -760.092)"/><path class="j" d="M1095.561,922.3c0,4.236-4.169,7.671-9.309,7.671s-9.307-3.435-9.307-7.671a6.351,6.351,0,0,1,.062-.882c.529,3.821,4.467,6.789,9.246,6.789s8.717-2.968,9.247-6.789A6.351,6.351,0,0,1,1095.561,922.3Z" transform="translate(-1054.748 -787.392)"/><path class="i" d="M1140.724,1042.213c.6,1.358,1.25,3.092,1.986,4.679h-7.23c-1.486-2.211-3.492-5.993-2.581-9.27,1.365-4.91,4.222-6.914,2.323-11.058-1.25-2.726-1.755-6.561.521-7.687s7.6,3.368,7.6,8.971a18.962,18.962,0,0,1-.676,4.635C1141.625,1036.526,1139.857,1040.264,1140.724,1042.213Z" transform="translate(-1097.181 -861.466)"/><path class="j" d="M1172.214,1030.269c-1.136,5.489-6.1,10.665-5.472,13.539.255,1.173.487,2.592.776,3.99h-6.662c-1.035-2.386-2.507-6.843-.847-10.07a29.871,29.871,0,0,1,2.9-4.339c1.321-1.8,2.222-3.361,1.613-6.02-.672-2.924-.39-6.783,2.067-7.425S1173.347,1024.78,1172.214,1030.269Z" transform="translate(-1117.428 -862.371)"/><g transform="translate(39.193 161.389)"><path class="j" d="M1151.085,1044.489c-2.447,4.067-3,11.512-1.442,15.653h-.605a18.517,18.517,0,0,1-.83-6.45,20.5,20.5,0,0,1,2.383-9.5c2.591-4.305-1.143-7.441-1.3-7.573a.289.289,0,0,1,.366-.447C1149.693,1036.2,1153.935,1039.75,1151.085,1044.489Z" transform="translate(-1148.197 -1036.104)"/></g><g transform="translate(45.816 161.139)"><path class="i" d="M1180.861,1043.6c-3.26,3.744-5.122,11.495-4.016,15.747h-.588a17.456,17.456,0,0,1,.168-7.183,20.554,20.554,0,0,1,4-8.944c3.311-3.795.172-7.526.037-7.684a.288.288,0,0,1,.437-.376C1180.935,1035.2,1184.494,1039.43,1180.861,1043.6Z" transform="translate(-1175.958 -1035.057)"/></g><path class="i" d="M1491.234,1047.759c.446,1.006.927,2.291,1.472,3.467h-5.358c-1.1-1.639-2.588-4.441-1.913-6.87,1.011-3.639,3.128-5.124,1.721-8.195-.927-2.02-1.3-4.862.386-5.7s5.629,2.5,5.629,6.648a14.044,14.044,0,0,1-.5,3.435C1491.9,1043.544,1490.591,1046.314,1491.234,1047.759Z" transform="translate(-1365.665 -870.324)"/><path class="j" d="M1514.57,1038.907c-.842,4.068-4.521,7.9-4.055,10.033.189.869.361,1.92.575,2.957h-4.937c-.767-1.769-1.858-5.071-.628-7.462a22.157,22.157,0,0,1,2.15-3.216,4.882,4.882,0,0,0,1.2-4.461c-.5-2.167-.289-5.026,1.532-5.5S1515.409,1034.84,1514.57,1038.907Z" transform="translate(-1380.669 -870.995)"/><g transform="translate(122.346 163.089)"><path class="j" d="M1498.912,1049.445a15.839,15.839,0,0,0-1.068,11.6h-.448a13.722,13.722,0,0,1-.615-4.78,15.187,15.187,0,0,1,1.766-7.041,4.319,4.319,0,0,0-.967-5.612.214.214,0,0,1,.271-.331C1497.88,1043.306,1501.024,1045.933,1498.912,1049.445Z" transform="translate(-1496.772 -1043.232)"/></g><g transform="translate(127.253 162.904)"><path class="i" d="M1520.977,1048.785c-2.416,2.775-3.8,8.518-2.976,11.669h-.436a12.936,12.936,0,0,1,.124-5.323,15.232,15.232,0,0,1,2.964-6.628,4.311,4.311,0,0,0,.027-5.694.214.214,0,0,1,.324-.279C1521.032,1042.56,1523.67,1045.7,1520.977,1048.785Z" transform="translate(-1517.344 -1042.456)"/></g><ellipse class="j" cx="4.998" cy="4.412" rx="4.998" ry="4.412" transform="translate(26.593 128.487)"/><g transform="translate(28.989 130.447)"><path class="k" d="M1111.479,909.981h-.008l-6.049-.187.652-3.177a.276.276,0,1,1,.54.111l-.52,2.535,5.394.167a.276.276,0,0,1-.008.552Z" transform="translate(-1105.421 -906.396)"/></g><g transform="translate(71.641 162.399)"><path class="k" d="M1287.894,1050.226l-.239-1.2a6.279,6.279,0,0,1-2.573-.229l.229-.842a5.735,5.735,0,0,0,2.425.234c1.146-.136,1.823-.715,1.688-1.392-.13-.653-.84-.982-2.1-1.2-1.74-.28-2.866-.705-3.071-1.738-.2-.986.607-1.847,2.056-2.2l-.239-1.2,1-.119.229,1.152a5.761,5.761,0,0,1,2.18.167l-.247.832a5.207,5.207,0,0,0-2.114-.162c-1.243.148-1.6.75-1.507,1.224.123.618.781.855,2.27,1.116,1.761.3,2.723.819,2.934,1.876.187.938-.526,1.923-2.147,2.322l.246,1.235Z" transform="translate(-1284.219 -1040.342)"/></g><path class="l" d="M1600.029,959.3a1.452,1.452,0,0,1-.372.463l-12.345,10.241a1.5,1.5,0,0,1-1.914,0L1573.21,959.9a1.437,1.437,0,0,1-.375-.466,1.51,1.51,0,0,1,.5-.562l13.677-9.047a1.5,1.5,0,0,1,1.781.094l10.853,8.915A1.46,1.46,0,0,1,1600.029,959.3Z" transform="translate(-1432.344 -808.827)"/><path class="k" d="M1615.51,1001.782l3.477,2.925a.176.176,0,0,0,.228,0l.939-.8a.176.176,0,0,0,0-.27l-3.527-2.946a.176.176,0,0,0-.233.006l-.889.821A.176.176,0,0,0,1615.51,1001.782Z" transform="translate(-1464.792 -847.719)"/><path class="k" d="M1618.736,981.906l5.952,5.007a.176.176,0,0,0,.218.007l1.006-.744a.176.176,0,0,0,.008-.277l-5.986-5a.176.176,0,0,0-.22-.005l-.972.738A.177.177,0,0,0,1618.736,981.906Z" transform="translate(-1467.248 -832.648)"/><path class="k" d="M1624.034,964.029l7.962,6.7a.176.176,0,0,0,.218.007l1.006-.744a.177.177,0,0,0,.008-.277l-7.981-6.667a.176.176,0,0,0-.216-.008l-.988.713A.176.176,0,0,0,1624.034,964.029Z" transform="translate(-1471.282 -819.054)"/><path class="d" d="M1599.123,992.2l-12.345,10.241a1.5,1.5,0,0,1-1.914,0l-12.188-10.109a1.5,1.5,0,0,1-.375-1.845,1.435,1.435,0,0,0,.375.466l12.188,10.109a1.5,1.5,0,0,0,1.914,0l12.345-10.241a1.455,1.455,0,0,0,.372-.463A1.494,1.494,0,0,1,1599.123,992.2Z" transform="translate(-1431.811 -839.878)"/><path class="m" d="M1240.807,362.154a2.175,2.175,0,0,0-1.419-.578l-54.086,3.039a4.013,4.013,0,0,0-3.788,4.008V485.374a4,4,0,0,0,.425,1.8,4.016,4.016,0,0,1-2.752-3.811V366.614a4.013,4.013,0,0,1,3.788-4.008l54.086-3.039A4.26,4.26,0,0,1,1240.807,362.154Z" transform="translate(-1132.602 -359.562)"/><path class="k" d="M1248.727,369.993V481.069a4.013,4.013,0,0,1-3.375,3.964l-54.084,8.714a1.6,1.6,0,0,1-2.327-1.954V375.041a4.013,4.013,0,0,1,3.788-4.008l54.086-3.039h.016a1.815,1.815,0,0,1,1.883,1.671Q1248.727,369.827,1248.727,369.993Z" transform="translate(-1140.028 -365.98)"/><path class="m" d="M1262.806,372.965l1.807,1.37a2.8,2.8,0,0,0,1.857.564l16.658-.981a2.8,2.8,0,0,0,1.953-.963l1.13-1.3Z" transform="translate(-1196.273 -368.766)"/><path class="n" d="M1206.877,472.491l21.182-1.027a1.479,1.479,0,0,1,1.551,1.477v22.5a1.479,1.479,0,0,1-1.367,1.475l-21.182,1.607a1.479,1.479,0,0,1-1.591-1.475v-23.08A1.479,1.479,0,0,1,1206.877,472.491Z" transform="translate(-1152.614 -444.769)"/><path class="n" d="M1205.47,597.87v58.775a2.014,2.014,0,0,0,2.307,1.993l47.64-7a2.014,2.014,0,0,0,1.721-1.993V593.71a2.014,2.014,0,0,0-2.189-2.006l-47.64,4.16A2.014,2.014,0,0,0,1205.47,597.87Z" transform="translate(-1152.614 -536.32)"/><path class="n" d="M1248.459,397.237l27.154-1.332a2.589,2.589,0,0,1,2.716,2.586v.03a2.589,2.589,0,0,1-2.465,2.586l-27.154,1.3a2.589,2.589,0,0,1-2.714-2.586h0A2.589,2.589,0,0,1,1248.459,397.237Z" transform="translate(-1183.473 -387.233)"/><g transform="translate(52.75 17.485)"><path class="n" d="M1205.132,435.565a.106.106,0,0,1-.006-.211l42.639-2.5a.106.106,0,0,1,.012.211l-42.639,2.5Z" transform="translate(-1205.026 -432.858)"/></g><g transform="translate(80.127 30.587)"><path class="n" d="M1319.9,489.243a.106.106,0,0,1-.006-.211l21.32-1.248a.106.106,0,0,1,.012.211l-21.32,1.248Z" transform="translate(-1319.791 -487.784)"/></g><g transform="translate(80.127 35.875)"><path class="n" d="M1319.9,511.409a.106.106,0,0,1-.006-.211l21.32-1.248a.107.107,0,0,1,.112.1.106.106,0,0,1-.1.112l-21.32,1.248Z" transform="translate(-1319.791 -509.95)"/></g><g transform="translate(80.127 41.162)"><path class="n" d="M1319.9,533.574a.106.106,0,0,1-.006-.211l21.32-1.248a.106.106,0,0,1,.012.211l-21.32,1.248Z" transform="translate(-1319.791 -532.115)"/></g><g transform="translate(80.127 46.45)"><path class="n" d="M1319.9,555.74a.106.106,0,0,1-.006-.211l21.32-1.248a.106.106,0,0,1,.012.211l-21.32,1.248Z" transform="translate(-1319.791 -554.281)"/></g><path class="n" d="M1372.888,378.571a1.039,1.039,0,1,1-1.039-1.038A1.039,1.039,0,0,1,1372.888,378.571Z" transform="translate(-1278.513 -373.246)"/><path class="o" d="M1406.874,520.334V532.58a.991.991,0,0,1-.9.988l-14.613,1.324a.992.992,0,0,1-1.081-.99v-1.646l-2.2-.575a.253.253,0,0,1-.114-.425l2.316-2.278v-7.35a.993.993,0,0,1,.918-.992c2.851-.205,11.533-1.007,14.6-1.29A.991.991,0,0,1,1406.874,520.334Z" transform="translate(-1291.515 -481.227)"/><g transform="translate(52.75 22.772)"><path class="n" d="M1205.132,457.731a.106.106,0,0,1-.006-.211l42.639-2.5a.106.106,0,0,1,.012.211l-42.639,2.5Z" transform="translate(-1205.026 -455.024)"/></g><path class="k" d="M1424.013,542.47a4.81,4.81,0,0,1,.377-.42,2.038,2.038,0,0,1,3.365,1.068,2.11,2.11,0,0,1-.271,1.534,5.709,5.709,0,0,1-1.081,1.355,12.843,12.843,0,0,1-2.143,1.647.094.094,0,0,1-.109.01,12.067,12.067,0,0,1-2.712-1.923,4.331,4.331,0,0,1-.922-1.236,2.011,2.011,0,0,1,1.369-2.817,1.974,1.974,0,0,1,2.079.724Z" transform="translate(-1316.213 -498.104)"/><g transform="translate(141.836 44.818)"><path class="o" d="M1581.227,565.553l-.058-.2a.378.378,0,0,0,.234-.2c.419-.772-.37-3.345-1.2-6.068-.937-3.056-2-6.52-1.658-8.407.162-.894.709-3,2.289-3.22,2.2-.307,5.255,3.371,8.84,10.642l-.19.093c-4.474-9.072-7.156-10.731-8.621-10.526-1,.141-1.79,1.28-2.11,3.048-.332,1.836.722,5.274,1.652,8.307.885,2.887,1.65,5.38,1.188,6.231A.588.588,0,0,1,1581.227,565.553Z" transform="translate(-1578.475 -547.439)"/></g><path class="o" d="M1570.21,588.685c.2.056,16.228-10.22,16.228-10.22l7.41,13.955s-1.25,3.8-7.17,7.828c-4.776,3.251-12.317,4.664-12.317,4.664Z" transform="translate(-1430.346 -526.246)"/><g transform="translate(27.082 75.314)"><path class="j" d="M1111.1,691.51l-.2-.059c.144-.629.567-14.85-3.3-15.884-2.736-.732-7.488,3.845-9.973,9.6l-.194-.084c2.568-5.947,7.345-10.49,10.222-9.72a2.938,2.938,0,0,1,1.7,1.556C1111.592,680.943,1111.191,691.2,1111.1,691.51Z" transform="translate(-1097.424 -675.278)"/></g><path class="p" d="M1351.865,587.229c.514-.135,8.187-7.528,4.25-8.173-1.339-.219-4.25,2.151-4.25,2.151l-2.75,2.33,1.4,3.31Z" transform="translate(-1261.993 -526.685)"/><path class="q" d="M1072.98,704.631a22.444,22.444,0,0,0,6.55,5.232,39.147,39.147,0,0,0,9.867,3.532l-1.366,21.625a61.766,61.766,0,0,1-14.375-5.029c-5.794-2.955-8.5-9.232-8.5-9.232Z" transform="translate(-1045.773 -622.315)"/><path class="d" d="M1353.775,604.078a4.128,4.128,0,0,1,1.745,2.062c.423,1.322.793,3.437,2.009,4.072s3.225,1.427,3.913,2.644a10.329,10.329,0,0,1,.952,3l.317,2.131-7.614,3.039-3.384-14.566-.74-2.009Z" transform="translate(-1263.407 -545.749)"/><path class="r" d="M1256.253,723.06l40.362,15.652,35.451-5.327-31.737-12.257-14.924-1.345Z" transform="translate(-1191.283 -633.853)"/><path class="s" d="M1322.219,596.5s-2.931.207-3.033.24-5.231,2.308-5.807,2.564l1.142-2.57,7.332-.775Z" transform="translate(-1234.781 -539.564)"/><path class="b" d="M1320.952,612.742c-.869.262-2,.587-3.243.9a38.569,38.569,0,0,1-4.994.943c-.43.047-.846.08-1.244.094a6.008,6.008,0,0,1-2.926-.428c-3.174-1.693-3.386-8.813-3.386-8.813l1.961-4.409c.576-.256,5.711-2.531,5.807-2.564s3.033-.24,3.033-.24h0l1.745,2.562a33.544,33.544,0,0,1,2.981,5.413,39.457,39.457,0,0,1,1.5,4.282A1.847,1.847,0,0,1,1320.952,612.742Z" transform="translate(-1228.523 -541.29)"/><g transform="translate(141.491 45.892)"><path class="i" d="M1579.387,571.784l-.05-.206a.425.425,0,0,0,.272-.21c.5-.831-.248-3.688-1.037-6.714-.885-3.392-1.888-7.236-1.427-9.286.656-2.913,2.071-3.359,2.649-3.415,2.419-.235,5.594,3.937,9.184,12.067l-.194.086c-4.484-10.156-7.355-12.1-8.969-11.942-1.109.108-2.029,1.323-2.463,3.251-.45,2,.546,5.817,1.425,9.186.836,3.2,1.557,5.969,1.014,6.876A.634.634,0,0,1,1579.387,571.784Z" transform="translate(-1577.03 -551.943)"/></g><path class="p" d="M1285.291,657.922s-4.837,4.265-5.594,1.314c-.195-.76,1.374-2.821,1.374-2.821l1.16-2.446s1.66,1,1.766,1S1285.291,657.922,1285.291,657.922Z" transform="translate(-1209.121 -583.739)"/><path class="t" d="M1306.384,588.119a74.444,74.444,0,0,0-16.013,15.708,1.488,1.488,0,0,1,.021-.163,14.246,14.246,0,0,1,2.115-3.93l.793-8.655,12.487-2.526Z" transform="translate(-1217.262 -533.597)"/><path class="d" d="M1423.235,873.74v7.47a.538.538,0,0,0,.306.486l27.573,13.223a.123.123,0,0,0,.177-.111v-1.6a.218.218,0,0,0-.126-.2L1425.038,880.8a.659.659,0,0,1-.38-.6v-5.818Z" transform="translate(-1318.431 -751.083)"/><path class="k" d="M1456.02,897.005l1.027-.277a.475.475,0,0,0,.351-.458v-1.448a.475.475,0,0,0-.275-.431l-26.1-12.123a.585.585,0,0,1-.338-.531v-4.63l-1.483-.67v5.818a.66.66,0,0,0,.38.6l26.127,12.207a.219.219,0,0,1,.126.2v1.6A.15.15,0,0,0,1456.02,897.005Z" transform="translate(-1322.972 -753.136)"/><path class="b" d="M1345.737,666.642l-1.8,4.02-5.763,1.481-4.442-3.331-2.815-3.447-1.82-2.231.6-2.109.466-1.641.08-.278,6.077-.008,2.857-.005a9.959,9.959,0,0,0,2.4,3.822c.063.066.135.138.212.215C1343,664.331,1345.737,666.642,1345.737,666.642Z" transform="translate(-1246.751 -587.639)"/><path class="c" d="M1363.818,664.315a9.155,9.155,0,0,1-2.859-1.4c-1.059-.891-3.193-2.926-3.193-2.926,1.238-.309,2.374-.634,3.243-.9a7.984,7.984,0,0,0,.877,1.859l.025.044c.033.052.066.107.1.16s.061.091.088.138C1362.451,661.863,1363.176,663.063,1363.818,664.315Z" transform="translate(-1268.58 -587.639)"/><g transform="translate(24.052 74.1)"><path class="u" d="M1100.116,688.475l-.2-.061.1.031-.1-.029c.163-.688.6-16.769-3.733-17.927-3.09-.825-8.457,4.338-11.262,10.832l-.194-.084c2.894-6.7,8.274-11.819,11.51-10.953a3.3,3.3,0,0,1,1.914,1.748C1100.675,676.568,1100.223,688.122,1100.116,688.475Z" transform="translate(-1084.725 -670.189)"/></g><path class="b" d="M1483.6,549.859c-.052,1.056-1.428,5.865-2.167,5.314s-1-1.453-2.062-1.381a1.541,1.541,0,0,0-1.445,1.381c0,.361-.177.375-1.023,0s-2.115-1.754-3.629-1.048a4.467,4.467,0,0,0-.477.287c-3.375,2.211-20.573,15.436-20.573,15.436l-4.012-5.688s21.431-14.548,23.474-15.464,6.717-2.84,8.267-2.435a4.877,4.877,0,0,1,1.541.882C1482.571,547.97,1483.638,549.167,1483.6,549.859Z" transform="translate(-1337.453 -501.681)"/><path class="j" d="M1218.542,687.6l-7.138.936-.74-3.543,7.372-.9Z" transform="translate(-1156.569 -606.679)"/><path class="c" d="M1314.927,603.254c.138,1.241.483,2.928-.689,3.723s.877,4.445-.527,4.274-4.505-.954-3.54.005c.562.56,1.252,1.156,1.767,1.779a3.178,3.178,0,0,1,.75,1.387c.008.052.019.1.027.16.171,1.13.141,2.719.764,3.08a8.532,8.532,0,0,1,1.655,2.391l-2.443-1.037-1.82-2.231.6-2.109a6.008,6.008,0,0,1-2.926-.428c-3.174-1.693-3.386-8.813-3.386-8.813l1.961-4.409c.576-.256,5.711-2.531,5.807-2.564s3.033-.24,3.033-.24h0l1.745,2.562S1314.789,602.013,1314.927,603.254Z" transform="translate(-1228.523 -541.29)"/><path class="d" d="M1299.774,600.149c.713.368,1.508.474,1.586,1.506s-.027.9-.713.264-3.094-1.521-3.993-.687c-.877.813-.351,2,0,3.014a2.337,2.337,0,0,0,1.693,1.771c1.189.5,2.679.432,2.607,1.243s-.034,2.608.812,2.891,2.336,1.911,1.735,2.158-7.724-.486-9.632-.735c-1.621-.211-.671-2.068-1.888-2.7-.774-.4-.875-2.688-1.328-3.608a2.689,2.689,0,0,1-.313-1.436,74.45,74.45,0,0,1,16.013-15.708h1.246s.07.156.159.412c.277.789.734,2.515-.159,3.395-1.18,1.163-4.917,1.428-5.235,2.908s-.423,2.828-1.692,3.306S1299.061,599.777,1299.774,600.149Z" transform="translate(-1217.232 -533.597)"/><path class="i" d="M1209.907,689.418c.188.981-.088,1.859-.614,1.959s-1.106-.614-1.293-1.6.088-1.859.615-1.959S1209.719,688.436,1209.907,689.418Z" transform="translate(-1154.495 -609.509)"/><path class="b" d="M1149.387,654.173l-.626,7.224s-18.74-4.919-22.321-5.746c-.292-.069-.485-.108-.557-.116-.951-.1-.706.847-.915,1.34a.813.813,0,0,1-1.271.317c-1.268-.731-1.464-.039-1.9.847a1.956,1.956,0,0,1-2.327.882c-1.241-.317-3.066-4.266-3.419-5.661a3.276,3.276,0,0,1,1.489-3.461,3.742,3.742,0,0,1,.78-.386c3.03-1.092,4.781-.259,6.474.306S1149.387,654.173,1149.387,654.173Z" transform="translate(-1084.461 -579.864)"/><path class="j" d="M1303.2,579.054c-1.22.825-2.319,1.689-3.5,2.575a91.023,91.023,0,0,0-17.1,16.732q-1.342,1.7-2.6,3.473l-.252.357.26-1.95.011-.074h0a2.154,2.154,0,0,1,.356-.81c.625-.872,1.225-1.526,1.907-2.432a74.682,74.682,0,0,1,15.708-16.061,9.219,9.219,0,0,1,2.737-1.491,10.639,10.639,0,0,1,1.173-.231Z" transform="translate(-1209.175 -526.694)"/><path class="n" d="M1243.691,713.8l41.032-4.653,41.032,15.651-38.705,5.816Z" transform="translate(-1181.717 -625.751)"/><path class="v" d="M1235.6,706.233l-2.536-6.79,1.775-.233,2.575,6.817Z" transform="translate(-1173.623 -618.188)"/><path class="w" d="M1444.061,821.454l-13.181,4.514-5.432-31.55,9.844-1.478C1439.535,806.095,1444.061,821.454,1444.061,821.454Z" transform="translate(-1320.117 -689.557)"/><path class="x" d="M1325.594,740.411l-8.3,39.211-27.075,5.006-35.4-16-11.125-39.974,26.072,10.11,1.842.715,6.889,2.671,8.555,3.318,5.432,31.55,13.181-4.514s-4.526-15.359-8.769-28.515l.01,0,11.639-1.749,15.671-2.354Q1324.9,740.14,1325.594,740.411Z" transform="translate(-1181.718 -640.604)"/><path class="w" d="M1582.781,774.754l-.161.764q-.695-.27-1.381-.531Z" transform="translate(-1438.744 -675.71)"/><path class="v" d="M1246.687,714.959l29.152-3.277,14.924,1.345,7.548,3.043,24.189,9.214,3.254-.489-41.032-15.651-41.032,4.653Z" transform="translate(-1181.717 -625.751)"/><path class="y" d="M1506.067,710.74l-5.639,13.677s-9.524-4.125-18-7.415c-.463-.179-.924-.358-1.382-.529-1.1-.422-2.167-.822-3.185-1.191a.008.008,0,0,1-.006,0c-4.45-1.619-7.895-2.65-8.311-2.143-.229.281-.538.681-.885,1.145-1.037,1.387-2.446,3.361-3.284,4.544l-11.639,1.751-4.078-12.039s11.689-10.624,13.682-10.63C1467.011,697.9,1506.067,710.74,1506.067,710.74Z" transform="translate(-1338.554 -617.195)"/><path class="k" d="M1304.273,625.559s-2.669,2.407-5.311,4.748l-.005.005c-2.239,1.988-4.459,3.929-5.007,4.315-.345.243-.408.408-.287.56a.429.429,0,0,0,.094.088l.006.005a8.991,8.991,0,0,1,2.652,1.817c1.8,2.151,1.8,6.414,1.8,6.414s-5.887,7.263-6.453,7.475c-.43.16-4.426,4.666-6.3,6.8l-6.891-2.672-1.842-.714c-.174-.367-.38-.78-.62-1.227a10.178,10.178,0,0,0-2.573-2.962c-.163-.16-.334-.331-.51-.527-.149-.165-.3-.331-.444-.5h0c-2.181-2.5-4.249-5.452-5.636-6.444a23.123,23.123,0,0,0-5.148-1.522c-4.053-.915-8.953-1.792-8.953-1.792l.847-9.781s16.059,2.854,16.994,2.8,5.41,1.9,8.055,4.494a5.034,5.034,0,0,0,4.023,1.517,2.456,2.456,0,0,0,2.267-2.973c-.014-.061-.033-.121-.052-.182a17.294,17.294,0,0,0-1.048-2.382h0c-.642-1.252-1.368-2.451-1.718-3.022-.028-.047-.058-.094-.088-.138-.044-.072-.077-.127-.1-.16-.008-.014-.016-.03-.025-.044a28.472,28.472,0,0,1,3.565-1.842c1.481-.576,13.285-9.852,13.285-9.852Z" transform="translate(-1188.687 -556.243)"/><path class="d" d="M1309.543,904.91v7.47a.539.539,0,0,0,.306.486l27.573,13.223a.123.123,0,0,0,.177-.111v-1.6a.218.218,0,0,0-.126-.2l-26.127-12.207a.66.66,0,0,1-.38-.6v-5.818Z" transform="translate(-1231.861 -774.818)"/><path class="q" d="M1464.151,774.754l-35.535,44.981-3.172-39.163Z" transform="translate(-1320.114 -675.711)"/><path class="d" d="M1320.695,949.941c.151,1.667-.358,3.077-1.14,3.148l-1.617.147-.547-6.037,1.617-.146C1319.789,946.98,1320.544,948.274,1320.695,949.941Z" transform="translate(-1237.836 -806.904)"/><path class="k" d="M1342.329,928.175l1.027-.277a.475.475,0,0,0,.351-.458v-1.448a.475.475,0,0,0-.275-.431l-26.1-12.123a.585.585,0,0,1-.339-.531v-4.63l-1.483-.67v5.818a.66.66,0,0,0,.38.6l26.126,12.207a.219.219,0,0,1,.126.2v1.6A.15.15,0,0,0,1342.329,928.175Z" transform="translate(-1236.402 -776.871)"/><path class="d" d="M1405.928,991.568c.151,1.667-.359,3.077-1.14,3.148l-1.617.146-.547-6.037,1.617-.147C1405.022,988.607,1405.777,989.9,1405.928,991.568Z" transform="translate(-1302.737 -838.601)"/><ellipse class="k" cx="1.42" cy="3.031" rx="1.42" ry="3.031" transform="translate(78.14 140.422) rotate(-5.181)"/><path class="y" d="M1394.759,761.652l-13.181,4.511-2.669-15.508,0,0-2.76-16.037-6.028-2.338-9.417-3.654c3.723-4.048,16.161-17.113,18.615-13.644,1.156,1.632,3.852,9.408,6.673,18.155C1390.234,746.29,1394.759,761.652,1394.759,761.652Z" transform="translate(-1270.816 -629.754)"/><path class="k" d="M1400.585,992.183c.151,1.667-.36,3.076-1.141,3.146s-1.537-1.223-1.688-2.89.36-3.076,1.141-3.146S1400.434,990.516,1400.585,992.183Z" transform="translate(-1299.01 -839.069)"/><path class="x" d="M1070.745,716.08l-1.495,23.681a.01.01,0,0,0-.005,0,67.48,67.48,0,0,1-15.737-5.5c-6.345-3.234-9.306-10.109-9.306-10.109l8.564-17.661a24.59,24.59,0,0,0,7.175,5.73A42.844,42.844,0,0,0,1070.745,716.08Z" transform="translate(-1029.817 -623.726)"/><path class="i" d="M1591.054,603.817l0,0c-.047.127-1.649,4.166-8.22,8.242-5.385,3.342-13.715,4.542-13.715,4.542l-3.792-17.973a.009.009,0,0,1,0-.005c.209.069,18.26-10.448,18.26-10.448Z" transform="translate(-1426.624 -533.641)"/><path class="d" d="M1522.418,961.028c.135,1.493-.321,2.756-1.021,2.819l-1.448.131-.49-5.407,1.448-.131C1521.607,958.377,1522.283,959.535,1522.418,961.028Z" transform="translate(-1391.701 -815.576)"/><path class="k" d="M1517.632,961.58c.135,1.493-.322,2.755-1.022,2.818s-1.377-1.1-1.512-2.588.322-2.755,1.022-2.818S1517.5,960.086,1517.632,961.58Z" transform="translate(-1388.363 -815.996)"/><g transform="translate(36.039 112.629)"><path class="u" d="M1141.018,835.162c-1.43-1.759-6-3.29-6.044-3.306l.05-.15c.19.063,4.658,1.561,6.117,3.356Z" transform="translate(-1134.974 -831.706)"/></g><g transform="translate(42.069 94.472)"><path class="z" d="M1163.636,760.727c-1.921-.574-3.325-4.9-3.384-5.088l.151-.048c.014.044,1.437,4.434,3.278,4.985Z" transform="translate(-1160.252 -755.59)"/></g><path class="aa" d="M1159.671,845.2v4.248l4.38,7.584,5.517-3.111-6.2-7.826Z" transform="translate(-1117.741 -729.348)"/><path class="aa" d="M1173.86,776.484l2.067,4.3,7.121,4.442,2.82-4.865-7.4-3.877Z" transform="translate(-1128.545 -677.027)"/><g transform="translate(136.944 67.818)"><path class="j" d="M1563.23,644.859c-.03-.014-3.021-1.4-5.205-.579l-.056-.149c2.246-.845,5.2.526,5.329.584Z" transform="translate(-1557.969 -643.857)"/></g><path class="ab" d="M1528.221,640.524l-2.274-1.424h-7.4v3.878h7.262Z" transform="translate(-1391.005 -572.417)"/><path class="i" d="M1299.469,585.769l-1.754,2.366-11.956,10.806-.259.234-1.812,2.355-.039.05c-2.9-7.886-1.594-13.092,2.206-15.524l0,0C1289.007,584.037,1293.871,583.927,1299.469,585.769Z" transform="translate(-1210.942 -530.811)"/><path class="b" d="M1469,939.3c-.422,3.174-6.133-12.16-6.133-12.16l-1.751-6.836,6.108-2.09s.069.267.179.7c.347,1.351,1.117,4.324,1.6,6C1469.634,927.139,1469.421,936.128,1469,939.3Z" transform="translate(-1347.276 -784.947)"/><path class="c" d="M1197.465,674.052s-1.53,1.925-7.09,1.833-11.186.08-11.186.08l17.715,4.6Z" transform="translate(-1132.602 -599.031)"/><path class="c" d="M1450.311,586.622a18.41,18.41,0,0,1,4.8-4.9c3.125-2.165,10.8-9.912,10.8-9.912l-17.695,11.846Z" transform="translate(-1337.457 -521.179)"/><path class="ac" d="M1401.328,668.784l-.006.005c-2.239,1.988-4.458,3.929-5.007,4.315-.345.243-.408.408-.287.56-.455-.419-2.344-2.107-3.59-2.269-1.423-.187-6.756-3.772-4.688-2.854s6.091.976,8.377,1.453S1401.328,668.784,1401.328,668.784Z" transform="translate(-1291.054 -594.721)"/><path class="ac" d="M1301.163,716.35h0c-2.181-2.5-4.249-5.452-5.636-6.444a23.119,23.119,0,0,0-5.148-1.522s5.78-3.463,6.055-1.914S1301.163,716.35,1301.163,716.35Z" transform="translate(-1217.266 -623.412)"/><path class="ad" d="M1408.967,792.64l0,0L1406.2,776.6l-6.028-2.338s4.048.066,5.5-2.046,2.465-5.653,3.016,2.046S1408.967,792.64,1408.967,792.64Z" transform="translate(-1300.873 -671.739)"/><path class="ad" d="M1451.57,735.328s1.009,8.047,4.456,9.787a36.512,36.512,0,0,0,6.862,2.579l-9.157,1.377-4.067-12.039Z" transform="translate(-1338.555 -645.689)"/><path class="c" d="M1462.219,921.685c.323,1.93.648,5.454.648,5.454l-1.751-6.836,6.108-2.09s.069.267.179.7C1467.4,918.916,1461.9,919.754,1462.219,921.685Z" transform="translate(-1347.276 -784.947)"/><path class="j" d="M1291.287,597.519c-1.133,1.122-3.687,4.23-5.529,6.513-1.059,1.315-1.886,2.355-2.071,2.589l-.039.05c-2.9-7.886-1.594-13.092,2.206-15.524-.074.168-2.658,6.022-2.206,8.683.458,2.7,5.239-1.872,7.12-3.157S1293.162,595.661,1291.287,597.519Z" transform="translate(-1210.942 -535.903)"/><path class="j" d="M1294.69,617.861a2.343,2.343,0,0,0-2.279,1.754c-.061.26-.043.418.131.44,1.531.2,4.521-1.961,3.288-2.132A7.729,7.729,0,0,0,1294.69,617.861Z" transform="translate(-1218.791 -556.244)"/><path class="c" d="M1126.44,658.585c-.292-.069-.485-.108-.557-.116-.951-.1-.706.847-.915,1.34a.813.813,0,0,1-1.271.317c-1.268-.731-1.464-.039-1.9.847a1.956,1.956,0,0,1-2.327.882c-1.241-.317-3.066-4.266-3.419-5.661a3.276,3.276,0,0,1,1.489-3.461,12.686,12.686,0,0,0,.088,4.528c.527,1.817,3.284.805,5.446.094A2.958,2.958,0,0,1,1126.44,658.585Z" transform="translate(-1084.461 -582.798)"/><path class="c" d="M1562.081,552.851c-.052,1.056-1.428,5.865-2.167,5.314s-1-1.453-2.062-1.381a1.541,1.541,0,0,0-1.445,1.381c0,.361-.177.375-1.023,0s-2.115-1.754-3.629-1.048a4.472,4.472,0,0,0-.477.287v0s3.011-2.78,5.4-3.124,3.747.5,4.274-.645c.515-1.117-.9-3.378-.976-3.5C1561.047,550.962,1562.114,552.159,1562.081,552.851Z" transform="translate(-1415.929 -504.674)"/><path class="ac" d="M1346.8,750.611c-1.792,1.638-2.986,1.8-3.447,2.542a4.594,4.594,0,0,0-.565,1.646c-.174-.367-.38-.78-.62-1.227a10.18,10.18,0,0,0-2.573-2.962,8.442,8.442,0,0,0,4.335,0C1345.973,749.952,1348.593,748.976,1346.8,750.611Z" transform="translate(-1254.744 -656.644)"/><path class="q" d="M1069.245,739.758a67.48,67.48,0,0,1-15.737-5.5c-6.345-3.234-9.306-10.109-9.306-10.109l8.564-17.661s-.518,12.847,3.527,20.016C1060.161,733.356,1069.019,739.526,1069.245,739.758Z" transform="translate(-1029.817 -623.726)"/><path class="j" d="M1591.06,637.187c-.047.127-1.649,4.166-8.22,8.242-5.385,3.342-13.715,4.542-13.715,4.542L1565.333,632c.121.259,5.423,7.609,12.506,8.164A24.421,24.421,0,0,0,1591.06,637.187Z" transform="translate(-1426.632 -567.008)"/><path class="ae" d="M1159.671,863l9.9,4.473-5.517,3.111Z" transform="translate(-1117.741 -742.908)"/><path class="af" d="M1182.526,793.157l9.941-.423-2.82,4.865Z" transform="translate(-1135.144 -689.402)"/><path class="z" d="M1525.948,639.1l-7.4,3.878V639.1Z" transform="translate(-1391.005 -572.417)"/><path class="ad" d="M1536.75,748.865c-4.45-1.619-7.894-2.65-8.311-2.143-.229.281-.538.681-.885,1.145,0,0-1.241-7.213,0-5.623C1528.776,743.811,1536.508,748.711,1536.75,748.865Z" transform="translate(-1397.446 -650.781)"/><path class="q" d="M1243.691,728.649s11.684,22.482,22.878,35.254c6.976,7.96,23.651,20.724,23.651,20.724l-35.4-16Z" transform="translate(-1181.718 -640.604)"/><path class="d" d="M1465.153,935.5l.771.2a4.425,4.425,0,0,0,4.695-1.648l.607-.823a44.9,44.9,0,0,1,1.834,5.343c.138,1.117.276,15.409-1.195,13.755s-5.883-11.811-6.112-12.822S1465.153,935.5,1465.153,935.5Z" transform="translate(-1350.35 -796.384)"/></g></g></svg>