<svg xmlns="http://www.w3.org/2000/svg" width="282.851" height="403" viewBox="0 0 282.851 403"><defs><style>.a{fill:#d1f2ff;font-size:350px;font-family:Play-Bold, Play;font-weight:700;}.a,.c{opacity:0.5;}.b{fill:none;stroke:#000;stroke-miterlimit:10;stroke-width:0.5px;}.c,.l{fill:#009eff;}.d{fill:#fff;}.e{fill:#0377bf;}.f{fill:#88cef9;}.g{fill:#ffd648;}.h{fill:#028adc;}.i{fill:#febb46;}.j{fill:#eaeaea;}.k{fill:#cbcbcb;}.m{fill:#fcd2c5;}.n{fill:#fabdaa;}.o{fill:#393939;}.p{fill:#ffbd49;}.q{fill:#e5e5e5;}.r{fill:#d4d3d3;}.s{fill:#464646;}.t{fill:#6774ff;}.u{fill:#020089;}.v{fill:#67cdff;}.w{fill:#ffbc47;}.x{fill:#ff911d;}.y{fill:#fda100;}.z{fill:#008de4;}</style></defs><g transform="translate(-1226 -1436)"><text class="a" transform="translate(1328 1762)"><tspan x="-101.5" y="0">3</tspan></text><g transform="translate(1300 1623)"><path class="b" d="M1348.831,1048.218c0,1.009-2.722,1.828-6.08,1.828s-6.08-.818-6.08-1.828,2.722-1.828,6.08-1.828S1348.831,1047.208,1348.831,1048.218Z" transform="translate(-1237.691 -878.696)"/><path class="b" d="M1356.127,1006.642s-1.483-5.722.743-7.837.571-5.78-1.227-6.43,5.653.169,4.976,4.484S1355.7,1000.012,1356.127,1006.642Z" transform="translate(-1251.809 -837.746)"/><path class="c" d="M1134.953,502.8c-6.215,10.293-18.044,22.23-38.909,34.464l-.15.088q-6.79,3.972-14.887,7.974c-42.952,21.138-88.447,11.975-115.595,1.057a121.542,121.542,0,0,1-15.851-7.636,38.1,38.1,0,0,1-7.768-5.59q-.907-.956-1.758-2.029c-8.065-10.164-11.72-27.456-2.622-38.372,9.735-11.685,23.851-27.26,10.707-43.809s-20.442-30.665-5.84-45.756a144.49,144.49,0,0,1,25.575-20.9,159.349,159.349,0,0,1,18.934-10.449q3.034-1.427,6.115-2.722s74.959-22.876,125.582,7.789c30.178,17.524,9.735,35.533,9.735,35.533s-12.11,9.909-19.6,20.692c-3.643,5.249-6.192,10.707-5.713,15.328a10.912,10.912,0,0,0,1.982,5.2,16.589,16.589,0,0,0,3.2,3.344,27.625,27.625,0,0,0,2.472,1.758c.164.106.332.211.5.314a54.569,54.569,0,0,0,5.619,2.948v0c8.461,3.919,18.3,6.911,21.755,12.228C1141.679,479.238,1142.877,489.683,1134.953,502.8Z" transform="translate(-932.078 -360.921)"/><path class="d" d="M1212.125,411.085v82.131H1078.319v-77.2a159.346,159.346,0,0,1,18.934-10.449h109.353A5.521,5.521,0,0,1,1212.125,411.085Z" transform="translate(-1042.542 -394.644)"/><path class="e" d="M1178.614,525.7l-23.138,3.679a24.636,24.636,0,0,1,1.4-12.066Z" transform="translate(-1100.657 -479.056)"/><path class="f" d="M1197.576,576.817a24.558,24.558,0,0,1-35.947-12.228l22.483-7.73Z" transform="translate(-1105.471 -508.925)"/><path class="g" d="M1274.765,465.133l-20.246,11.021-1.685-23.27c.223-.009.449-.012.675-.012A24.534,24.534,0,0,1,1274.765,465.133Z" transform="translate(-1174.364 -430.378)"/><path class="h" d="M1186.252,476.545l-21.214-9.275v0a24.555,24.555,0,0,1,19.541-13.831Z" transform="translate(-1108.046 -430.804)"/><path class="i" d="M1284.831,518.882a24.5,24.5,0,0,1-9.782,19.609l-13.25-19.638,20.372-11.089A24.4,24.4,0,0,1,1284.831,518.882Z" transform="translate(-1181.135 -471.84)"/><path class="j" d="M1194.143,774.735H1044.117l8.367-10.886H1186.29Z" transform="translate(-1016.708 -665.276)"/><rect class="k" width="150.027" height="1.746" transform="translate(27.409 109.459)"/><rect class="j" width="41.031" height="45.758" rx="20.516" transform="translate(118.869 18.178)"/><path class="g" d="M1462.655,463.4h-20.917a5,5,0,0,1-4.98-4.98h0a5,5,0,0,1,4.98-4.98h20.917a5,5,0,0,1,4.98,4.98h0A5,5,0,0,1,1462.655,463.4Z" transform="translate(-1313.292 -430.804)"/><path class="d" d="M1467.165,506.781h-29.936a.471.471,0,0,1-.471-.471h0a.471.471,0,0,1,.471-.471h29.936a.471.471,0,0,1,.471.471h0A.471.471,0,0,1,1467.165,506.781Z" transform="translate(-1313.292 -470.387)"/><path class="d" d="M1467.165,518.258h-29.936a.471.471,0,0,1-.471-.471h0a.471.471,0,0,1,.471-.47h29.936a.471.471,0,0,1,.471.47h0A.471.471,0,0,1,1467.165,518.258Z" transform="translate(-1313.292 -479.056)"/><path class="d" d="M1467.165,529.689h-29.936a.471.471,0,0,1-.471-.471h0a.471.471,0,0,1,.471-.471h29.936a.471.471,0,0,1,.471.471h0A.471.471,0,0,1,1467.165,529.689Z" transform="translate(-1313.292 -487.691)"/><rect class="l" width="11.953" height="13.455" rx="5.976" transform="translate(142.391 46.307)"/><rect class="g" width="17.779" height="7.046" rx="3.523" transform="translate(123.466 46.511)"/><path class="m" d="M1404.586,471.543a6.234,6.234,0,0,0-6.7-4.289c-5.362.447-8.758,3.465-10.1,6.558-.879,2.028-.435,15.6,2.3,16.616a4.986,4.986,0,0,0,4.777-.743l.7,6.282h8.4l-.447-9.856S1410.216,479.049,1404.586,471.543Z" transform="translate(-1275.993 -441.218)"/><path class="n" d="M1389.1,489.069l-.055.733a10.69,10.69,0,0,1,3.685,6.625c.347,3.959.329-1.69.914-1.69s2.294.444,1.439,3.529,1.1,4.479.235,5.784-2.072,2.873-3.023,2.621a4.494,4.494,0,0,0,3.826-1l.463,4.175s.027-3.615,8.348-4.235v-2.227S1398.726,484.647,1389.1,489.069Z" transform="translate(-1277.252 -457.209)"/><path class="o" d="M1385.774,472.049s1.646,2.392,3.077,4.9,2.433,4.306,2.433,4.306l6.846-.522s4.692-7.362,4.72-9.867-.831-6.369-3.05-7.658a7.723,7.723,0,0,0-7.585-5.3c-6.155-.072-6.656,1.145-7.085-1.145,0,0-5.807,2.433-4.943,5.153a10.725,10.725,0,0,0,2.1,3.994S1385.416,465.363,1385.774,472.049Z" transform="translate(-1270.495 -433.318)"/><path class="m" d="M1403.3,514.858s.143-4.151,2.5-2.648-.644,6.154-.644,6.154Z" transform="translate(-1288.016 -474.95)"/><path class="o" d="M1479.106,588.031s2.8-3.118,7.306,16.02c3.233,13.74,3.833,14.547,2.526,17.682s-10.975,13.3-10.975,13.3l-1.916-9.9,4.965-7.753-6.272-20.731Z" transform="translate(-1341.982 -532.329)"/><path class="p" d="M1421.786,759.46l-26.751,2.972.7-4.313,18.87-2.9,5.728.83C1420.991,757.769,1421.366,757.381,1421.786,759.46Z" transform="translate(-1281.78 -659.579)"/><path class="q" d="M1398.218,601.352l2.441,12.716-5.613.783-19.08,1.179.066-.368s-1.411-5.066-2.927-10.968-4.17-28.516-4.17-28.516a39.414,39.414,0,0,1,11.326-5.679h0c1.189-.389,1.933-.576,1.933-.576,6.343.154,8.516-1.841,8.516-1.841s.909.28,2.25.813a27.489,27.489,0,0,1,8.12,4.778C1404.942,577.271,1398.218,601.352,1398.218,601.352Z" transform="translate(-1262.061 -517.402)"/><path class="g" d="M1418.592,782.212l-29.973.476,1.571-10.9,26.746-2.895A47.055,47.055,0,0,1,1418.592,782.212Z" transform="translate(-1276.93 -669.083)"/><path class="k" d="M1382.421,605.677s3.989,1,5.627,15.954-5.462,6.858-5.462,6.858Z" transform="translate(-1272.249 -545.8)"/><path class="o" d="M1424.681,568.043v0s-.655,1.979-5.405,3.1-7.228-1.039-7.228-1.039c1.174-.432,1.911-.646,1.911-.646,6.345-.076,8.444-2.149,8.444-2.149S1423.322,567.559,1424.681,568.043Z" transform="translate(-1294.627 -516.82)"/><path class="m" d="M1291.323,551.027s-.148-5.511-.984-6.151-1.23-.344-1.23-.344a61.27,61.27,0,0,1-3.838-5.233c-1.427-2.3-1.476.165.836,5.036,0,0-1.23-.049-1.279,1.575,0,0-1.378.246-1.083,2.017s3.372,5.708,3.372,5.708Z" transform="translate(-1197.681 -495.006)"/><path class="o" d="M1305.436,603.79l2.7-12.8s1.161-5.414,5.962-2.566,1.224,18.381,1.224,18.381-2.742,18.392-12.8-.377-10.835-19.917-10.835-19.917l5.846-3.522,8.6,14.028Z" transform="translate(-1203.708 -528.66)"/><path class="h" d="M1257.2,689.538h0a.689.689,0,0,1-.525-.818l.412-1.889a.69.69,0,0,1,.818-.525h0a.689.689,0,0,1,.525.818l-.412,1.889A.69.69,0,0,1,1257.2,689.538Z" transform="translate(-1177.253 -606.691)"/><rect class="o" width="2.164" height="11.275" rx="1.082" transform="translate(79.098 81.392) rotate(12.297)"/><path class="g" d="M1233.639,684.718h0a.689.689,0,0,1-.76-.607l-.215-1.921a.689.689,0,0,1,.606-.76h0a.689.689,0,0,1,.76.607l.215,1.921A.689.689,0,0,1,1233.639,684.718Z" transform="translate(-1159.125 -603.017)"/><rect class="i" width="2.164" height="11.275" rx="1.082" transform="matrix(0.994, -0.111, 0.111, 0.994, 73.243, 80.595)"/><rect class="q" width="6.907" height="11.114" rx="3.453" transform="translate(73.599 88.692)"/><path class="f" d="M1279.584,743.6c0,.873-2.154,1.581-4.81,1.581s-4.81-.708-4.81-1.581,2.153-1.581,4.81-1.581S1279.584,742.73,1279.584,743.6Z" transform="translate(-1187.303 -648.789)"/><path class="o" d="M3.072,0h4.5a3.072,3.072,0,0,1,3.072,3.072v0A3.072,3.072,0,0,1,7.573,6.144h-4.5A3.072,3.072,0,0,1,0,3.072v0A3.072,3.072,0,0,1,3.072,0Z" transform="translate(82.131 94.249)"/><rect class="l" width="21.208" height="8.451" rx="4.225" transform="translate(72.706 97.224)"/><path class="r" d="M1073.442,581.146s10.631-10.047,10.631-21.729-6.425-11.31-4.089-17.4-2.687-10.77-5.841-6.033-10.281,23.2-10.047,29.27S1067.555,588.507,1073.442,581.146Z" transform="translate(-1031.794 -491.694)"/><g transform="translate(39.893 46.264)"><path class="d" d="M1096.072,586.881l-.929-.505c5.873-10.81,5.167-14.21,2.848-21.526a20.821,20.821,0,0,1,1.272-14.82l.936.493c-.035.067-3.492,6.774-1.2,14.007C1101.353,571.96,1102.138,575.715,1096.072,586.881Z" transform="translate(-1095.143 -550.03)"/></g><path class="d" d="M1000.4,602.721s-11.566-8.762-10.047-18.224,4.323-9.58-1.869-13.9-.575-16.061,3.5-14.855,1.4,12.368,6.659,14.02S1011.965,609.614,1000.4,602.721Z" transform="translate(-972.604 -508.013)"/><g transform="translate(16.865 52.35)"><g transform="translate(0 0)"><path class="g" d="M1015.222,613.095l-5.1-12.8c-.027-.106-2.773-10.682-6.575-15.468-4.071-5.127-2.041-9.724-1.952-9.918l.962.439c-.076.17-1.835,4.221,1.818,8.821,3.872,4.874,6.56,15.05,6.762,15.83l5.065,12.7Z" transform="translate(-1001.013 -574.909)"/></g></g><path class="g" d="M1035.165,560.326s-7.594-8.619-7.36-17.264,7.126-12.617,6.425-17.64-10.806-7.593-2.439-18.224,12.836-2.7,9.331,4.609,9.229,6.49,7.594,17.938S1042.875,574.2,1035.165,560.326Z" transform="translate(-1004.382 -467.512)"/><g transform="translate(30.359 40.014)"><g transform="translate(0 0)"><path class="d" d="M1063.052,579.608c-.093-.121-9.267-12.222-4.394-24.277,3.618-8.95,2.033-11.889.027-15.611a29.964,29.964,0,0,1-1.8-3.775c-2.41-6.39,2.063-11.255,2.254-11.459l.771.723c-.172.185-4.209,4.6-2.036,10.363a29.094,29.094,0,0,0,1.743,3.647c2.053,3.809,3.826,7.1.022,16.509-4.648,11.5,4.162,23.119,4.252,23.234Z" transform="translate(-1056.173 -524.485)"/></g></g><path class="o" d="M1198.817,885.241c-4.527,2.648-9.477,5.311-14.888,7.974-42.952,21.138-88.446,11.975-115.594,1.057l25.533-72.8,83.773.458Z" transform="translate(-1035.001 -708.805)"/><path class="s" d="M1327.336,1081.269s2.553,4.884-6.488,7.391-9.554-5.265-5.375-6.725S1327.336,1081.269,1327.336,1081.269Z" transform="translate(-1219.774 -904.879)"/><path class="k" d="M1223.464,831.011l1.436,1.757h-3.389l-15.283-6.119.565-.276-1.193-.565,1.287-.516,1.379.4Z" transform="translate(-1138.685 -711.688)"/><path class="t" d="M1213.313,821.94l-.851-.406a.631.631,0,0,1-.3-.838h0a.631.631,0,0,1,.838-.3l.851.406a.63.63,0,0,1,.3.838h0A.63.63,0,0,1,1213.313,821.94Z" transform="translate(-1143.599 -707.946)"/><rect class="u" width="1.825" height="15.839" rx="0.913" transform="matrix(0.369, -0.93, 0.93, 0.369, 69.471, 114.279)"/><path class="t" d="M1277.3,846.045l-2.3-1.786-.7,1.687Z" transform="translate(-1190.576 -726.015)"/><path class="k" d="M1236.485,905.35l-2.747,1.847a2.909,2.909,0,0,1-1.623.495h-30.169a.68.68,0,0,1-.669-.8l5.4-30.082a4.472,4.472,0,0,1,1.559-2.663l2.57-1.775Z" transform="translate(-1135.411 -747.249)"/><path class="d" d="M1248.6,871.519v33.187h-30.084a1.213,1.213,0,0,1-1.213-1.212c0-.029,0-.062,0-.091s.006-.07.012-.106l5.082-30.762a1.214,1.214,0,0,1,1.2-1.016Z" transform="translate(-1147.523 -746.606)"/><path class="k" d="M1248.6,1001.847v1.3h-30.084a1.213,1.213,0,0,1-1.213-1.212v-.091Z" transform="translate(-1147.523 -845.05)"/><path class="q" d="M1288.322,880.956h-9.368a1.313,1.313,0,0,0-1.3,1.166l-2.7,23.919a1.313,1.313,0,0,0,1.305,1.461h12.07a1.313,1.313,0,0,0,1.313-1.313V882.269A1.313,1.313,0,0,0,1288.322,880.956Z" transform="translate(-1191.06 -753.734)"/><path class="q" d="M1245.513,900.877l-1.217,10.569a1.515,1.515,0,0,1-1.5,1.342h-6.229a1.515,1.515,0,0,1-1.5-1.754l1.691-10.569a1.515,1.515,0,0,1,1.5-1.275h5.755A1.515,1.515,0,0,1,1245.513,900.877Z" transform="translate(-1160.928 -767.507)"/><path class="q" d="M1345.228,815.3l5.232-18.208,1.256,31.083-6.488,19.009Z" transform="translate(-1244.154 -690.385)"/><path class="d" d="M1351.06,797.091h-.6l1.256,31.083-6.488,19.009h.571l6.6-19.051Z" transform="translate(-1244.154 -690.385)"/><path class="v" d="M1353.59,832.028l.446,21.859a.249.249,0,0,1-.011.08l-2.783,9.023a.255.255,0,0,1-.5-.075V840.971a.252.252,0,0,1,.008-.065l2.337-8.939A.255.255,0,0,1,1353.59,832.028Z" transform="translate(-1248.32 -716.587)"/><path class="d" d="M1111.029,803.982l12.712,11.639s9.746,6.3,9.228,10.964-5.7,29.447-5.7,29.447l-9.6-.622,4.932-28.137-13.757-12.2Z" transform="translate(-1065.6 -695.591)"/><path class="m" d="M1152.445,996.889l.726-1.77.856-4.129s-4.212-4.927-9.51-1.881l-1.379,8.761Z" transform="translate(-1091.505 -834.677)"/><path class="g" d="M1009.8,834.035l-19.823,56.513c-12.237-4.923-20.745-10.2-23.619-13.226q-.907-.956-1.758-2.029c3.684-14.069,11.3-42.036,15.46-49.4,5.628-9.956,16.87-10.6,22.859-8.141S1009.8,834.035,1009.8,834.035Z" transform="translate(-956.644 -705.082)"/><path class="o" d="M1122.575,888.037l3.006,7.232-2.7,7.691-1.646-13.126Z" transform="translate(-1074.961 -759.083)"/><path class="o" d="M1115.075,863.062s3.455,8.12,0,10.763c0,0-2.9-.125-2.9-1.925s2.217-7.665,2.217-7.665Z" transform="translate(-1068.117 -740.218)"/><path class="d" d="M1072.592,836.065s-16-12.192-20.493-7.523-3.746,8.906,1.759,15.651a115.852,115.852,0,0,1,7.568,10.031s5.324-7.35,4.527-14.354A16.764,16.764,0,0,0,1072.592,836.065Z" transform="translate(-1020.524 -713.338)"/><path class="m" d="M1077.716,713.989c4.568,5.288,8.353,25.926,1.736,27.554-5.376,1.323-5.5.75-5.5.75l-.811,8.917s-4.145,8.036-9.976,2.87-4.847-8.085-4.847-8.085,4.983-8.3,2.4-14.241S1073.148,708.7,1077.716,713.989Z" transform="translate(-1027.383 -626.858)"/><path class="n" d="M1090.573,725.42a4.591,4.591,0,0,1-1.055,3.909c-1.614,2.164-3.448,6.013-3.245,9.241s-2.268-3.849-3.019-3.911-3.39,2.339.847,6.829c1.071,1.135-1.667,8.128,4.575,8.565,0,0-3.085,1.3-4.288.462l-.811,8.917s-.741-7.865-3.733-7.907-7.033,2.136-7.744-.629S1084.676,716.617,1090.573,725.42Z" transform="translate(-1037.825 -635.08)"/><path class="o" d="M1067.225,688.979s2.647,9.362-3.068,11.717-7.066,18.568-12.47,22.216-6.67-.91-6.67-.91-3-4.778-4.851-7.068-3.955-13.234-.878-17.018c0,0,2.186-12.409,12.7-9.65S1064.658,692.336,1067.225,688.979Z" transform="translate(-1011.88 -607.882)"/><path class="n" d="M1113.214,765.388s-3.053-4.758-4.131-.987,1.8,7.847,2.694,7.246S1113.214,765.388,1113.214,765.388Z" transform="translate(-1065.6 -664.595)"/><path class="m" d="M1228.747,1006.877l3.692-3.21a5.16,5.16,0,0,1,1.559-.931l5.511-2.082a.254.254,0,0,1,.325.333l-.319.786a2.742,2.742,0,0,1-.925,1.184l-.858.625a.23.23,0,0,0,.151.415l4.062-.276a3.746,3.746,0,0,0,1.619-.493l1.745-1.006a.691.691,0,0,1,1.035.636l-.439,7.881a2.511,2.511,0,0,1-.75,1.653c-1.241,1.218-3.6,3.092-5.593,3.456-2.3.419-12.857-1.484-12.857-1.484Z" transform="translate(-1154.629 -844.136)"/><path class="w" d="M1017.007,926.064l-7.022,20.023a121.586,121.586,0,0,1-15.851-7.636c-3.012-7.6-3.047-17.389-3.047-17.389,5.725,7.848,10.046,1.621,10.046,1.621s-3.191-25.7-2.713-29.162c.476-3.432,2.859-3.446,2.9-3.446Z" transform="translate(-976.65 -760.621)"/><path class="d" d="M1022.074,888s4.874-6.532,14.931,9.228,11.095,17.611,11.095,17.611l26.855,3.23-.415,13.686-30.173-3.629s-6.843-1.451-10.369-7.362-11.924-22.228-11.924-22.228S1019.171,891.106,1022.074,888Z" transform="translate(-999.083 -758.038)"/><path class="d" d="M1399.039,842.073h21.108l6.2,22.785H1401.1Z" transform="translate(-1284.801 -724.363)"/><path class="q" d="M1410.957,851.62h16.7l.192.838h-16.723Z" transform="translate(-1293.804 -731.575)"/><path class="q" d="M1412.658,861.484h16.871l.194.838H1412.83Z" transform="translate(-1295.088 -739.026)"/><path class="w" d="M1416.237,831.778l-.663-.67a.631.631,0,0,1,0-.889h0a.63.63,0,0,1,.889,0l.663.67a.63.63,0,0,1,0,.889h0A.63.63,0,0,1,1416.237,831.778Z" transform="translate(-1297.154 -715.272)"/><rect class="x" width="1.825" height="15.839" rx="0.913" transform="matrix(0.662, -0.75, 0.75, 0.662, 118.758, 116.691)"/><path class="w" d="M1467.293,876.3l-1.562-2.46-1.227,1.351Z" transform="translate(-1334.25 -748.361)"/><path class="m" d="M1548.039,677.578v9.97s.455,12.043,2.782,13.435,4.753-.873,4.753-.873l4.405,12.546,15.882-2.413-5.448-14.464-5.333-31.88S1550.125,668.188,1548.039,677.578Z" transform="translate(-1397.349 -589.778)"/><path class="m" d="M1429.742,866.5l1.325-8.458a1.509,1.509,0,0,0-.334-1.2l-1.839-2.2a.43.43,0,0,0-.525-.107l-1.066.544a.43.43,0,0,0-.235.391l.031,1.619a.258.258,0,0,1-.429.2l-3.961-3.495a.43.43,0,0,0-.483-.059l-3.416,1.775a.425.425,0,0,0-.216.267c-.166.616-.539,2.736,1.1,5.7a37.5,37.5,0,0,1,2.966,7.9.43.43,0,0,0,.595.284l6.243-2.839A.43.43,0,0,0,1429.742,866.5Z" transform="translate(-1299.452 -733.139)"/><path class="n" d="M1548.039,702.732v3.705s2.087,6.423,3.266,7.779,1.939,6.112,1.939,6.112l-1.085-9.955s1.11-1.5,1.793,4.478,1.268,13.538,0,13.982,1.623-.873,1.623-.873l.935,2.662a6.5,6.5,0,0,1,4.185-2.662l2.817-.477v1.595l4.865-.741-3.244-21.849-14.85-5.718Z" transform="translate(-1397.349 -617.628)"/><path class="y" d="M1572.084,678.989c-2.88.158-5.258,9.618-5.258,9.618l-12.263,1.679s-3.94-10.886-7.128-14.06-7.986-15.619-2.61-19.888,22.721-4.289,22.721-4.289a5.607,5.607,0,0,1,2.093.993c-3.643,5.249-6.192,10.707-5.713,15.328C1564.4,672.973,1567.671,676.282,1572.084,678.989Z" transform="translate(-1393.092 -580.827)"/><path class="n" d="M1563.535,739.634s-1.584-7.365.713-5.94,1.98,10.692,1.5,10.692S1563.535,739.634,1563.535,739.634Z" transform="translate(-1408.653 -642.36)"/><path class="z" d="M1506.205,842.312c-5.367,8.89-14.923,19.007-30.871,29.479q-3.774,2.484-8.039,4.985l-7.771-12.334c-7.578-3.4-5.8-11.655-5.722-12.008-.2.405-5.337,11.159-12.351,23.822-2.98,5.382-5.7,5.561-7.868,3.94-3.024-2.267-4.953-8.05-4.953-8.05l-5.062-38.393,11.409-1.574,4.09,12.3,6.911-14.947,15.915-11.394a17.176,17.176,0,0,1-.44-4.1c.176-1.3,17.765-3.646,17.765-3.646l2.625,4.163s11.444,4.11,15.417,5.925C1499.749,821.614,1503.648,833.56,1506.205,842.312Z" transform="translate(-1303.33 -700.429)"/><path class="e" d="M1506.255,959.866q-3.774,2.484-8.038,4.985l-7.771-12.334c-7.578-3.4-5.8-11.655-5.722-12.008-.2.405-5.337,11.159-12.351,23.822-2.98,5.382-5.7,5.561-7.868,3.94l24.1-41.284a65.186,65.186,0,0,0,3.089,14.233C1493.325,945.78,1501.232,954.575,1506.255,959.866Z" transform="translate(-1334.251 -788.504)"/><path class="x" d="M1633.275,774.33c-5.188-2.055-9.959-9.788-10.983-14.377-.755-3.376,2.237-14.359,3.87-19.926a16.586,16.586,0,0,0,3.2,3.344,27.626,27.626,0,0,0,2.472,1.758l-2.155,16.837S1638.466,776.385,1633.275,774.33Z" transform="translate(-1453.346 -647.282)"/><path class="y" d="M1648.137,786.71s-14.952-3.385-12.982-16.432c1.941-12.844,3.826-16.473,3.881-16.582a28.55,28.55,0,0,0,2.974,2.073,54.588,54.588,0,0,0,5.619,2.948v0S1643.037,778.51,1648.137,786.71Z" transform="translate(-1463.018 -657.607)"/><path class="d" d="M1323.227,1058.819s-6.06-3.755-4.486,1.494,5.86,3.6,5.86,3.6Zm-1.688,3.749c-1.06-.452-2.264-3.391-1.779-3.749s2.907.713,2.907.713l1.162,3.165A4.008,4.008,0,0,1,1321.539,1062.568Z" transform="translate(-1223.95 -887.102)"/><path class="d" d="M1347.016,1041.114c-.023.159-.047.314-.073.467-1.421,9-3.77,10.552-7.119,10.916,0,0-6.347.161-7.181-11.177-.006-.067-.009-.135-.015-.205,0-1.823,3.221-3.3,7.2-3.3S1347.016,1039.291,1347.016,1041.114Z" transform="translate(-1234.636 -872.218)"/><path class="q" d="M1347.016,1041.114a1.488,1.488,0,0,1-.073.467c-.493,1.6-3.494,2.833-7.119,2.833-3.825,0-6.952-1.371-7.181-3.094-.006-.067-.009-.135-.015-.205,0-1.823,3.221-3.3,7.2-3.3S1347.016,1039.291,1347.016,1041.114Z" transform="translate(-1234.636 -872.218)"/><path class="g" d="M1349.16,1048.484s-1.844,2.476-6.306,2.316-6.059-1.781-6.205-2.121,1.924-1.714,6.205-1.678S1348.69,1047.471,1349.16,1048.484Z" transform="translate(-1237.668 -879.157)"/></g></g></svg>