<svg xmlns="http://www.w3.org/2000/svg" width="334.994" height="403" viewBox="0 0 334.994 403"><defs><style>.a,.e{fill:#d1f2ff;}.a{font-size:350px;font-family:Play-Bold, Play;font-weight:700;}.a,.b{opacity:0.5;}.b{fill:#009eff;}.c{fill:#7acbfe;}.d{fill:#009bfa;}.f{fill:#005589;}.g{fill:#fff;}.h{fill:#d9d8d6;}.i{fill:#88cef9;}.j{fill:#0377bf;}.k{fill:#028adc;}.l{fill:#eaeaea;}.m{fill:#ffd648;}.n{fill:#f26178;}.o{fill:#42b7ff;}.p{fill:#ffbc47;}.q{fill:#393939;}.r{fill:#fcd2c5;}.s{fill:#fabdaa;}.t{fill:#036099;}.u{fill:#f6dadf;}.v{fill:#e5e5e5;}.w{fill:#ff605a;}</style></defs><g transform="translate(-773 -1436)"><text class="a" transform="translate(875 1762)"><tspan x="-101.5" y="0">2</tspan></text><g transform="translate(812 1623)"><path class="b" d="M748.593,407.884S804.078,368.1,814.3,361.525s34.313-14.236,16.062,9.491-41.979,47.089-39.424,56.215,64.976,25.187,92.354,9.126,75.927-28.108,56.58,1.46-27.378,40.884-17.522,39.789,19.712,5.84,1.825,18.252S872.7,529.805,868.324,532s-65.706,13.141-59.866-25.552S689.823,525.79,689.823,525.79s-28.107,12.046-12.776-10.221-9.856-8.031-15.7-4.381-28.473,4.381,4.38-25.917S748.593,407.884,748.593,407.884Z" transform="translate(-648.314 -354.898)"/><path class="c" d="M882.64,1076.8s98.734-.679,117.859,3.925-28.037,15.023-83.722,14.606-35.367-9.282-70.438-8.6-54.2,8.624-79.359,8.612-14.6-19.331,45.04-19.331S882.64,1076.8,882.64,1076.8Z" transform="translate(-728.108 -898.221)"/><path class="d" d="M59.2,0H99.949a59.2,59.2,0,0,1,59.2,59.2v86.188H0V59.2A59.2,59.2,0,0,1,59.2,0Z" transform="translate(88.706 31.834)"/><path class="e" d="M1096.423,660.419a6.015,6.015,0,0,0,6.015-6.015V528.555c0-4.438-4.249-8.037-9.49-8.037H943.981c-5.241,0-9.49,3.6-9.49,8.037V654.4a6.015,6.015,0,0,0,6.015,6.015Z" transform="translate(-863.932 -479.684)"/><path class="f" d="M7.7.076,153.577.095c16.309,0,15.159,7.038,15.159,14.782,0,.866-1.6.712-2.5.712H1.621c-.9,0-.924-.492-.924-1.357C.7,6.488-.3.076,7.7.076Z" transform="translate(69.848 40.246)"/><circle class="g" cx="1.978" cy="1.978" r="1.978" transform="translate(225.496 48.722)"/><circle class="g" cx="1.978" cy="1.978" r="1.978" transform="translate(218.305 48.722)"/><circle class="g" cx="1.978" cy="1.978" r="1.978" transform="translate(211.165 48.722)"/><path class="g" d="M7.741,0H64.5a7.742,7.742,0,0,1,7.742,7.742v86.03a7.741,7.741,0,0,1-7.741,7.741H7.742A7.742,7.742,0,0,1,0,93.771V7.741A7.741,7.741,0,0,1,7.741,0Z" transform="translate(80.716 72.27)"/><rect class="g" width="64.112" height="38.089" rx="8.589" transform="translate(163.362 72.27)"/><path class="h" d="M1060.19,680.74h-55.718a.771.771,0,0,1-.771-.771h0a.771.771,0,0,1,.771-.771h55.718a.771.771,0,0,1,.771.771h0A.771.771,0,0,1,1060.19,680.74Z" transform="translate(-916.078 -599.24)"/><path class="h" d="M1060.19,699.5h-55.718a.771.771,0,0,1-.771-.771h0a.771.771,0,0,1,.771-.771h55.718a.771.771,0,0,1,.771.771h0A.771.771,0,0,1,1060.19,699.5Z" transform="translate(-916.078 -613.373)"/><path class="h" d="M1060.19,720.93h-55.718a.771.771,0,0,1-.771-.771h0a.771.771,0,0,1,.771-.771h55.718a.77.77,0,0,1,.771.771h0A.771.771,0,0,1,1060.19,720.93Z" transform="translate(-916.078 -629.522)"/><path class="h" d="M1060.19,742.372h-55.718a.771.771,0,0,1-.771-.771h0a.771.771,0,0,1,.771-.771h55.718a.771.771,0,0,1,.771.771h0A.771.771,0,0,1,1060.19,742.372Z" transform="translate(-916.078 -645.677)"/><rect class="h" width="28.63" height="1.542" transform="translate(87.623 104.527)"/><rect class="h" width="28.63" height="1.542" transform="translate(87.623 109.588)"/><rect class="h" width="28.63" height="1.542" transform="translate(87.623 114.534)"/><rect class="h" width="28.63" height="1.542" transform="translate(87.623 119.494)"/><rect class="h" width="6.602" height="6.602" transform="translate(123.52 104.527)"/><rect class="h" width="6.602" height="6.602" transform="translate(123.52 114.534)"/><path class="i" d="M1134.839,903.783a16.03,16.03,0,0,1-21.29,15.135,15.688,15.688,0,0,1-3.2-1.533,16.021,16.021,0,0,1,8.467-29.622v16.02Z" transform="translate(-990.743 -756.382)"/><rect class="j" width="20.828" height="4.446" rx="2.223" transform="translate(87.623 133.561)"/><rect class="h" width="15.826" height="4.446" rx="2.223" transform="translate(87.623 146.306)"/><rect class="k" width="15.826" height="4.446" rx="2.223" transform="translate(87.623 140.059)"/><rect class="k" width="12.147" height="4.446" rx="2.223" transform="translate(87.623 152.599)"/><rect class="j" width="23.608" height="4.446" rx="2.223" transform="translate(87.623 158.85)"/><path class="l" d="M1374.234,1012.5h-62.57a.771.771,0,0,1-.771-.771h0a.771.771,0,0,1,.771-.771h62.57a.771.771,0,0,1,.771.771h0A.771.771,0,0,1,1374.234,1012.5Z" transform="translate(-1147.531 -849.199)"/><rect class="g" width="8.586" height="32.395" rx="4.293" transform="translate(167.624 127.223)"/><rect class="k" width="8.585" height="41.783" rx="4.293" transform="translate(180.084 117.835)"/><rect class="m" width="8.585" height="24.846" rx="4.293" transform="translate(192.365 134.772)"/><rect class="g" width="8.585" height="34.033" rx="4.293" transform="translate(202.995 125.792)"/><rect class="n" width="8.586" height="30.227" transform="translate(214.684 129.598)"/><path class="k" d="M957.2,1037.884l-.154,1.016-1.058,7.019a6.236,6.236,0,0,1-6.168,5.306h-8.143a6.232,6.232,0,0,1-6.184-5.457l-.57-4.517-.295-2.352-.131-1.042a1.115,1.115,0,0,1,1.107-1.255h20.491A1.116,1.116,0,0,1,957.2,1037.884Z" transform="translate(-863.93 -868.525)"/><path class="o" d="M983.122,943.654s6.033-27.917-1.541-30.215-7.959,15.593-5.52,30.215Z" transform="translate(-894.246 -775.577)"/><path class="p" d="M953.589,988.946s-5.392-14.187,1.8-15.52,5.263,15.52,5.263,15.52Z" transform="translate(-876.859 -820.869)"/><path class="i" d="M955.307,1045.916a.936.936,0,0,1,.929,1.052l-.726,5.793c-.462,3.053-2.179,5.48-5.265,5.48h-7.461c2.768-1.16,5.62-2.967,5.6-5.48-.033-3.436-8.225-4.287-13.033-4.494l-.295-2.352Z" transform="translate(-864.357 -875.542)"/><path class="m" d="M968.885,995.646l-1.278-12.709a.328.328,0,0,0-.359-.293l-.326.033a.328.328,0,0,0-.293.359l1.278,12.709a.324.324,0,0,0,.1.2h.731A.324.324,0,0,0,968.885,995.646Z" transform="translate(-888.145 -827.869)"/><path class="p" d="M1187.78,899.5h-16.02v-16.02a16.023,16.023,0,0,1,15.82,13.5A15.585,15.585,0,0,1,1187.78,899.5Z" transform="translate(-1042.702 -753.155)"/><g transform="translate(131.714 104.325)"><path class="q" d="M1185.855,783.9l-3.324-4.074,1.015-.828,2.191,2.686,2.388-3.658,1.1.717Z" transform="translate(-1182.531 -778.028)"/></g><g transform="translate(131.714 114.154)"><path class="q" d="M1185.855,823.767l-3.324-4.074,1.015-.828,2.191,2.686,2.388-3.658,1.1.716Z" transform="translate(-1182.531 -817.892)"/></g><path class="m" d="M1343.774,716.961l5.325-5.067a4.754,4.754,0,0,1,4.934-1.011l2.547.948a4.754,4.754,0,0,0,5.228-1.317l3.162-3.6a4.754,4.754,0,0,1,6.438-.653h0a4.753,4.753,0,0,0,6.748-1.046l4.412-6.238a4.754,4.754,0,0,1,3.121-1.948l5.754-.931v20.862Z" transform="translate(-1172.305 -611.974)"/><g transform="translate(171.142 76.584)"><path class="p" d="M1390.28,694.245h-47.834v-28.73h.328v28.4h47.507Z" transform="translate(-1342.445 -665.515)"/></g><g transform="translate(178.945 77.56)"><g transform="translate(0 0)"><rect class="m" width="0.328" height="0.316"/></g><g transform="translate(0 0.941)"><path class="m" d="M1374.424,697.66h-.328v-.625h.328Zm0-1.25h-.328v-.625h.328Zm0-1.25h-.328v-.625h.328Zm0-1.25h-.328v-.625h.328Zm0-1.25h-.328v-.625h.328Zm0-1.25h-.328v-.625h.328Zm0-1.25h-.328v-.625h.328Zm0-1.25h-.328v-.625h.328Zm0-1.25h-.328v-.625h.328Zm0-1.25h-.328v-.625h.328Zm0-1.25h-.328v-.625h.328Zm0-1.25h-.328v-.625h.328Zm0-1.25h-.328v-.625h.328Zm0-1.25h-.328v-.625h.328Zm0-1.25h-.328v-.625h.328Zm0-1.25h-.328v-.625h.328Zm0-1.25h-.328v-.625h.328Zm0-1.25h-.328v-.625h.328Zm0-1.25h-.328v-.625h.328Zm0-1.25h-.328v-.625h.328Z" transform="translate(-1374.096 -673.288)"/></g><g transform="translate(0 25.937)"><rect class="m" width="0.328" height="0.316"/></g></g><g transform="translate(187.343 77.56)"><g transform="translate(0 0)"><rect class="m" width="0.328" height="0.316"/></g><g transform="translate(0 0.941)"><path class="m" d="M1408.484,697.66h-.328v-.625h.328Zm0-1.25h-.328v-.625h.328Zm0-1.25h-.328v-.625h.328Zm0-1.25h-.328v-.625h.328Zm0-1.25h-.328v-.625h.328Zm0-1.25h-.328v-.625h.328Zm0-1.25h-.328v-.625h.328Zm0-1.25h-.328v-.625h.328Zm0-1.25h-.328v-.625h.328Zm0-1.25h-.328v-.625h.328Zm0-1.25h-.328v-.625h.328Zm0-1.25h-.328v-.625h.328Zm0-1.25h-.328v-.625h.328Zm0-1.25h-.328v-.625h.328Zm0-1.25h-.328v-.625h.328Zm0-1.25h-.328v-.625h.328Zm0-1.25h-.328v-.625h.328Zm0-1.25h-.328v-.625h.328Zm0-1.25h-.328v-.625h.328Zm0-1.25h-.328v-.625h.328Z" transform="translate(-1408.156 -673.288)"/></g><g transform="translate(0 25.937)"><rect class="m" width="0.328" height="0.316"/></g></g><g transform="translate(195.254 77.56)"><g transform="translate(0 0)"><rect class="m" width="0.328" height="0.316"/></g><g transform="translate(0 0.941)"><path class="m" d="M1440.571,697.66h-.328v-.625h.328Zm0-1.25h-.328v-.625h.328Zm0-1.25h-.328v-.625h.328Zm0-1.25h-.328v-.625h.328Zm0-1.25h-.328v-.625h.328Zm0-1.25h-.328v-.625h.328Zm0-1.25h-.328v-.625h.328Zm0-1.25h-.328v-.625h.328Zm0-1.25h-.328v-.625h.328Zm0-1.25h-.328v-.625h.328Zm0-1.25h-.328v-.625h.328Zm0-1.25h-.328v-.625h.328Zm0-1.25h-.328v-.625h.328Zm0-1.25h-.328v-.625h.328Zm0-1.25h-.328v-.625h.328Zm0-1.25h-.328v-.625h.328Zm0-1.25h-.328v-.625h.328Zm0-1.25h-.328v-.625h.328Zm0-1.25h-.328v-.625h.328Zm0-1.25h-.328v-.625h.328Z" transform="translate(-1440.243 -673.288)"/></g><g transform="translate(0 25.937)"><rect class="m" width="0.328" height="0.316"/></g></g><g transform="translate(203.018 77.56)"><g transform="translate(0 0)"><rect class="m" width="0.328" height="0.316"/></g><g transform="translate(0 0.941)"><path class="m" d="M1472.06,697.66h-.327v-.625h.327Zm0-1.25h-.327v-.625h.327Zm0-1.25h-.327v-.625h.327Zm0-1.25h-.327v-.625h.327Zm0-1.25h-.327v-.625h.327Zm0-1.25h-.327v-.625h.327Zm0-1.25h-.327v-.625h.327Zm0-1.25h-.327v-.625h.327Zm0-1.25h-.327v-.625h.327Zm0-1.25h-.327v-.625h.327Zm0-1.25h-.327v-.625h.327Zm0-1.25h-.327v-.625h.327Zm0-1.25h-.327v-.625h.327Zm0-1.25h-.327v-.625h.327Zm0-1.25h-.327v-.625h.327Zm0-1.25h-.327v-.625h.327Zm0-1.25h-.327v-.625h.327Zm0-1.25h-.327v-.625h.327Zm0-1.25h-.327v-.625h.327Zm0-1.25h-.327v-.625h.327Z" transform="translate(-1471.733 -673.288)"/></g><g transform="translate(0 25.937)"><rect class="m" width="0.328" height="0.316"/></g></g><g transform="translate(211.417 77.56)"><g transform="translate(0 0)"><rect class="m" width="0.328" height="0.316"/></g><g transform="translate(0 0.941)"><path class="m" d="M1506.123,697.66h-.327v-.625h.327Zm0-1.25h-.327v-.625h.327Zm0-1.25h-.327v-.625h.327Zm0-1.25h-.327v-.625h.327Zm0-1.25h-.327v-.625h.327Zm0-1.25h-.327v-.625h.327Zm0-1.25h-.327v-.625h.327Zm0-1.25h-.327v-.625h.327Zm0-1.25h-.327v-.625h.327Zm0-1.25h-.327v-.625h.327Zm0-1.25h-.327v-.625h.327Zm0-1.25h-.327v-.625h.327Zm0-1.25h-.327v-.625h.327Zm0-1.25h-.327v-.625h.327Zm0-1.25h-.327v-.625h.327Zm0-1.25h-.327v-.625h.327Zm0-1.25h-.327v-.625h.327Zm0-1.25h-.327v-.625h.327Zm0-1.25h-.327v-.625h.327Zm0-1.25h-.327v-.625h.327Z" transform="translate(-1505.796 -673.288)"/></g><g transform="translate(0 25.937)"><rect class="m" width="0.328" height="0.316"/></g></g><g transform="translate(218.812 77.56)"><g transform="translate(0 0)"><rect class="m" width="0.328" height="0.316"/></g><g transform="translate(0 0.941)"><path class="m" d="M1536.119,697.66h-.327v-.625h.327Zm0-1.25h-.327v-.625h.327Zm0-1.25h-.327v-.625h.327Zm0-1.25h-.327v-.625h.327Zm0-1.25h-.327v-.625h.327Zm0-1.25h-.327v-.625h.327Zm0-1.25h-.327v-.625h.327Zm0-1.25h-.327v-.625h.327Zm0-1.25h-.327v-.625h.327Zm0-1.25h-.327v-.625h.327Zm0-1.25h-.327v-.625h.327Zm0-1.25h-.327v-.625h.327Zm0-1.25h-.327v-.625h.327Zm0-1.25h-.327v-.625h.327Zm0-1.25h-.327v-.625h.327Zm0-1.25h-.327v-.625h.327Zm0-1.25h-.327v-.625h.327Zm0-1.25h-.327v-.625h.327Zm0-1.25h-.327v-.625h.327Zm0-1.25h-.327v-.625h.327Z" transform="translate(-1535.792 -673.288)"/></g><g transform="translate(0 25.937)"><rect class="m" width="0.328" height="0.316"/></g></g><path class="r" d="M921.3,631.775c-.079,4.661-.59,10.056-5.686,8.775-.265-.066-.54-.151-.829-.252v7.681l-5.709-.685s.8-8.522,0-9.97l-.806-1.448s-6.19-11.582,6.515-11.261a6.89,6.89,0,0,1,4.288,1.716,6.4,6.4,0,0,1,1.5,1.972A7.473,7.473,0,0,1,921.3,631.775Z" transform="translate(-843.043 -558.11)"/><path class="s" d="M920.68,633.568a29.027,29.027,0,0,1-4.648.193c-1.741-.11-2.748,3.64-3.144,5.531a.325.325,0,0,1-.615.063c-.419-.951-1.048-2.234-1.373-2.2-.514.046-1.5,1.212-.278,2.486a4.263,4.263,0,0,0,1.234,1,1,1,0,0,1,.518.538c.492,1.17,1.835,4.051,3.348,4.64-.265-.066-.541-.151-.829-.252v1.628l-4.857-6.443-3.131-5.715,7.56-3.436h4.717A6.4,6.4,0,0,1,920.68,633.568Z" transform="translate(-843.147 -563.375)"/><path class="t" d="M878.6,869.736c-.875,7.7-2.273,30.966-2.273,30.966h-9.8l.144-2.525,2.342-40.995-7.556,43.52-10.144-.35.082-.724,6.6-59.37.157-1.421c1.719.645,6.056,1.648,13.665,1.719,3.6.033,5.653-.311,6.842-.842.016.488.033,1.055.052,1.69,0,.062,0,.125.007.19C878.932,848.767,879.263,863.948,878.6,869.736Z" transform="translate(-801.268 -719.519)"/><path class="f" d="M878.98,841.594a26.17,26.17,0,0,1-11.71,2.247c-7.016-.459-12.368,55.151-12.368,55.151l-3.249.636,6.6-59.37.157-1.421c1.719.645,6.056,1.648,13.665,1.719,3.6.033,5.653-.311,6.842-.842.016.488.033,1.055.052,1.69C878.977,841.466,878.977,841.528,878.98,841.594Z" transform="translate(-801.519 -719.519)"/><path class="f" d="M920.943,900.148c-1.255,2.61-3.03,41.555-3.03,41.555h-4.3l2.342-40.995s3.318-2.135,4.255-3.593S922.194,897.537,920.943,900.148Z" transform="translate(-848.202 -763.045)"/><rect class="f" width="12.108" height="4.508" rx="2.254" transform="translate(49.322 177.22)"/><rect class="f" width="12.108" height="4.508" rx="2.254" transform="translate(64.217 177.22)"/><path class="q" d="M1016.268,788a.571.571,0,0,1-.573.573H993.442a.573.573,0,0,1,0-1.146H1015.7A.572.572,0,0,1,1016.268,788Z" transform="translate(-907.917 -680.782)"/><path class="q" d="M1085,715.653l2.3-22.133a.573.573,0,0,1,.629-.511h0a.573.573,0,0,1,.511.629l-2.3,22.133a.573.573,0,0,1-.629.511h0A.573.573,0,0,1,1085,715.653Z" transform="translate(-977.328 -609.643)"/><path class="r" d="M1006.468,792.113l10.753-.04s1.772.16,0,1.2-3.6,1.091-4.49,1.8-9.029,1.867-9.029,1.867v-4.824Z" transform="translate(-916.078 -684.285)"/><path class="l" d="M955.409,720.964s1.071-3.055,2.544-2.117,3.071,10.342,3.071,15.844a11.792,11.792,0,0,0,4.194,2.076l5.9.04v6.358s-7.111,1.162-10.707-1.017S955.409,720.964,955.409,720.964Z" transform="translate(-879.693 -628.978)"/><path class="n" d="M899.58,836.35c-1.189.531-3.243.875-6.842.842-7.609-.072-11.945-1.074-13.665-1.719l.121-1.1h20.321S899.541,835.1,899.58,836.35Z" transform="translate(-822.178 -716.155)"/><path class="m" d="M897.482,723.425c-1.53,9.591,0,11.117-.321,12.725-.193.96-.056,2.155-1.824,2.945-8.6,3.154-20.507-.878-20.507-.878l-.668-.3c-.711-.416,1.418-4.389,1.939-9.184a15.689,15.689,0,0,0-.252-5.31c-.517-2.191-1.176-4.169-1.674-5.948-1.048-3.75-1.382-6.613,1.834-8.709,0,0,6.141-3.842,9.02-3.449,1.716.236,3.711,3.3,4.222,3.4,1.706.3.262-2.692,1.3-2.689,1.988,0,5.64,2.741,5.64,2.741S899.008,713.838,897.482,723.425Z" transform="translate(-817.934 -618.899)"/><path class="p" d="M881.178,746.6c-.636.17-1.766-2.456-2.837-5.47a15.691,15.691,0,0,0-.252-5.31c-.518-2.191-1.176-4.169-1.674-5.948l2.09-8.13s3.148.223,4.012,8.66S882.639,746.209,881.178,746.6Z" transform="translate(-820.176 -631.297)"/><path class="r" d="M868.238,1098.534a.846.846,0,0,1-.177.517.855.855,0,0,1-.671.331H855.251a.849.849,0,0,1-.835-1l.652-3.731.472-2.7h4.717l-.331,2.185a.882.882,0,0,0,.033.393.843.843,0,0,0,.514.53l7.212,2.666A.849.849,0,0,1,868.238,1098.534Z" transform="translate(-803.59 -910.233)"/><path class="q" d="M868.238,1106.411a.85.85,0,0,1-.848.849H855.251a.849.849,0,0,1-.835-1l.652-3.731a3.3,3.3,0,0,0,2.371,1.015,3.023,3.023,0,0,0,2.519-1.133.844.844,0,0,0,.514.531l7.212,2.666A.849.849,0,0,1,868.238,1106.411Z" transform="translate(-803.59 -918.111)"/><path class="r" d="M932.446,1098.534a.845.845,0,0,1-.177.517.855.855,0,0,1-.671.331H919.459a.849.849,0,0,1-.835-1l.652-3.731.2-2.7h4.717l-.057,2.185a.887.887,0,0,0,.033.393.844.844,0,0,0,.514.53l7.212,2.666A.849.849,0,0,1,932.446,1098.534Z" transform="translate(-851.968 -910.233)"/><path class="q" d="M932.446,1106.411a.845.845,0,0,1-.177.518.855.855,0,0,1-.671.331H919.459a.849.849,0,0,1-.835-1l.652-3.731a3.3,3.3,0,0,0,2.372,1.015,3.023,3.023,0,0,0,2.519-1.133.844.844,0,0,0,.514.531l7.212,2.666A.849.849,0,0,1,932.446,1106.411Z" transform="translate(-851.968 -918.111)"/><path class="p" d="M913.471,614.321a.455.455,0,0,1,.506-.623c1.454.265,3.852,1.044,3.9,3.3.065,3.238-2.266,3.044-6.152,2.331s-3.432,5.828-3.432,5.828-1.3-3.3-2.785-1.878.583,3.691,1.49,3.756-1.91,2.534-1.856,3.307-3.972-3.436-3.972-6.8.194-8.159,5.958-7.9C911.987,615.855,914.038,615.52,913.471,614.321Z" transform="translate(-838.825 -549.884)"/><path class="p" d="M919.89,711.159l-2.777-1.1-3.593,3.754a.746.746,0,0,1-1.268-.357L910.85,707l.907-1.71a0,0,0,0,0,0,0h2.64l3.036,3.426.314-3.426h.383l2.427,4.363.256.455A.745.745,0,0,1,919.89,711.159Z" transform="translate(-846.12 -618.896)"/><path class="g" d="M940.7,705.785h-.007l-3.125-.937.314-3.426.115-1.264,3.2,4.962A.443.443,0,0,1,940.7,705.785Z" transform="translate(-866.249 -615.032)"/><path class="g" d="M919.087,702.076l-2.9,1.982a1.064,1.064,0,0,1-1.553-.4l-1.379-2.725a2,2,0,0,1-.1-1.582c.088-.249.174-.482.249-.7a0,0,0,0,0,0,0c.485-1.376.717-2.172.717-2.172l1.923,2.172Z" transform="translate(-847.771 -612.26)"/><path class="r" d="M910.366,766.347a4.978,4.978,0,0,1-.868,1.251,4.294,4.294,0,0,1-1.058.819c-1.539.845-8.523,3.02-11.084,3.809l-.95.288-.675-3.852s.3-.069.747-.2a11.821,11.821,0,0,0,2.752-1.117,2.66,2.66,0,0,0,.769-.661c.865-1.2,3.187-5.293,3.737-4.989s-1.038,3.406,0,3.475c.763.053,4.2.082,5.965.092A.75.75,0,0,1,910.366,766.347Z" transform="translate(-834.73 -661.385)"/><path class="s" d="M911.78,784.913a4.3,4.3,0,0,1-1.058.819c-1.539.845-8.523,3.02-11.084,3.809l-.878-3.763a11.825,11.825,0,0,0,2.752-1.117c.524.39,1.844,1.068,4.543.907A33.127,33.127,0,0,0,911.78,784.913Z" transform="translate(-837.011 -678.701)"/><path class="g" d="M856.574,725.344s-1.651-7.657-5.881-.624-6.1,16.1-6.39,17.709-.8,7.776,5.01,5.6,10.964-4.72,10.964-4.72l-1.815-6.71-6.371,3.024a.385.385,0,0,1-.507-.524c1.125-2.174,3.7-7.208,4.264-8.786A17.908,17.908,0,0,0,856.574,725.344Z" transform="translate(-795.863 -631.299)"/><path class="u" d="M957.286,781.587a.913.913,0,0,1-.193.278C957.3,781.482,957.394,781.328,957.286,781.587Z" transform="translate(-880.962 -676.288)"/><path class="i" d="M1016.268,789.749a.571.571,0,0,1-.573.573H993.442a.572.572,0,0,1-.573-.573Z" transform="translate(-907.917 -682.534)"/><path class="r" d="M1327.448,1065.111l-4.766,7.08v3.475s-15.6.177-15.6-.937c0-.554,2.6-1.428,5.2-2.165,2.63-.74,5.273-1.346,5.273-1.346l6.381-9.99Z" transform="translate(-1144.659 -887.079)"/><path class="s" d="M1348.147,1067.456l-4.766,6.96v2.7h-8.827l4.86-1.941a2.316,2.316,0,0,0,1.075-.876l2.662-4.033a2.319,2.319,0,0,0,.055-2.467l-.611-1.023,1.507-2.43Z" transform="translate(-1165.358 -889.424)"/><path class="r" d="M1353.825,1071.851l-4.766,6.96v3.475s-15.6.177-15.6-.937c0-.527,2.342-1.34,4.812-2.053,2.754-.79,5.666-1.458,5.666-1.458l4.615-7.225,1.765-2.764Z" transform="translate(-1164.533 -892.067)"/><path class="s" d="M1374.524,1074.994l-4.766,6.96v2.7h-8.827l4.86-1.941a2.319,2.319,0,0,0,1.075-.876l2.662-4.034a2.32,2.32,0,0,0,.055-2.467l-.648-1.085,1.6-2.227Z" transform="translate(-1185.231 -895.21)"/><path class="r" d="M1426.219,985.425v1.759a.634.634,0,0,1-.5.619l-1.494.314a.629.629,0,0,0-.5.619v.668a.637.637,0,0,1-.174.436l-1.421,1.5a.627.627,0,0,1-.626.173l-1.864-.508a.625.625,0,0,0-.338,0l-1.87.531a.638.638,0,0,0-.383.311l-.508.956a.632.632,0,0,1-1.192-.295.652.652,0,0,1,.029-.19l.652-2.063a.618.618,0,0,1,.233-.321l6.96-5.024a.625.625,0,0,1,.37-.121h2A.631.631,0,0,1,1426.219,985.425Z" transform="translate(-1226.229 -829.489)"/><path class="s" d="M1427.8,991.825v0a.634.634,0,0,1-.5.619l-1.494.314a.629.629,0,0,0-.5.619v.668a.637.637,0,0,1-.174.436l-1.421,1.5a.626.626,0,0,1-.625.174l-1.864-.508a.624.624,0,0,0-.338,0l-1.87.531a.639.639,0,0,0-.383.311l-.508.956a.633.633,0,0,1-.56.337.644.644,0,0,1-.115-.01c.21-.626.55-1.625.757-2.037.308-.622,2.578-.809,3.511-.747a2.733,2.733,0,0,0,2.329-1.274,21.329,21.329,0,0,1,2.673-2.765Z" transform="translate(-1227.811 -834.133)"/><path class="g" d="M1462.454,985.237l-4.12.2-5.26.255a2.826,2.826,0,0,1-2.8-1.887l-1.421-4.058a.584.584,0,0,1,.5-.773l12.374-1.038Z" transform="translate(-1251.453 -824.325)"/><path class="v" d="M1462.916,988.87l-1.222,3.112-1.078.852-5.26.255a2.81,2.81,0,0,1-2-.707c-.491-1.14-1.287-3.3-1.458-3.8-.233-.685.508-1.287,1.965-.341S1462.916,988.87,1462.916,988.87Z" transform="translate(-1253.736 -831.719)"/><path class="w" d="M1515.115,954.075c-.108.947-.236,1.811-.386,2.6-1.883,9.944-6.865,8.267-6.865,8.267L1493.8,949.234l-.973-10.5-.288-3.125a3.808,3.808,0,0,1,.328-1.923,23.987,23.987,0,0,0,1.782-5.768c.681-3.907,2.617-9.4,3.626-9.754s5.463-3.207,7.33.894S1516.559,941.249,1515.115,954.075Z" transform="translate(-1284.376 -778.31)"/><path class="w" d="M1515.656,978.692c-1.883,9.944-6.865,8.267-6.865,8.267l-14.068-15.712-.973-10.5c1.323-1.238,4.12-4.163,5.038-7.432,1.215-4.337,1.792-7.229,1.792-7.229h6.276s6.459,23.16,6.259,26.993A6.691,6.691,0,0,0,1515.656,978.692Z" transform="translate(-1285.303 -800.322)"/><path class="r" d="M1499.07,860.829l.94,2.781-5.607,1.163-1-2.434-1.464-3.57a5.34,5.34,0,0,1-3.013.514c-1.186-.246-1.759-1.248-1.913-2.689-.256-2.345,0-8.526,0-8.526a3.285,3.285,0,0,1,.577-1.032,4.719,4.719,0,0,1,.884-.819c2.542-1.828,7.5-2.083,10.429.576,2.158,1.962,1.513,5.257.58,7.691a19.457,19.457,0,0,1-1.513,3.1Z" transform="translate(-1280.142 -724.028)"/><path class="m" d="M1438.066,1044.912c-2.879,2.476-4.756,2.253-8.585,2.253-3.17,0-13.426-8.6-16.881-11.578a1.4,1.4,0,0,0-2.044.239l-2.42,3.331-.973,1.343-7.281-5.414s7.311-12.086,8.061-12.086h3.98c1.287,0,12.076,6.2,12.076,6.2l11.814,13.2Z" transform="translate(-1214.579 -858.276)"/><path class="p" d="M1458.635,1067.794c-2.879,2.476-4.756,2.253-8.585,2.253-3.171,0-13.426-8.6-16.881-11.579a1.4,1.4,0,0,0-2.044.239l-2.42,3.331-1.523-.767,2.856-6.569a2.217,2.217,0,0,1,3.428-.839l16.365,13.252,6.551-1.838Z" transform="translate(-1235.147 -881.158)"/><path class="m" d="M1386.574,1024.542l-2.168,3.4-4.461,6.986-.1.16-1.4,2.083-5.159-3.976,6.557-10.193h2.794Z" transform="translate(-1194.54 -858.276)"/><path class="p" d="M1395.126,1041.6l-4.461,6.986-.878.57-2.273-1.484,3.612-5.355a2.691,2.691,0,0,1,3.146-1.026Z" transform="translate(-1205.26 -871.936)"/><path class="p" d="M1372.75,1055.373l5.417,3.989-1.4,2.084-5.16-3.977-.291-.306a.942.942,0,0,1,.017-1.315l.4-.4A.78.78,0,0,1,1372.75,1055.373Z" transform="translate(-1192.863 -882.553)"/><path class="p" d="M1406.272,1067.269l-7.564-5.839a.965.965,0,0,0-1.4.239l-.415.641a.965.965,0,0,0,.234,1.3l7.665,5.7Z" transform="translate(-1212.211 -887.08)"/><path class="i" d="M1408,1019.2a.534.534,0,0,1-.534.534h-19.42a.534.534,0,0,1,0-1.068h19.42A.534.534,0,0,1,1408,1019.2Z" transform="translate(-1205.26 -855.013)"/><g transform="translate(176.68 145.758)"><path class="k" d="M1369.873,963.64l-4.945-16.934a.491.491,0,0,1,.334-.609h0a.491.491,0,0,1,.609.334l4.944,16.934a.491.491,0,0,1-.333.609h0A.491.491,0,0,1,1369.873,963.64Z" transform="translate(-1364.909 -946.076)"/></g><path class="v" d="M1520.522,914.217c-1.254,3.626-4.163,6.973-6.141,2.26-2.918-6.95-11.283-3.039-11.283-3.039a3.842,3.842,0,0,1-1.556-.678,1.639,1.639,0,0,1-.295-.308c-.55-.757,1.719-2.545,10.871-4.543s7.5-1.376,8.8,1.792C1521.344,910.716,1521.118,912.5,1520.522,914.217Z" transform="translate(-1290.893 -770.698)"/><path class="r" d="M1461.775,988.685l-1.136,3.1a.488.488,0,0,1-.508.308l-1.14-.147a.478.478,0,0,0-.488.268l-.193.4a.476.476,0,0,1-.452.272l-1.251-.062a.473.473,0,0,1-.449-.409l-.167-1.228a.477.477,0,0,0-.747-.324l-2.994,2.116a.471.471,0,0,1-.275.085.465.465,0,0,1-.347-.151.1.1,0,0,1-.026-.026.479.479,0,0,1,.069-.665,69.157,69.157,0,0,1,5.6-4.274c1.235-.727,3.3-.183,4.209.118A.477.477,0,0,1,1461.775,988.685Z" transform="translate(-1253.469 -831.596)"/><path class="s" d="M1460.69,999.413v1.009a.462.462,0,0,1-.164.01l-1.14-.147a.477.477,0,0,0-.488.268l-.193.4a.475.475,0,0,1-.452.272l-1.251-.062a.473.473,0,0,1-.449-.409l-.167-1.228a.476.476,0,0,0-.747-.324l-2.994,2.116a.471.471,0,0,1-.275.085.464.464,0,0,1-.347-.151,29.639,29.639,0,0,1,4.193-2.588c.747-.161,1.778,1.363,1.778,1.363l.4.085A9.43,9.43,0,0,0,1460.69,999.413Z" transform="translate(-1253.864 -839.933)"/><path class="g" d="M1499.088,961.976c-1.067.336-10.737-3.578-14.06-4.946a1.391,1.391,0,0,1-.818-1.631l.495-1.946.482-1.895a1.393,1.393,0,0,1,1.9-.935l6.624,2.864a.732.732,0,0,0,1-.84l-1.037-4.392c-2.421-8.945,1.045-10.2,2.905-10.01a3.679,3.679,0,0,1,3.472,3.23s.2.773.5,2.028c.629,2.624,1.693,7.353,2.24,11.451C1503.608,961.01,1500.381,961.573,1499.088,961.976Z" transform="translate(-1278.083 -794.406)"/><path class="s" d="M1499.588,861.848l1.1,3.249-5.666,1.51-1.464-3.57a5.341,5.341,0,0,1-3.013.514c3.675-1.025,3.537-6.8,1.493-8.247a9.287,9.287,0,0,1-2.83-4c-.108-.275-.16-.442-.16-.442l1.045-.377,10.229,3.187.78,5.08A19.457,19.457,0,0,1,1499.588,861.848Z" transform="translate(-1281.76 -728.296)"/><path class="q" d="M1489.55,837.432s-.109-.019-.3-.045c-1.183-.163-5.517-.612-6.788,1.343-1.478,2.271,4.845,4.413,5.967,6.1s.213,9.8,3.977,9.541,11.828-.975,11.917-4.933-2.7,3.829-3.545.519S1505.774,836.394,1489.55,837.432Z" transform="translate(-1276.631 -718.304)"/><path class="p" d="M1349.065,1115.364v1.9s-15.6.177-15.6-.937c0-.528,2.342-1.34,4.812-2.054.613.482,1.874.986,4.458,1.055C1346.075,1115.423,1348.076,1115.393,1349.065,1115.364Z" transform="translate(-1164.537 -927.045)"/><path class="p" d="M1322.682,1108.107v2.2s-15.6.177-15.6-.937c0-.554,2.6-1.428,5.2-2.165.557.855,1.988.9,3.246.9Z" transform="translate(-1144.659 -921.721)"/><path class="g" d="M1521.659,919.449c-1.254,3.626-4.163,6.973-6.141,2.26-2.918-6.95-11.284-3.04-11.284-3.04a3.838,3.838,0,0,1-1.556-.678c1.886-1.4,6.813-4.284,15.319-4.284C1520.385,913.707,1517.492,919.567,1521.659,919.449Z" transform="translate(-1292.03 -775.93)"/><path class="v" d="M1499.163,978.092c-1.055.332-10.529-3.493-13.949-4.9a1.528,1.528,0,0,1-.9-1.79l.466-1.832c3,1.176,13.531,5.27,14.985,5.142,1.268-.115,1.058-10.036.871-15.093.629,2.624,1.693,7.353,2.24,11.451C1503.683,977.126,1500.457,977.689,1499.163,978.092Z" transform="translate(-1278.158 -810.522)"/><path class="k" d="M1408,1020.834a.534.534,0,0,1-.534.534h-19.42a.534.534,0,0,1-.534-.534Z" transform="translate(-1205.26 -856.644)"/><path class="g" d="M992.992,950.011l.745-27.994a.328.328,0,0,0-.32-.335l-.327-.007a.328.328,0,0,0-.335.32l-.746,28.015Z" transform="translate(-907.269 -781.934)"/></g></g></svg>