<svg xmlns="http://www.w3.org/2000/svg" width="301.208" height="403" viewBox="0 0 301.208 403"><defs><style>.a{fill:#d1f2ff;font-size:350px;font-family:Play-Bold, Play;font-weight:700;}.a,.b{opacity:0.5;}.b{fill:#009eff;}.c{fill:#e0e0e0;}.d{fill:#daf0fd;}.e{fill:#f2f2f2;}.f{fill:#005589;}.g{fill:#fff;}.h{fill:#1631a4;}.i{fill:#ffd648;}.j{fill:#ffbd49;}.k{fill:none;}.l{fill:#05a0ff;}.m{fill:#eaeaea;}.n{fill:#ff911d;}.o{fill:#0183d2;}.p{fill:#6774ff;}.q{fill:#515bd6;}.r{fill:#fb91a3;}.s{fill:#fcd2c5;}.t{fill:#fabdaa;}.u{fill:#292929;}.v{fill:#393939;}.w{fill:#004672;}.x{fill:#ce0e2d;}.y{fill:#028adc;}.z{fill:#fff2f2;}</style></defs><g transform="translate(-341 -1928)"><text class="a" transform="translate(443 2254)"><tspan x="-101.5" y="0">4</tspan></text><g transform="translate(-383.945 1706.759)"><path class="b" d="M874.2,555.775s96.116-71.389,124.034-43.871,15.155,56.234-32.3,83.753,33.23,6.78,46.925,10.369,18.482,16.352-6.245,23.93-47.46,15.953-37.888,18.346,57.032,2.792,57.43,7.578-68.6,11.167-98.509,11.167-32.7,9.971-63.413,7.179-15.554-7.578-25.923-7.977-74.58,1.6-65.407,0,61.419-8.375,50.65-8.375-67,0-66.6-11.566,22.733-10.768,27.12-15.554-17.548-17.548-.8-51.847,72.586-64.609,62.216-35.5S817.967,594.461,874.2,555.775Z" transform="translate(0 -76.283)"/><path class="c" d="M1164.546,1103.1s1.287,3.422-5.689,3.422-14.163-1.369-19.524,0-19.393.57-18.252-1.026,8.9-3.765,17.111-3.879S1163.408,1101.619,1164.546,1103.1Z" transform="translate(-268.714 -516.177)"/><path class="d" d="M0,0H90.533a0,0,0,0,1,0,0V71.619A25.753,25.753,0,0,1,64.78,97.372H25.753A25.753,25.753,0,0,1,0,71.619V0A0,0,0,0,1,0,0Z" transform="translate(886.963 488.606)"/><rect class="e" width="58.859" height="63.439" rx="16.702" transform="translate(817.88 522.538)"/><path class="f" d="M0,0H78.9A11.632,11.632,0,0,1,90.533,11.632v0a0,0,0,0,1,0,0H0a0,0,0,0,1,0,0V0A0,0,0,0,1,0,0Z" transform="translate(886.963 476.974)"/><rect class="g" width="76.601" height="25.989" rx="10.927" transform="translate(893.828 496.55)"/><rect class="h" width="76.601" height="0.659" transform="translate(893.828 526.551)"/><rect class="g" width="39.748" height="0.659" transform="translate(896.992 502.189)"/><rect class="h" width="39.748" height="0.659" transform="translate(896.992 506.568)"/><rect class="h" width="39.748" height="0.659" transform="translate(896.992 511.581)"/><rect class="h" width="39.748" height="0.659" transform="translate(896.992 516.24)"/><rect class="h" width="68.048" height="0.659" transform="translate(893.828 530.976)"/><rect class="h" width="64.104" height="0.659" transform="translate(893.929 540.515)"/><rect class="h" width="48.954" height="0.659" transform="translate(893.828 535.952)"/><rect class="h" width="76.601" height="0.659" transform="translate(893.929 545.479)"/><rect class="i" width="36.931" height="29.505" rx="14.753" transform="translate(893.828 550.69)"/><rect class="f" width="53.025" height="12.089" rx="6.044" transform="translate(820.846 536.256)"/><path class="g" d="M1095.469,932.065a1.749,1.749,0,1,1,1.749,1.749A1.749,1.749,0,0,1,1095.469,932.065Z" transform="translate(-249.86 -389.765)"/><path class="g" d="M1558.676,704.851a1.749,1.749,0,1,1,1.749,1.749A1.749,1.749,0,0,1,1558.676,704.851Z" transform="translate(-591.746 -222.061)"/><path class="g" d="M1533.868,704.851a1.749,1.749,0,1,1,1.749,1.749A1.749,1.749,0,0,1,1533.868,704.851Z" transform="translate(-573.436 -222.061)"/><path class="g" d="M1511.352,704.851a1.749,1.749,0,1,1,1.749,1.749A1.749,1.749,0,0,1,1511.352,704.851Z" transform="translate(-556.817 -222.061)"/><rect class="f" width="53.025" height="12.089" rx="6.044" transform="translate(820.846 553.222)"/><path class="g" d="M1095.469,996.843a1.749,1.749,0,1,1,1.749,1.749A1.749,1.749,0,0,1,1095.469,996.843Z" transform="translate(-249.86 -437.576)"/><rect class="f" width="53.025" height="12.089" rx="6.044" transform="translate(820.846 570.452)"/><path class="g" d="M1095.469,1062.626a1.749,1.749,0,1,1,1.749,1.749A1.749,1.749,0,0,1,1095.469,1062.626Z" transform="translate(-249.86 -486.13)"/><rect class="i" width="24.763" height="7.555" rx="3.777" transform="translate(820.846 525.176)"/><path class="j" d="M1035.74,886.034h5.508a.438.438,0,0,1,.438.438h0a.438.438,0,0,1-.438.438h-5.508a.438.438,0,0,1-.438-.438h0A.438.438,0,0,1,1035.74,886.034Z" transform="translate(-205.451 -357.081)"/><rect class="i" width="24.763" height="7.555" rx="3.777" transform="translate(849.108 525.176)"/><path class="j" d="M1143.646,886.034h5.508a.438.438,0,0,1,.438.438h0a.438.438,0,0,1-.438.438h-5.508a.438.438,0,0,1-.438-.438h0A.438.438,0,0,1,1143.646,886.034Z" transform="translate(-285.094 -357.081)"/><rect class="k" height="0.302" transform="translate(966.021 501.098)"/><rect class="i" width="21.042" height="17.44" rx="8.72" transform="translate(943.466 501.4)"/><path class="g" d="M1508.957,817.643l-1.4,1.8-1.642-2.179a1.679,1.679,0,0,1,3.041.384Z" transform="translate(-552.805 -305.724)"/><path class="g" d="M1520.541,822.425h-5.294l-1.583-2.1,2.621-3.362Z" transform="translate(-558.523 -306.1)"/><path class="g" d="M1487.384,818.356h-10.423l5.213-6.907Z" transform="translate(-531.434 -302.031)"/><g transform="translate(901.718 559.008)"><path class="g" d="M1346.777,1021.276a.392.392,0,0,0-.244-.16l-.647-.124a4.546,4.546,0,0,0-.218-1.041l.546-.374a.377.377,0,0,0,.1-.527l-.959-1.415a.4.4,0,0,0-.244-.16.391.391,0,0,0-.286.059l-.546.374a4.445,4.445,0,0,0-.888-.585l.124-.65a.38.38,0,0,0-.3-.442l-1.678-.322a.386.386,0,0,0-.286.059.4.4,0,0,0-.159.244l-.124.647a4.58,4.58,0,0,0-1.041.218l-.374-.546a.373.373,0,0,0-.241-.159.385.385,0,0,0-.286.059l-1.415.959a.4.4,0,0,0-.16.244.388.388,0,0,0,.062.286l.371.546a4.452,4.452,0,0,0-.585.888l-.65-.124a.378.378,0,0,0-.283.058.389.389,0,0,0-.159.244l-.322,1.678a.381.381,0,0,0,.3.445l.647.124a4.631,4.631,0,0,0,.218,1.044l-.546.371a.372.372,0,0,0-.159.244.377.377,0,0,0,.059.283l.959,1.415a.4.4,0,0,0,.244.159.387.387,0,0,0,.286-.059l.546-.371a4.619,4.619,0,0,0,.888.585l-.124.647a.379.379,0,0,0,.3.442l1.678.322a.576.576,0,0,0,.072.006.382.382,0,0,0,.374-.309l.124-.647a4.6,4.6,0,0,0,1.044-.218l.371.546a.379.379,0,0,0,.527.1l1.415-.959a.38.38,0,0,0,.1-.527l-.37-.546a4.562,4.562,0,0,0,.582-.891l.65.123a.38.38,0,0,0,.442-.3l.322-1.678A.384.384,0,0,0,1346.777,1021.276Zm-3.483.481a1.967,1.967,0,0,1-2.3,1.564h0a1.971,1.971,0,0,1-.738-3.564,1.97,1.97,0,0,1,1.105-.341,1.843,1.843,0,0,1,.374.036A1.969,1.969,0,0,1,1343.294,1021.757Z" transform="translate(-1329.019 -1011.943)"/><path class="g" d="M1317.453,1006.828a.282.282,0,0,0-.055-.4l-.4-.3a3.563,3.563,0,0,0,.2-.774l.491-.072a.265.265,0,0,0,.185-.111.29.29,0,0,0,.055-.211l-.182-1.272a.288.288,0,0,0-.322-.244l-.491.071a3.588,3.588,0,0,0-.41-.689l.3-.4a.287.287,0,0,0,.056-.211.292.292,0,0,0-.111-.189l-1.028-.771a.275.275,0,0,0-.211-.052.271.271,0,0,0-.189.111l-.3.4a3.582,3.582,0,0,0-.774-.2l-.072-.491a.283.283,0,0,0-.322-.241l-1.272.182a.286.286,0,0,0-.244.322l.072.491a3.613,3.613,0,0,0-.689.41l-.4-.3a.272.272,0,0,0-.211-.056.279.279,0,0,0-.189.111l-.767,1.027a.291.291,0,0,0-.055.211.277.277,0,0,0,.11.189l.4.3a3.564,3.564,0,0,0-.2.774l-.491.072a.271.271,0,0,0-.186.11.292.292,0,0,0-.055.211l.182,1.272a.285.285,0,0,0,.322.244l.491-.071a3.6,3.6,0,0,0,.41.689l-.3.4a.285.285,0,0,0,.055.4l1.028.768a.282.282,0,0,0,.4-.055l.3-.4a3.566,3.566,0,0,0,.774.2l.071.491a.264.264,0,0,0,.111.185.276.276,0,0,0,.172.059.147.147,0,0,0,.039,0l1.272-.182a.287.287,0,0,0,.244-.322l-.071-.491a3.6,3.6,0,0,0,.689-.41l.4.3a.282.282,0,0,0,.4-.055Zm-3.427-.459a1.482,1.482,0,1,1-.423-2.933,1.6,1.6,0,0,1,.211-.016,1.482,1.482,0,0,1,.211,2.949Z" transform="translate(-1309.695 -1000.783)"/></g><path class="g" d="M1041.445,647.435c0,.749-1.12,1.356-2.5,1.356s-2.5-.607-2.5-1.356,1.12-1.356,2.5-1.356S1041.445,646.686,1041.445,647.435Z" transform="translate(-206.292 -179.973)"/><path class="j" d="M11.632,0h32.91A11.632,11.632,0,0,1,56.173,11.632v0a0,0,0,0,1,0,0H0a0,0,0,0,1,0,0v0A11.632,11.632,0,0,1,11.632,0Z" transform="translate(859.263 451.529)"/><rect class="e" width="56.173" height="20.484" transform="translate(859.263 463.161)"/><path class="g" d="M0,0H56.173a0,0,0,0,1,0,0V4.658A15.826,15.826,0,0,1,40.347,20.484H15.826A15.826,15.826,0,0,1,0,4.658V0A0,0,0,0,1,0,0Z" transform="translate(859.263 483.645)"/><path class="g" d="M1326.893,607.7a1.749,1.749,0,1,1,1.749,1.749A1.749,1.749,0,0,1,1326.893,607.7Z" transform="translate(-420.671 -150.356)"/><path class="g" d="M1302.085,607.7a1.749,1.749,0,1,1,1.749,1.749A1.749,1.749,0,0,1,1302.085,607.7Z" transform="translate(-402.36 -150.356)"/><path class="g" d="M1279.569,607.7a1.749,1.749,0,1,1,1.75,1.749A1.749,1.749,0,0,1,1279.569,607.7Z" transform="translate(-385.741 -150.356)"/><path class="j" d="M1177.351,656.547a6.163,6.163,0,0,1-2.709,5.109,5.808,5.808,0,0,1-.7.41,6.172,6.172,0,1,1,3.408-5.519Z" transform="translate(-301.185 -183.144)"/><circle class="l" cx="6.172" cy="6.172" r="6.172" transform="translate(862.57 498.476) rotate(-76.717)"/><rect class="g" width="28.312" height="0.555" transform="translate(881.409 467.231)"/><rect class="g" width="4.429" height="0.555" transform="translate(881.409 479.02)"/><rect class="g" width="7.368" height="0.555" transform="translate(902.332 471.406)"/><rect class="g" width="22.35" height="0.555" transform="translate(887.35 479.02)"/><rect class="g" width="18.5" height="0.555" transform="translate(881.421 471.406)"/><rect class="g" width="28.312" height="0.555" transform="translate(881.409 475.328)"/><rect class="m" width="6.703" height="0.555" transform="translate(881.403 487.715)"/><rect class="m" width="18.78" height="0.555" transform="translate(890.941 487.715)"/><rect class="m" width="28.312" height="0.555" transform="translate(881.403 499.503)"/><rect class="m" width="16.785" height="0.555" transform="translate(881.415 491.89)"/><rect class="m" width="8.888" height="0.555" transform="translate(900.827 491.89)"/><rect class="m" width="10.725" height="0.555" transform="translate(881.403 495.812)"/><rect class="m" width="14.162" height="0.555" transform="translate(895.559 495.812)"/><path class="g" d="M1180.242,662.6a2.957,2.957,0,1,0,2.956,2.956A2.947,2.947,0,0,0,1180.242,662.6Zm1.538,4.494a2.171,2.171,0,0,1-3.073,0,2.19,2.19,0,0,1-.641-1.538,2.187,2.187,0,0,1,2.176-2.175,2.175,2.175,0,0,1,1.538,3.714Z" transform="translate(-310.248 -192.171)"/><path class="g" d="M1181.166,685.284a.393.393,0,0,0-.5-.023,2.8,2.8,0,0,1-3.369,0,.389.389,0,0,0-.5.01,5.081,5.081,0,0,0-1.291,2.094,6.122,6.122,0,0,0,.7.4,4.594,4.594,0,0,1,.9-1.684,3.507,3.507,0,0,0,3.759-.01,4.124,4.124,0,0,1,.836,1.675,5.816,5.816,0,0,0,.7-.41A4.525,4.525,0,0,0,1181.166,685.284Z" transform="translate(-308.928 -208.831)"/><path class="g" d="M1180.242,741.113a2.957,2.957,0,1,0,2.956,2.956A2.948,2.948,0,0,0,1180.242,741.113Zm1.538,4.494a2.17,2.17,0,0,1-3.073,0,2.19,2.19,0,0,1-.641-1.538,2.188,2.188,0,0,1,2.176-2.176,2.175,2.175,0,0,1,1.538,3.714Z" transform="translate(-310.248 -250.117)"/><path class="g" d="M1181.166,763.793a.394.394,0,0,0-.5-.023,2.8,2.8,0,0,1-3.369,0,.389.389,0,0,0-.5.01,5.082,5.082,0,0,0-1.291,2.094,6.1,6.1,0,0,0,.7.4,4.6,4.6,0,0,1,.9-1.684,3.507,3.507,0,0,0,3.759-.01,4.121,4.121,0,0,1,.836,1.675,5.79,5.79,0,0,0,.7-.41A4.526,4.526,0,0,0,1181.166,763.793Z" transform="translate(-308.928 -266.777)"/><path class="e" d="M0,0H58.561a0,0,0,0,1,0,0V10.565A24.079,24.079,0,0,1,34.482,34.645h-10.4A24.079,24.079,0,0,1,0,10.566V0A0,0,0,0,1,0,0Z" transform="translate(936.74 543.897)"/><path class="i" d="M11.632,0h35.3A11.632,11.632,0,0,1,58.561,11.632v0a0,0,0,0,1,0,0H0a0,0,0,0,1,0,0v0A11.632,11.632,0,0,1,11.632,0Z" transform="translate(936.74 532.126)"/><path class="g" d="M1625.123,915.424a1.749,1.749,0,1,1,1.749,1.749A1.749,1.749,0,0,1,1625.123,915.424Z" transform="translate(-640.79 -377.482)"/><path class="g" d="M1600.315,915.424a1.749,1.749,0,1,1,1.749,1.749A1.749,1.749,0,0,1,1600.315,915.424Z" transform="translate(-622.479 -377.482)"/><path class="g" d="M1577.8,915.424a1.749,1.749,0,1,1,1.75,1.749A1.749,1.749,0,0,1,1577.8,915.424Z" transform="translate(-605.86 -377.482)"/><circle class="g" cx="11.748" cy="11.748" r="11.748" transform="translate(950.672 567.577) rotate(-67.5)"/><path class="f" d="M1549.323,988.789l-10.194,6.873a.8.8,0,0,1-1.249-.664V981.256a.8.8,0,0,1,1.249-.665l10.194,6.869A.8.8,0,0,1,1549.323,988.789Z" transform="translate(-576.396 -426.77)"/><path class="j" d="M1245.244,924.173s-2.262-18.482-1.173-24.278,4.44-8.05,4.859-9.478,3.351,2.006,3.77,5.106,4.007,13.98,1.667,18.383-8.453,15.043-8.453,15.043Z" transform="translate(-359.322 -360.069)"/><path class="n" d="M1191.646,1001.225s-.074-12.535-6.786-14.9-13.215,7.189-15.864,5.514,3.518,8.244,11.676,3.091S1191.646,1001.225,1191.646,1001.225Z" transform="translate(-303.669 -430.828)"/><path class="o" d="M1257.5,999.522s2.513-8.631,8.126-5.247,8.126,8.075,9.131,6.4,2.932-12.225-3.435-13.945-14.158,2.223-15.163,12.692S1257.5,999.522,1257.5,999.522Z" transform="translate(-368.279 -431.115)"/><g transform="translate(865.265 558.65)"><path class="g" d="M1192.458,1009.163a.325.325,0,0,1-.321-.279,7.91,7.91,0,0,0-1.979-4.842,21.45,21.45,0,0,1-1.714-2.42c-1.51-2.5-3.219-1.687-7.346.266-.937.444-2,.947-3.188,1.465-2.665,1.164-4.7,1.386-6.053.66a2.591,2.591,0,0,1-1.335-1.7.325.325,0,0,1,.64-.114,1.941,1.941,0,0,0,1.017,1.251c.8.424,2.4.648,5.472-.691,1.179-.515,2.237-1.016,3.17-1.457,4.105-1.943,6.366-3.013,8.181-.015a20.573,20.573,0,0,0,1.667,2.352,8.512,8.512,0,0,1,2.114,5.154.325.325,0,0,1-.276.368A.31.31,0,0,1,1192.458,1009.163Z" transform="translate(-1170.515 -999.419)"/></g><g transform="translate(886.751 531.804)"><path class="g" d="M1253.185,936.356a.3.3,0,0,1-.046,0,.325.325,0,0,1-.276-.368c.013-.093,1.313-9.329.273-13.577-1.185-4.838.989-7.088,3.514-8.8.53-.358.8-.7.794-1.02-.006-.7-1.219-1.488-2.392-2.254a19.659,19.659,0,0,1-1.809-1.277,1.672,1.672,0,0,1-.691-1.409c.089-1.49,2.309-2.932,3.931-3.986.26-.169.5-.324.7-.461,1.046-.715-.375-3.93-1.517-5.789a.325.325,0,1,1,.554-.34c.335.546,3.221,5.372,1.33,6.666-.2.14-.446.3-.712.47-1.334.867-3.567,2.317-3.636,3.479a1.046,1.046,0,0,0,.458.871,19.142,19.142,0,0,0,1.748,1.233c1.377.9,2.678,1.747,2.687,2.793a1.964,1.964,0,0,1-1.079,1.564c-2.694,1.825-4.277,3.9-3.247,8.1,1.07,4.37-.206,13.44-.261,13.824A.325.325,0,0,1,1253.185,936.356Z" transform="translate(-1252.549 -896.918)"/></g><g transform="translate(887.238 558.229)"><path class="g" d="M1254.736,1009.223a.342.342,0,0,1-.089-.012.325.325,0,0,1-.223-.4,23.532,23.532,0,0,1,6.683-10.121c1.987-1.712,3.514-.533,4.628.329a3.625,3.625,0,0,0,1.249.755,2.993,2.993,0,0,0,1.62-.535c1.069-.56,2.4-1.255,3.757-.192.9.7,1.275,2.316,1.127,4.8a24.765,24.765,0,0,1-.463,3.433.325.325,0,0,1-.635-.139c.376-1.721,1.033-6.437-.429-7.582-1.027-.8-2.012-.289-3.055.256a3.336,3.336,0,0,1-2.041.6,3.987,3.987,0,0,1-1.527-.879c-1.092-.844-2.22-1.718-3.805-.351a22.817,22.817,0,0,0-6.483,9.806A.325.325,0,0,1,1254.736,1009.223Z" transform="translate(-1254.411 -997.812)"/></g><path class="o" d="M1240.922,1030.767a.858.858,0,0,1,.851.965l-.071.571-2.384,19.245h0a.858.858,0,0,1-.851.751h-8.33a.858.858,0,0,1-.854-.78l-1.817-19.815a.858.858,0,0,1,.854-.937Z" transform="translate(-347.283 -463.906)"/><path class="f" d="M1249.325,1036.628l-2.384,19.245h-9.151a3.829,3.829,0,0,1,2.832-1.044c1.925,0,3.85-.4,3.85-1.685a2.014,2.014,0,0,0-2.036-1.925c-.832,0-1.733.322-1.733-.959s0-2.328,1.441-2.328,3.854-.481,3.854-2.072-1.847-2.982-3.854-3.06-4.088.319-4.328-2.647,1.281-3.525,4.3-3.525Z" transform="translate(-354.905 -468.232)"/><path class="p" d="M1442.742,483.273s-4.356-1.958-7.1-1.958-9.559,1.958-9.559,1.958l7.308,18.106Z" transform="translate(-493.884 -58.363)"/><path class="q" d="M1434.657,495.343l2.991-8.317a2.473,2.473,0,0,1-2.172.778,3.518,3.518,0,0,1-2.417-1.147l1.475,9.26-6.637-9.078,4.343-6.655,10.12,2.663s-.2,9.137-.328,9.26S1434.657,495.343,1434.657,495.343Z" transform="translate(-495.22 -57.528)"/><path class="i" d="M1415.737,508.425c-.927.628-2.92,1.714-5.245,2.923-5.285,2.745-12.273,6.111-12.273,6.111s-11.353-3.847-17.343-6.159a34.4,34.4,0,0,1-3.31-1.4c-2.247-1.259-5.382-3.479-4.579-6.985a.05.05,0,0,1,0-.023,5.757,5.757,0,0,1,.186-.634l.01-.023c.029-.088.065-.175.1-.263a.011.011,0,0,0,0-.006c.078-.189.166-.384.266-.579,2.25-4.406,5.089-11.255,6.065-13.115s.784-4.013,10.475-6.949c0,0,2.153,9.395,4.013,14,0,0,5.333-9.71,5.554-13.418,0,0,6.875.5,9.223,4.019s7.076,13.018,7.893,14.78a10.749,10.749,0,0,1,.507,1.317c.026.085.052.169.078.257v0c.065.221.12.452.172.689v.007C1417.916,504.812,1417.782,507.04,1415.737,508.425Z" transform="translate(-454.597 -58.365)"/><path class="j" d="M1384.472,517.9l-3.6,11.32a34.391,34.391,0,0,1-3.31-1.4c-2.247-1.258-5.382-3.48-4.579-6.985-.153,1.291,1.1,2.218,2,3.07a30.989,30.989,0,0,0,3.492,2.533l-.41-8.533,5.226-12.306a36.147,36.147,0,0,1,.072,7.011C1382.961,514.813,1384.472,517.9,1384.472,517.9Z" transform="translate(-454.597 -76.28)"/><path class="r" d="M1542.559,560.59a1.3,1.3,0,0,1-.078-.257C1542.507,560.418,1542.533,560.5,1542.559,560.59Z" transform="translate(-579.793 -116.685)"/><path class="j" d="M1509.647,522.639c-.927.628-2.92,1.714-5.245,2.923a9.331,9.331,0,0,1-1.808-.3c-.172-.182-2.5-10.991-2.5-10.991s1.336-3.45.754-5.72.146-7.974.146-7.974a21.325,21.325,0,0,0,.553,5.528c.64,1.863,4.54,9.954,4.54,9.954l-.771,5.935s3.564-1.8,4.38-2.27c.7-.4,1.883-1.174,1.75-2.54C1511.826,519.026,1511.693,521.253,1509.647,522.639Z" transform="translate(-548.507 -72.578)"/><path class="c" d="M1425.756,624.854H1402.79c-3.086,0-5.538-2.013-5.291-5.912a10.22,10.22,0,0,1,.189-1.392,43.394,43.394,0,0,1,2.6-7.359c.647-1.5,1.314-2.953,1.9-4.182.949-2.01,1.668-3.411,1.668-3.411l20.819,2s.1.27.267.742c.365,1.015,1.06,2.963,1.8,5.122.836,2.429,1.74,5.128,2.309,7.089a14.118,14.118,0,0,1,.455,2.156C1429.9,622.936,1428.6,624.854,1425.756,624.854Z" transform="translate(-472.771 -147.881)"/><path class="s" d="M1461.45,787.4c-1.668-.2-2.651-.982-2.709-4.318-.016-1.047.058-3.057.172-5.317.247-4.933.67-11.073.67-11.073l4.907-.589s.455,4.364.839,9.746c.085,1.226.169,2.5.241,3.8C1465.963,786.615,1463.118,787.6,1461.45,787.4Z" transform="translate(-517.984 -268.563)"/><path class="h" d="M1461.45,814.867c-1.668-.2-2.651-.982-2.709-4.318-.016-1.047.058-3.057.172-5.317.3,1.971.637,3.857.859,3.918.468.133,4.013.335,4.481,0,.3-.214.777-3.519,1.076-5.834.085,1.226.169,2.5.241,3.8C1465.963,814.08,1463.118,815.062,1461.45,814.867Z" transform="translate(-517.984 -296.028)"/><path class="s" d="M1433.985,783.083c-.058,3.337-1.041,4.12-2.709,4.318s-4.514-.787-4.12-7.756c.071-1.291.156-2.569.24-3.8.033-.455.065-.9.1-1.343.228-3,.465-5.564.608-7.047.081-.862.133-1.356.133-1.356l4.907.589s.094,1.33.215,3.248c.078,1.219.169,2.68.257,4.185.072,1.213.14,2.462.2,3.639C1433.927,780.027,1434,782.036,1433.985,783.083Z" transform="translate(-494.646 -268.563)"/><path class="t" d="M1434.414,773.764l-1.558-2.481h-3.7c-.143,1.483-.381,4.049-.608,7.047a7.02,7.02,0,0,0,3.626,1.678c1.086.032,1.922-.992,2.494-2.058Z" transform="translate(-495.703 -272.385)"/><path class="t" d="M1460.166,777.958c.573,1.067,1.408,2.091,2.494,2.058a7.023,7.023,0,0,0,3.626-1.678c-.228-3-.465-5.564-.608-7.047h-3.7l-1.558,2.481Z" transform="translate(-519.037 -272.391)"/><path class="h" d="M1431.277,814.867c1.668-.2,2.65-.982,2.709-4.318.016-1.047-.059-3.057-.172-5.317-.3,1.971-.637,3.857-.859,3.918-.468.133-4.013.335-4.481,0-.3-.214-.777-3.519-1.076-5.834-.085,1.226-.169,2.5-.241,3.8C1426.764,814.08,1429.609,815.062,1431.277,814.867Z" transform="translate(-494.647 -296.028)"/><path class="g" d="M1468.145,629.089s-1.986-4.728-4.444-4.728h-4.823c-.946,0-2.175,1.608-2.175,4.728s.506,31.771.537,33.851.031,4.444,3.813,4.255,4.633-1.607,4.822-4.539S1468.9,633.06,1468.145,629.089Z" transform="translate(-516.482 -163.944)"/><path class="g" d="M1422.857,629.091c0,3.119-.5,31.768-.537,33.85-.006.449-.013.91-.055,1.356-.15,1.626-.787,3.05-3.756,2.9-3.782-.192-4.634-1.61-4.823-4.54-.143-2.224-1.811-18.117-2.276-27.388,0-.007,0-.01,0-.013a35.829,35.829,0,0,1,.006-6.166s1.987-4.728,4.446-4.728h4.823C1421.628,624.363,1422.857,625.97,1422.857,629.091Z" transform="translate(-482.962 -163.945)"/><path class="g" d="M1421.939,565.431h-31.466a1.294,1.294,0,0,1-1.29-1.194l-1.421-18.324a1.294,1.294,0,0,1,1.29-1.394h34.39a1.294,1.294,0,0,1,1.29,1.4l-1.5,18.324A1.294,1.294,0,0,1,1421.939,565.431Z" transform="translate(-465.595 -105.013)"/><path class="m" d="M1452.382,577.673a1.505,1.505,0,0,0-.436-.881l.01-.006-.124-.1v0l-.052-.045,0,0a1.209,1.209,0,0,0-.7-.234l-.01,0h-.023a1.263,1.263,0,0,0-.478.094,1.347,1.347,0,0,0-.153.078,1.953,1.953,0,0,1,.361-.615c.02-.023.039-.046.062-.068l.065-.072-.062-.071c-.052-.068-.1-.127-.15-.179l-.078-.088-.081.085a2.445,2.445,0,0,0-.361.475.906.906,0,0,0-.771-.442h-.01l-.065,0-.03.052a.917.917,0,0,0-.052.777,1.143,1.143,0,0,0-.257-.029h-.023l-.01,0a1.208,1.208,0,0,0-.7.234l0,0-.052.045,0,0-.12.1.01.006a1.487,1.487,0,0,0-.436.881h0c0,.059-.007.11-.007.159,0,.023,0,.042,0,.065v.01a.129.129,0,0,1,0,.036.627.627,0,0,0,.013.078.167.167,0,0,0,.007.039c.007.029.013.058.02.085l0,0a2.177,2.177,0,0,0,.143.374c.043.085.088.175.146.28l.065.117a13.181,13.181,0,0,0,.69,1.138l.01.01a1.108,1.108,0,0,0,.852.481.888.888,0,0,0,.416-.15.913.913,0,0,0,.42.15h.052a1.131,1.131,0,0,0,.826-.462l0-.007a6.206,6.206,0,0,0,.559-.94c.059-.12.117-.234.176-.338s.107-.2.146-.28a2.281,2.281,0,0,0,.143-.374v0a.725.725,0,0,0,.023-.081c0-.016,0-.029.006-.042a.629.629,0,0,0,.013-.078.129.129,0,0,1,0-.036v-.013c0-.02,0-.039,0-.062A1.373,1.373,0,0,0,1452.382,577.673Z" transform="translate(-509.797 -127.866)"/><path class="u" d="M1454.651,403.588s4.453-4.392,7.686,2.684,4.819,10.187,7.015,10-.671,3.538-2.867,2.806-.732,1.1.732.915-.53,1.531-2.44,1.281S1451.113,409.261,1454.651,403.588Z" transform="translate(-514.48)"/><path class="s" d="M1442.119,433.031a2.762,2.762,0,0,1-2.3,2.052c-1.005,3.99-3.392,6.794-6.172,6.794-2.654,0-4.946-2.553-6.026-6.254l0-.013-.15-.546a2.948,2.948,0,0,1-2.032-2.032c-.517-1.444-.14-2.9.845-3.255a1.391,1.391,0,0,1,.712-.052,15.621,15.621,0,0,1,1.385-5.688c1.223-2.582,3.128-4.241,5.268-4.241,2.849,0,5.281,2.94,6.241,7.08a16.8,16.8,0,0,1,.416,2.914,1.438,1.438,0,0,1,.969-.013C1442.262,430.126,1442.639,431.587,1442.119,433.031Z" transform="translate(-493.235 -12.956)"/><path class="t" d="M1442.119,443.551a2.762,2.762,0,0,1-2.3,2.052c.172-.624.52-.6,1-.959a3.525,3.525,0,0,0,.9-2.559c0-1.135-.976-1.259-1.1-1.054s-1.015,4.059-1.015,4.059a15.344,15.344,0,0,0-.527-3.733c-.53-1.824-2.641-1.382-4.833-1.867s-3.733-4.241-3.733-4.241-1.057-1.769-.446-.429-.2,2.881-.53,4.1-1.867,1.379-1.948,1.746-.081,4.114-.081,4.114-.81-2.735-.933-3.1-.283-.933-.647-.042a2.734,2.734,0,0,0,.81,2.68,2.5,2.5,0,0,1,.729,1.265,2.948,2.948,0,0,1-2.032-2.032c-.517-1.444-.14-2.9.845-3.255a1.392,1.392,0,0,1,.712-.052,15.621,15.621,0,0,1,1.385-5.688l.471-.507,8.484.325,2.553,3.021a16.8,16.8,0,0,1,.416,2.914,1.438,1.438,0,0,1,.969-.013C1442.262,440.647,1442.639,442.107,1442.119,443.551Z" transform="translate(-493.235 -23.477)"/><path class="v" d="M1430.1,420.855s3.265,4.155,6.579,4.4a4.067,4.067,0,0,1,3.809,4.551c-.1,1.385.434-3.382.758-3.4s1.863-.559,1.418-3.032-2.216-8.132-8.232-8.063c-4.332.05-5.173,3.413-5.173,3.413s-3.116.2-3.166,2.671.4,4.746.843,5.069,1.136,3.593,1.136,3.593-.248-3.418.148-3.962S1431.037,425.555,1430.1,420.855Z" transform="translate(-493.884 -9.649)"/><path class="e" d="M1422.857,629.091c0,3.119-.5,31.768-.537,33.85-.006.449-.013.91-.055,1.356a8.19,8.19,0,0,1-5.19,1.837c-3.6-.039-2.764-6.647-2.442-4.647a3.291,3.291,0,0,0,3.545,2.673,3.146,3.146,0,0,0,2.579-1.372c.563-.725-.322-30.048-.562-32.061s-.644-3.867-3.626-3.867-3.463,3.06-4.429,4.029c-.387.384-.6,2.257-.728,4.367a35.829,35.829,0,0,1,.006-6.166s1.987-4.728,4.446-4.728h4.823C1421.628,624.363,1422.857,625.97,1422.857,629.091Z" transform="translate(-482.962 -163.945)"/><path class="e" d="M1456.706,629.091c0,3.119.5,31.768.536,33.85.007.449.013.91.056,1.356a8.188,8.188,0,0,0,5.19,1.837c3.6-.039,2.764-6.647,2.442-4.647a3.291,3.291,0,0,1-3.545,2.673,3.146,3.146,0,0,1-2.579-1.372c-.562-.725.322-30.048.563-32.061s.644-3.867,3.626-3.867,3.464,3.06,4.429,4.029c.387.384.6,2.257.729,4.367a35.85,35.85,0,0,0-.007-6.166s-1.987-4.728-4.445-4.728h-4.823C1457.935,624.363,1456.706,625.97,1456.706,629.091Z" transform="translate(-516.484 -163.945)"/><path class="j" d="M1013.009,767.175s2.539,3.168,7.127,10.175,11.52,14.541,6.346,14.541-15.62-16.613-15.62-16.613Z" transform="translate(-187.412 -269.353)"/><path class="s" d="M1056.315,754.266a7.7,7.7,0,0,0-1.177,5.06c.221,1.623-3.688,0-3.688,0s-.218-.413-.488-.969a8.238,8.238,0,0,1-.995-2.761c.153-.621,2.146-.917,3.106-.4s3.1-2.338,3.317-3.015c.215-.657.852-3.06,1.226-2.969a.053.053,0,0,1,.029.01C1058.012,749.443,1057.274,752.893,1056.315,754.266Z" transform="translate(-216.268 -256.092)"/><path class="t" d="M1057.616,749.212c-.172.774-.484,2.14-.628,2.556-.2.6-2.325,4.107-2.9,4.309s-1.34,2.485-1.34,2.485l-1.785-.2a8.238,8.238,0,0,1-.995-2.761c.153-.621,2.146-.917,3.106-.4s3.1-2.338,3.317-3.015C1056.6,751.524,1057.242,749.121,1057.616,749.212Z" transform="translate(-216.268 -256.092)"/><path class="i" d="M1057.2,787.7s2.325,12.913,0,12.994-5.351.3-5.742-6.5S1050,779.1,1050,779.1h5.955Z" transform="translate(-216.299 -278.157)"/><path class="s" d="M884.949,1058.318l-.579.79-.946,1.288-.771,1.054-.283.384-.293,1.72-.644,3.789.993,1.188a.728.728,0,0,1-.559,1.2h-2.388l-2.591-8.224a1.193,1.193,0,0,1,.448-1.332l1.518-1.075,1.532-1.083,3.037-2.153Z" transform="translate(-88.488 -482.427)"/><path class="t" d="M894.961,1058.318l-.579.79-.946-.185v1.473l-.771,1.054c-.5-.66-1.606-2.393-2.267-3.437l3.037-2.153Z" transform="translate(-98.5 -482.427)"/><path class="j" d="M881.77,1078.845h-2.362l-2.623-8.325a1.047,1.047,0,0,1,.394-1.169l1.6-1.136a7.258,7.258,0,0,0,1.083,2.576,15.223,15.223,0,0,0,2.14,1.883l-.644,3.788.976,1.168A.741.741,0,0,1,881.77,1078.845Z" transform="translate(-88.417 -491.545)"/><path class="w" d="M910.73,871.668s4.443,17.384,5.614,21.187,0,7.547-4.708,11.832-15.54,17.23-15.54,17.23l-4.16-6.245,15.717-17.743-3.3-8.333-8.255-21.73Z" transform="translate(-99.634 -343.67)"/><path class="s" d="M914.292,1078.905H902v-11.349l4.689.92v5.977l2.127.94,5.691,2.514A.521.521,0,0,1,914.292,1078.905Z" transform="translate(-107.06 -491.06)"/><path class="t" d="M906.685,1068.476v2.761a5.8,5.8,0,0,0-2.878.189,2.251,2.251,0,0,1-1.811.088v-3.958Z" transform="translate(-107.06 -491.06)"/><path class="j" d="M914.352,1100.175H902v-3.8a10.138,10.138,0,0,0,6.816.289l5.746,2.538A.509.509,0,0,1,914.352,1100.175Z" transform="translate(-107.06 -512.33)"/><path class="f" d="M907.3,862.5l-5.857,52.258a1,1,0,0,1-1.109.884l-6.78-.77a1,1,0,0,1-.881-1.119c.447-3.516,1.852-15.383,1.275-21.357-.682-7.062-3.686-23.36-2.637-28.973.923-4.94,4.259-5.252,5.047-5.256a.974.974,0,0,1,.3.049l9.95,3.221A1,1,0,0,1,907.3,862.5Z" transform="translate(-99.014 -336.513)"/><path class="g" d="M926.24,764.612c-.686,2.826-10.052,9-11.8,10.234s-6.068,10.7-5.658,12.188,1.646,6.641,1.646,6.641-12.266,1.551-16.959-.6A2.692,2.692,0,0,1,891.7,791.2a16.254,16.254,0,0,1,.572-8.075c-.351.81-2.644,6.01-3.87,6.309-1.333.325-1.889-2.371-.221-7.3s6.709-19.024,15.762-22.627,16.64-5.431,18.595-3.685c0,0,.2.276.514.735C924.191,758.245,926.78,762.394,926.24,764.612Z" transform="translate(-96.101 -260.484)"/><path class="e" d="M944.044,768.218c-.686,2.826-10.052,9-11.8,10.234s-6.068,10.7-5.658,12.188,1.646,6.641,1.646,6.641-12.266,1.551-16.959-.6c.019-1.314.179-11.044.559-12.654.407-1.727,5.249-.966,4.436-2.279s-1.187-3.249-.377-3.451,4.377,2.387,3.489-.735,1.135-5.437,1.385-3.938,3.187,4.25,4.25,4.345,9.746-9.593,11.122-10.341,2.374-5.187,2.374-5.74,1.929-1.838,1.929-1.838l.42.124C942,761.851,944.584,766,944.044,768.218Z" transform="translate(-113.906 -264.091)"/><path class="s" d="M1035.465,716.464c-.8,2.328-2.01,8.706-4.93,8.982a6.848,6.848,0,0,1-1.561-.026h-.007a5.686,5.686,0,0,1-3.008-1.288l-3.613,4.754a1.124,1.124,0,0,1-1.844,0c-.017-.023-.036-.045-.052-.068-.92-1.216-2.221-4.92-1.359-5.854.878-.953,3.681-2.943,3.372-6.01s2.146-8.218,5.518-8.094a14.5,14.5,0,0,1,5.7,1.35,9.005,9.005,0,0,1,1.512,2.328,6.078,6.078,0,0,1,.517,2.042A4.864,4.864,0,0,1,1035.465,716.464Z" transform="translate(-193.278 -226.31)"/><path class="t" d="M1041.038,718.991l-.686,1.063a.026.026,0,0,0-.01,0,4.88,4.88,0,0,1-3.135-.533,3.044,3.044,0,0,0-4.117,1.437c-.664,1.421-3.128,4.306-3.008,5.063s1.372,4.39,3.512,4.871a5.686,5.686,0,0,1-3.008-1.288l-3.613,4.754a1.124,1.124,0,0,1-1.844,0c-.016-.023-.036-.045-.052-.068.881-1.415,3.073-5.07,3.041-6.471-.046-1.75,0-7.525,0-7.525l3.486-4.02,7.772,1.372.449.364Z" transform="translate(-197.904 -231.787)"/><path class="n" d="M1043.9,703.769a.613.613,0,0,1,.712-.115c.119.064.212.143.2.231-.127,1.431-.786,6.425-3.69,4.6-3.376-2.126-5.97-2.391-6.215-1.226s-2.023,5.7-2.575,5.641,1.288-3.494.368-4.691-2.882,1.2-2.33,3.219-2.384,3.059-2.384,3.059-.927-5.021-.252-6.554a3.06,3.06,0,0,0-.246-3.066c-.306-.552.982-4.292,5.458-3.679C1037.242,701.772,1041.854,705.709,1043.9,703.769Z" transform="translate(-199.657 -220.596)"/><path class="s" d="M996.717,841.648h5.745s4.272,2.5,4.493,3.02,0,.737,0,.737,1.09.773.619,1.454H994.581Z" transform="translate(-175.396 -324.32)"/><path class="t" d="M1000.378,843.9s3.837-.262,4.317,0,4.186,2.4,4.36,2.573a15.018,15.018,0,0,1-2.834-1.344c-1.352-.749.218.908,1.482,1.737s2.636,1.57,2.636,1.57l-12.011.023S998.721,844.964,1000.378,843.9Z" transform="translate(-178.161 -325.895)"/><path class="i" d="M956.015,773.078c1.98-.72,4.413.733,4.991,3.578s-4.758,6.025-6.245,9.3-1.655,4.56,1.254,4.56H962.2s-3.215,2.478-3.215,5.6h-2.966s-8.534,2.95-10.5,2.314-1.811-4.743,0-9.1,4.686-10.505,5.876-11.8S953.8,773.884,956.015,773.078Z" transform="translate(-138.135 -273.575)"/><path class="s" d="M1040.7,729.416a.611.611,0,0,1,.926.613c.018,1.023-.336,3.3-.69,2.87s-1.164-.629-1.152-1.3A7.334,7.334,0,0,1,1040.7,729.416Z" transform="translate(-208.762 -241.423)"/><g transform="translate(984.334 506.596)"><path class="m" d="M1662.208,821.173a.382.382,0,0,0-.244-.163l-.647-.12a4.527,4.527,0,0,0-.218-1.044l.546-.371a.382.382,0,0,0,.1-.53l-.959-1.411a.366.366,0,0,0-.244-.159.375.375,0,0,0-.286.059l-.546.371a4.455,4.455,0,0,0-.888-.585l.124-.647a.379.379,0,0,0-.3-.445l-1.678-.322a.385.385,0,0,0-.445.3l-.124.65a4.388,4.388,0,0,0-1.041.215l-.371-.546a.4.4,0,0,0-.244-.159.385.385,0,0,0-.286.058l-1.415.962a.376.376,0,0,0-.1.527l.371.546a4.485,4.485,0,0,0-.585.891l-.65-.124a.367.367,0,0,0-.283.058.372.372,0,0,0-.159.244l-.322,1.678a.38.38,0,0,0,.3.442l.647.124a4.574,4.574,0,0,0,.218,1.044l-.546.371a.371.371,0,0,0-.159.244.377.377,0,0,0,.059.283l.963,1.415a.372.372,0,0,0,.24.159.387.387,0,0,0,.286-.059l.546-.371a4.464,4.464,0,0,0,.888.585l-.124.647a.383.383,0,0,0,.3.445l1.678.319a.278.278,0,0,0,.072.007.382.382,0,0,0,.374-.309l.124-.647a4.457,4.457,0,0,0,1.044-.218l.371.549a.384.384,0,0,0,.244.159.38.38,0,0,0,.283-.062l1.415-.959a.381.381,0,0,0,.1-.527l-.371-.546a4.626,4.626,0,0,0,.585-.891l.647.124a.378.378,0,0,0,.442-.3l.322-1.678A.378.378,0,0,0,1662.208,821.173Zm-3.479.478a1.971,1.971,0,0,1-3.567.738,1.973,1.973,0,0,1,1.626-3.08,2.1,2.1,0,0,1,.374.036A1.977,1.977,0,0,1,1658.729,821.651Z" transform="translate(-1644.45 -811.837)"/><path class="m" d="M1632.887,806.718a.285.285,0,0,0-.059-.4l-.4-.3a3.511,3.511,0,0,0,.2-.774l.491-.071a.278.278,0,0,0,.188-.111.3.3,0,0,0,.052-.211l-.182-1.272a.283.283,0,0,0-.322-.241l-.491.068a3.486,3.486,0,0,0-.41-.686l.3-.4a.3.3,0,0,0,.052-.211.277.277,0,0,0-.111-.189l-1.028-.768a.285.285,0,0,0-.4.055l-.3.4a3.213,3.213,0,0,0-.774-.2l-.072-.491a.286.286,0,0,0-.322-.244l-1.271.182a.292.292,0,0,0-.189.114.285.285,0,0,0-.055.211l.071.491a3.437,3.437,0,0,0-.689.407l-.4-.3a.288.288,0,0,0-.211-.055.292.292,0,0,0-.189.111l-.767,1.031a.288.288,0,0,0-.055.211.3.3,0,0,0,.111.189l.4.3a3.558,3.558,0,0,0-.2.774l-.491.072a.284.284,0,0,0-.186.111.292.292,0,0,0-.055.211l.182,1.271a.283.283,0,0,0,.322.244l.491-.072a3.592,3.592,0,0,0,.41.69l-.3.4a.286.286,0,0,0,.055.4l1.028.771a.286.286,0,0,0,.4-.058l.3-.4a3.38,3.38,0,0,0,.774.2l.071.491a.292.292,0,0,0,.111.189.3.3,0,0,0,.172.055.167.167,0,0,0,.039,0l1.272-.182a.286.286,0,0,0,.244-.322l-.072-.491a3.44,3.44,0,0,0,.69-.41l.4.3a.285.285,0,0,0,.4-.058Zm-3.431-.458a1.482,1.482,0,0,1-.423-2.933,1.571,1.571,0,0,1,.211-.013,1.481,1.481,0,0,1,.211,2.946Z" transform="translate(-1625.126 -800.673)"/></g><path class="x" d="M1600.23,608.73a.248.248,0,0,1-.25.247h-7.252a.247.247,0,0,1,0-.494h7.252A.248.248,0,0,1,1600.23,608.73Z" transform="translate(-616.697 -152.224)"/><path class="x" d="M1600.23,617.049a.25.25,0,0,1-.25.25h-7.252a.25.25,0,0,1-.247-.25.247.247,0,0,1,.247-.247h7.252A.248.248,0,0,1,1600.23,617.049Z" transform="translate(-616.697 -158.364)"/><path class="g" d="M1596.678,600.189h-8.146a1.254,1.254,0,0,0-1.291,1.213v5.092a.466.466,0,0,0,.193.377l2.813,2.042,2.1,1.522a.466.466,0,0,0,.554-.006l2-1.509a.336.336,0,0,1,.14-.062l2.734-1.987a.466.466,0,0,0,.192-.377V601.4A1.254,1.254,0,0,0,1596.678,600.189Zm-.566,4.849h-7.252a.25.25,0,0,1-.247-.25.247.247,0,0,1,.247-.247h7.252a.248.248,0,0,1,.25.247A.251.251,0,0,1,1596.112,605.038Zm0-2.182h-7.252a.247.247,0,0,1,0-.494h7.252a.247.247,0,1,1,0,.494Z" transform="translate(-612.83 -146.103)"/><path class="g" d="M1579.072,612.587V614a.467.467,0,0,1-.744.375l-.961-.713a.466.466,0,0,1,0-.751l.962-.7A.466.466,0,0,1,1579.072,612.587Z" transform="translate(-605.402 -154.909)"/><path class="g" d="M1606.411,594.717h0a.467.467,0,0,1-.275-.843h0a.467.467,0,0,1,.55,0h0A.467.467,0,0,1,1606.411,594.717Z" transform="translate(-626.634 -141.375)"/><path class="g" d="M1632.764,612.923a.466.466,0,0,1,.01.746l-1.651,1.273-.078.055v-2.411a.466.466,0,0,1,.742-.377Z" transform="translate(-645.161 -154.907)"/><path class="g" d="M1626.274,621.947v5.967a.466.466,0,0,1-.74.377l-4.109-2.984a.467.467,0,0,1,0-.755l4.109-2.984A.466.466,0,0,1,1626.274,621.947Z" transform="translate(-637.918 -161.817)"/><path class="g" d="M1594.579,640.853H1581.6a.467.467,0,0,1-.286-.836l3.938-3.045a.467.467,0,0,1,.559-.009l2.094,1.516a.376.376,0,0,0,.442,0l1.987-1.5a.467.467,0,0,1,.565,0l3.961,3.038A.467.467,0,0,1,1594.579,640.853Z" transform="translate(-608.323 -173.18)"/><path class="g" d="M1579.823,625.308l-4.109,2.984a.466.466,0,0,1-.741-.377v-5.967a.466.466,0,0,1,.741-.377l4.109,2.984A.467.467,0,0,1,1579.823,625.308Z" transform="translate(-603.775 -161.817)"/><path class="y" d="M1282.545,559.514a8.879,8.879,0,0,0-3.5-.251v0a1.34,1.34,0,0,0-1.34-1.34h-5.495a1.34,1.34,0,0,0-1.34,1.34v5.769a1.34,1.34,0,0,0,1.34,1.341h5.495a1.34,1.34,0,0,0,1.34-1.341v-.2C1282.55,564.377,1283.9,560.144,1282.545,559.514Zm-1.749,3.326a3.974,3.974,0,0,1-1.749,1.051v-3.71c.25.014.519.017.81,0C1282.048,560.089,1281.787,561.432,1280.8,562.84Z" transform="translate(-379.321 -114.904)"/><path class="z" d="M1276.9,468.384s-2.659-3.2-1.221-5.021,4.291-3.26,4.543-6.328-3.4-4.027-2.484-6.712,7.847-9.3,2.99-12.752-9.528,3.26-9.924,6.616,4.589,8.725,4.589,11.7-4.506,3.164-4.123,5.849a43.191,43.191,0,0,0,1.812,6.651Z" transform="translate(-379.258 -25.369)"/><path class="g" d="M1038.913,637.156a.5.5,0,0,1-.163.361.747.747,0,0,1-.54.2l-5.951-.078a.649.649,0,0,1-.7-.585.6.6,0,0,1,.481-.537.459.459,0,0,0-.042-.9.624.624,0,0,1-.569-.572.587.587,0,0,1,.452-.527.461.461,0,0,0,.322-.439.454.454,0,0,0-.319-.439.6.6,0,0,1-.455-.546.515.515,0,0,1,.094-.28h7.089a.517.517,0,0,1,.166.377.583.583,0,0,1-.449.527.468.468,0,0,0-.325.439.461.461,0,0,0,.322.439.6.6,0,0,1,.452.546.588.588,0,0,1-.478.536.461.461,0,0,0,.042.9A.626.626,0,0,1,1038.913,637.156Z" transform="translate(-202.596 -170.186)"/><path class="i" d="M1035.4,587.3a9.6,9.6,0,0,1-.289,2.462,36.811,36.811,0,0,1-1.971,5.271h-6.829a36.861,36.861,0,0,1-1.971-5.268,9.627,9.627,0,0,1-.289-2.465,5.675,5.675,0,0,1,11.349,0Z" transform="translate(-197.143 -132.402)"/><path class="g" d="M1035.786,602.146c-.1,0,2.45,2.96,2.45,2.96l4.049-5.341-1.327-.478-2.756,4.628-1.7-2.416Z" transform="translate(-205.806 -145.437)"/><g transform="translate(805.154 469.273)"><g transform="translate(27.208 14.862)"><path class="g" d="M1045.612,715.832s-.266-.131-.721-.313l.242-.6c.482.193.757.328.768.334Z" transform="translate(-1044.891 -714.915)"/></g><g transform="translate(0 2.513)"><path class="g" d="M944.356,687.381l-.024-.651a6.368,6.368,0,0,0,1.548-.194l.155.632A6.975,6.975,0,0,1,944.356,687.381Zm-1.778-.324a2.882,2.882,0,0,1-1.246-1.33l.588-.278a2.227,2.227,0,0,0,.959,1.032Zm5.061-.431-.253-.6c.456-.193.944-.43,1.449-.7l.311.571C948.621,686.178,948.114,686.424,947.639,686.625Zm2.94-1.577-.347-.55c.432-.272.888-.576,1.356-.9l.372.534C951.483,684.462,951.019,684.771,950.579,685.049Zm-8.919-1.043-.65-.037a5.1,5.1,0,0,1,.417-1.7l.6.254A4.445,4.445,0,0,0,941.66,684.006Zm11.64-.847-.39-.52c.419-.314.854-.65,1.294-1l.4.51C954.163,682.5,953.723,682.841,953.3,683.159Zm-10.491-1.99-.527-.382a11.262,11.262,0,0,1,1.1-1.285l.463.457A10.574,10.574,0,0,0,942.808,681.169Zm13.081-.01-.366-.538a10.147,10.147,0,0,1,1.477-.834l.271.591A9.456,9.456,0,0,0,955.889,681.159Zm10.8-.971c-.519-.157-1.046-.292-1.565-.4l.134-.636c.538.113,1.083.253,1.62.415Zm-7.927-.352-.173-.627a11.655,11.655,0,0,1,1.658-.327l.08.645A11.037,11.037,0,0,0,958.766,679.836Zm4.769-.307a14.839,14.839,0,0,0-1.606-.1l0-.65a15.55,15.55,0,0,1,1.676.1Zm-18.5-.647-.411-.5c.328-.267.681-.535,1.05-.8.1-.069.2-.137.3-.2l.35.548q-.14.09-.274.185C945.7,678.365,945.354,678.624,945.037,678.882Zm2.7-1.677-.247-.6a14.71,14.71,0,0,1,1.591-.542l.176.626A14.012,14.012,0,0,0,947.737,677.2Zm3.1-.895-.13-.637c.5-.1,1.034-.2,1.633-.293l.1.642C951.849,676.115,951.324,676.209,950.834,676.31Zm3.226-.523-.087-.645c.53-.071,1.066-.139,1.6-.208l.112.641C955.123,675.648,954.588,675.716,954.06,675.787Zm3.264-.424-.087-.645c.543-.073,1.085-.151,1.62-.236l.1.642C958.418,675.21,957.872,675.289,957.323,675.363Zm3.268-.53-.128-.638c.571-.115,1.089-.235,1.583-.367l.168.628C961.707,674.593,961.176,674.716,960.592,674.833Zm3.219-.877-.225-.61a12.326,12.326,0,0,0,1.465-.645l.3.576A12.937,12.937,0,0,1,963.811,673.956Zm2.971-1.62-.417-.5a5.606,5.606,0,0,0,1.042-1.146l.538.366A6.254,6.254,0,0,1,966.782,672.336Zm1.924-2.832-.618-.2a6.6,6.6,0,0,0,.3-1.534l.648.052A7.233,7.233,0,0,1,968.706,669.5Z" transform="translate(-941.01 -667.767)"/></g><g transform="translate(27.231 0)"><path class="g" d="M1045.1,659.071c-.028-.254-.068-.516-.119-.778l.639-.123c.053.278.1.557.126.828Z" transform="translate(-1044.978 -658.171)"/></g></g><path class="i" d="M1042.471,537.826h-.022a.977.977,0,0,1-.931-1.016l.226-5.177a.977.977,0,0,1,1.016-.931h.022a.978.978,0,0,1,.931,1.016l-.226,5.177A.977.977,0,0,1,1042.471,537.826Z" transform="translate(-210.039 -94.813)"/><path class="i" d="M.986,0h0a.985.985,0,0,1,.985.985v4a.985.985,0,0,1-.985.985h0A.986.986,0,0,1,0,4.984v-4A.986.986,0,0,1,.986,0Z" transform="translate(818.754 443.335) rotate(-47.626)"/><path class="i" d="M1079.911,559.458l.015.016a.977.977,0,0,0,1.377.063l2.969-2.71a.977.977,0,0,0,.063-1.377l-.015-.016a.977.977,0,0,0-1.377-.063l-2.969,2.71A.977.977,0,0,0,1079.911,559.458Z" transform="translate(-238.19 -112.836)"/><path class="g" d="M1155.292,826.006l-1.444.728a.259.259,0,0,0-.143.2l-.221,1.6-1.138-1.148a.269.269,0,0,0-.189-.078c-.016,0-.029,0-.046,0l-1.593.289.741-1.437a.266.266,0,0,0,0-.247l-.764-1.424,1.6.257a.257.257,0,0,0,.234-.078l1.119-1.167.247,1.6a.27.27,0,0,0,.146.2Z" transform="translate(-290.471 -310.929)"/><path class="g" d="M1174.039,819.363l-.3.179a.271.271,0,0,0-.13.211l-.023.351-.267-.231a.254.254,0,0,0-.176-.068.239.239,0,0,0-.065.01l-.342.085.14-.322a.267.267,0,0,0-.02-.247l-.189-.3.355.032a.263.263,0,0,0,.228-.094l.224-.27.078.345a.266.266,0,0,0,.159.189Z" transform="translate(-306.838 -307.382)"/><path class="g" d="M1135.915,815.218l.12.9-.79-.455a.265.265,0,0,0-.247-.01l-.823.393.189-.891a.272.272,0,0,0-.068-.237l-.628-.66.9-.1a.264.264,0,0,0,.2-.137l.436-.8.371.832a.275.275,0,0,0,.2.153l.9.162-.677.612A.264.264,0,0,0,1135.915,815.218Z" transform="translate(-278.054 -303.341)"/></g></g></svg>