<svg xmlns="http://www.w3.org/2000/svg" width="309.306" height="403" viewBox="0 0 309.306 403"><defs><style>.a{fill:#d1f2ff;font-size:350px;font-family:Play-Bold, Play;font-weight:700;}.a,.b{opacity:0.5;}.b,.f{fill:#009eff;}.c{fill:#dff3ff;}.d{fill:#005284;}.e{fill:#fff;}.g{fill:#72c9ff;}.h{fill:#febb46;}.i{fill:#6774ff;}.j{fill:#005589;}.k{fill:#ff911d;}.l{fill:#1276b2;}.m{fill:#0290e4;}.n{fill:#f26178;}.o{fill:#028adc;}.p{fill:#393939;}.q{fill:#eaeaea;}.r{fill:#d6daff;}.s{fill:#d9d8d6;}.t{fill:#fcd2c5;}.u{fill:#fe494b;}.v{fill:#020089;}.w{fill:#006fb3;}.x{fill:#e24c4e;}.y{fill:#fabdaa;}.z{fill:#848484;}.aa{fill:#0377bf;}</style></defs><g transform="translate(-1226 -1928)"><text class="a" transform="translate(1328 2254)"><tspan x="-101.5" y="0">6</tspan></text><g transform="translate(529.499 1745.262)"><path class="b" d="M851.891,361.64c-17.182,8.723,1.836,58.449-19.459,69.323s-83.174,8.965-83.174,46.138,74.3,25.1,60.691,32.645-81.833,16.9-63.27,21.545,63.72,6.555,69.761,9.208-19.006,11.934,20.589,12.965,108.815,3.847,135.361,0c20.783-3.012,50.7-15.853,20.783-19.013s-58.323-38.2-29.166-55.747,61.838-46.583-3.488-60.764S884.4,345.139,851.891,361.64Z"/><rect class="c" width="82.756" height="103.049" transform="translate(770.336 431.402)"/><rect class="c" width="104.582" height="80.634" transform="translate(862.187 391.977)"/><path class="d" d="M0,0H82.756V10.828H0Z" transform="translate(770.336 420.574)"/><path class="e" d="M9.966,0H62.726a9.966,9.966,0,0,1,9.966,9.966v0a9.966,9.966,0,0,1-9.966,9.966H9.966A9.966,9.966,0,0,1,0,9.966v0A9.966,9.966,0,0,1,9.966,0Z" transform="translate(775.496 435.384)"/><circle class="e" cx="18.712" cy="18.712" r="18.712" transform="translate(779.181 465.78) rotate(-12.273)"/><rect class="f" width="7.544" height="17.18" transform="translate(782.731 510.761)"/><path class="g" d="M0,0H7.544V21.3H0Z" transform="translate(792.568 506.64)"/><rect class="h" width="7.544" height="18.194" transform="translate(802.405 509.746)"/><rect class="f" width="7.544" height="27.07" transform="translate(812.612 500.871)"/><path class="e" d="M12.266,0h0A12.266,12.266,0,0,1,24.533,12.266V54.3A12.266,12.266,0,0,1,12.267,66.565h0A12.267,12.267,0,0,1,0,54.3V12.266A12.266,12.266,0,0,1,12.266,0Z" transform="translate(824.763 461.375)"/><rect class="i" width="11.007" height="0.993" transform="translate(775.496 461.375)"/><rect class="i" width="8.183" height="0.993" transform="translate(775.496 463.956)"/><rect class="j" width="104.582" height="12.26" transform="translate(862.187 379.717)"/><path class="e" d="M6.238,0H44.689a6.238,6.238,0,0,1,6.238,6.238v0a6.238,6.238,0,0,1-6.238,6.238H6.238A6.238,6.238,0,0,1,0,6.238v0A6.238,6.238,0,0,1,6.238,0Z" transform="translate(866.779 396.649)"/><rect class="k" width="6.512" height="48.333" transform="translate(874.949 416.142)"/><rect class="h" width="6.515" height="48.333" transform="translate(882.724 416.142)"/><rect class="k" width="6.512" height="48.333" transform="translate(890.818 416.142)"/><rect class="h" width="6.512" height="48.333" transform="translate(898.908 416.142)"/><rect class="k" width="6.512" height="48.333" transform="translate(906.999 416.142)"/><rect class="h" width="6.515" height="48.333" transform="translate(915.09 416.142)"/><rect class="k" width="6.512" height="48.333" transform="translate(923.32 416.142)"/><rect class="h" width="6.515" height="48.333" transform="translate(931.41 416.142)"/><rect class="k" width="6.512" height="48.333" transform="translate(939.504 416.142)"/><rect class="h" width="6.512" height="48.333" transform="translate(947.595 416.142)"/><path class="l" d="M1630.726,846.48l13.8-42.265H1617.1l-15.893,42.265Z" transform="translate(-646.11 -335.577)"/><path class="m" d="M1586.234,962.083h-35.045V965.4h41.856l1.083-3.318Z" transform="translate(-608.429 -454.498)"/><rect class="m" width="12.4" height="3.668" transform="translate(980.773 494.486)"/><path class="l" d="M1602.166,1010.816h-34.233c0-2.015,5.586-3.707,13.1-4.159V975.538h8.034v31.119C1596.58,1007.108,1602.166,1008.8,1602.166,1010.816Z" transform="translate(-621.043 -464.634)"/><path class="m" d="M1662.329,1013.914l-8.732-6.82v.775l8.732,6.82Z" transform="translate(-685.573 -488.404)"/><path class="m" d="M1679.807,1030.626a2.17,2.17,0,1,0,2.17-2.17A2.17,2.17,0,0,0,1679.807,1030.626Z" transform="translate(-705.317 -504.497)"/><path class="e" d="M1261.03,896.97h105.484s.618,7.965-22.552,9.349-39.63,9.981-39.63,23.089v22.223h-43.3Z" transform="translate(-389.853 -405.449)"/><rect class="n" width="109.394" height="1.75" transform="translate(869.436 489.771)"/><rect class="o" width="7.766" height="8.954" transform="translate(884.46 480.817)"/><rect class="o" width="7.477" height="13.147" transform="translate(897.329 476.624)"/><path class="e" d="M1527.881,881.286v.372a1.8,1.8,0,0,1-.038.37,1.75,1.75,0,0,1-1.295,1.326,1.628,1.628,0,0,1-.414.051h-20.95v-2.119Z" transform="translate(-573.774 -393.634)"/><path class="e" d="M1440.989,818.432H1424.75a1.072,1.072,0,0,1-.995-.689l-8.047-21.269a1.065,1.065,0,0,1,.995-1.44h14.8a1.062,1.062,0,0,1,1,.692Z" transform="translate(-506.319 -328.661)"/><path class="k" d="M1314.838,790.807s3.783-5.541,3.672-7.985-2.894,2.34-2.894,2.34-.778-9.235-3.56-9.346,1.086,12.907,1.086,12.907-4.7-5.838-5.618-4.533,4.643,5.979,4.643,7.092a27.277,27.277,0,0,1-.556,3.718h2.426A22.543,22.543,0,0,1,1314.838,790.807Z" transform="translate(-424.8 -314.183)"/><path class="p" d="M1370.229,807.531l-2.168-9.514-1.025.289,1.905,9.225Z" transform="translate(-469.708 -330.907)"/><path class="p" d="M1384.37,794.142l2.032-13.29,2.438-.61-2.032,13.9Z" transform="translate(-482.765 -317.519)"/><path class="h" d="M1368.52,805.557l1.068-.267.145.638-1.04.465Z" transform="translate(-470.825 -336.386)"/><path class="k" d="M1439.991,819.557h-15.56a1.066,1.066,0,0,1-.676-.638l-8.047-21.269a1.051,1.051,0,0,1,.177-1.055h15.61Z" transform="translate(-506.319 -329.837)"/><path class="k" d="M1524.825,884.294a1.75,1.75,0,0,1-1.295,1.326h-22.352v-1.326Z" transform="translate(-570.756 -395.9)"/><path class="k" d="M1454.959,837.014c.428,1.424-.173,2.638-1.113,2.616-.869-.021-1.758-1.644-2.186-3.068s.23-2.125,1.1-2.152C1453.7,834.381,1454.531,835.59,1454.959,837.014Z" transform="translate(-533.353 -358.322)"/><path class="m" d="M1586.585,1006.568s-11.126.9-11.435,4.248h-7.216c0-2.015,5.586-3.707,13.1-4.159V975.538h3.063v20.669C1584.1,1000.9,1584.788,1006.429,1586.585,1006.568Z" transform="translate(-621.043 -464.634)"/><g transform="translate(887.221 463.214)"><path class="h" d="M1327.142,799.839l-.315-.017a23.671,23.671,0,0,1,1.1-5.177c.97-3.1-1.838-12.232-1.866-12.324l.3-.094c.118.379,2.866,9.315,1.867,12.512A23.355,23.355,0,0,0,1327.142,799.839Z" transform="translate(-1326.065 -782.228)"/></g><g transform="translate(883.449 470.809)"><path class="h" d="M1315.818,821.545l-.3-.105c1.057-2.992-4.686-8.139-4.744-8.191l.21-.236C1311.23,813.229,1316.946,818.354,1315.818,821.545Z" transform="translate(-1310.776 -813.012)"/></g><g transform="translate(888.975 469.083)"><path class="h" d="M1333.453,813.1l-.277-.151c1.459-2.683,3.928-6.886,3.953-6.928l.272.16C1337.377,806.22,1334.91,810.419,1333.453,813.1Z" transform="translate(-1333.176 -806.018)"/></g><path class="e" d="M1264.908,531.5a2.027,2.027,0,1,0,2.027-2.027A2.029,2.029,0,0,0,1264.908,531.5Zm3.439-.123a1.417,1.417,0,1,1-1.535-1.289A1.417,1.417,0,0,1,1268.347,531.38Z" transform="translate(-392.775 -128.617)"/><path class="k" d="M1265.5,528.415l.335-.013a.207.207,0,0,0,.179-.143l.11-.531a.207.207,0,0,0-.107-.2l-.3-.146a.253.253,0,0,1-.129-.2s0-.039-.009-.13l0-.032c0-.034.046-.1.112-.138l.284-.179a.207.207,0,0,0,.084-.213l-.168-.515a.207.207,0,0,0-.194-.122l-.336.024a.24.24,0,0,1-.205-.095c-.035-.058-.108-.259-.071-.328l.156-.3a.205.205,0,0,0-.034-.226l-.4-.361a.207.207,0,0,0-.229-.009l-.278.189a.239.239,0,0,1-.225.021c-.059-.032-.223-.172-.226-.249l-.013-.335a.206.206,0,0,0-.142-.179l-.531-.11a.207.207,0,0,0-.2.107l-.146.3a.253.253,0,0,1-.2.13s-.039,0-.13.008l-.032,0c-.034,0-.1-.046-.138-.112l-.179-.285a.207.207,0,0,0-.213-.084l-.515.168a.207.207,0,0,0-.122.194l.024.336a.24.24,0,0,1-.095.205c-.058.035-.259.108-.328.071l-.3-.156a.206.206,0,0,0-.226.034l-.361.4a.206.206,0,0,0-.008.229l.189.278a.238.238,0,0,1,.021.224c-.033.059-.172.223-.25.226l-.335.013a.207.207,0,0,0-.179.143l-.11.531a.207.207,0,0,0,.107.2l.3.146a.252.252,0,0,1,.13.2s0,.039.009.13l0,.032c0,.034-.046.1-.113.138l-.284.18a.206.206,0,0,0-.084.213l.168.514a.206.206,0,0,0,.194.122l.336-.024a.24.24,0,0,1,.206.094c.035.058.108.259.071.328l-.156.3a.206.206,0,0,0,.034.226l.4.361a.207.207,0,0,0,.229.008l.278-.188a.239.239,0,0,1,.225-.02c.059.032.223.171.226.249l.013.335a.207.207,0,0,0,.143.179l.53.11a.207.207,0,0,0,.2-.107l.147-.3a.253.253,0,0,1,.2-.13s.039,0,.13-.008l.032,0c.034,0,.1.046.138.112l.18.285a.206.206,0,0,0,.213.084l.515-.168a.207.207,0,0,0,.122-.194l-.024-.336a.242.242,0,0,1,.095-.206c.058-.035.259-.108.328-.071l.3.156a.207.207,0,0,0,.226-.034l.361-.4a.207.207,0,0,0,.009-.229l-.188-.278a.239.239,0,0,1-.021-.225C1265.288,528.582,1265.427,528.418,1265.5,528.415Zm-2.779,1.189a2.309,2.309,0,1,1,2.309-2.309A2.312,2.312,0,0,1,1262.726,529.6Z" transform="translate(-388.566 -124.408)"/><path class="e" d="M1553.04,780.16a7.208,7.208,0,0,0-7.207,7.206c0,7.21,7.207,15.859,7.207,15.859s7.21-8.65,7.21-15.859A7.208,7.208,0,0,0,1553.04,780.16Zm0,11.622a4.415,4.415,0,1,1,4.415-4.415A4.415,4.415,0,0,1,1553.04,791.781Z" transform="translate(-604.395 -317.456)"/><path class="e" d="M1263.33,825.471a2.506,2.506,0,0,0-2.144-.543l.092-1.08h-9.038l.092,1.08a2.506,2.506,0,0,0-2.144.543,2.314,2.314,0,0,0-.221,2.422c.644,1.933,2.915,2.479,4.023,2.634a4.191,4.191,0,0,0,5.539,0c1.108-.155,3.379-.7,4.023-2.634A2.314,2.314,0,0,0,1263.33,825.471Zm-12.272,2.059c-.208-.622-.218-1.074-.035-1.273.249-.265.957-.243,1.408-.142l.136,1.607a4.207,4.207,0,0,0,.363,1.383A2.766,2.766,0,0,1,1251.058,827.53Zm7.295,2.242h-2.839v-.682h1.007v-2.969l-.938.562v-.745l1.282-.777h.487v3.929h1Zm4.106-2.242a2.766,2.766,0,0,1-1.876,1.576,4.134,4.134,0,0,0,.366-1.383l.136-1.607c.452-.1,1.159-.123,1.405.142C1262.676,826.457,1262.664,826.908,1262.458,827.53Z" transform="translate(-381.352 -350.366)"/><path class="e" d="M1275.6,857.062a7.765,7.765,0,0,1-.841-.046v3.452h1.683v-3.452A7.765,7.765,0,0,1,1275.6,857.062Z" transform="translate(-400.198 -375.352)"/><path class="e" d="M1268.478,873.2h-5.351a.6.6,0,0,0-.594.5l-.658,3.619h7.855l-.658-3.619A.6.6,0,0,0,1268.478,873.2Z" transform="translate(-390.49 -387.539)"/><path class="p" d="M1275.971,833.1v.682h-2.839V833.1h1.007v-2.969l-.938.562v-.745l1.282-.777h.486V833.1Z" transform="translate(-398.969 -354.378)"/><g transform="translate(784.283 463.004)"><path class="q" d="M994.527,785.368a14.4,14.4,0,0,0-9.327-3.626l-.086,13.326Z" transform="translate(-966.289 -781.652)"/><path class="f" d="M925.213,781.377c-9.436,0-16.4,7.648-16.4,17.083a17.083,17.083,0,0,0,17.083,17.083c6.616,0,12.768-3.907,15.034-8.947l-15.37-8.137V781.386C925.442,781.384,925.328,781.377,925.213,781.377Z" transform="translate(-908.809 -781.377)"/><g transform="translate(19.321 5.203)"><path class="h" d="M1003.45,813.542l-2.473,7.882,1.426.764,3.508-11.175Z" transform="translate(-997.559 -808.905)"/><path class="h" d="M994.61,826.827l-1.134,3.613,1.427.765,2.168-6.906Z" transform="translate(-991.909 -818.912)"/><path class="h" d="M1027.337,815.309l-3.868,12.323,1.427.764,3.46-11.025A16.076,16.076,0,0,0,1027.337,815.309Z" transform="translate(-1014.503 -812.141)"/><path class="h" d="M1034.278,826.553l-3.308,10.54,1.427.764,2.613-8.324A15.3,15.3,0,0,0,1034.278,826.553Z" transform="translate(-1020.154 -820.611)"/><path class="h" d="M1040.8,844.25c0-.268-.008-.535-.023-.8l-2.311,7.363.838.449A15.3,15.3,0,0,0,1040.8,844.25Z" transform="translate(-1025.802 -833.338)"/><path class="h" d="M1013.609,802.466l-1.323,1.36-3.814,12.15,1.427.765,4.288-13.659C1014,802.871,1013.806,802.664,1013.609,802.466Z" transform="translate(-1003.206 -802.466)"/><path class="h" d="M987.126,839.609l1.144.613.828-2.638Z" transform="translate(-987.126 -828.92)"/><path class="h" d="M1020.2,806.66l-4.227,13.466,1.427.764,3.964-12.63A16,16,0,0,0,1020.2,806.66Z" transform="translate(-1008.854 -805.625)"/></g></g><g transform="translate(783.679 440.574)"><path class="k" d="M909.387,691.051c-1.369.134-2.661.754-2.719,2.25-.065,1.683,1.337,2.176,2.719,2.512v1.868a1.293,1.293,0,0,1-.7-1.094l-2.322.263c.179,1.63,1.585,2.232,3.026,2.326v.623h.484v-9.342h-.485Zm0,2.727c-.048-.019-.093-.04-.134-.061-.6-.311-.52-.941.134-1.167Z" transform="translate(-906.362 -690.458)"/><path class="k" d="M924.373,695.184a5.764,5.764,0,0,0-2.434-1.089v-1.51a1.07,1.07,0,0,1,.572.693l2.257-.372c-.256-1.04-1.355-1.732-2.829-1.861v-.587h-.391V699.8h.392v-.644a4.962,4.962,0,0,0,1.887-.51A2.177,2.177,0,0,0,924.373,695.184Zm-2.434,2.556v-1.622c.555.191.746.375.835.688C922.881,697.18,922.611,697.6,921.939,697.74Z" transform="translate(-917.801 -690.458)"/></g><path class="e" d="M1612.8,463.44a1.7,1.7,0,1,1-1.7-1.7A1.7,1.7,0,0,1,1612.8,463.44Z" transform="translate(-652.285 -77.593)"/><path class="e" d="M1587.821,463.44a1.7,1.7,0,1,1-1.7-1.7A1.7,1.7,0,0,1,1587.821,463.44Z" transform="translate(-633.466 -77.593)"/><path class="e" d="M1562.7,463.44a1.7,1.7,0,1,1-1.7-1.7A1.7,1.7,0,0,1,1562.7,463.44Z" transform="translate(-614.544 -77.593)"/><path class="r" d="M1157.477,626.148a1.7,1.7,0,1,1-1.7-1.7A1.7,1.7,0,0,1,1157.477,626.148Z" transform="translate(-309.289 -200.16)"/><path class="e" d="M1132.494,626.148a1.7,1.7,0,1,1-1.7-1.7A1.7,1.7,0,0,1,1132.494,626.148Z" transform="translate(-290.469 -200.16)"/><path class="e" d="M1107.376,626.148a1.7,1.7,0,1,1-1.7-1.7A1.7,1.7,0,0,1,1107.376,626.148Z" transform="translate(-271.548 -200.16)"/><path class="e" d="M1276.319,591.424h6.512v31.166l-6.512,13.279Z" transform="translate(-401.37 -175.282)"/><path class="e" d="M1307.834,591.424h6.515v32.486l-6.515-3.133Z" transform="translate(-425.111 -175.282)"/><path class="e" d="M1340.643,591.424h6.512v26.287l-6.512,5.905Z" transform="translate(-449.826 -175.282)"/><path class="e" d="M1373.438,591.424h6.512v29.641l-6.512-3.875Z" transform="translate(-474.53 -175.282)"/><path class="e" d="M1406.234,591.424h6.512v18.7l-6.512,9.932Z" transform="translate(-499.235 -175.282)"/><path class="e" d="M1439.03,591.424h6.515V609.69l-6.515-.957Z" transform="translate(-523.94 -175.282)"/><path class="e" d="M1472.389,591.424h6.512v8.583l-6.512,7.826Z" transform="translate(-549.069 -175.282)"/><path class="e" d="M1505.184,591.424h6.515v17.344l-6.515-7.494Z" transform="translate(-573.774 -175.282)"/><path class="e" d="M1537.993,591.424h6.512v4.45l-6.512,10.9Z" transform="translate(-598.488 -175.282)"/><path class="e" d="M1577.3,591.424v15.487l-6.512-11.284v-4.2Z" transform="translate(-623.193 -175.282)"/><rect class="r" width="32.468" height="0.459" transform="translate(882.622 399.481)"/><rect class="r" width="18.376" height="0.459" transform="translate(882.691 401.469)"/><rect class="r" width="25.141" height="0.459" transform="translate(882.622 403.529)"/><rect class="r" width="21.622" height="0.459" transform="translate(882.622 406.062)"/><rect class="s" width="41.547" height="0.587" transform="translate(798.78 441.25)"/><rect class="s" width="23.515" height="0.587" transform="translate(798.868 443.793)"/><rect class="s" width="32.172" height="0.587" transform="translate(798.78 446.429)"/><rect class="s" width="27.669" height="0.587" transform="translate(798.78 449.671)"/><circle class="e" cx="2.973" cy="2.973" r="2.973" transform="translate(945.672 466.938)"/><g transform="translate(775.496 406.062)"><g transform="translate(0 116.109)"><rect class="f" width="0.947" height="0.632"/></g><g transform="translate(2.841 21.537)"><path class="f" d="M916.908,733.068h-1.894v-.632h1.894Zm-3.788,0h-1.894v-.632h1.894Zm-3.788,0h-1.894v-.632h1.894Zm-3.788,0H903.65v-.632h1.894Zm-3.788,0h-1.894v-.632h1.894Zm-3.788,0h-1.894v-.632h1.894Zm-3.788,0h-1.894v-.632h1.894Zm-3.788,0H888.5v-.632h1.894Zm-3.788,0H884.71v-.632H886.6Zm32.214-.591-.442-.451,1.352-1.326.442.451Zm2.7-2.652-.442-.451,1.352-1.326.442.451Zm2.7-2.653-.442-.451,1.352-1.326.442.451Zm2.7-2.653-.442-.451,1.352-1.326.442.451Zm2.7-2.652-.442-.451,1.352-1.326.442.451Zm2.7-2.653-.442-.451,1.352-1.326.442.451Zm2.7-2.653-.442-.451,1.352-1.326.442.451Zm2.7-2.652-.442-.451,1.352-1.326.442.451Zm2.7-2.653-.442-.451,1.352-1.326.442.451Zm2.7-2.653-.442-.451,1.352-1.326.442.451Zm2.7-2.652-.442-.451,1.352-1.327.442.451Zm2.7-2.653-.442-.451,1.352-1.326.442.451Zm2.7-2.653-.442-.451,1.352-1.326.442.451Zm2.7-2.652-.442-.451,1.352-1.327.442.451Zm2.7-2.653-.442-.451,1.352-1.326.442.451Zm2.7-2.653-.442-.451,1.352-1.326.442.451Zm2.7-2.653-.442-.451L963,688.261l.442.451Zm2.7-2.652-.442-.451,1.352-1.327.442.451Zm2.7-2.653-.442-.451,1.352-1.326.442.451Zm2.7-2.653-.442-.451,1.352-1.326.442.451Zm2.7-2.652-.442-.451,1.352-1.326.442.451Zm2.7-2.653-.442-.451L976.518,675l.442.451Zm2.7-2.653-.442-.451,1.352-1.326.442.451Zm2.7-2.652-.442-.451,1.352-1.326.442.451Zm2.7-2.653-.442-.451,1.352-1.326.442.451Zm2.7-2.652-.442-.451,1.352-1.326.442.451Zm2.7-2.653-.442-.451,1.352-1.326.442.451Zm2.7-2.652-.442-.451,1.352-1.326.442.451Zm2.7-2.652-.442-.451,1.352-1.326.442.451Zm2.7-2.653-.442-.451,1.352-1.326.442.451Zm2.7-2.653-.442-.451,1.352-1.326.442.451Zm2.7-2.653-.442-.451,1.352-1.326.442.451Zm2.7-2.652-.442-.451,1.352-1.326.442.451Zm2.7-2.652-.442-.451,1.352-1.326.442.451Zm2.7-2.653-.442-.451,1.352-1.326.442.451Zm2.7-2.652-.442-.451,1.352-1.326.442.451Z" transform="translate(-884.71 -637.865)"/></g><g transform="translate(133.861 19.323)"><path class="f" d="M1417.113,630.244l-.43-.455-.447.438-.442-.451.906-.888.872.921Z" transform="translate(-1415.794 -628.888)"/></g><g transform="translate(136.546 21.686)"><path class="f" d="M1438.964,651.885l-1.365-1.442.459-.434,1.366,1.442ZM1436.233,649l-1.365-1.442.459-.434,1.366,1.442Zm-2.73-2.884-1.365-1.443.459-.434,1.365,1.442Zm-2.73-2.885-1.365-1.442.459-.434,1.365,1.442Zm-2.731-2.884-1.365-1.443.459-.434,1.365,1.443Z" transform="translate(-1426.676 -638.47)"/></g><g transform="translate(150.199 36.103)"><path class="f" d="M1482.9,698.282l-.885-.934.459-.434.418.442.411-.449.466.427Z" transform="translate(-1482.017 -696.907)"/></g><g transform="translate(152.818 4.174)"><path class="f" d="M1493.1,598.389l-.466-.427,1.331-1.451.465.427Zm2.662-2.9-.466-.427,1.331-1.451.466.427Zm2.662-2.9-.466-.427,1.331-1.451.466.427Zm2.662-2.9-.466-.427,1.331-1.451.465.427Zm2.662-2.9-.466-.427,1.331-1.451.466.427Zm2.662-2.9-.466-.427,1.331-1.451.465.427Zm2.662-2.9-.466-.427,1.331-1.451.466.427Zm2.662-2.9-.466-.427,1.331-1.451.466.427Zm2.662-2.9-.466-.427,1.331-1.451.465.427Zm2.662-2.9-.466-.427,1.331-1.451.466.427Zm2.662-2.9-.466-.427,1.331-1.451.465.427Z" transform="translate(-1492.632 -567.485)"/></g><g transform="translate(182.097 2.025)"><rect class="f" width="0.947" height="0.632" transform="matrix(0.676, -0.737, 0.737, 0.676, 0, 0.698)"/></g><g transform="translate(180.998 0)"><path class="f" d="M1609.971,554.684l.914-4.119-4.025,1.267Z" transform="translate(-1606.86 -550.565)"/></g></g><path class="t" d="M1164.173,603.828s1.985,1.142,2.72,5.019,1.4,8.435-1.36,8.8a25.87,25.87,0,0,1-3.639.331l-.294,6.285-6.837-1.691.842-6.451s-3.856-3.258-4-6.563,2.573-7.055,6.249-7.128A13.618,13.618,0,0,1,1164.173,603.828Z" transform="translate(-307.417 -183.571)"/><path class="t" d="M1281.912,686.372l3.81-6.047a.566.566,0,0,1,.116-.132l5.557-4.627a.562.562,0,0,1,.844.147l.075.128a.562.562,0,0,1-.073.667l-2.854,3.073a.561.561,0,0,0-.135.253l-.337,1.424a.562.562,0,0,0,.624.686l.709-.1a.562.562,0,0,1,.635.622h0a.562.562,0,0,1-.356.459l-2.437.94a.563.563,0,0,0-.25.19l-1.548,2.095a.564.564,0,0,1-.139.133l-3.033,2.035a.562.562,0,0,1-.843-.278l-.421-1.18A.561.561,0,0,1,1281.912,686.372Z" transform="translate(-405.518 -238.567)"/><path class="u" d="M1205.607,700.6l4.341,9.862a1.782,1.782,0,0,0,2.888.546l7.3-7.251,3.32,4.814L1213.575,719a3.924,3.924,0,0,1-6.178-.622l-3.454-5.541-4.017-11.206Z" transform="translate(-343.824 -257.526)"/><path class="v" d="M1080.186,1099.831v3.006a.966.966,0,0,1-.967.967h-8.235a.966.966,0,0,1-.733-1.6l5.482-6.371a.966.966,0,0,1,1.481.019l2.753,3.365A.966.966,0,0,1,1080.186,1099.831Z" transform="translate(-245.963 -555.001)"/><path class="v" d="M1167.847,1106.892v.366a.883.883,0,0,0,.883.883h13.917a.883.883,0,0,0,.44-1.649l-8.9-5.117a.883.883,0,0,0-1.047.124l-5.019,4.75A.883.883,0,0,0,1167.847,1106.892Z" transform="translate(-319.659 -559.339)"/><path class="w" d="M1116.777,827.131l-.568,8.608L1112.829,887l-8.492,4.109V847.98l-6.358,18.644-6.332,22.817-.12.433a.727.727,0,0,1-1.225.309l-3.5-3.657-3.265,1.105,13.636-61.148.016-.066,12.051-11.107Z" transform="translate(-256.15 -343.935)"/><path class="j" d="M1117.727,848.6l-1.519.284-6.594,1.232-.9-11.062-2.7,11.062a21.413,21.413,0,0,1-7.216-.448l-10.965,46.211,3.388,3.452-3.837-1.753,4.263,5.009-.12.433a.727.727,0,0,1-1.225.309l-3.5-3.657-3.265,1.105,13.636-61.148,13.358-6.868,6.243,7.516Z" transform="translate(-256.15 -357.078)"/><path class="u" d="M1132.5,676.936s-13.012,2.5-14.041,5.073.147,12.571,2.426,18.6a23.32,23.32,0,0,1,.357,14.769c-.925,3.182-3.494,11.971-3.494,11.971s6.8,3.378,13.468,3l3.8-15.3,2.408,15.3s6.78-.061,7.4-3,.275-41.485-.71-43.857S1138.21,678.146,1132.5,676.936Z" transform="translate(-281.918 -239.698)"/><path class="t" d="M1087.638,863.5s2.232,2.005,2.357,3.8.186,3.783-.5,3.411-.744-2.912-1.426-3.1-.868,2.913-.434,3.719,1.7,2.977,1.1,3.349-3.023-2.418-3.829-4.589-1.364-9.769-1.364-9.769l4.279.446Z" transform="translate(-256.154 -377.845)"/><path class="x" d="M1125.529,703.507l1.326,1.149s4.074,11.375,4.083,16.264-3.2,12.662-5.094,5.3-3.228-10.866-3.228-10.866Z" transform="translate(-285.586 -259.714)"/><path class="u" d="M1093.6,696.731c1.133,1.95,2.536,5.72,0,11.57s-4.5,11.7-4.5,11.7l-2.717,18.388-6.662-.991s1.593-14.909,2.633-20.378,7.458-20.784,7.458-20.784S1092.617,695.032,1093.6,696.731Z" transform="translate(-253.277 -253.924)"/><path class="e" d="M1161.409,671.929l8.406.865-1.031,19.834-7.821-15.452Z" transform="translate(-314.474 -235.926)"/><path class="e" d="M1151.833,676.936l7.286,18.407-8.414-6.332a.71.71,0,0,1-.139-1l2.161-2.851a.71.71,0,0,0-.123-.984l-3.493-2.784a.71.71,0,0,1-.107-1.005Z" transform="translate(-305.342 -239.698)"/><path class="e" d="M1193.853,680.375l2.245,3.193a1.01,1.01,0,0,1,.011,1.122l-1.478,2.259a1.009,1.009,0,0,0,.134,1.27l1.214,1.2a1.01,1.01,0,0,1,.207,1.137l-3.227,7.044Z" transform="translate(-338.574 -242.288)"/><path class="y" d="M1170.34,607.335s.1,1.013-2.371,1.089-5.436.012-4.61,2.371,2.985,10.061,2.985,10.061l-.094,2.361-3.032-.312s-2-9.039-2.486-9.715-1.051.15-1.051.563,1.388,1.726,1.482,2.177a6.2,6.2,0,0,1-.523,1.92s-3.136-3.158-3.136-3.271,1.614-6,1.614-6l4.8-2.327Z" transform="translate(-311.867 -186.448)"/><path class="k" d="M1159.853,598.61s-6.166-.049-6.215.691.729,1.489.266,2.225c-.448.711,2.137,6.329,4.222,6.373a1.128,1.128,0,0,0,.2-.014c2.115-.345.586-2.881,3.2-3.019s2.762,4.047,2.318,4.865-.834,2.495-2.957,2.347-6.574-.4-6.988-2.347-1.449-6.581-2.312-6.828-2.039,2.22-.415,3.206-.122,4.557-.122,4.557-5.8-5-5.308-8.009.937-4.883,2.614-6.067,12.726-3.354,13.466-2.417S1163.158,599.7,1159.853,598.61Z" transform="translate(-302.987 -177.179)"/><path class="z" d="M1172.339,676.007l-6.217-.572s3.689.858,3.588,1.5-4.494,0-4.494,0,1.054.488.45.69a8.246,8.246,0,0,1-1.312.3l6.985,17.351-4.307-16.687a8.591,8.591,0,0,0,3.133.2l1.228,15.428Z" transform="translate(-317.027 -238.567)"/><path class="aa" d="M1314.873,857.015s.312.031,1.755,0,4,2.19,4.107,4.521a5.4,5.4,0,0,0,1.5,3.585h-7.361Z" transform="translate(-430.413 -375.351)"/><path class="aa" d="M1367.037,839.5h3.192c1.568,0,2.354,12.427,3.319,12.427h-6.512Z" transform="translate(-469.708 -362.16)"/><path class="e" d="M1194.743,767.777a.893.893,0,1,1-.893-.893A.893.893,0,0,1,1194.743,767.777Z" transform="translate(-338.574 -307.455)"/><path class="e" d="M1194.727,792.862a.893.893,0,1,1-.893-.893A.893.893,0,0,1,1194.727,792.862Z" transform="translate(-338.562 -326.352)"/><path class="e" d="M1191.038,823.958a.893.893,0,1,1-.893-.893A.893.893,0,0,1,1191.038,823.958Z" transform="translate(-335.783 -349.776)"/><path class="j" d="M1170.42,910.255l-2.572,9.247.276,42.866,8.215-3.847.169-2.566-5.4,1.916,4.583-3.51-4.171.929Z" transform="translate(-319.659 -415.457)"/></g></g></svg>