<svg xmlns="http://www.w3.org/2000/svg" width="289.966" height="403" viewBox="0 0 289.966 403"><defs><style>.a{fill:#d1f2ff;font-size:350px;font-family:Play-Bold, Play;font-weight:700;}.a,.c{opacity:0.5;}.b{fill:#88cef9;}.c{fill:#009eff;}.d{fill:#028adc;}.e{fill:#fff;}.f{fill:#005589;}.g{fill:#f2f1f0;}.h{fill:#dae0ff;}.i{fill:#f19b05;}.j{fill:#ff736e;}.k{fill:#eaeaea;}.l{fill:#fcd2c5;}.m{fill:#393939;}.n{fill:#ffbc48;}.o{fill:#1730a4;}.p{fill:#f9a935;}.q{fill:#0d71e3;}.r{fill:#fabdaa;}.s{fill:#1276b2;}.t{fill:#7accfe;}.u{fill:#fe494b;}.v{fill:#c93739;}.w,.y{fill:none;stroke-miterlimit:10;stroke-width:0.5px;}.w{stroke:#000;}.x{fill:#005487;}.y{stroke:#fff;}</style></defs><g transform="translate(-773 -1928)"><text class="a" transform="translate(875 2254)"><tspan x="-101.5" y="0">5</tspan></text><g transform="translate(331.406 1878.688)"><path class="b" d="M641.911,642.568s-45.957,12.777-21.17,19.789,59.974,2.843,54.31,7.707-11.789,10.425,7.606,11.351,85.776-14.744,65.494-25.179c-31.2-16.055-97.323-12.49-97.323-12.49Z" transform="translate(-53.58 -255.07)"/><path class="c" d="M622.808,234.954c-22.331-6.875-42.624-9.151-67.984,2.956-13.449,6.421-25.936,18.985-27.846,31.941-4.955,33.615,39.237,45.44,63.913,47.111S647.5,294.112,684.282,302.3c38.831,8.639,58.8-23.635,40.3-41.474s-47.334-13.276-79.655-20.213C635.789,238.646,628.525,236.715,622.808,234.954Z"/><rect class="d" width="81.241" height="34.903" rx="7.559" transform="translate(631.421 244.09)"/><path class="e" d="M839.682,287.855c0,12.973-3.67,14.969-3.67,14.969H803.651a3.058,3.058,0,0,1-3.2-2.893V270.814a3.057,3.057,0,0,1,3.2-2.893H845.36S839.682,270.1,839.682,287.855Z" transform="translate(-169.031 -23.831)"/><g transform="translate(550.487 244.767)"><path class="f" d="M593.683,282.3a.463.463,0,0,1-.436-.307l-4.205-11.684a.463.463,0,0,1,.872-.314l4.205,11.684a.464.464,0,0,1-.279.593A.468.468,0,0,1,593.683,282.3Z" transform="translate(-589.014 -269.689)"/></g><g transform="translate(572.373 244.768)"><path class="f" d="M646.653,282.3a.463.463,0,0,1-.436-.62L650.423,270a.463.463,0,1,1,.872.314l-4.205,11.684A.463.463,0,0,1,646.653,282.3Z" transform="translate(-646.19 -269.69)"/></g><g transform="translate(685.364 255.638)"><path class="g" d="M941.375,311.713V298.089h8.044v2.841h-4.952v2.488h4.575v2.823h-4.575v5.473Z" transform="translate(-941.375 -298.089)"/><rect class="g" width="3.092" height="13.624" transform="translate(10.269)"/></g><path class="e" d="M615.313,312.356a56.453,56.453,0,0,1-1.068,11.03,2.926,2.926,0,0,1-2.012,2.219,38.367,38.367,0,0,1-10.967,1.27,39.668,39.668,0,0,1-10.92-1.312,2.951,2.951,0,0,1-2.073-2.256,56.638,56.638,0,0,1-1.05-10.951,54.556,54.556,0,0,1,1.046-11.029,2.938,2.938,0,0,1,2.01-2.214,38.293,38.293,0,0,1,10.987-1.277,39.6,39.6,0,0,1,10.942,1.318,2.948,2.948,0,0,1,2.069,2.229A54.553,54.553,0,0,1,615.313,312.356Z" transform="translate(-37.422 -42.295)"/><g transform="translate(553.879 266.044)"><path class="f" d="M616.833,328.548a.345.345,0,0,1-.261-.118c-.021-.023-2.277-2.461-8.729-2.461-7.082,0-9.339,2.438-9.36,2.463a.348.348,0,1,1-.519-.463c.1-.11,2.488-2.7,9.879-2.7,6.8,0,9.154,2.587,9.251,2.7a.348.348,0,0,1-.261.577Z" transform="translate(-597.875 -325.274)"/></g><path class="f" d="M622.48,314.676a1,1,0,1,1-1-1A1,1,0,0,1,622.48,314.676Z" transform="translate(-57.95 -52.072)"/><path class="f" d="M640.173,314.676a1,1,0,1,1-1-1A1,1,0,0,1,640.173,314.676Z" transform="translate(-68.87 -52.072)"/><path class="f" d="M603.209,314.676a1,1,0,1,1-1-1A1,1,0,0,1,603.209,314.676Z" transform="translate(-46.055 -52.072)"/><circle class="f" cx="5.201" cy="5.201" r="5.201" transform="translate(558.33 270.061)"/><path class="h" d="M618.635,620.242l4.625,21.585h13.876l3.809-21.585Z" transform="translate(-56.81 -241.29)"/><path class="i" d="M648.659,532.683s-2.539-7.346,1.633-13.15,6.863-6.261,7.437-9.795c1-6.145-2.2-7.875-1.791-11.378.612-5.193,6.227-3.29,5.713-9.459-.408-4.9,2.533-13.864-6.28-9.228-7.9,4.156-9.976,16.1-11.2,27.661s.748,25.349.748,25.349Z" transform="translate(-72.323 -153.732)"/><path class="j" d="M617.681,540.606s2.31-6.681-1.485-11.961-6.242-5.695-6.764-8.908c-.908-5.589,2-7.162,1.629-10.348-.557-4.723-5.664-2.993-5.2-8.6.371-4.454-2.3-12.609,5.712-8.393,7.186,3.78,9.074,14.641,10.187,25.158s-.681,23.055-.681,23.055Z" transform="translate(-48.839 -161.654)"/><g transform="translate(573.152 332.994)"><path class="k" d="M649.324,546.272a.136.136,0,0,1-.131-.1,33.137,33.137,0,0,1-.965-6.744c-.056-3.347,2.266-12.881,5.46-16.62,2.124-2.485,1.44-5.651.716-9a24.28,24.28,0,0,1-.749-5.33,12.079,12.079,0,0,1,3.72-8.263.136.136,0,1,1,.178.206,11.792,11.792,0,0,0-3.626,8.061,24.07,24.07,0,0,0,.743,5.269c.738,3.419,1.436,6.649-.776,9.238-3.156,3.693-5.45,13.125-5.394,16.438a32.817,32.817,0,0,0,.956,6.679.136.136,0,0,1-.1.166A.131.131,0,0,1,649.324,546.272Z" transform="translate(-648.226 -500.177)"/></g><g transform="translate(559.195 332.449)"><path class="k" d="M623.282,545.395h-.01a.136.136,0,0,1-.127-.145c.008-.121.82-12.151-.422-15.359-.265-.684-.658-1.458-1.074-2.278-1.437-2.833-3.227-6.359-2.31-10.587.709-3.272-1.022-5.619-2.548-7.69-.97-1.316-1.808-2.452-1.808-3.592,0-3.176-3.153-6.724-3.185-6.76a.136.136,0,0,1,.2-.182c.133.148,3.254,3.662,3.254,6.941,0,1.051.813,2.154,1.755,3.431,1.483,2.012,3.33,4.517,2.595,7.908-.9,4.134.869,7.612,2.287,10.407.419.826.815,1.606,1.085,2.3,1.264,3.265.474,14.979.44,15.477A.137.137,0,0,1,623.282,545.395Z" transform="translate(-611.764 -498.756)"/></g><path class="l" d="M655.9,456.775a3.616,3.616,0,0,1,.722,2.25c-.1,1.216-.887,1.7-.357,3.61s1.3,2.143.994,3.07-2.3,3.668-1.12,3.706,3.6-2.127,4.357-3.7-.341-9.575-.341-9.575l-3.127-2.421Z" transform="translate(-79.727 -138.508)"/><path class="m" d="M678.259,665.216a10.466,10.466,0,0,0-.64,3.784c.174,1.564,13.552,9.1,16.332,7.683s1.68-4.787.927-6-7.992-6-7.992-6Z" transform="translate(-93.201 -268.716)"/><path class="m" d="M703.569,658.065a9.729,9.729,0,0,0-.595,3.519c.161,1.455,12.606,8.463,15.191,7.147s1.562-4.453.862-5.584-7.434-5.585-7.434-5.585Z" transform="translate(-108.852 -264.325)"/><path class="l" d="M679.33,653.686v3.624a9.875,9.875,0,0,0,4.775.688c3.108-.212,3.852-1.228,3.852-1.228v-2.907l-5.907-2Z" transform="translate(-94.272 -260.809)"/><path class="l" d="M704.565,647.34v3.371a9.186,9.186,0,0,0,4.442.64c2.891-.2,3.582-1.143,3.582-1.143v-2.7l-5.495-1.857Z" transform="translate(-109.847 -256.971)"/><path class="n" d="M708.674,477.62v61.061s-1.505,1.079-5.752,1.582a9.489,9.489,0,0,1-2.752-.1,12.734,12.734,0,0,1-1.272-.292,17.068,17.068,0,0,1-4.536-2.078V488.913c0-3.628-1.015-3.551-1.17-7.529a17.217,17.217,0,0,1,1.17-6.968l3.695-3.561Z" transform="translate(-102.82 -149.086)"/><path class="n" d="M683.135,484.163v61.061s-1.505,1.08-5.752,1.582-8.559-2.472-8.559-2.472V495.456c0-3.628-1.015-3.551-1.17-7.529a17.218,17.218,0,0,1,1.17-6.968l3.695-3.561Z" transform="translate(-87.057 -153.124)"/><path class="o" d="M812.28,411.856a5.375,5.375,0,0,1,1.209,3.716,5.277,5.277,0,0,1-1.339,3.685l-3.468-2.237Z" transform="translate(-174.111 -112.67)"/><path class="p" d="M710.147,554.375c-.695-.076-1.375-.176-2.029-.292v-60.2l1.023.32Z" transform="translate(-112.04 -163.299)"/><path class="l" d="M813.172,419.277a6.062,6.062,0,0,1,2.069,0c.55.228,2.664-.612,2.693-.7s.289-3.1.289-3.1l-3.594-1.1h-1.458a8.137,8.137,0,0,0-.914.868C812.2,415.394,813.172,419.277,813.172,419.277Z" transform="translate(-176.316 -114.228)"/><path class="q" d="M709.736,387.907a12.623,12.623,0,0,1,.934-3.63,57.74,57.74,0,0,1-13.211-2.652c-7.04-2.541-10.133-9.329-14.015-10.865s-4.9-3.317-4.9-3.317l-8.42.039s-3.354-.7-5.382,0-21.062,11.119-20.675,16.139,3.32,19.536,3.32,19.536a12.667,12.667,0,0,0,3.109.26,5.8,5.8,0,0,0,1.67-.327,3.365,3.365,0,0,0,.76-.366l0,0a23.4,23.4,0,0,0-.945,5.261,13.859,13.859,0,0,0,.811,3.977,23.613,23.613,0,0,0,15.442,4.17c8.958-.85,12.094-3.706,12.094-3.706a40.321,40.321,0,0,0,1.42-9.653c-.078-4.322-1.005-7.489-.619-9.034.373-1.489,2.131-4.223,2.722-5.766v0c.021-.056.039-.107.058-.158.364-1.054.66-2.108.8-2.645a.261.261,0,0,1,.4-.148c.3.208.792.547,1.422.947a24.128,24.128,0,0,0,7.367,3.352c3.961.753,16.637,2.363,16.637,2.363A8.08,8.08,0,0,1,709.736,387.907Zm-52.412-2.664L656.4,388.6l-1.061,3.1-.85,2.4-.348.29-.521-1.216-.984-3.591-.405-2.984s.378-.811.463-.913,1.274-1.288,1.274-1.288l3.676-1.788.378.081Z" transform="translate(-72.5 -85.091)"/><path class="e" d="M718.61,378.092s-1.93-.579-2.915.405a4.162,4.162,0,0,0-1.158,2.066,38.518,38.518,0,0,1-3.118-6.023c-.995-2.7.005-6.911.005-6.911l3.634,3.139Z" transform="translate(-113.806 -85.372)"/><path class="e" d="M730.654,381.654a1.542,1.542,0,0,1,1.333.246,4.1,4.1,0,0,1,1.139,1.232,23.425,23.425,0,0,0,0-5.289,16.591,16.591,0,0,0-1.242-4.143l-2.33,1.006Z" transform="translate(-125.271 -89.119)"/><path class="e" d="M728.53,393.332a1.1,1.1,0,0,0-.492,1.068c.083.33.469.594.821.772a1.1,1.1,0,0,0,1.247-.175,1.079,1.079,0,0,0,.361-.626,1.728,1.728,0,0,0-.373-1.159l-1.3-.694Z" transform="translate(-124.32 -100.734)"/><path class="e" d="M719.028,397.388a17.982,17.982,0,0,1-1.52,5.386c-1.448,3.533-3.59,6.313-3.938,11a33.027,33.027,0,0,0,0,6.834l1.94,4.025,1.927-4.488a18.726,18.726,0,0,1-.092-7.192c.7-4.247,2.77-7.17,3.272-9.834s.842-5.762.842-5.762Z" transform="translate(-115.31 -103.722)"/><path class="l" d="M721.577,362.522a5,5,0,0,0-1.252,2.893c-.077,1.66.27,6.486-1,5.83a13.03,13.03,0,0,1-5.907-6.023c-1.429-3.4-1.279-4.44-1.279-4.44s1.7-3.2,2.707-4.015,8.185.772,8.185.772Z" transform="translate(-114.517 -78.525)"/><path class="l" d="M739.714,340.338a29.573,29.573,0,0,1-2.548,8.146,20.6,20.6,0,0,1-1.922,3.194,2.353,2.353,0,0,1-3.145.548,12.293,12.293,0,0,1-4.508-4.939,43.258,43.258,0,0,1-2.625-6.757l6.139-3.822,9.344-.348Z" transform="translate(-122.439 -66.073)"/><path class="o" d="M673.075,393.277a16.134,16.134,0,0,0-1.914,2.981c-.7,1.505-1.244,2.548-1.244,2.548s-4.691,2.143-5.1,3.938,1.564,7.471,1.564,7.471l-.521,1.506a56.417,56.417,0,0,0-1.042,7.112h0a2.98,2.98,0,0,1-.732.357,20.905,20.905,0,0,1-.021-3.492,33.494,33.494,0,0,1,1.274-5.328s-1.987-6.16-2.008-8.071c-.021-1.969,6.16-4.054,6.16-4.054a22.878,22.878,0,0,1,1.158-2.161A10.406,10.406,0,0,1,673.075,393.277Z" transform="translate(-84.399 -101.203)"/><g transform="translate(596.155 300.318)"><path class="e" d="M708.834,415.13q-.186,0-.4-.008a.117.117,0,0,1-.113-.118.115.115,0,0,1,.115-.114,7.086,7.086,0,0,0,1.522-.074.116.116,0,0,1,.047.227A6.3,6.3,0,0,1,708.834,415.13Z" transform="translate(-708.321 -414.814)"/></g><g transform="translate(589.167 297.456)"><path class="e" d="M691.089,408.556a.117.117,0,0,1-.088-.041,5.081,5.081,0,0,1-.917-1,.116.116,0,1,1,.2-.124,5.01,5.01,0,0,0,.886.962l.04.034v.053A.117.117,0,0,1,691.089,408.556Z" transform="translate(-690.065 -407.336)"/></g><path class="n" d="M699.287,401.112a.773.773,0,0,1,.467.958l-1.119,3.534h0a14.906,14.906,0,0,1-3.357-.54,7.269,7.269,0,0,1-2.838-1.483v0l1.335-3.688a.773.773,0,0,1,1-.461Z" transform="translate(-102.362 -104.97)"/><path class="e" d="M698.045,401.911a.492.492,0,1,1-.492-.492A.492.492,0,0,1,698.045,401.911Z" transform="translate(-105.215 -106.228)"/><path class="e" d="M700.959,403.45a.336.336,0,1,1-.336-.336A.336.336,0,0,1,700.959,403.45Z" transform="translate(-107.208 -107.274)"/><path class="o" d="M674.838,407.723a46.663,46.663,0,0,0-2.5,6.438,44.147,44.147,0,0,0-1.032,4.971s1.691-4.045,2.258-6.042C674.014,411.5,674.838,407.723,674.838,407.723Z" transform="translate(-89.319 -110.119)"/><path class="o" d="M750.4,410.418c-.592-.377-1.066-.7-1.367-.908a.309.309,0,0,0-.477.173c-.149.554-.435,1.568-.786,2.581-.019.051-.037.1-.058.158-.014-.114-.417-3.574,0-4.886.424-1.332.908-.657,1.1.348A5.268,5.268,0,0,0,750.4,410.418Z" transform="translate(-136.36 -109.545)"/><path class="m" d="M736.852,317.24s1.776,7.413-1.969,9.112-6.1-1.236-7.876-1.506-3.127.54-3.243,1.7.106,1.815,0,2.8a1.728,1.728,0,0,1-.714,1.332s-.212-2.085-1.177-2.433-2.857,1.12-1.39,3.127,2.9,2.934,1.429,3.552-6.679-.888-7.49-7.027c-.708-5.362,2.722-7.645,2.722-7.645s.242-5.752,7.9-5.543c6.482.177,5.246,4.617,8.142,4.733C735.474,319.532,736.852,317.24,736.852,317.24Z" transform="translate(-115.871 -52.705)"/><path class="f" d="M819.526,576.419l-11.713,40.4h-3.19l11.814-40.4Z" transform="translate(-171.605 -214.242)"/><path class="m" d="M804.183,666.123l-2.1,2.692-.857,1.1a3.91,3.91,0,0,1-.132.385,15.314,15.314,0,0,1-3.026,4.54c-.109.121-.22.241-.336.364a12.263,12.263,0,0,1-5.145,3.266,1.159,1.159,0,0,1-1.517-1.172,17.356,17.356,0,0,1,.947-4.835,18.591,18.591,0,0,1,1.2-2.425c.308-.544.637-1.094.954-1.6.874-1.409,1.654-2.541,1.67-2.574l3.359-.723,2.886-.176.936-.491Z" transform="translate(-163.241 -268.591)"/><path class="e" d="M798.767,676.928a3.353,3.353,0,0,0-2.085-.5c.308-.544.637-1.094.954-1.6a3.034,3.034,0,0,1,2.152,2.1C799.944,677.6,799.4,677.525,798.767,676.928Z" transform="translate(-166.704 -274.982)"/><path class="l" d="M791.834,589.948a3.283,3.283,0,0,1-.723.823,4.922,4.922,0,0,1-2.008,1,4.038,4.038,0,0,1-3.514-.927s-10.077-32.2-11-38.223,3.475-7.761,3.475-7.761l1.448-.554,1.853-.4,2.49-.385,2.152-.333,1.67-.257.876,9.892Z" transform="translate(-152.986 -193.574)"/><path class="r" d="M797.026,590.363a3.282,3.282,0,0,1-.723.823h0a4.254,4.254,0,0,1-1.295-1.8c-1.89-5.025-9.822-26.263-11.756-33.8-2.2-8.571,5.792-11.648,5.792-11.648l2.152-.333,1.357,1.527,1.189,8.108Z" transform="translate(-158.178 -193.989)"/><path class="s" d="M864.649,452.378a2.622,2.622,0,0,1,1.419,2.614l-4.327,40.829-.125,1.329a2.622,2.622,0,0,1-2.611,2.378H815.642v-2.664l14.335-1.505,3.039.463h23a2.789,2.789,0,0,0,2.77-2.468l4.81-41.512Z" transform="translate(-178.406 -137.35)"/><path class="m" d="M815.547,677.866a14.985,14.985,0,0,1-5.78,3.845,1.156,1.156,0,0,1-1.594-1.161,20.792,20.792,0,0,1,1.119-5.581,11.988,11.988,0,0,1,1.295-2.333.007.007,0,0,0,0,0,19.665,19.665,0,0,1,1.459-1.839c.751-.841,1.334-1.367,1.334-1.367l1.35-.859,4.019-.132a5.213,5.213,0,0,1,1.281,2.625C820.18,672.48,817.922,674.913,815.547,677.866Z" transform="translate(-173.794 -271.038)"/><path class="e" d="M817.871,676.881c-.021.908-.753.5-1.777-.076a2.106,2.106,0,0,0-1.6-.366,19.655,19.655,0,0,1,1.459-1.839S817.889,675.975,817.871,676.881Z" transform="translate(-177.7 -274.84)"/><path class="l" d="M794.453,546.527s-7.232,4.293-5.342,11.905,12.316,35.752,12.316,35.752a4.2,4.2,0,0,0,3.07.464,3.032,3.032,0,0,0,2.3-1.455s-4.135-26.267-5.68-31.209-1.1-4.749-.54-5.174c.64-.485.811-6.6.811-6.6l-2.51-3.685Z" transform="translate(-161.837 -195.792)"/><path class="t" d="M871.586,451.839h20.024l-4.826,41.647a2.637,2.637,0,0,1-2.62,2.333H861.033l4.98-43.2Z" transform="translate(-206.423 -137.348)"/><path class="e" d="M893.5,474.407H880.215a.927.927,0,0,1-.927-.927h0a.926.926,0,0,1,.927-.926H893.5a.926.926,0,0,1,.927.926h0A.927.927,0,0,1,893.5,474.407Z" transform="translate(-217.69 -150.134)"/><path class="e" d="M887.67,494.865H874.389a.927.927,0,0,1-.927-.927h0a.927.927,0,0,1,.927-.927H887.67a.927.927,0,0,1,.927.927h0A.927.927,0,0,1,887.67,494.865Z" transform="translate(-214.094 -162.761)"/><path class="e" d="M881.241,512.655H867.96a.927.927,0,0,1-.927-.927h0a.927.927,0,0,1,.927-.927h13.281a.927.927,0,0,1,.927.927h0A.927.927,0,0,1,881.241,512.655Z" transform="translate(-210.126 -173.742)"/><path class="u" d="M814.1,431.192s-5.077.4-7.046,4.8-.753,9.592-3.07,13.4A53.707,53.707,0,0,1,799,456.2l4.71,9.421,6.023,5.714,25.327-1.544s.185-8.809-1.1-14.25-5-12.545-5-12.545l-2.1-11.212Z" transform="translate(-168.135 -124.605)"/><path class="e" d="M845.875,438.9a4.953,4.953,0,0,1,2.635.656,1.542,1.542,0,0,0,2.471-1c.27-1.274-.81-4.62-.81-4.62l-4.3,1.608Z" transform="translate(-197.067 -126.296)"/><path class="e" d="M834.736,438.767a2.832,2.832,0,0,0-1.4.327c-.492.348-1.129.446-1.3-.327s1.158-3.835,2.4-4.258,1.419,1.14,1.419,1.14Z" transform="translate(-188.514 -126.607)"/><path class="l" d="M836,418.669s.548,1.945.9,3.461-.513,4.431.927,4.759c2.342.533,5.125-1.382,5.791-3.185a15.221,15.221,0,0,0,.7-4.054s-.579-2.669-.927-2.782-2.9-2.488-3.475-2.488a19.634,19.634,0,0,0-2.49.463Z" transform="translate(-190.97 -114.228)"/><path class="l" d="M832.219,403.9a3.936,3.936,0,0,0,.131,2.267,18.711,18.711,0,0,1-4.4,2.116l-.077.026a1.747,1.747,0,0,1-2.067-.759,13.183,13.183,0,0,1-1.528-3.527,40.047,40.047,0,0,1-.763-5.5s3.992-3.207,6.761-1.294S832.83,401.892,832.219,403.9Z" transform="translate(-183.269 -103.263)"/><path class="v" d="M863.557,432.707s-4.177-.895-3.482,5.559,2.436,12.9,1.332,15.2a9.786,9.786,0,0,1-3.052,3.583s1.546,2.556,2.009,2.151,6.081-4.17,6.139-4.459.579-6.312.579-6.312Z" transform="translate(-204.77 -125.514)"/><path class="m" d="M833.984,397.513a5.555,5.555,0,0,1-5.2-3.954,3.936,3.936,0,0,1-.131-2.267c.611-2.006.831-4.76-1.937-6.674s-6.761,1.294-6.761,1.294a40.046,40.046,0,0,0,.763,5.5,13.285,13.285,0,0,0,1.568,3.594,1.669,1.669,0,0,0,1.967.711l.135-.046a4.607,4.607,0,0,1-3.073,2.187c-2.6.482-3.731-2.124-3.557-3.9s1.685-3.157.655-6.064-.723-4.466.764-7.653,6.16-5.1,11.43-3.45c5.2,1.63,6.023,10.3,6.023,10.3a6.819,6.819,0,0,1,3.323,4.781C840.491,394.856,838.038,397.554,833.984,397.513Z" transform="translate(-179.701 -90.657)"/><path class="v" d="M833.415,508.789a4.484,4.484,0,0,0,.274,4.315c1.395,2.268,3.293,1.843,3.293,1.843l3.7-4.189Z" transform="translate(-189.114 -172.499)"/><path class="l" d="M829.061,510.8s-.734,1.141-1.574,1.228-2.143-.348-3.012.7,0,4.691,0,4.691l2.649-.227s1.9.169,2.39-.439a4.572,4.572,0,0,1,1.946-1.516,1.231,1.231,0,0,0,.805-1.409c-.116-.232-1.622-2.78-1.622-2.78Z" transform="translate(-183.62 -173.742)"/><path class="u" d="M846.925,433.746a2.656,2.656,0,0,1,3.6-.771c1.458.886,3.432,3.127,4.966,8.719,2.374,8.656,3.139,11.932-.756,15.642s-17.065,10.573-17.065,10.573.255-1-.788-3.2a6.18,6.18,0,0,0-2.78-2.954s12.432-5.463,13.436-8.32-.832-10-1.332-13.05C845.624,436.839,846.2,434.849,846.925,433.746Z" transform="translate(-189.8 -125.461)"/><path class="v" d="M821.606,453.868a2.545,2.545,0,0,1,.068,2.606c-.792,1.351-2.307,4.633-1.322,5.888,1.18,1.5-.232,3.282-1,6.061a20.666,20.666,0,0,0-.386,6.448,28.251,28.251,0,0,1-.849-6.834c.232-2.394,1.737-3.63,1.39-4.826s-1.506-3.147.116-4.981C822.125,455.4,821.606,453.868,821.606,453.868Z" transform="translate(-179.911 -138.601)"/><path class="v" d="M854.493,461.131s-1.679,2.635-1.129,4.257a3.281,3.281,0,0,0,2.346,1.969,5.141,5.141,0,0,1-1.623-2.441A9.064,9.064,0,0,1,854.493,461.131Z" transform="translate(-201.621 -143.084)"/><path class="n" d="M756.636,488.364l5.676,16.6h23.179l-5.844-16.6Z" transform="translate(-141.987 -159.892)"/><path class="p" d="M830.522,527.487h13.051v1.627H831.094Z" transform="translate(-187.591 -184.04)"/><path class="p" d="M785.491,502.312l-5.6-15.612H757.158l-.521.637h23.011l5.271,14.975Z" transform="translate(-141.987 -158.865)"/><path class="e" d="M732.429,496.985l.463-2.842a.808.808,0,0,1,.692-.671l3.486-.457a.2.2,0,0,1,.221.158l.019.095a.2.2,0,0,1-.166.235l-3.15.461a.808.808,0,0,0-.683.689l-.322,2.339-.271.573Z" transform="translate(-127.046 -162.761)"/><path class="w" d="M881.119,526.188h-7.373a2.124,2.124,0,0,0-2.124,2.124h11.622A2.124,2.124,0,0,0,881.119,526.188Z" transform="translate(-212.958 -183.238)"/><path class="s" d="M824.178,540.455s-2.5,5.479-6.718,7.836-19.922,3.823-19.922,3.823,1.088-5.3-1.274-7.934c-3.822-4.266-12.393-1.8-12.393-1.8a30.809,30.809,0,0,1,8.8-3.243C797.537,538.214,824.178,540.455,824.178,540.455Z" transform="translate(-158.796 -191.094)"/><path class="f" d="M734.065,542.935l52.993,60.538h3.9a.462.462,0,0,0,.348-.767l-52.4-59.77Z" transform="translate(-128.055 -193.575)"/><path class="x" d="M791.421,542.935l-52.993,60.538h-3.9a.462.462,0,0,1-.348-.767l52.4-59.77Z" transform="translate(-128.055 -193.575)"/><path class="s" d="M892.839,523.768H871.261a2.666,2.666,0,0,0-2.449,1.612l-.619,1.439h24.293Z" transform="translate(-210.842 -181.745)"/><path class="f" d="M901.983,576.419l11.713,40.4h3.19l-11.814-40.4Z" transform="translate(-231.698 -214.242)"/><rect class="f" width="32.527" height="1.274" transform="translate(642.931 377.299)"/><circle class="y" cx="0.68" cy="0.68" r="0.68" transform="translate(609.336 350.479)"/><path class="y" d="M872.593,546.538a.681.681,0,1,1-.681-.681A.681.681,0,0,1,872.593,546.538Z" transform="translate(-212.718 -195.378)"/><path class="y" d="M808.568,619.819a.681.681,0,1,1-.681-.681A.68.68,0,0,1,808.568,619.819Z" transform="translate(-173.2 -240.609)"/><path class="y" d="M742.54,694.948a.68.68,0,1,1-.68-.681A.681.681,0,0,1,742.54,694.948Z" transform="translate(-132.446 -286.98)"/><path class="y" d="M874.371,694.948a.681.681,0,1,1-.681-.681A.681.681,0,0,1,874.371,694.948Z" transform="translate(-213.815 -286.98)"/><path class="f" d="M783.787,531.738h-71a2.143,2.143,0,0,0-2.143,2.143h0a2.143,2.143,0,0,0,2.143,2.143h71a2.143,2.143,0,0,0,2.143-2.143h0A2.143,2.143,0,0,0,783.787,531.738Z" transform="translate(-113.598 -186.664)"/><path class="m" d="M729.591,504.241l-2.472,10h-3.628l-3.167-10a12.2,12.2,0,0,1,4.633-.85C728.722,503.391,729.591,504.241,729.591,504.241Z" transform="translate(-119.575 -169.167)"/><g transform="translate(618.869 316.442)"><path class="n" d="M777.44,458.554a.562.562,0,0,1-.353-.042,7.7,7.7,0,0,0-4.3-.545,8.212,8.212,0,0,0-4.21,2.242.57.57,0,0,1-.725.1.416.416,0,0,1-.075-.638,9.192,9.192,0,0,1,4.833-2.593,8.712,8.712,0,0,1,5.009.629.417.417,0,0,1,.179.618A.549.549,0,0,1,777.44,458.554Z" transform="translate(-767.66 -456.937)"/></g><g transform="translate(619.818 318.792)"><path class="n" d="M778.947,464.759a.558.558,0,0,1-.377-.055,6.371,6.371,0,0,0-3.814-.625,6.763,6.763,0,0,0-3.682,2.119.571.571,0,0,1-.72.133.416.416,0,0,1-.116-.631,7.769,7.769,0,0,1,4.339-2.513,7.4,7.4,0,0,1,4.569.734.417.417,0,0,1,.139.628A.554.554,0,0,1,778.947,464.759Z" transform="translate(-770.14 -463.075)"/></g><g transform="translate(621.241 321.162)"><path class="n" d="M774.462,472.345a.562.562,0,0,1-.333-.033.419.419,0,0,1-.211-.609,5.423,5.423,0,0,1,3.368-2.364,5.231,5.231,0,0,1,3.709.951.418.418,0,0,1,.043.643.569.569,0,0,1-.728.07,4.209,4.209,0,0,0-2.847-.772,4.346,4.346,0,0,0-2.637,1.864A.547.547,0,0,1,774.462,472.345Z" transform="translate(-773.857 -469.269)"/></g><path class="n" d="M783.5,476.53a1.144,1.144,0,1,1-1.346-.9A1.144,1.144,0,0,1,783.5,476.53Z" transform="translate(-157.171 -152.02)"/><g transform="translate(593.017 287.607)"><path class="n" d="M706.2,384.124a.366.366,0,0,1-.191-.129,4.986,4.986,0,0,0-2.319-1.587,5.32,5.32,0,0,0-3.09.047.369.369,0,0,1-.447-.158.27.27,0,0,1,.145-.39,5.954,5.954,0,0,1,3.553-.065,5.645,5.645,0,0,1,2.7,1.844.271.271,0,0,1-.08.41A.358.358,0,0,1,706.2,384.124Z" transform="translate(-700.121 -381.607)"/></g><g transform="translate(592.907 289.12)"><path class="n" d="M705.3,387.949a.358.358,0,0,1-.2-.143,4.124,4.124,0,0,0-2.014-1.489,4.377,4.377,0,0,0-2.749.133.37.37,0,0,1-.454-.137.269.269,0,0,1,.12-.4,5.035,5.035,0,0,1,3.245-.165,4.793,4.793,0,0,1,2.417,1.775.27.27,0,0,1-.106.4A.36.36,0,0,1,705.3,387.949Z" transform="translate(-699.835 -385.56)"/></g><g transform="translate(593.098 290.658)"><path class="n" d="M700.586,390.593a.364.364,0,0,1-.182-.118.271.271,0,0,1,.059-.413,3.513,3.513,0,0,1,2.641-.367,3.39,3.39,0,0,1,1.857,1.646.271.271,0,0,1-.165.383.368.368,0,0,1-.441-.175,2.725,2.725,0,0,0-1.412-1.287,2.816,2.816,0,0,0-2.072.295A.355.355,0,0,1,700.586,390.593Z" transform="translate(-700.334 -389.577)"/></g><path class="n" d="M705.194,394.585a.741.741,0,1,1-.51-.916A.741.741,0,0,1,705.194,394.585Z" transform="translate(-109.338 -101.427)"/><path class="d" d="M834.911,311.713s-1.752-7.229-1.792-7.4q-.074.267-.154.546l-1.874,6.852h-2.813l-3.457-13.625h3.241l1.574,6.709c.068.284.134.57.2.854.078-.3,2-7.563,2-7.563h2.825l1.612,6.724q.085.359.17.722l.191-.766,1.749-6.681h3.2l-3.861,13.625Z" transform="translate(-184.072 -42.45)"/><rect class="d" width="3.092" height="13.624" transform="translate(659.539 255.638)"/></g></g></svg>