<svg xmlns="http://www.w3.org/2000/svg" xmlns:xlink="http://www.w3.org/1999/xlink" width="148.046" height="56.453" viewBox="0 0 148.046 56.453"><defs><linearGradient id="a" y1="0.5" x2="1" y2="0.5" gradientUnits="objectBoundingBox"><stop offset="0" stop-color="#c3211b"/><stop offset="0" stop-color="#c52619"/><stop offset="0.003" stop-color="#dd5d0e"/><stop offset="0.006" stop-color="#ee8606"/><stop offset="0.008" stop-color="#f99e01"/><stop offset="0.009" stop-color="#fda800"/></linearGradient><linearGradient id="b" y1="0.5" x2="1" y2="0.5" gradientUnits="objectBoundingBox"><stop offset="0" stop-color="#c3211b"/><stop offset="0.128" stop-color="#cd3b16"/><stop offset="0.423" stop-color="#e2720c"/><stop offset="0.677" stop-color="#f19b05"/><stop offset="0.878" stop-color="#fbb301"/><stop offset="1" stop-color="#ffbd00"/></linearGradient><linearGradient id="c" x1="0.5" y1="1" x2="0.5" gradientUnits="objectBoundingBox"><stop offset="0" stop-color="#fda800"/><stop offset="0.136" stop-color="#f99e01"/><stop offset="0.359" stop-color="#ee8606"/><stop offset="0.642" stop-color="#dd5d0e"/><stop offset="0.97" stop-color="#c52619"/><stop offset="1" stop-color="#c3211b"/></linearGradient></defs><g transform="translate(-631.069 -381.645)"><g transform="translate(631.069 433.862)"><path d="M631.408,644.988v1.863h-.339v-4.114h1.182a1.157,1.157,0,0,1,.848.291,1.14,1.14,0,0,1,.294.847,1.1,1.1,0,0,1-.156.583.926.926,0,0,1-.441.377.731.731,0,0,1,.451.345,1.274,1.274,0,0,1,.137.62v.388a1.485,1.485,0,0,0,.037.346.554.554,0,0,0,.125.249v.068H633.2a.586.586,0,0,1-.12-.284,2.2,2.2,0,0,1-.032-.385V645.8a.886.886,0,0,0-.189-.6.65.65,0,0,0-.52-.221Zm0-.288h.8a.823.823,0,0,0,.638-.222.863.863,0,0,0,.2-.6.893.893,0,0,0-.2-.622.774.774,0,0,0-.6-.218h-.843Z" transform="translate(-631.069 -642.675)" fill="#005589"/><path d="M656.339,644.849h-1.617v1.7h1.858v.288h-2.2v-4.117h2.18v.3h-1.841v1.538h1.617Z" transform="translate(-649.714 -642.664)" fill="#005589"/><path d="M675.273,646.127l.068.255h.017l.071-.255.976-3.4h.367l-1.27,4.117h-.308l-1.27-4.117h.368Z" transform="translate(-665.344 -642.664)" fill="#005589"/><path d="M699.751,645.123a1.677,1.677,0,0,1-.349,1.144,1.214,1.214,0,0,1-.957.394,1.173,1.173,0,0,1-.937-.394,1.7,1.7,0,0,1-.341-1.144V643.97a1.719,1.719,0,0,1,.339-1.146,1.166,1.166,0,0,1,.936-.4,1.211,1.211,0,0,1,.958.4,1.682,1.682,0,0,1,.351,1.145Zm-.337-1.162a1.429,1.429,0,0,0-.252-.919.877.877,0,0,0-.721-.308.837.837,0,0,0-.7.308,1.463,1.463,0,0,0-.243.919v1.162a1.48,1.48,0,0,0,.243.928.841.841,0,0,0,.7.308.874.874,0,0,0,.72-.308,1.451,1.451,0,0,0,.25-.928Z" transform="translate(-683.932 -642.426)" fill="#005589"/><path d="M721.444,646.551h1.663v.288h-2v-4.117h.342Z" transform="translate(-703.074 -642.664)" fill="#005589"/><path d="M742.577,642.723V645.6a1.3,1.3,0,0,1-.336.963,1.194,1.194,0,0,1-.877.332,1.15,1.15,0,0,1-.857-.332,1.314,1.314,0,0,1-.328-.963v-2.881h.334v2.885a1.065,1.065,0,0,0,.236.743.793.793,0,0,0,.615.259.845.845,0,0,0,.638-.248,1.051,1.051,0,0,0,.239-.755v-2.885Z" transform="translate(-718.331 -642.664)" fill="#005589"/><path d="M764.52,643.023h-1.151v3.817h-.339v-3.817h-1.148v-.3h2.638Z" transform="translate(-735.689 -642.664)" fill="#005589"/><path d="M785.806,646.84h-.342v-4.117h.342Z" transform="translate(-754.549 -642.664)" fill="#005589"/><path d="M801.038,645.123a1.676,1.676,0,0,1-.349,1.144,1.214,1.214,0,0,1-.957.394,1.173,1.173,0,0,1-.937-.394,1.7,1.7,0,0,1-.341-1.144V643.97a1.718,1.718,0,0,1,.339-1.146,1.165,1.165,0,0,1,.936-.4,1.211,1.211,0,0,1,.958.4,1.682,1.682,0,0,1,.351,1.145Zm-.337-1.162a1.43,1.43,0,0,0-.252-.919.877.877,0,0,0-.721-.308.837.837,0,0,0-.7.308,1.464,1.464,0,0,0-.243.919v1.162a1.481,1.481,0,0,0,.243.928.841.841,0,0,0,.7.308.874.874,0,0,0,.72-.308,1.451,1.451,0,0,0,.25-.928Z" transform="translate(-764.938 -642.426)" fill="#005589"/><path d="M824.925,646.84h-.339l-1.838-3.447-.017,0v3.444h-.342v-4.117h.342l1.838,3.447.017,0v-3.444h.339Z" transform="translate(-784.08 -642.664)" fill="#005589"/><path d="M847.552,645.7h-1.5l-.351,1.142h-.351l1.3-4.117h.308l1.289,4.117H847.9Zm-1.405-.311h1.312l-.645-2.118H846.8Z" transform="translate(-802.443 -642.664)" fill="#005589"/><path d="M870.187,644.988v1.863h-.339v-4.114h1.182a1.156,1.156,0,0,1,.848.291,1.14,1.14,0,0,1,.294.847,1.1,1.1,0,0,1-.155.583.926.926,0,0,1-.441.377.731.731,0,0,1,.451.345,1.272,1.272,0,0,1,.137.62v.388a1.492,1.492,0,0,0,.037.346.557.557,0,0,0,.125.249v.068h-.348a.585.585,0,0,1-.12-.284,2.184,2.184,0,0,1-.033-.385V645.8a.886.886,0,0,0-.189-.6.649.649,0,0,0-.52-.221Zm0-.288h.8a.823.823,0,0,0,.638-.222.863.863,0,0,0,.2-.6.893.893,0,0,0-.2-.622.774.774,0,0,0-.6-.218h-.843Z" transform="translate(-822.036 -642.675)" fill="#005589"/><path d="M892.044,644.9h.017l1-2.18h.388l-1.224,2.607v1.51h-.339v-1.527l-1.219-2.59h.393Z" transform="translate(-838.683 -642.664)" fill="#005589"/><path d="M929.734,645.123a1.677,1.677,0,0,1-.349,1.144,1.214,1.214,0,0,1-.957.394,1.173,1.173,0,0,1-.937-.394,1.7,1.7,0,0,1-.341-1.144V643.97a1.717,1.717,0,0,1,.339-1.146,1.165,1.165,0,0,1,.936-.4,1.211,1.211,0,0,1,.959.4,1.682,1.682,0,0,1,.351,1.145Zm-.337-1.162a1.43,1.43,0,0,0-.252-.919.877.877,0,0,0-.721-.308.837.837,0,0,0-.7.308,1.465,1.465,0,0,0-.243.919v1.162a1.482,1.482,0,0,0,.243.928.841.841,0,0,0,.7.308.874.874,0,0,0,.72-.308,1.451,1.451,0,0,0,.25-.928Z" transform="translate(-867.865 -642.426)" fill="#005589"/><path d="M951.4,644.988v1.863h-.339v-4.114h1.182a1.156,1.156,0,0,1,.848.291,1.139,1.139,0,0,1,.294.847,1.1,1.1,0,0,1-.156.583.926.926,0,0,1-.441.377.732.732,0,0,1,.451.345,1.275,1.275,0,0,1,.137.62v.388a1.488,1.488,0,0,0,.037.346.554.554,0,0,0,.124.249v.068h-.348a.588.588,0,0,1-.12-.284,2.173,2.173,0,0,1-.032-.385V645.8a.887.887,0,0,0-.189-.6.65.65,0,0,0-.52-.221Zm0-.288h.8a.822.822,0,0,0,.638-.222.862.862,0,0,0,.2-.6.893.893,0,0,0-.2-.622.774.774,0,0,0-.6-.218H951.4Z" transform="translate(-886.984 -642.675)" fill="#005589"/><path d="M974.369,646.84v-4.117h1.009a1.289,1.289,0,0,1,1.049.5,1.99,1.99,0,0,1,.407,1.292v.532a1.977,1.977,0,0,1-.407,1.291,1.293,1.293,0,0,1-1.049.5Zm.339-3.817v3.529h.67a.957.957,0,0,0,.807-.422,1.77,1.77,0,0,0,.31-1.076v-.541a1.753,1.753,0,0,0-.31-1.069.957.957,0,0,0-.807-.42Z" transform="translate(-905.629 -642.664)" fill="#005589"/><path d="M999.568,644.849H997.95v1.7h1.858v.288h-2.2v-4.117h2.18v.3H997.95v1.538h1.617Z" transform="translate(-924.217 -642.664)" fill="#005589"/><path d="M1019.286,644.988v1.863h-.339v-4.114h1.182a1.156,1.156,0,0,1,.848.291,1.14,1.14,0,0,1,.294.847,1.1,1.1,0,0,1-.156.583.926.926,0,0,1-.441.377.732.732,0,0,1,.451.345,1.275,1.275,0,0,1,.137.62v.388a1.482,1.482,0,0,0,.037.346.553.553,0,0,0,.124.249v.068h-.348a.588.588,0,0,1-.12-.284,2.2,2.2,0,0,1-.032-.385V645.8a.887.887,0,0,0-.189-.6.65.65,0,0,0-.52-.221Zm0-.288h.8a.823.823,0,0,0,.638-.222.863.863,0,0,0,.2-.6.892.892,0,0,0-.2-.622.774.774,0,0,0-.6-.218h-.843Z" transform="translate(-941.281 -642.675)" fill="#005589"/><path d="M1055.969,642.723l1.145,3.6h.017l1.148-3.6h.438v4.117h-.337v-1.807l.034-1.682-.017,0-1.162,3.492h-.226l-1.159-3.486-.017,0,.034,1.676v1.807h-.333v-4.117Z" transform="translate(-970.542 -642.664)" fill="#005589"/><path d="M1083.859,645.7h-1.5l-.35,1.142h-.351l1.3-4.117h.308l1.289,4.117h-.351Zm-1.4-.311h1.312l-.645-2.118h-.017Z" transform="translate(-991.434 -642.664)" fill="#005589"/><path d="M1108.72,646.84h-.339l-1.838-3.447-.017,0v3.444h-.342v-4.117h.342l1.838,3.447.017,0v-3.444h.339Z" transform="translate(-1011.05 -642.664)" fill="#005589"/><path d="M1131.348,645.7h-1.5l-.35,1.142h-.351l1.3-4.117h.308l1.289,4.117h-.351Zm-1.406-.311h1.312l-.645-2.118h-.017Z" transform="translate(-1029.413 -642.664)" fill="#005589"/><path d="M1155.5,646.042a1.1,1.1,0,0,1-.417.425,1.413,1.413,0,0,1-.773.194,1.319,1.319,0,0,1-1-.393,1.565,1.565,0,0,1-.377-1.128v-1.224a1.568,1.568,0,0,1,.356-1.105,1.235,1.235,0,0,1,.953-.385,1.259,1.259,0,0,1,.9.3,1.158,1.158,0,0,1,.334.847l-.005.017h-.317a.926.926,0,0,0-.243-.642.909.909,0,0,0-.67-.226.886.886,0,0,0-.71.3,1.323,1.323,0,0,0-.26.882v1.232a1.332,1.332,0,0,0,.28.914.959.959,0,0,0,.755.315,1.081,1.081,0,0,0,.557-.125.7.7,0,0,0,.291-.3v-1.073h-.854v-.3h1.2Z" transform="translate(-1048.442 -642.426)" fill="#005589"/><path d="M1179.535,644.849h-1.617v1.7h1.857v.288h-2.2v-4.117h2.18v.3h-1.84v1.538h1.617Z" transform="translate(-1068.148 -642.664)" fill="#005589"/><path d="M1199.293,642.723l1.145,3.6h.017l1.148-3.6h.438v4.117h-.337v-1.807l.034-1.682-.017,0-1.162,3.492h-.226l-1.159-3.486-.017,0,.034,1.676v1.807h-.333v-4.117Z" transform="translate(-1085.167 -642.664)" fill="#005589"/><path d="M1228.5,644.849h-1.617v1.7h1.858v.288h-2.2v-4.117h2.18v.3h-1.841v1.538h1.617Z" transform="translate(-1107.313 -642.664)" fill="#005589"/><path d="M1250.449,646.84h-.339l-1.838-3.447-.017,0v3.444h-.342v-4.117h.342l1.838,3.447.017,0v-3.444h.339Z" transform="translate(-1124.4 -642.664)" fill="#005589"/><path d="M1272.96,643.023h-1.151v3.817h-.339v-3.817h-1.148v-.3h2.638Z" transform="translate(-1142.322 -642.664)" fill="#005589"/><path d="M1307.022,646.84v-4.117h1.035a1.192,1.192,0,0,1,.831.272,1.045,1.045,0,0,1,.3.815.958.958,0,0,1-.156.545.822.822,0,0,1-.413.327.8.8,0,0,1,.515.351,1.3,1.3,0,0,1-.1,1.513,1.093,1.093,0,0,1-.8.3Zm.339-2.27h.8a.672.672,0,0,0,.5-.206.805.805,0,0,0,.181-.565.773.773,0,0,0-.2-.58.81.81,0,0,0-.587-.2h-.7Zm0,.288v1.694h.865a.718.718,0,0,0,.561-.223.9.9,0,0,0,.2-.626.976.976,0,0,0-.18-.61.624.624,0,0,0-.53-.236Z" transform="translate(-1171.673 -642.664)" fill="#005589"/><path d="M1331.253,645.123a1.677,1.677,0,0,1-.349,1.144,1.214,1.214,0,0,1-.957.394,1.173,1.173,0,0,1-.937-.394,1.7,1.7,0,0,1-.341-1.144V643.97a1.717,1.717,0,0,1,.339-1.146,1.166,1.166,0,0,1,.936-.4,1.211,1.211,0,0,1,.958.4,1.681,1.681,0,0,1,.351,1.145Zm-.337-1.162a1.431,1.431,0,0,0-.251-.919.878.878,0,0,0-.721-.308.838.838,0,0,0-.7.308,1.466,1.466,0,0,0-.243.919v1.162a1.483,1.483,0,0,0,.243.928.841.841,0,0,0,.7.308.874.874,0,0,0,.72-.308,1.451,1.451,0,0,0,.25-.928Z" transform="translate(-1188.986 -642.426)" fill="#005589"/><path d="M1353.151,643.023H1352v3.817h-.339v-3.817h-1.148v-.3h2.638Z" transform="translate(-1206.456 -642.664)" fill="#005589"/></g><path d="M656.359,485.608a8.612,8.612,0,0,1,6,2.257,7.1,7.1,0,0,1,2.487,5.451,7.026,7.026,0,0,1-2.152,5.116,8.862,8.862,0,0,1-5.363,2.487l7.867,8.855h-7.673l-7.268-8.767H639.231v8.767h-6.6V485.608ZM639.231,495.68l16.493.017a2.542,2.542,0,0,0,1.853-.67,2.164,2.164,0,0,0,.723-1.693,2.068,2.068,0,0,0-.723-1.693,2.311,2.311,0,0,0-1.853-.652H639.231Z" transform="translate(-1.252 -83.146)" fill="#005589"/><path d="M1037.478,485.608v24.166h-6.6V494.463l-9.843,13.142h-5.662l-9.843-13.142v15.311h-6.6V485.608h6.844l12.418,16.934,12.419-16.934Z" transform="translate(-294.207 -83.146)" fill="#005589"/><path d="M1231.165,485.608a7.407,7.407,0,0,1,5.168,1.94,6.136,6.136,0,0,1,1.482,7.356,6.736,6.736,0,0,1-1.746,2.169,7.191,7.191,0,0,1,2.823,2.47,6.136,6.136,0,0,1,1.058,3.475,6.287,6.287,0,0,1-2.169,4.8,7.488,7.488,0,0,1-5.257,1.958h-25.243V485.608Zm-17.287,9.842h15.153a2.572,2.572,0,0,0,1.817-.687,2.247,2.247,0,0,0,0-3.334,2.572,2.572,0,0,0-1.817-.687h-15.153Zm0,9.208h16.811a2.569,2.569,0,0,0,1.817-.688,1.984,1.984,0,0,0,.741-1.676,2.178,2.178,0,0,0-.759-1.676,2.483,2.483,0,0,0-1.8-.67h-16.811Z" transform="translate(-460.835 -83.146)" fill="#005589"/><path d="M843.271,487.672a7.863,7.863,0,0,0-5.5-2.063H818.875a7.9,7.9,0,0,0-5.5,2.063,6.52,6.52,0,0,0-2.258,4.992v10.055a6.519,6.519,0,0,0,2.258,4.992,7.9,7.9,0,0,0,5.5,2.064h14.771l-6.874-5.38h-5.957a3.282,3.282,0,0,1-2.205-.811,2.669,2.669,0,0,1-.9-2.011v-7.762a2.513,2.513,0,0,1,.9-1.993,3.034,3.034,0,0,1,2.205-.829h15.011a2.85,2.85,0,0,1,2.2.811,2.566,2.566,0,0,1,.9,2.011v7.762a2.651,2.651,0,0,1-.9,1.993,3.43,3.43,0,0,1-2.2.829h-2.18v5.38h4.121a7.864,7.864,0,0,0,5.5-2.064,6.441,6.441,0,0,0,2.257-4.992V492.664A6.442,6.442,0,0,0,843.271,487.672Z" transform="translate(-143.993 -83.147)" fill="#005589"/><g transform="translate(711.878 381.645)"><path d="M1066.036,381.645l-20.9,12.207-10.493-3.153Z" transform="translate(-1034.644 -381.645)" fill="url(#a)"/><path d="M1107.948,381.645l-19.106,26.1-1.794-13.891Z" transform="translate(-1076.555 -381.645)" fill="url(#b)"/><path d="M1034.644,426.862l10.493,3.153,1.794,13.891Z" transform="translate(-1034.644 -417.808)" fill="url(#c)"/></g><g transform="translate(631.382 392.401)"><path d="M638.326,435.365a2.286,2.286,0,0,1,1.094.265,2.045,2.045,0,0,1,.8.724,1.847,1.847,0,0,1,0,2,2.03,2.03,0,0,1-.792.72,2.316,2.316,0,0,1-1.094.261h-4.117v1.8h-1.575v-5.767Zm-4.117,2.69h3.97a.873.873,0,0,0,.556-.2.66.66,0,0,0,.219-.505.635.635,0,0,0-.219-.505.763.763,0,0,0-.556-.2h-3.97Z" transform="translate(-632.634 -435.365)" fill="#005589"/><path d="M681.854,435.365a2.167,2.167,0,0,1,.968.223,1.792,1.792,0,0,1,.737.615,1.328,1.328,0,0,1,.278.846v2.4a1.315,1.315,0,0,1-.282.846,1.905,1.905,0,0,1-.737.615,2.109,2.109,0,0,1-.964.223h-6.121v-5.767Zm-4.547,4.483h4.214a.819.819,0,0,0,.526-.2.633.633,0,0,0,.215-.476v-1.852a.612.612,0,0,0-.215-.48.68.68,0,0,0-.526-.194h-4.214Z" transform="translate(-667.103 -435.365)" fill="#005589"/><path d="M725.743,435.365a2.285,2.285,0,0,1,1.094.265,2.044,2.044,0,0,1,.8.724,1.846,1.846,0,0,1,0,2,2.027,2.027,0,0,1-.792.72,2.315,2.315,0,0,1-1.094.261h-4.117v1.8h-1.574v-5.767Zm-4.117,2.69h3.97a.872.872,0,0,0,.556-.2.66.66,0,0,0,.219-.505.635.635,0,0,0-.219-.505.763.763,0,0,0-.556-.2h-3.97Z" transform="translate(-702.547 -435.365)" fill="#005589"/></g></g></svg>