<svg xmlns="http://www.w3.org/2000/svg" width="196.134" height="192.748" viewBox="0 0 196.134 192.748"><defs><style>.a{fill:#88cef9;}.b{fill:#0377bf;}.c{fill:#ffbd00;}.d{fill:#fff;}.e{fill:#028adc;}.f{fill:#ffd648;}.g{fill:#ff911e;}.h{fill:#febc46;}.i{fill:#e6e6e6;}.j{fill:#393939;}.k{fill:#fcd2c5;}.l{fill:#fabdaa;}.m{fill:#ffbb46;}.n{fill:#ff931e;}</style></defs><g transform="translate(-462.896 -3380.735)"><g transform="translate(462.896 3380.735)"><path class="a" d="M296.246,418.039H184.932s-35.245.446-36.859-8.475,23.672-12.354,12.913-26.24-24.749-13.8.537-30.52-24.748-3.721-25.824-18.023,67.064-40.128,57.743-57.344-51.825,17.755-55.053,0,121.592-59.182,125.357-51.111-21.657,21.993-19.706,30.365,55.107-10.718,48.7,3.131-50.9,43.343-20.042,39.626,62.061-6.807,49.686,14.106-35.509,37.682-19.368,39.251,33.895-6.785,27.439,6-38.2,26.235-24.749,31.347,20.982,12.479,14.527,18.748S296.246,418.039,296.246,418.039Z" transform="translate(-135.687 -225.294)"/><path class="b" d="M182.159,402.7s-9.941-2.8-9.177-7.519,7.01,1.4,7.9-2.549-9.558-.382-10.324-3.824,7-1.848,8.791-3.791-5.732-.67-8.281-3.091,8.922-2.421,9.3-9.176,3.314-13.511,4.716-10.962-3.952,14.02,1.784,14.148,13.128,4.675,8.157,6.034-9.727,3.153-4.809,4.8,3.407,3.7,1.623,4.588-2.422,1.912-.638,3.569.96,4.971-.985,6.246S182.159,402.7,182.159,402.7Z" transform="translate(-137.848 -233.732)"/><path class="c" d="M181.5,408.881s-1.02-16.569-10.579-22.049C170.924,386.832,166.081,403.646,181.5,408.881Z" transform="translate(-137.829 -235.321)"/><g transform="translate(43.867 143.721)"><rect class="d" width="48.75" height="1.147" transform="matrix(0.027, -1, 1, 0.027, 0, 48.732)"/></g><g transform="translate(34.632 157.862)"><rect class="d" width="1.147" height="39.171" transform="translate(0 0.552) rotate(-28.787)"/></g><path class="e" d="M181.18,379.222s-7.519,28.425,8.157,35.816C189.337,415.038,195.838,394.134,181.18,379.222Z" transform="translate(-138.398 -234.848)"/><g transform="translate(46.114 158.029)"><rect class="d" width="1.147" height="34.974" transform="matrix(0.982, -0.191, 0.191, 0.982, 0, 0.219)"/></g><path class="f" d="M284.617,331.742s4.161,3.257,4.161,6.145v29.99h3.446v-30.6s.5-2.153,1-2.488-6.744-7.479-6.744-7.479l-2.8,1.493Z" transform="translate(-144.873 -231.626)"/><path class="g" d="M285.571,326.326c.048-.134,8.227-7.577,8.657-7.533s4.592,1.7,4.783,5.157.692,7.487-5.274,10.8c0,0-.658.582-1.04.358S285.571,326.326,285.571,326.326Z" transform="translate(-144.99 -231.097)"/><path class="h" d="M287.356,326.886l3.157,3.778s4.113-3.06,3.2-5.661a1.936,1.936,0,0,0-3.115-1.076Z" transform="translate(-145.1 -231.389)"/><path class="f" d="M297.249,320.848s2.487-1.658,2.773-1.434,1.818,5.38,1.626,6.052-2.247.852-2.582.537A46.963,46.963,0,0,1,297.249,320.848Z" transform="translate(-145.715 -231.135)"/><path class="i" d="M289.9,328.624l-12.382,9.15-1.483-2.335,13.106-9.728a1.513,1.513,0,0,1,2.008.4c.718,1.121-.1,1.581-.1,1.581Z" transform="translate(-144.398 -231.513)"/><path class="j" d="M302.883,424.172a6.055,6.055,0,1,1-6.042-5.664A5.863,5.863,0,0,1,302.883,424.172Z" transform="translate(-145.314 -237.287)"/><path class="d" d="M300.672,424.33a3.508,3.508,0,1,1-3.5-3.281A3.4,3.4,0,0,1,300.672,424.33Z" transform="translate(-145.492 -237.444)"/><path class="f" d="M290.625,421.734l-2.164,2.09-4.592,4.434H213.848s3.588-4.088,3.659-4.434-1.937-1.041-1.937-1.041l.855-1.407Z" transform="translate(-140.538 -237.465)"/><path class="g" d="M288.461,423.986l-4.592,4.434H213.848s3.588-4.088,3.659-4.434Z" transform="translate(-140.538 -237.627)"/><path class="g" d="M295.086,418.527l2.828-2.652s1.465-.98-.687-2.191-3.013-11.3-3.013-14.392V369.7h-6.458v44.117s-2.045.807-2.045,1.916v2.746Z" transform="translate(-144.998 -234.257)"/><path class="j" d="M213.848,424.172a6.056,6.056,0,1,1-6.043-5.664A5.863,5.863,0,0,1,213.848,424.172Z" transform="translate(-139.788 -237.287)"/><path class="d" d="M211.474,424.33a3.508,3.508,0,1,1-3.5-3.281A3.4,3.4,0,0,1,211.474,424.33Z" transform="translate(-139.956 -237.444)"/><path class="g" d="M215.62,421.124H211.2a3.776,3.776,0,0,0-3.452-1.7,3.865,3.865,0,0,0-3.485,1.7H200.87l2.2-3.8h9.972s4.185,1.353,4.185,3.8Z" transform="translate(-139.732 -237.213)"/><rect class="d" width="3.902" height="1.345" transform="translate(144.021 138.09)"/><rect class="d" width="3.902" height="1.345" transform="translate(144.021 141.049)"/><rect class="d" width="3.902" height="1.345" transform="translate(144.021 146.967)"/><rect class="d" width="3.902" height="1.345" transform="translate(144.021 152.616)"/><rect class="d" width="3.902" height="1.345" transform="translate(144.021 164.184)"/><rect class="d" width="3.902" height="1.345" transform="translate(144.021 172.792)"/><path class="i" d="M267.614,317.237s-12.34-11.208-14.253-13.45-22.766-34.432-23.532-34.613,3.634,13.271,3.634,13.271L243.6,303.07s14.061,11.029,14.731,11.568,8.514,4.125,8.514,4.125Z" transform="translate(-141.524 -228.018)"/><path class="k" d="M234.683,246.853v1.31a.548.548,0,0,1-.006.069c-.056.5-.716,6.263-.783,6.421a14.555,14.555,0,0,0,.566,2.2.627.627,0,0,1-.541.8l-.6.054a.629.629,0,0,0-.544.457c-.344,1.235-1.372,4.8-1.789,4.828a14.2,14.2,0,0,1-2.335-1c-2.752-1.326-6.977-3.554-7.349-4.041-.266-.35-.917-1.24-1.531-2.069-.627-.847-1.214-1.63-1.3-1.7a17.163,17.163,0,0,1-1.1-1.961.589.589,0,0,1-.062-.193l-.673-4.6a.628.628,0,0,1,.336-.648l3.589-1.813a.616.616,0,0,1,.285-.068c.6.006,2.79.027,3.008,0s3.047.364,3.492.428a.643.643,0,0,1,.115.027c.363.129,2.392.839,2.848,1.025a20.281,20.281,0,0,0,3.65-.046.621.621,0,0,1,.508.207A.979.979,0,0,1,234.683,246.853Z" transform="translate(-140.71 -226.511)"/><path class="k" d="M228.735,262.72v0c-.782-.36-1.4.213-1.829.9a7.26,7.26,0,0,0-.713,1.643l-8.215-3.631,1.878-5.028c.613.829,1.264,1.719,1.531,2.069a10.219,10.219,0,0,0,1.891,1.216l0,0,.008.006C224.854,260.78,227.065,261.915,228.735,262.72Z" transform="translate(-140.794 -227.238)"/><path class="l" d="M229.087,262.938v0c-.782-.36-1.4.213-1.829.9-.31-.9-3.424-3.559-3.618-3.723C225.205,261,227.416,262.133,229.087,262.938Z" transform="translate(-141.146 -227.456)"/><path class="l" d="M235.248,247.811s-.437,1.312-1.076,1.413-8.473-.8-9.415-.2a4.136,4.136,0,0,0-1.4,1.7l.693-5.033,5.018.908Z" transform="translate(-141.128 -226.56)"/><path class="j" d="M222.624,249.949s.144-3.363-.909-3.5-4.352.179-3.539,2.287.957,3.453,1.531,3.453.633,1.658.633,1.658-.662,2.7-1.064,2.78a6.346,6.346,0,0,0-1.7.538c-.741.358-10.785-7.533-3.276-14.617,0,0,1.959-9.059,11.007-6.9,11.862,2.824,13.673.269,14.869-2.466,0,0,3.2,15.221-5.811,14.29s-9.781-1.155-10.259-.616A19.339,19.339,0,0,0,222.624,249.949Z" transform="translate(-140.394 -225.784)"/><path class="f" d="M214.256,267.388s.838-2.78,2-2.421,12.068,3.538,12.448,3.945,15.114,27.752,15.5,31.384-1.818,15.154-2.631,14.841-14.97-2.377-23.436,2.645a1.567,1.567,0,0,1-2.153,0c-.957-1.031-1.387-3.362,0-5.694a17.161,17.161,0,0,0-.431-5.246c-.67-2.242-5.07-16.723-3.73-24.659S214.256,267.388,214.256,267.388Z" transform="translate(-140.396 -227.755)"/><path class="m" d="M217.34,284.233,241.6,313.824l-1.476,1.644s-8.612-.21-11.863,1.046c0,0,.83-5.38-1.232-4.932,0,0,3.955-.538,3.076-1.973C230.1,309.609,216.243,288.4,217.34,284.233Z" transform="translate(-140.751 -228.952)"/><path class="j" d="M203.7,398.957l-7.676,3.631s2.511,12.172,3.838,12.308,11.8,1.883,12.017,1.076-1.219-1.413-2.08-2.152-2.44-2.422-1.65-3.3a15.8,15.8,0,0,1,2.439-1.95l-5.524-9.617Z" transform="translate(-139.432 -236.073)"/><path class="b" d="M203.828,394.817s6.1,11.635,6.744,11.769a14.75,14.75,0,0,0,3.443,0c.431-.134,23.317-25.622,24.178-26.295s7.031-7.331,7.461-8.407a39.876,39.876,0,0,0,.861-9.348c-.287-1.345-18.8-20.512-18.8-20.512l-2.514,2.287s6.532,19.436,7.68,21.117-1,1.076-1.148,1.547-.287,1.749-.718,2.153S203.828,394.817,203.828,394.817Z" transform="translate(-139.916 -232.539)"/><path class="j" d="M271.775,410.958s.359,4.4,5.668,6.019,4.161,1.143,4.52,1.883.215,1.681,0,1.748-21.738.672-22.1,0a10.145,10.145,0,0,1-.359-4.035c.216-.337,1.435-3.3,1.793-4.372s3.588-1.681,5.023-1.244S271.775,410.958,271.775,410.958Z" transform="translate(-143.367 -236.809)"/><path class="e" d="M256.81,407.616s13.43-.2,14.506,0l1.076.2s-6.815-43.31-8.322-45.664-21.451-28.851-21.882-30.2,0-6.86-.358-8.137a2.809,2.809,0,0,0-2.44-2.052c-1-.1-18.079,2.859-19.083,3.6s-6.458,9.213.574,14.325,21.953,18.359,24.967,21.117,5.739,6.523,5.883,7.2-.5.874.358,1.547,3.8,23.673,4.305,29.524A82.913,82.913,0,0,1,256.81,407.616Z" transform="translate(-140.755 -231.282)"/><path class="n" d="M216.029,264.719s1.039-4.494,1.326-4.291,9.972,4.227,9.972,4.227a.778.778,0,0,1,.431.85c-.144.572-.7,2.4-.7,2.4Z" transform="translate(-140.673 -227.474)"/><path class="n" d="M217.189,321.463s-2.724,4.879,2.106,4.812c0,0,19.68-4.64,22.478-2.757,0,0,4.209-1.906.1-5.156S220.73,317.794,217.189,321.463Z" transform="translate(-140.698 -230.98)"/><path class="k" d="M278.829,325.1s2.224,1.211,3.3,1.076,3.156.156,3.8.01,1.578.6,1.578.6a13.168,13.168,0,0,0-2.008,1.681c-.216.4,1.076,5.112,2.008,5.918s1.507,1.345,1,1.748a5.675,5.675,0,0,1-1.578,1.143c-.789.337-6.026.874-7.1,0s-5.023-4.775-5.023-4.775S274.859,326.269,278.829,325.1Z" transform="translate(-144.322 -231.489)"/><path class="d" d="M218.424,279.649s4.065-3.542,7.031-1.39,21.284,26.183,21.905,26.857,23.484,15.243,23.867,15.512-1.817,6.77-2.534,7.173-24.823-9.057-27.5-11.612-15.784-18.742-16.118-19.145-6.313-9.012-6.648-9.953S215.554,282.339,218.424,279.649Z" transform="translate(-140.738 -228.538)"/><path class="n" d="M270.617,329.7c-.048.135-.431,1.17,0,1.571s3.914,1.3,3.922,1.074,2.44-6.635,4.018-7.4c.1-.269.622-1.39-.478-1.748a10.846,10.846,0,0,0-3.875-.493C273.719,322.9,270.617,329.7,270.617,329.7Z" transform="translate(-144.049 -231.337)"/></g></g></svg>