<svg xmlns="http://www.w3.org/2000/svg" width="232.839" height="158.314" viewBox="0 0 232.839 158.314"><defs><style>.a{fill:#88cef9;}.b{fill:#028adc;}.c{fill:#fff;}.d{fill:#0377bf;}.e{fill:#fbb301;}.f{fill:#ffbd00;}.g{fill:#393939;}.h{fill:#8bbec5;}.i{fill:#ffd548;}.j{fill:#ff911e;}.k{fill:#b1b1b1;}.l{fill:#fcd2c5;}.m{fill:#cbcbcb;}.n{fill:#fabdaa;}.o{fill:#fcb7a1;}</style></defs><g transform="translate(-1242.317 -3397.618)"><g transform="translate(1242.317 3397.618)"><path class="a" d="M1030.753,403H844.319s-13.568-17.791,8.642-19.615-25.458-14.9-22.459-25,50.449-4.585,45.313-13.341-17.025-19.827-17.377-24.187,8.644-9.756,24.835-7.057,27.428-17.366,15.813-27.423,8.363-31.049,22.061-17.254,41.279,8.993,33.186,0,1.425-20.388,7.759-14.991,73.638,41.213,69.07,44.594-21.83.308-12.9,14.138,47.956,32.541,35.94,32.181-33.153-12.535-28.882-2.251,39.053,44.934,37.854,52.5S1030.753,403,1030.753,403Z" transform="translate(-830.366 -251.051)"/><path class="b" d="M856.209,404.488c-.617,1.636-23.986-16.191-14.392-37.029C841.817,367.459,863.105,386.2,856.209,404.488Z" transform="translate(-831.786 -268.88)"/><path class="b" d="M866.93,399.569s16.192-14.486,8.7-28.489C875.625,371.08,852.495,385.134,866.93,399.569Z" transform="translate(-835.311 -269.443)"/><g transform="translate(13.954 112.602)"><rect class="c" width="0.6" height="42.912" transform="translate(0 0.243) rotate(-23.908)"/></g><g transform="translate(30.876 114.787)"><path class="c" d="M868.887,423.927c-4.278-10.69-.445-28.341,1-34.985.254-1.169.454-2.092.45-2.279l.6-.014a18.956,18.956,0,0,1-.464,2.419c-1.432,6.6-5.236,24.116-1.026,34.636Z" transform="translate(-866.923 -386.649)"/></g><path class="d" d="M882.373,425.633h-13.6s1.8-6.276,4.036-4.036-.776-2.687-1.925-3.742,1.067-5.6,2.218-3.64,3.383.491,1.8-2.77-2.155-14.873-.862-13.376,5.17,13.6,5.888,14.728,4.308-3.3,4.165-1.012-2.729,4.971-2.441,6.07,1.005,4.226,3.015,3.955.574,2.027,0,2.745A5.062,5.062,0,0,1,882.373,425.633Z" transform="translate(-836.334 -273.616)"/><path class="e" d="M876.772,418.2c-.295.784-11.488-7.755-6.893-17.736C869.88,400.461,880.075,409.436,876.772,418.2Z" transform="translate(-836.334 -274.009)"/><path class="f" d="M881.907,415.84s7.755-6.938,4.165-13.645C886.072,402.2,874.993,408.926,881.907,415.84Z" transform="translate(-838.023 -274.278)"/><g transform="translate(35.424 133.168)"><rect class="c" width="0.287" height="20.553" transform="translate(0 0.116) rotate(-23.908)"/></g><g transform="translate(43.529 134.215)"><path class="c" d="M882.845,427.507c-2.049-5.12-.214-13.574.477-16.757.122-.56.218-1,.215-1.091l.287-.007a9.1,9.1,0,0,1-.222,1.159c-.686,3.16-2.508,11.551-.492,16.589Z" transform="translate(-881.904 -409.652)"/></g><path class="d" d="M872.078,425.633h-13.6s1.8-6.276,4.036-4.036-.776-2.687-1.925-3.742,1.067-5.6,2.217-3.64,3.383.491,1.8-2.77-2.155-14.873-.862-13.376,5.17,13.6,5.888,14.728,4.308-3.3,4.165-1.012-2.729,4.971-2.442,6.07,1.006,4.226,3.016,3.955.574,2.027,0,2.745A5.063,5.063,0,0,1,872.078,425.633Z" transform="translate(-834.734 -273.616)"/><path class="f" d="M866.477,418.2c-.3.784-11.489-7.755-6.894-17.736C859.583,400.461,869.78,409.436,866.477,418.2Z" transform="translate(-834.734 -274.009)"/><path class="f" d="M871.612,415.84s7.755-6.938,4.165-13.645C875.777,402.2,864.7,408.926,871.612,415.84Z" transform="translate(-836.423 -274.278)"/><g transform="translate(26.729 133.168)"><rect class="c" width="0.287" height="20.553" transform="translate(0 0.116) rotate(-23.908)"/></g><g transform="translate(34.834 134.215)"><path class="c" d="M872.549,427.507c-2.048-5.12-.213-13.574.478-16.757.122-.56.217-1,.215-1.091l.287-.007a9.138,9.138,0,0,1-.222,1.159c-.686,3.16-2.508,11.551-.492,16.589Z" transform="translate(-871.609 -409.652)"/></g><circle class="g" cx="26.483" cy="26.483" r="26.483" transform="translate(43.424 143.469) rotate(-73.724)"/><circle class="c" cx="14.512" cy="14.512" r="14.512" transform="matrix(0.282, -0.959, 0.959, 0.282, 58.25, 135.295)"/><circle class="h" cx="7.549" cy="7.549" r="7.549" transform="translate(66.89 130.569) rotate(-73.534)"/><circle class="g" cx="26.483" cy="26.483" r="26.483" transform="translate(166.969 147.369) rotate(-80.783)"/><circle class="c" cx="17.166" cy="17.166" r="17.166" transform="translate(180.187 108.304)"/><circle class="h" cx="9.456" cy="9.456" r="9.456" transform="matrix(0.23, -0.973, 0.973, 0.23, 185.977, 132.5)"/><path class="c" d="M1048.588,359.145l-.058.03a1.837,1.837,0,0,1-2.531-.937l-16.948-41.191a1.836,1.836,0,0,1,3.38-1.432.148.148,0,0,1,.014.032l6.119,14.811,10.887,26.35A1.834,1.834,0,0,1,1048.588,359.145Z" transform="translate(-861.222 -260.652)"/><path class="i" d="M1050.6,365.909l.194-.071a3.513,3.513,0,0,0,2.063-4.591l-7.475-18.913a3.513,3.513,0,0,0-4.645-1.941l-.383.164a3.512,3.512,0,0,0-1.875,4.556l7.663,18.821A3.512,3.512,0,0,0,1050.6,365.909Z" transform="translate(-862.668 -264.63)"/><path class="j" d="M1004.966,363.262V378.5a1.554,1.554,0,0,1-1.587,1.587H985.79s-.562,10.714-5.066,10.714h-13.91s3.459,12.864-6.513,12.864l-35.7-9.277a1.668,1.668,0,0,1-.188-3.167c7.454-2.909,20.975-8.205,21.091-8.379.106-.156,2.94-2.111,3-4.932.034-1.483-.7-3.208-3-5.036-6.674-5.307-23.076-9.971-23.236-11.257a8.589,8.589,0,0,1,0-2.251h76.7v1.606h3.7S1004.966,361.132,1004.966,363.262Z" transform="translate(-844.638 -267.622)"/><rect class="i" width="76.774" height="6.352" transform="translate(77.564 87.641)"/><path class="j" d="M922.9,354.584h-22.59a2.507,2.507,0,0,1-2.257-3.6c3.489-7.133,13.482-22.366,35.219-22.366v16.417a2.4,2.4,0,0,0,2.4,2.4h35.714s-.322,5.387,0,5.387H925.523a2.759,2.759,0,0,0-2.376,1.356Z" transform="translate(-840.845 -262.843)"/><path class="j" d="M983.541,349.593h45.224a2.582,2.582,0,0,0,2.416-3.491l-7.974-21.2s-6.128-6.785-17.53,4.524a57.509,57.509,0,0,1-25.8,14.326v5.843Z" transform="translate(-853.601 -261.952)"/><path class="i" d="M997.545,346.213h28.828a1.646,1.646,0,0,0,1.541-2.226l-5.083-13.514s-3.907-4.325-11.175,2.883a36.656,36.656,0,0,1-16.444,9.132v3.725Z" transform="translate(-855.984 -262.932)"/><path class="j" d="M1081.929,378.566a27.81,27.81,0,0,0-50.822,15.614h29.135Z" transform="translate(-861.563 -268.711)"/><path class="c" d="M1060.713,393.733l-16.948-41.191a1.834,1.834,0,0,1,1.095-2.432h0a1.835,1.835,0,0,1,2.3,1.033l17.007,41.16a1.836,1.836,0,0,1-.865,2.337l-.058.03A1.835,1.835,0,0,1,1060.713,393.733Z" transform="translate(-863.508 -266.168)"/><path class="c" d="M1025.749,315.666l-6.038,1.992a1.738,1.738,0,0,0-1.092,2.234h0a1.736,1.736,0,0,0,2.169,1.07l6.052-1.946a1.738,1.738,0,0,0,1.129-2.164l-.014-.046A1.738,1.738,0,0,0,1025.749,315.666Z" transform="translate(-859.606 -260.817)"/><path class="j" d="M1044.278,322.466c-.638,1.021-3.732,5.644-5.067,7.632l-6.119-14.811a.154.154,0,0,0-.014-.032l6.239-2.893s1.611-.692,2.237.724,2.939,6.332,2.939,6.332A3.983,3.983,0,0,1,1044.278,322.466Z" transform="translate(-861.869 -260.291)"/><path class="k" d="M1029.779,315.339s-1.221-1.7-.692-1.983,4.3-2.356,4.3-2.356,3.6,2.684,3.308,3.383-6.086,3.088-6.086,3.088Z" transform="translate(-861.228 -260.106)"/><path class="i" d="M958.668,361.615s-3.907,14.089-10.145,16.293c.034-1.483-.7-3.208-3-5.036-6.674-5.307-23.076-9.971-23.235-11.257v-1.85l36.381-.4Z" transform="translate(-844.651 -267.622)"/><path class="c" d="M970.627,400.226h10.612a1.266,1.266,0,0,1,1.267,1.266h0a1.266,1.266,0,0,1-1.267,1.266H970.627a1.267,1.267,0,0,1-1.267-1.266h0A1.267,1.267,0,0,1,970.627,400.226Z" transform="translate(-851.967 -273.972)"/><path class="i" d="M930.082,395.984l26.679-9.108a1.905,1.905,0,0,1,2.521,1.8v13.654a1.905,1.905,0,0,1-2.378,1.846l-26.769-6.846A.7.7,0,0,1,930.082,395.984Z" transform="translate(-845.788 -271.881)"/><path class="h" d="M1003.8,362.029V376.18a7.919,7.919,0,0,1-1.727,4.32H962.3a1.313,1.313,0,0,1-1.047-2.106l12.394-16.366Z" transform="translate(-850.665 -268.036)"/><path class="c" d="M1011.676,363.309h8.114a.97.97,0,0,1,.97.97h0a.97.97,0,0,1-.97.97h-8.114Z" transform="translate(-858.543 -268.235)"/><path class="c" d="M1011.676,366.45h8.114a.97.97,0,0,1,.97.97h0a.97.97,0,0,1-.97.97h-8.114Z" transform="translate(-858.543 -268.723)"/><path class="c" d="M1011.676,369.592h8.114a.97.97,0,0,1,.97.97h0a.971.971,0,0,1-.97.97h-8.114Z" transform="translate(-858.543 -269.211)"/><path class="c" d="M1011.676,372.733h8.114a.97.97,0,0,1,.97.97h0a.97.97,0,0,1-.97.97h-8.114Z" transform="translate(-858.543 -269.7)"/><path class="c" d="M1011.676,375.874h8.114a.971.971,0,0,1,.97.97h0a.97.97,0,0,1-.97.97h-8.114Z" transform="translate(-858.543 -270.188)"/><path class="l" d="M1027.161,313.4s2.242,3.436,1.769,4.287-2.85,2.222-3.879,1.707-2.77-3.955-3.783-3.717c-3.107.729-2.747,1.736-3.064,1.564a15.84,15.84,0,0,1-1.461-2.137c-.539-.742-1.505-.715-1.362-2.67s2.023-5.353,2.823-5.247,3.915.85,4.85,1.765S1027.161,313.4,1027.161,313.4Z" transform="translate(-859.116 -259.513)"/><path class="c" d="M990.964,309.626c-1.919,2.252-8.666,7.062-13.562,10.134-2.8,1.754-4.992,2.945-5.343,2.768l-.009-.006c-.954-.48-1.079-.959-2.282-.959a54.755,54.755,0,0,1-7.115-4.221c-2.291-1.808-9.166-4.944-10.662-7.187s6.527-5.463,22.953-21.719c9.382-9.286,12.9-3.352,14.341-3.035,3.208.7,5.79,3.337,7.618,5.169.168.168.333.351.5.549C999.938,294.128,993.789,306.313,990.964,309.626Z" transform="translate(-849.24 -255.792)"/><path class="m" d="M979.28,321.734c-2.8,1.754-4.992,2.945-5.343,2.768l-.009-.006c-.2-.153-3.361-2.606-6.3-5.349a28.723,28.723,0,0,1-3.731-3.883c.252.106,12.041,5.05,12.24.4.2-4.7,1.3-21.156,2.947-19.624Z" transform="translate(-851.117 -257.765)"/><path class="i" d="M1009.383,305.737s1.045,8.2.563,8.763-23.638,17.692-25.165,17.61-2.492.079-2.975-1.77-1.286-32.482-.724-34.572,1.769-5.387,5.869-5.709,5.95,6.351,5.709,6.753-1.286,19.618-.482,19.538S1009.383,305.737,1009.383,305.737Z" transform="translate(-853.758 -256.85)"/><path class="g" d="M970.151,397.816h15.8s.9-.785.542-1.508-9.226-3.618-10.613-6.935-2.231-4.823-3.377-4.643a6.891,6.891,0,0,0-3.618,1.447c-.784.845-3.256,7.526-2.411,9.009a11.406,11.406,0,0,0,1.808,2.629C968.463,397.876,970.151,397.816,970.151,397.816Z" transform="translate(-851.491 -271.562)"/><path class="d" d="M958.89,376.507c.42.336,13.66,2.412,13.7,2.05s17.411-27.738,17.411-27.738,6.175-11.013-3.8-12.62-18.03-1.249-18.272-4.506-3.609-5.307-4.337-5.668-13.994-5.487-14.476-5.126-9.649,9.286-7.116,16.161,10.492,7.477,10.492,7.477h22.381s1.739,0,1.137.965Z" transform="translate(-847.647 -261.952)"/><path class="l" d="M1020.646,282.872c-.3.345,0,1.43,0,1.973s-1.508,0-1.508,0-3.075,4.824-4.16,4.281a10.6,10.6,0,0,1-1.5-1.02,23.948,23.948,0,0,1-2.3-1.995c-.3-.362-3.8-6.573-4.281-9.106-.012-.067-.024-.134-.034-.2-.376-2.559.992-6.809,2.988-7.513a45.792,45.792,0,0,1,8.563-1.146,33.128,33.128,0,0,1,3.859,1.387c.181.242,1.869,5.97,1.869,5.97S1020.947,282.529,1020.646,282.872Z" transform="translate(-857.785 -253.444)"/><path class="n" d="M1024.655,275.766s-7.156-5.144-9.3-4.845-3.9,3-3.9,3a14.517,14.517,0,0,1,.4-3.011c.3-.687,5.147-4.035,5.147-4.035s5.6,3.648,5.847,4,1.649,3.149,1.649,3.149l.363,1.049Z" transform="translate(-858.509 -253.248)"/><path class="l" d="M1011.828,289.7a15.305,15.305,0,0,0-4.71-.108,9.93,9.93,0,0,0-2.815.774c-.171-.2-.336-.381-.5-.549-1.829-1.832-4.41-4.47-7.618-5.169a61.412,61.412,0,0,1,9.034-6.252c.009.069.021.138.033.2a15.618,15.618,0,0,0,1.091,3.041v0a55.963,55.963,0,0,0,3.191,6.063A23.755,23.755,0,0,0,1011.828,289.7Z" transform="translate(-856.135 -255.039)"/><path class="j" d="M995.215,285.184c.17.022,2.426-2.872,2.947-2.414s8.925,7.853,8.8,8.268a11.847,11.847,0,0,1-3.112,2.949c-.568.121-8.638-7.481-8.638-8.142Z" transform="translate(-855.985 -255.711)"/><path class="j" d="M951.9,314.838s-5.547,5.043-1.769,7.7c0,0,17.791,6.729,18.208,7.616,0,0,3.741.585,3.258-2.712S951.9,314.838,951.9,314.838Z" transform="translate(-848.773 -260.702)"/><path class="g" d="M1008.747,270.121s-.478-2.391-1.426-1.849-1.469,3.7-.584,4.261,1.206,1.85.242,2.01-1.737,0-2.035.322.185,1.927-1.182,1.084-8.266-2.29-5.7-9.2,2.412-11.738-.567-11.256c0,0,3.936-2.412,6.348,1.286s11.256,1.688,6.352-1.688-7.96-2.573-7.96-2.573,9.568-5.066,17.447,1.929,3.7,18.372,3.015,18.352-4.864-4.2-6.633-5.327-4.583.322-5.95,2.332-1.527,1.125-1.527,1.125Z" transform="translate(-856.339 -250.741)"/><path class="j" d="M1013.081,318.3s2.468-3.6,2.279-3.767,2.064-7.347,2.064-7.347a13.378,13.378,0,0,0-2.773.649c-.145.241-4.3,2.869-4.3,2.869Z" transform="translate(-858.337 -259.514)"/><path class="o" d="M1013.7,290.3a15.305,15.305,0,0,0-4.71-.108,24.055,24.055,0,0,0-.78-7.948,55.964,55.964,0,0,0,3.191,6.062A23.747,23.747,0,0,0,1013.7,290.3Z" transform="translate(-858.004 -255.636)"/></g></g></svg>