<svg xmlns="http://www.w3.org/2000/svg" width="312.667" height="229.397" viewBox="0 0 312.667 229.397"><defs><style>.a{fill:#88cef9;}.b{fill:#0377bf;}.c{fill:#3fb6ff;}.d{fill:#fff;}.e{fill:#028adc;}.f{fill:#393939;}.g{fill:#cbcbcb;}.h{fill:#ff931e;}.i{fill:#ffd648;}.j{fill:#febb46;}.k{fill:#8ebdc5;}.l{fill:#ff911e;}.m{fill:#262626;}.n{fill:#0066a5;}.o{fill:#fcd2c5;}.p{fill:#fabdaa;}</style></defs><g transform="translate(-804 -3296.321)"><g transform="translate(804 3296.321)"><path class="a" d="M694.938,412.823h-235.1s-34.521-4.579-19.991-19.109,62.794-22.815,43.488-40.58-40.563-48.412-13.164-48.3,52.221-16.993,41.555-31.147-3.678-37.016,18.6-22.07c10.827,7.261,12.834-17.823-8.032-41.986-19.689-22.8,23.673-23.807,35.663-12.329S619.25,251.568,619.25,233.8s-16.922-38.832-4.171-36.492,89.227,74.678,81.953,81.954-31.707-3.195-22.763,8.518,42.485,25.669,44.825,36.632-25.441,3.587-17.839,11.444,57.621,61.756,45.92,67.689S706.662,412.823,694.938,412.823Z" transform="translate(-436.273 -183.971)"/><path class="b" d="M494.744,426.611h5.014s3.122-3.821,0-3.821.892-1.906,2.342-4.02-8.518.714-6.72-1.277,10.289-6.057,10.066-9.3-5.142,2.384-6.6,2.866-8.678,8.388-8.789,6.436-4.35-4.072-3.012-1.73,3.485,7.808,1.8,7.362-4.787.112-3.628,1.115,2.6,2.6,2.6,2.6Z" transform="translate(-439.295 -197.444)"/><path class="c" d="M492.91,418.513c-.738.42-1.84-9.909,4.405-15.263C497.315,403.25,500.772,414.034,492.91,418.513Z" transform="translate(-439.752 -197.2)"/><g transform="translate(50.508 214.482)"><path class="d" d="M490.123,426.924h.5c0-1.176,3.452-10.874,4.782-14.512l-.472-.173C494.739,412.777,490.123,425.419,490.123,426.924Z" transform="translate(-490.123 -412.24)"/></g><path class="e" d="M496.051,420.072a17.236,17.236,0,0,0,7.167-15.334S494.128,410.926,496.051,420.072Z" transform="translate(-439.967 -197.292)"/><g transform="translate(52.926 215.303)"><rect class="d" width="14.958" height="0.502" transform="translate(0 13.765) rotate(-66.955)"/></g><path class="b" d="M472.338,424.527H460.5s-7.372-9.019,0-9.019-2.107-4.5-5.529-9.489S475.082,407.7,470.837,403s-24.287-14.3-23.761-21.957,12.137,5.629,15.585,6.767,20.484,19.8,20.747,15.19,10.268-9.609,7.109-4.081-8.228,18.429-4.245,17.376,11.3.264,8.561,2.633-6.141,6.142-6.141,6.142Z" transform="translate(-436.943 -195.675)"/><path class="c" d="M478.972,405.413c1.743.992,4.345-23.391-10.4-36.028C468.573,369.385,460.411,394.84,478.972,405.413Z" transform="translate(-438.167 -195.098)"/><g transform="translate(34.588 194.191)"><path class="d" d="M485.62,425.267h-1.185c0-2.777-8.147-25.668-11.285-34.254l1.112-.407C474.727,391.875,485.62,421.713,485.62,425.267Z" transform="translate(-473.15 -390.606)"/></g><path class="c" d="M471.286,409.094s-18.232-11.311-16.916-36.2C454.371,372.9,475.828,387.505,471.286,409.094Z" transform="translate(-437.392 -195.316)"/><g transform="translate(26.438 196.13)"><rect class="d" width="1.185" height="35.308" transform="matrix(0.92, -0.391, 0.391, 0.92, 0, 0.464)"/></g><circle class="f" cx="31.66" cy="31.66" r="31.66" transform="translate(76.543 165.532)"/><circle class="d" cx="17.639" cy="17.639" r="17.639" transform="translate(85.111 187.756) rotate(-22.775)"/><circle class="f" cx="31.66" cy="31.66" r="31.66" transform="translate(227.004 165.532)"/><circle class="d" cx="17.639" cy="17.639" r="17.639" transform="translate(235.572 187.756) rotate(-22.775)"/><circle class="g" cx="9.388" cy="9.388" r="9.388" transform="translate(247.898 204.96) rotate(-80.811)"/><path class="h" d="M587.236,325.945s4.246.3,3.653,2.271a9.153,9.153,0,0,0,.057,4.344s-35.826.1-35.826,0-4.808-7.548.425-9.873,8.948,4.382,8.948,4.382Z" transform="translate(-443.525 -192.169)"/><path class="h" d="M549.946,331.269h-30.22a2.741,2.741,0,0,1-2.666-1.821c-.79-1.975-7.109-24.485-8-26.065s1.579-3.554,3.257-2.27,12.835,20.93,14.316,21.423,17.87-1.674,17.87-1.674,5.448-.6,5.439,3.057S549.946,331.269,549.946,331.269Z" transform="translate(-440.779 -190.835)"/><path class="d" d="M520.033,333.292h68.476s3.306.141,3.306,3.306H534.744s-3.357-.092-3.357.895-1.669,2.469-1.669,2.469H516.973s-3.149-.175-3.149-3.149a3.334,3.334,0,0,1,2.26-3.518Z" transform="translate(-441.086 -192.857)"/><path class="i" d="M589.33,382.9s-1.3,6.054,1.587,6.844,3.151,2.033,3.151,2.033H512.926s-.363-.612-.967-1.626c-1.722-2.894-5.4-9.088-8.155-13.8-1.962-3.352-3.459-5.955-3.459-6.089,0-.395-2.635-2.764.656-8.293s16.191-25.152,16.191-25.152h91.753s5.4,1.323,1.445,8.431S589.33,382.9,589.33,382.9Z" transform="translate(-440.188 -193.076)"/><path class="h" d="M549.541,347.21h0a31.66,31.66,0,0,0-31.66,31.66v13.623H581.2V378.87A31.661,31.661,0,0,0,549.541,347.21Z" transform="translate(-441.338 -193.721)"/><path class="j" d="M550.14,363.922h0a22.155,22.155,0,0,0-22.154,22.155v7.454h44.309v-7.454A22.155,22.155,0,0,0,550.14,363.922Z" transform="translate(-441.965 -194.759)"/><path class="k" d="M713.613,395.705h0a3.507,3.507,0,0,0,.924-4.935l-7.509-10.684-5.447,3.784,7.158,10.849A3.509,3.509,0,0,0,713.613,395.705Z" transform="translate(-452.74 -195.762)"/><path class="l" d="M738.1,361.991l-29.314,26.336H674.231l19.252-31,21.993-6.655a1.5,1.5,0,0,1,1.015.048l4.284,1.769,2.851,1.181,2.769,1.141,2.8,1.161,8.47,3.5A1.51,1.51,0,0,1,738.1,361.991Z" transform="translate(-451.043 -193.932)"/><path class="l" d="M677.494,267.892l4.344-2.961,6.121,9.378s1.086,2.172-1.875,2.765S677.494,267.892,677.494,267.892Z" transform="translate(-451.245 -188.614)"/><path class="i" d="M658.722,278.954s-3.555-3.775-1.481-5.2,14.316-10.108,14.316-10.108,2.764-1.382,5.232,2.37,10.068,13.821,10.068,13.821,2.767,9.073-9.573,12.484l-3.555.746-8.787-14.834Z" transform="translate(-449.948 -188.519)"/><path class="i" d="M692.722,329.945c-3.614-8.727-7.9-19.082-11.216-27.118a13.723,13.723,0,0,1,13.49,8.2l1.331,3.053A13.714,13.714,0,0,1,692.722,329.945Z" transform="translate(-451.494 -190.965)"/><path class="l" d="M688.068,352.383c-1.974,4.838-23.99,42.454-23.99,42.454s-1.284,2.073-5.134,2.073H514.505s-3.85-.395-3.85-5.133,2.973-3.5,2.973-3.5H639.1l1.283-2.33.008-.008c.491-.384,23.983-19,24.082-33.659.1-14.809-10.465-43.835-14.414-51.733-3.381-6.757-4.807-9.106-5.209-10.137a1.6,1.6,0,0,1-.123-.427c-.1-.79,5.134-4.245,5.134-4.542s1.256-3.752,1.256-3.752l6.939-1.185,2.468,1.185a17.624,17.624,0,0,1,5.036,6.714c.445,1.145,2.555,6.271,5.342,13.036,3.318,8.036,7.6,18.391,11.216,27.118,4.1,9.889,7.334,17.692,7.334,17.692S690.043,347.546,688.068,352.383Z" transform="translate(-440.89 -189.581)"/><path class="d" d="M672.887,280.01l-4.837,9.039a3.734,3.734,0,0,1-5.271,1.4l-.612-.384a3.732,3.732,0,0,1-1.223-5.086l5.267-8.779a3.732,3.732,0,0,1,5.293-1.171l.184.124A3.733,3.733,0,0,1,672.887,280.01Z" transform="translate(-450.185 -189.202)"/><path class="i" d="M673.041,352.94c-.1,14.655-23.592,33.275-24.082,33.659-1.153-2.133,1.852-7.559,1.852-7.559a218.439,218.439,0,0,0,16.238-21.36c7.109-10.928-15.8-60.947-16.21-62.89-.261-1.2,1.331-2.732,2.578-3.72.4,1.031,1.828,3.38,5.209,10.137C662.576,309.1,673.139,338.131,673.041,352.94Z" transform="translate(-449.458 -190.237)"/><path class="i" d="M726.392,353.794l-5.627,4.613-1.975-1.777,4.751-4.016Z" transform="translate(-453.808 -194.057)"/><path class="i" d="M732.487,356.25l-3.3,2.705-1.975-1.777,2.472-2.089Z" transform="translate(-454.331 -194.21)"/><path class="j" d="M699.342,356.445l-3.422-1.383s-1.711-.461-2.369.691-19.812,32.021-19.812,32.021-.131.823.461.823h6.911s.724.1,1.514-1.349S699.342,356.445,699.342,356.445Z" transform="translate(-451.011 -194.203)"/><path class="d" d="M511.875,392.765c-.972.825-2.86,2.4-4.178,3.345-1.844,1.315-2.567,0-2.567,0a106.969,106.969,0,0,1-6.318-9.806c-1.513-3.1-.462-3.818-.462-3.818l5.371-3.519C506.477,383.677,510.153,389.87,511.875,392.765Z" transform="translate(-440.104 -195.692)"/><path class="d" d="M673.88,303.668s6.779-2.824,7.569-.918,10.926,26.39,10.926,26.39.461,1.317,0,1.646-4.344,2.7-4.344,2.7S683.229,323.282,673.88,303.668Z" transform="translate(-451.021 -190.921)"/><rect class="i" width="24.748" height="2.106" transform="translate(102.226 161.11)"/><rect class="i" width="19.901" height="2.106" transform="translate(107.073 164.678)"/><path class="d" d="M542.08,373.876h17.8a1.054,1.054,0,0,1,1.053,1.053h0a1.054,1.054,0,0,1-1.053,1.053h-17.8a1.054,1.054,0,0,1-1.053-1.053h0A1.054,1.054,0,0,1,542.08,373.876Z" transform="translate(-442.775 -195.376)"/><path class="d" d="M542.08,378.507h17.8a1.054,1.054,0,0,1,1.053,1.053h0a1.054,1.054,0,0,1-1.053,1.053h-17.8a1.054,1.054,0,0,1-1.053-1.053h0A1.054,1.054,0,0,1,542.08,378.507Z" transform="translate(-442.775 -195.664)"/><path class="d" d="M542.08,382.718h17.8a1.054,1.054,0,0,1,1.053,1.053h0a1.053,1.053,0,0,1-1.053,1.052h-17.8a1.053,1.053,0,0,1-1.053-1.052h0A1.054,1.054,0,0,1,542.08,382.718Z" transform="translate(-442.775 -195.925)"/><path class="d" d="M542.08,386.928h17.8a1.054,1.054,0,0,1,1.053,1.053h0a1.054,1.054,0,0,1-1.053,1.053h-17.8a1.054,1.054,0,0,1-1.053-1.053h0A1.054,1.054,0,0,1,542.08,386.928Z" transform="translate(-442.775 -196.187)"/><path class="m" d="M613.488,393.623s-6.581,1.185-6.976,0,7.635-13.164,9.346-13.3a40.914,40.914,0,0,1,4.213,0s-.527,6.976-1.712,8.162S613.488,393.623,613.488,393.623Z" transform="translate(-446.839 -195.773)"/><path class="n" d="M619.184,376.377s-4.551,1.549-4.908.38S628.662,336.1,628.662,336.1s.658-6.45-1.317-8.03-32.778-3.291-34.883-4.212,9.976-7.371,13.15-7.24,21.6,2.369,21.6,2.369,4.871,3.423,5.528,5.529S619.184,376.377,619.184,376.377Z" transform="translate(-445.952 -191.822)"/><path class="o" d="M604.591,211.24s-1.156,11.144-1.354,11.735c-.156.467.815,3.313,1.233,4.5a.439.439,0,0,1-.364.582l-2.477.3s-2.567,6.385-3.95,6.453c-.406.02-2-1.094-4.068-2.721-4.976-3.914-12.692-10.793-13.11-11.958a18.318,18.318,0,0,1-.486-1.824c-.691-2.994-1.588-8.148-1.229-8.511.462-.459,6.386-2.7,6.583-2.5s1.252,2.369,2.3,1.844,3.491-2.9,4.281-2.764,4.147.656,5.067,1.315,2.894,2.239,4.079,2.1,3.227-2.1,4.017-.79A1.686,1.686,0,0,1,604.591,211.24Z" transform="translate(-445.114 -184.979)"/><path class="o" d="M593.439,232.874c-1.682-.738-3.009.34-4.031,1.753-.087.123-.174.245-.257.371v0c-.869,1.315-1.493,2.792-1.911,3.357-.924,1.248-11.322-8.36-11.322-8.36l3.925-10.907a18.318,18.318,0,0,0,.486,1.824,13.748,13.748,0,0,0,2.393,2.669c.427.411.9.853,1.4,1.315C586.876,227.452,590.6,230.643,593.439,232.874Z" transform="translate(-444.94 -185.769)"/><path class="o" d="M672.3,282.648c.1.7-4.1,9.826-4.692,10.268s-1.579-.791-1.477-1.727,1.477-5.528.988-6.464-4.052-2.914-4.447-2.816a.907.907,0,0,0-.252.177l-.012.012c-.893.782-3.439,3.819-3.092,5.288.395,1.683,2.374,2.962,3.136,3.408s1.754,2.271-.32,1.975-6.173-2.962-7.057-3.752a14.27,14.27,0,0,1-1.8-2.378c-.387-.6-.668-1.078-.668-1.078s.743-7.353,2.962-7.946,10.319-3.8,11.5-3.064S672.2,281.961,672.3,282.648Z" transform="translate(-449.7 -189.205)"/><path class="d" d="M587.123,277.535c-1.126,5.431-2.338,9.928-2.875,10.465-1.186,1.185-.1,4.147-1.679,4.443l-.016,0c-1.71.391-24.473,15.69-26.245,15s-3.258-1.283-3.357-2.271a186.287,186.287,0,0,1,0-20.337c.592-8,1.876-21.029,3.554-27.15s10.071-20.733,10.071-20.733,2.764-4.64,4.147-4.344,13.921,8.393,14.711,8.886,3.652,10.366,4.047,17.673C589.7,263.157,588.473,271.02,587.123,277.535Z" transform="translate(-443.497 -186.608)"/><path class="g" d="M588.047,278.968c-1.126,5.431-2.338,9.928-2.875,10.465-1.186,1.185-.1,4.147-1.679,4.443l-.016,0c-.308.039-4.822.675-5.71,1.181s-9.841,5.008-10.212,5.193a20.661,20.661,0,0,0,5.367-6.9c1.686-3.95,3.136-19.016,1.556-21.882s-5.193-11.99-4.439-15.781C570.039,255.689,586.345,278.013,588.047,278.968Z" transform="translate(-444.421 -188.041)"/><path class="l" d="M571.917,232.347c.888-.3,2.468-4.245,3.06-4.047s13.526,8.688,13.426,9.379-1.382,4.442-2.468,3.949S571.917,232.347,571.917,232.347Z" transform="translate(-444.692 -186.34)"/><path class="f" d="M631.109,384.023s-.493,3.85,8.293,6.22a7.344,7.344,0,0,1,1.481,3.785s-27.94.724-28.533,0-1.481-1.712-1.382-2.205,7.5-11.673,7.5-11.673L624.3,378.3s5.43,2.29,5.924,2.725S631.109,384.023,631.109,384.023Z" transform="translate(-447.116 -195.651)"/><path class="e" d="M619.285,377.444c.3.1,9.379,3.356,14.907,1.579.395-1.284,2.469-15.995,3.555-20.042s7.7-38.109,7.6-39.689,1.086-9.478-6.911-11.157-55.189-9.083-56.769-8.787-21.621,15.105-21.226,16.685,3.16,15.995,15.6,12.045,43.835-8,44.723-7.207-.3,2.073,1.481,2.567,2.172.3,2.567.888-10.025,50.472-9.477,50.921S619.285,377.444,619.285,377.444Z" transform="translate(-443.98 -190.75)"/><path class="l" d="M555.579,309.981s-2.179,6.073,4.736,6.541c0,0,19.346-17.621,21.032-17.5,0,0,2.962.79,1.58-3.752,0,0-1.284-2.369-4.147-.493Z" transform="translate(-443.658 -190.422)"/><path class="n" d="M585.138,252.5s22.51,20.536,24.781,22.017,32.975.69,33.468,1.185-.888,9.576-2.863,10.169-30.507,4.837-32.285,3.949-34.851-22.609-36.628-28.137-2.468-10.071,1.383-12.045S585.138,252.5,585.138,252.5Z" transform="translate(-444.585 -187.636)"/><path class="l" d="M647.255,277.353s7.488-.5,7.637.434-1.728,9.724-2.961,9.724-9.661,2.264-10.088.688S647.255,277.353,647.255,277.353Z" transform="translate(-449.031 -189.377)"/><path class="p" d="M605.1,211.07a8.008,8.008,0,0,1-7.571,1.514c-4.344-1.448-5-1.065-6.976.469a19.357,19.357,0,0,0-3.686,4.27s2.3-8.026,2.469-9.147,5.43-4.807,5.956-4.544,8.557,2.765,8.688,3.16S605.1,211.07,605.1,211.07Z" transform="translate(-445.62 -184.809)"/><path class="f" d="M605.368,208.311s-1.082,3.127-3.686,1.448-10.53-2.664-11.847-.476-4.212,6.8-4.212,6.8,3.554-6.714,0-7.24-6.055.895-5.134,3.211,3.208,6.1,1.843,7.12-3.66-.592-4.125.7-.351,3.712-2.194,2.79-7.635-1.928-8.951-7.217,4.344-9.632,3.686-11.212.92-4.08,9.1-9.609-5.4-8.688-5.139-11.057a55.164,55.164,0,0,1,15.935,4.071c5.81,2.527,5.905,3.433,11.961,5.538S605.368,208.311,605.368,208.311Z" transform="translate(-444.379 -183.564)"/><path class="p" d="M593.889,233.171c-1.682-.738-3.009.34-4.031,1.753-.087.123-.174.245-.257.371.063-2.108-6.429-11.413-6.429-11.413.427.411.9.853,1.4,1.315C587.326,227.749,591.053,230.94,593.889,233.171Z" transform="translate(-445.391 -186.067)"/><path class="p" d="M662.171,293.277c-2.073-.3-6.173-2.962-7.057-3.752a14.269,14.269,0,0,1-1.8-2.378c.731-.15,1.548-.332,2.306-.533,1.753-.47,5.769-3.258,6.832-4.009-.893.782-3.439,3.819-3.092,5.288.395,1.683,2.374,2.962,3.136,3.408S664.244,293.572,662.171,293.277Z" transform="translate(-449.744 -189.711)"/></g></g></svg>