<svg xmlns="http://www.w3.org/2000/svg" xmlns:xlink="http://www.w3.org/1999/xlink" width="440.433" height="396.674" viewBox="0 0 440.433 396.674"><defs><style>.a{fill:#72c9ff;}.b{fill:#393939;}.c{fill:#ffe18c;}.d{fill:url(#a);}.e{fill:url(#b);}.f{fill:url(#c);}.g{fill:url(#d);}.h{fill:url(#e);}.i{fill:url(#f);}.j{fill:url(#g);}.k{fill:url(#h);}.l{fill:url(#i);}.m{fill:#ff5049;}.n{fill:#ffbd00;}.o{fill:url(#j);}.p{fill:#e2720c;}.q{fill:#fbb301;}.r{fill:#fff;}.s{fill:url(#k);}.t{fill:#fcd2c5;}.u{fill:#f19b05;}.v{fill:#004672;}.w{fill:#015d96;}.x{fill:url(#l);}.y{fill:url(#m);}.z{fill:url(#n);}.aa{fill:#ffb638;}.ab{fill:url(#o);}.ac{fill:url(#p);}.ad{fill:#ffc868;}.ae{fill:#88cef9;}.af{fill:#ff5e58;}.ag{fill:#ff7c77;}.ah{fill:url(#r);}.ai{fill:#028adc;}</style><linearGradient id="a" y1="0.5" x2="1" y2="0.5" gradientUnits="objectBoundingBox"><stop offset="0" stop-color="#0da3ff"/><stop offset="0.068" stop-color="#1da8fe"/><stop offset="0.313" stop-color="#34b2ff"/><stop offset="0.537" stop-color="#35b2ff"/><stop offset="0.734" stop-color="#5bc0fe"/><stop offset="0.895" stop-color="#7dceff"/><stop offset="1" stop-color="#7bcdff"/></linearGradient><linearGradient id="b" y1="0.5" x2="1" y2="0.5" gradientUnits="objectBoundingBox"><stop offset="0" stop-color="#b9e5ff"/><stop offset="0.105" stop-color="#93d3fa"/><stop offset="0.266" stop-color="#70c9ff"/><stop offset="0.463" stop-color="#55bcfc"/><stop offset="0.687" stop-color="#2eadfc"/><stop offset="0.932" stop-color="#0da3ff"/><stop offset="1" stop-color="#0da3ff"/></linearGradient><linearGradient id="c" y1="0.5" x2="1" y2="0.5" gradientUnits="objectBoundingBox"><stop offset="0" stop-color="#0da3ff"/><stop offset="0.068" stop-color="#17a6fe"/><stop offset="0.313" stop-color="#51bdff"/><stop offset="0.537" stop-color="#48b7fc"/><stop offset="0.734" stop-color="#48b6fa"/><stop offset="0.895" stop-color="#5ac0ff"/><stop offset="1" stop-color="#9bd9ff"/></linearGradient><linearGradient id="d" y1="0.5" x2="1" y2="0.5" gradientUnits="objectBoundingBox"><stop offset="0" stop-color="#bde4fc"/><stop offset="0.123" stop-color="#92d6ff"/><stop offset="0.266" stop-color="#6bc5fd"/><stop offset="0.463" stop-color="#35b2ff"/><stop offset="0.687" stop-color="#31adf9"/><stop offset="0.932" stop-color="#0094ef"/><stop offset="1" stop-color="#0495ef"/></linearGradient><linearGradient id="e" x1="1" y1="0.569" x2="-0.258" y2="0.791" gradientUnits="objectBoundingBox"><stop offset="0" stop-color="#0da3ff"/><stop offset="0.068" stop-color="#0da3ff"/><stop offset="0.313" stop-color="#43b6fd"/><stop offset="0.537" stop-color="#39b4ff"/><stop offset="0.734" stop-color="#51bdff"/><stop offset="0.895" stop-color="#5ec2ff"/><stop offset="1" stop-color="#75cbff"/></linearGradient><linearGradient id="f" y1="0.5" x2="1" y2="0.5" gradientUnits="objectBoundingBox"><stop offset="0" stop-color="#febb46"/><stop offset="0.067" stop-color="#febb46"/><stop offset="0.606" stop-color="#ffcc72"/><stop offset="1" stop-color="#ffe2b0"/></linearGradient><linearGradient id="g" y1="0.5" x2="1" y2="0.5" gradientUnits="objectBoundingBox"><stop offset="0" stop-color="#febb46"/><stop offset="0.057" stop-color="#febb46"/><stop offset="0.606" stop-color="#ffcf7b"/><stop offset="1" stop-color="#ffe1ac"/></linearGradient><linearGradient id="h" y1="0.5" x2="1" y2="0.5" gradientUnits="objectBoundingBox"><stop offset="0" stop-color="#ffda99"/><stop offset="0.394" stop-color="#ffc867"/><stop offset="0.984" stop-color="#febb46"/><stop offset="1" stop-color="#ffb025"/></linearGradient><linearGradient id="i" y1="0.5" x2="1" y2="0.5" gradientUnits="objectBoundingBox"><stop offset="0" stop-color="#febb46"/><stop offset="0.057" stop-color="#ffc257"/><stop offset="0.606" stop-color="#ffd180"/><stop offset="1" stop-color="#ffdc9e"/></linearGradient><linearGradient id="j" y1="0.5" x2="1" y2="0.5" gradientUnits="objectBoundingBox"><stop offset="0" stop-color="#c0bfff"/><stop offset="1" stop-color="#e9eaff"/></linearGradient><linearGradient id="k" x1="-36.317" y1="0.5" x2="-35.317" y2="0.5" gradientUnits="objectBoundingBox"><stop offset="0" stop-color="#0011bf"/><stop offset="1" stop-color="#393939"/></linearGradient><linearGradient id="l" y1="0.5" x2="1" y2="0.5" gradientUnits="objectBoundingBox"><stop offset="0" stop-color="#6f00ff"/><stop offset="0.016" stop-color="#e2720c"/><stop offset="0.606" stop-color="#fbb301"/><stop offset="1" stop-color="#ffbd00"/></linearGradient><linearGradient id="m" y1="0.5" x2="1" y2="0.5" gradientUnits="objectBoundingBox"><stop offset="0" stop-color="#fcd2c5"/><stop offset="1" stop-color="#fcd2c5"/></linearGradient><linearGradient id="n" y1="0.5" x2="1" y2="0.5" gradientUnits="objectBoundingBox"><stop offset="0" stop-color="#ffbfeb"/><stop offset="1" stop-color="#fff"/></linearGradient><linearGradient id="o" y1="0.5" x2="1" y2="0.5" gradientUnits="objectBoundingBox"><stop offset="0" stop-color="#ffbceb"/><stop offset="1" stop-color="#fff"/></linearGradient><linearGradient id="p" y1="0.5" x2="1" y2="0.5" gradientUnits="objectBoundingBox"><stop offset="0" stop-color="#fff"/><stop offset="1" stop-color="#fcd2c5"/></linearGradient><linearGradient id="r" x1="-0.006" y1="0.504" x2="1.004" y2="0.504" gradientUnits="objectBoundingBox"><stop offset="0" stop-color="#f0a"/><stop offset="0.068" stop-color="#ff12ad"/><stop offset="0.313" stop-color="#ff4fbb"/><stop offset="0.537" stop-color="#ff7fc6"/><stop offset="0.734" stop-color="#ffa2cd"/><stop offset="0.895" stop-color="#ffb7d2"/><stop offset="1" stop-color="#ffbfd4"/></linearGradient></defs><g transform="translate(-1201.567 -4469.064)"><g transform="translate(657.185 4231.47)"><path class="a" d="M637.55,534.394s-126.238,19.131-83.509,34.984c34.988,12.981,109.373,32.433,71.149,47.459S520.822,648.069,587,674.624c83.8,33.624,470.526,12.006,386.871-35.08-73.061-41.124-91.56-42.691-85.949-54.99,13.932-30.537,78.537-37.467,29-52.012C807.792,500.5,637.55,534.394,637.55,534.394Z" transform="translate(-0.829 -56.668)"/><path class="b" d="M946.872,239.246l7.007,1.195-6.245,1.979-2.38-1.2Z" transform="translate(-81.454 -0.333)"/><g transform="translate(853.556 260.679)"><path class="b" d="M934.538,273.229a.284.284,0,0,1-.247-.145l-1.868-3.358,1.872-3.085a.283.283,0,0,1,.484.294l-1.7,2.8,1.708,3.069a.283.283,0,0,1-.109.385A.287.287,0,0,1,934.538,273.229Z" transform="translate(-932.424 -266.506)"/></g><g transform="translate(850.443 263.379)"><path class="b" d="M929.729,273.381a.281.281,0,0,1-.246-.144l-.957-1.686L929.7,270a.283.283,0,0,1,.452.341L929.2,271.6l.773,1.362a.283.283,0,0,1-.246.422Z" transform="translate(-928.526 -269.888)"/></g><path class="c" d="M935.605,264.117s-1.159,2.335,0,1.676,3.927-2.775,4.522-7.833-5.956-.981-5.956-.981Z" transform="translate(-79.221 -3.594)"/><path class="d" d="M651.726,387.814c-1.132-12.312-2.124-32.049,10.807-38.8,7.28-3.8,20.448-2.574,22.55,6.877,1.768,7.945-2.914,17.161-7.062,23.632-10.1,15.762-35.615,59.57-11.5,98.97,21.8,35.614,31.9,51.541,31.9,51.541l7.221-5.733,4.147-147.605-2.827-44.112-51.135-18.663-36.9,27.712,20.02,37.891Z" transform="translate(-15.685 -15.382)"/><path class="e" d="M736.348,487.217a171.377,171.377,0,0,1-21.514-28.72c-4.15-7-8.2-14.784-9.216-22.97-1.146-9.234,4.217-18.25,8.731-25.864,4.906-8.274,9.587-16.4,13.206-25.355,8.048-19.916,10.893-42,.178-61.541-17.37-31.684-50.568-42.793-81.531-34.121a91.864,91.864,0,0,0-52.026,38.487c-14.534,22.786-19.274,54.68,1.722,74.911l35.543-28.19c.2-.162-1.74-6.429-1.84-6.926-.988-4.868-1.691-10.319-.87-15.266,5.061-30.449,63.709-38.287,64.463-1.733.228,11.074-5.105,21.823-11.269,30.71-16.213,23.376-31.652,55.989-18.663,81.155,10.117,19.6,34.875,56.837,34.875,56.837Z" transform="translate(-8.181 -9.716)"/><path class="f" d="M635.027,396.079l12.781,8.295-44.866,33.061-3.458-13.165Z" transform="translate(-11.767 -31.941)"/><path class="g" d="M800.525,595.485a25.638,25.638,0,1,1-25.636-25.641A25.639,25.639,0,0,1,800.525,595.485Z" transform="translate(-41.951 -66.962)"/><path class="h" d="M783.692,620.386a25.641,25.641,0,1,1-26.117-43.637,25.642,25.642,0,0,0,26.117,43.637Z" transform="translate(-40.523 -68.354)"/><path class="i" d="M877.45,267.879l68.811,9.049L894.417,487.219l-41.284-7.547Z" transform="translate(-62.888 -6.104)"/><path class="j" d="M890.648,578.593a25.613,25.613,0,1,1-19.014-24.777A25.638,25.638,0,0,1,890.648,578.593Z" transform="translate(-60.114 -63.558)"/><path class="k" d="M837.943,578.022a25.621,25.621,0,0,0,13.353,22.5,25.64,25.64,0,1,1,18.911-47.279,25.648,25.648,0,0,0-32.264,24.777Z" transform="translate(-58.687 -62.987)"/><path class="l" d="M875.166,267.879l-9.668,6.786L841.8,474.3l9.049,5.371Z" transform="translate(-60.604 -6.104)"/><path class="m" d="M916.394,268.41,902.8,281.629l4.094.469a2.143,2.143,0,0,0,1.661-.521l2.985-2.632a.224.224,0,0,1,.339.286l-3.954,6.416a.116.116,0,0,0,.182.143l14.425-14.529Z" transform="translate(-72.898 -6.211)"/><path class="n" d="M936.383,250.838a7.554,7.554,0,0,1,0,8.092c-2.651,4.383-10.427,10.25-13.892,9.332s-3.393-4.886-.707-8.664S936.383,250.838,936.383,250.838Z" transform="translate(-76.329 -2.669)"/><path class="n" d="M935.359,245.584s.731-6.69,4.218-7.75c2.314-.7,5.7,0,5.467,3.958-.147,2.47-3.464,1.32-4.1,3.792-.415,1.614-.841,6.427-.841,6.427l-7.642-4.3Z" transform="translate(-78.876)"/><path class="c" d="M935.382,250.186a3.526,3.526,0,0,0-2.735-2.484,7.6,7.6,0,0,0-4.771.821c-4.241,2.074-14.374,10.7-12.866,11.547a22.79,22.79,0,0,0,13.432-.305C936.1,256.956,936.078,252.563,935.382,250.186Z" transform="translate(-75.328 -2.017)"/><path class="o" d="M941.694,709.176c0,1.376-9.059,2.49-20.234,2.49s-20.233-1.115-20.233-2.49,9.059-2.49,20.233-2.49S941.694,707.8,941.694,709.176Z" transform="translate(-72.581 -94.542)"/><path class="p" d="M934.938,584.335a7.112,7.112,0,0,1,5.548,1.261,15.1,15.1,0,0,1,3.409,4.076s.16-4.979-.609-7.365c-1.316-4.084-2.24-4.529-2.24-4.529l-5.969,4.394Z" transform="translate(-79.375 -68.561)"/><path class="q" d="M907.768,620.857c5.91,13.946,4.018,34.576,4.018,34.576l9.3-1.312a25.468,25.468,0,0,0,2.569-6.522c-.065-.111-.137-.238-.217-.378-.786-1.361-4.055-1.739-4.055-1.739s-.127-.233,1.151-.767a12.669,12.669,0,0,1,3.929-.84,51.477,51.477,0,0,0,.192-15.076c-.472-3.73-.97-7.214-1.4-10.49a9.168,9.168,0,0,0-3.627-.208s-.179-.194.923-1.034a11.054,11.054,0,0,1,2.379-1.348c-1.006-8.373-1.317-15.374.93-21.756a8.8,8.8,0,0,0-3.75-.262s-.179-.192.92-1.032a13.367,13.367,0,0,1,4.265-2.017c.034-.067.067-.135.1-.2,5.256-9.934,9.484-12.494,9.775-12.663-.37.114-7.68,2.437-16.789,10.091C911.087,594.013,901.859,606.911,907.768,620.857Z" transform="translate(-73.519 -68.563)"/><path class="p" d="M963.155,580.784a6.516,6.516,0,0,1,4.874,1.855,13.847,13.847,0,0,1,2.57,4.135s.783-4.5.391-6.762c-.671-3.874-1.453-4.4-1.453-4.4l-5.98,3.223Z" transform="translate(-85.062 -68.125)"/><g transform="translate(840.256 518.084)"><path class="r" d="M917.437,661.323a.567.567,0,0,1-.534-.753c2.6-7.4,3.774-27.643-.284-42.508-4.1-15.015,7.941-28.85,8.064-28.988a.565.565,0,1,1,.846.75c-.117.133-11.756,13.522-7.819,27.94,4.115,15.073,2.9,35.641.261,43.181A.565.565,0,0,1,917.437,661.323Z" transform="translate(-915.768 -588.884)"/></g><path class="n" d="M926.028,653.741h9.98a27.1,27.1,0,0,0,3.671-6.483v0c-.049-.128-.106-.27-.171-.428-.625-1.547-4.011-2.431-4.011-2.431s-.1-.264,1.328-.636a13.447,13.447,0,0,1,4.259-.3,54.715,54.715,0,0,0,2.442-15.836c.059-4,.051-7.735.09-11.245a9.746,9.746,0,0,0-3.787-.759s-.161-.231,1.123-.951a11.805,11.805,0,0,1,2.706-1.066c.184-8.96.894-16.374,4.209-22.753a9.326,9.326,0,0,0-3.908-.835s-.161-.231,1.122-.949a14.148,14.148,0,0,1,4.785-1.488c.047-.068.093-.133.141-.2,7.258-10.024,12.183-11.883,12.183-11.883s-8.175,1.255-19.182,8.135c-8.593,5.368-20.219,17.572-16.07,33.124S926.028,653.741,926.028,653.741Z" transform="translate(-77.579 -68.102)"/><g transform="translate(854.234 514.967)"><path class="r" d="M933.839,659.414a.56.56,0,0,1-.259-.064.566.566,0,0,1-.243-.762c3.773-7.3,5.174-27.538,3.058-44.2-2.081-16.389,12.629-29.146,12.777-29.274a.566.566,0,1,1,.735.862c-.144.123-14.392,12.494-12.389,28.271,2.14,16.851.685,37.4-3.176,44.861A.564.564,0,0,1,933.839,659.414Z" transform="translate(-933.274 -584.979)"/></g><path class="s" d="M938.21,673.489H908.66l7.776,28.859s12.874.25,13.048.077S938.21,673.489,938.21,673.489Z" transform="translate(-74.079 -87.851)"/><path class="t" d="M656.781,453.381s-5.42,8.489-4.643,12.023.354,4.737.354,4.737l-13.008-2.121-5.3-4.878.99-4.029a27.329,27.329,0,0,0,3.605-3.959c.636-1.2,3.111-4.666,3.111-4.666l6.857-2.615Z" transform="translate(-18.76 -42.38)"/><path class="t" d="M656.111,425.23s5.9,5.272,8.674,8.389c2.4,2.695,5.755,7.787,4.666,9.756s-5.373,5.443-12.3,5.372a47,47,0,0,1-14.208-2.9l-3.535-12.512,8.13-7.07,7.062-1.414Z" transform="translate(-19.813 -37.74)"/><path class="b" d="M651.037,408.563s4.454,8.412,2.734,13.007c-1.448,3.868-10.039,5.585-9.049,8.837s6.951,3.888,4.583,4.419-4.654-1.944-6.61.059c-1.8,1.841-2.145,5.584,1.226,5.584,2.669,0,3.961.686,3.865,3.3-.1,2.663.636,8.341-6.5,7.316s-11.82-4.143-13.2-8.425c-2.309-7.187-.612-11.31,1.179-13.6,1.117-1.425-.989-5.584,1.767-8.978s5.406-4.843,9.952-5.479,6.661-.389,8.075-2.085A11.314,11.314,0,0,0,651.037,408.563Z" transform="translate(-17.306 -34.457)"/><path class="u" d="M627.487,464.34,610.7,463.012l-4.524,16.024,10.194,2.622,6.406-4.224Z" transform="translate(-13.116 -45.431)"/><path class="t" d="M643.746,604.445s5.216,4.606,0,10.639-24.821,41.85-24.821,41.85,3.016,6.032,3.77,5.655,5.844-4.524,5.844-4.524,35.44-42.793,34.874-50.333-8.8-16.4-8.8-16.4l-10.243,4.754Z" transform="translate(-15.685 -71.293)"/><path class="v" d="M625.349,585.06l17.869,19.523,12.693-9.761-11.468-9.761Z" transform="translate(-16.98 -70.029)"/><path class="w" d="M600.7,546.166s-7.023,18.719,8.529,26.5,53.584,17.673,53.584,17.673l8.342-26.156-25.541-7.554Z" transform="translate(-11.694 -62.19)"/><path class="x" d="M627.125,461.95s-11.806,11.594-14.492,23.894-2.121,19.087-8.483,25.025a48.175,48.175,0,0,0-9.9,14s12.018,11.594,29.691,14.28c14.683,2.232,23.629,0,23.629,0s-2.28-23.329-2.139-28.277,5.268-22.339,2.139-30.115-6.238-15.128-6.238-15.128Z" transform="translate(-10.713 -45.217)"/><path class="y" d="M682.9,574.875s18.108,4,13.018,21.245-25.261,61.078-21.867,64.472,2.827,5.136,2.827,5.136l-6.645,2.781-5.09-3.676s4.2-30.963,6.74-41.567,8.73-23.93,7.211-26.227a4.138,4.138,0,0,0-2.636-1.967Z" transform="translate(-25 -67.976)"/><path class="b" d="M665.04,682.066a6.4,6.4,0,0,0,4.531,2.156,4.418,4.418,0,0,0,3.77-2.026s37.137,6.315,30.916,9.048-42.321,4.148-42.6,1.131S665.04,682.066,665.04,682.066Z" transform="translate(-24.294 -89.58)"/><path class="b" d="M618.166,673.492s2.19,2.446,4.571,2.4S628.292,674,628.292,674s30.154,5.109,24.64,7.531-37.508,3.675-37.758,1S618.166,673.492,618.166,673.492Z" transform="translate(-14.927 -87.851)"/><path class="u" d="M641.984,477.5a6.768,6.768,0,0,0-8.576,6.563,12.937,12.937,0,0,0,2.1,7.362c4.241,6.222,7.729,11.123,7.729,11.123l12.224-12.253s-5.7-8.213-9.726-11.047A12.494,12.494,0,0,0,641.984,477.5Z" transform="translate(-18.604 -48.298)"/><path class="t" d="M647.741,493s9.227,10.712,13.8,7.13c5.278-4.135,12.018-45.808,11.923-46.751s3.041-5.537,3.535-7.517,3.252-8.7,2.192-7.917a14.859,14.859,0,0,0-4.807,5.726c-1.555,3.252-3.675,5.656-5.161,10.392s-7.541,27.216-9.378,30.044c-1.389,2.137-3.547.318-3.547.318Z" transform="translate(-21.493 -40.366)"/><path class="t" d="M606.291,456.666a51.014,51.014,0,0,1-7.738-1.807c-2.639-.954,4.976-13.1,5.231-15.882.471-5.136-1.2-6.633-3.393-7.116-3.314-.731-11.31-11.028-11.31-9.049s1.036,5.09,3.959,8.765c2.284,2.874,6.353,4.525,4.638,6.41s-13.686,23-10.223,25.567c6.611,4.9,15.617,4.513,15.617,4.513Z" transform="translate(-9.216 -37.278)"/><path class="z" d="M1015.207,661.147l-.239,3.671,2.667,3.716s6.05-1.094,6.156-1.349,2.209-3,2.209-3l.006-3.417-4.948-1.44Z" transform="translate(-95.504 -84.997)"/><path class="b" d="M1020.768,663.282a11.165,11.165,0,0,1-5.08,1.317,15.178,15.178,0,0,1-5.794-1.495s-23.576,2.96-20.649,5.049,29.669,5.027,32.217,3.492a4.557,4.557,0,0,0,1.365-6.4A7.909,7.909,0,0,0,1020.768,663.282Z" transform="translate(-90.27 -85.758)"/><path class="aa" d="M1006.407,633.72s8.817.7,14.189.7,7.732-1.273,7.732-1.273-.727-58.1,1.6-65.6c3.11-10.038,12.6-33.225,10.06-37.467s-25.047-5.8-25.047-5.8l-18.38,78.61Z" transform="translate(-91.795 -57.779)"/><path class="ab" d="M1004,435.117s1.908,6.412,1.343,8.674a40.548,40.548,0,0,0-.771,5.913l5.414-1.177,4.407-6.564-1.768-10.26-8.271-1.273Z" transform="translate(-93.293 -38.865)"/><path class="ac" d="M1001.466,381.285c.493,1.974,5.52,15.2,5.52,15.2l-.356,6.674-7.94,5.022c-.323-1.317-2.885-19.771-5.576-21.926-1.923-1.538-5.542-4.5-6.65-7.1a2.66,2.66,0,0,1,.18-2.867c2.291-2.834,7.816-7.459,10.152-6.023,1.719,1.057,2.777,3.675,3.218,4.982a.043.043,0,0,0,.006.017.634.634,0,0,0,.928.311c.933-.593,1.934-1.2,2.539-1.589,1.182-.747,3.014-1.352,4.043-.82,1.4.719-3.207,4.276-4.2,4.949S1000.969,379.312,1001.466,381.285Z" transform="translate(-89.694 -26.683)"/><path class="t" d="M1007.665,403.879s-3.382,2.774-7.51,10.555c-2.981,5.62-4.871,13.351-2.571,14.118,2.24.747,8.119,1.353,14.7-1.262s8.119-19.215,8.119-19.215l-8.48-7.037Z" transform="translate(-91.795 -32.941)"/><path class="z" d="M984.725,674.2l-.559,4.175,2.757,4.454s7-.778,7.14-1.06,2.757-3.254,2.757-3.254l.275-3.9-5.541-2.032Z" transform="translate(-89.297 -87.667)"/><path class="b" d="M990.928,677.364a12.8,12.8,0,0,1-5.906,1.108,17.4,17.4,0,0,1-6.5-2.16s-27.17,1.543-23.988,4.158,33.508,8.059,36.54,6.5a5.22,5.22,0,0,0,2.058-7.211A9.068,9.068,0,0,0,990.928,677.364Z" transform="translate(-83.271 -88.42)"/><path class="ad" d="M992.968,535.618a109.84,109.84,0,0,0-9.028,38.976c-1.057,22.539-5.205,70.609-5.205,70.609s10.369,2.262,15.836,1.508a56.576,56.576,0,0,0,7.917-1.508s1.885-64.117,4.9-70.609,16.966-33.38,17.343-38.976S992.968,535.618,992.968,535.618Z" transform="translate(-88.202 -59.563)"/><path class="ae" d="M989.068,468.02l-1.283.679-6.567,3.473-22.893,11.537a.274.274,0,0,1-.249,0l-19.432-9.676-1.3-.645a.277.277,0,0,1,.011-.5L969.127,459.4a.271.271,0,0,1,.209,0l19.709,8.121A.274.274,0,0,1,989.068,468.02Z" transform="translate(-79.828 -44.699)"/><path class="b" d="M989.067,472.069l-7.85,4.151-22.893,11.537a.274.274,0,0,1-.249,0l-20.733-10.321a.26.26,0,0,1-.141-.17.2.2,0,0,1-.017-.079v-1.741l1.99,1.2.011.006,18.889,9.4a.275.275,0,0,0,.249,0l22.893-11.537,6.567-3.472,1.261.521A.274.274,0,0,1,989.067,472.069Z" transform="translate(-79.828 -47.051)"/><path class="af" d="M1009.1,450.107a10.277,10.277,0,0,1-4.11-1.752c-.356-.259-.966.02-1.992,2.072-2.121,4.242-13.452,18.946-13.028,25.167.392,5.744,5.279,13.95,2.45,22.81s-4.713,16.589-4.713,16.589a63.7,63.7,0,0,0,29.6,8.484c17.72.754,25.826-3.017,25.826-3.017s-11.5-25.308-12.63-34.144,5.279-16.189-.377-25.425C1026.022,454.193,1014.9,451.231,1009.1,450.107Z" transform="translate(-90.01 -42.461)"/><path class="ag" d="M1005.7,455.811l-9.143,11.546,12.583,14.421,9.755-14.987Z" transform="translate(-91.795 -43.98)"/><path class="b" d="M1009.367,403.551s7.083,3.134,5.763,9.166-11.311,18.569-7.351,31.387,19.329,25.206,26.2,18.286a15.308,15.308,0,0,0,1.885-19.983c-4.713-6.975-5.467-11.876-3.205-16.966s7.515-19.556-5.446-25.777C1014.7,393.656,1009.367,403.551,1009.367,403.551Z" transform="translate(-93.87 -32.274)"/><path class="t" d="M1001.163,482.405s-9.245,13.911-19.081,10.12c-10.274-3.959-12.929-6.608-12.929-6.608l10.219-5.15s2.9,2.522,6.009.636,7.48-8.513,7.48-8.513Z" transform="translate(-86.271 -47.422)"/><path class="ah" d="M937.2,478.815h-.017v-.079A.2.2,0,0,0,937.2,478.815Z" transform="translate(-79.828 -48.6)"/><path class="ae" d="M927.857,442.363,960.171,431.8a.785.785,0,0,1,1,.525l6.288,21.511-31.982,13.483Z" transform="translate(-77.948 -39.132)"/><path class="b" d="M935.046,469.887h-1.2a.779.779,0,0,1-.746-.557l-7.363-24.823,1.7.424Z" transform="translate(-77.52 -41.702)"/><path class="b" d="M925.732,441.811l32.38-10.646a1.779,1.779,0,0,1,.98.111l1.123.39-32.786,10.568Z" transform="translate(-77.52 -39.005)"/><path class="r" d="M932.195,443.768l26.96-8.813a.672.672,0,0,1,.854.45l5.19,17.753a.823.823,0,0,1-.47.989L938.8,465.076a.823.823,0,0,1-1.107-.518l-6.035-19.767A.823.823,0,0,1,932.195,443.768Z" transform="translate(-78.708 -39.77)"/><path class="ai" d="M943.767,474.023l10.947,4.966c.565-.192.4-.193,0,0l25.31-12.108a.184.184,0,0,0,0-.335l-9.3-4.118a.182.182,0,0,0-.146,0l-26.791,11.261A.185.185,0,0,0,943.767,474.023Z" transform="translate(-81.134 -45.31)"/><path class="ai" d="M972.1,477.642c.913.426,3.72,1.725,4.187,1.941a.147.147,0,0,0,.132,0l6.247-3.247a.149.149,0,0,0-.011-.271l-4.134-1.751a.154.154,0,0,0-.125,0l-6.3,3.057A.15.15,0,0,0,972.1,477.642Z" transform="translate(-86.848 -47.706)"/><path class="ac" d="M998.95,378.345c-1.555,1.024-3.535,4.1-6.719,3.393a22.881,22.881,0,0,1-5.768-2.59,2.66,2.66,0,0,1,.18-2.867c2.291-2.834,7.816-7.459,10.152-6.023,1.719,1.057,2.777,3.675,3.218,4.982a.043.043,0,0,0,.006.017A3.032,3.032,0,0,1,998.95,378.345Z" transform="translate(-89.694 -26.683)"/></g></g></svg>