<svg id="Слой_1" data-name="Слой 1" xmlns="http://www.w3.org/2000/svg" viewBox="0 0 940.49 258.71"><defs><style>.cls-1{fill:#003480;}</style></defs><title>pdp_store2</title><path class="cls-1" d="M33.64,347.37h17.5a55,55,0,0,1,10.13.73,9.94,9.94,0,0,1,5.45,2.57,7.19,7.19,0,0,1,1.71,5.11v6.94a8,8,0,0,1-1.85,5.64,10.61,10.61,0,0,1-5.85,2.88,54.82,54.82,0,0,1-10.8.85H44.14V384H33.64ZM50.8,366.05a14.36,14.36,0,0,0,5.79-.82,2.87,2.87,0,0,0,1.68-2.79v-5.87a2.27,2.27,0,0,0-1.61-2.37,20.48,20.48,0,0,0-6-.57H44.14v12.42Z" transform="translate(-30.06 -347.37)"/><path class="cls-1" d="M75.84,347.37H94.41a59.11,59.11,0,0,1,12.12,1,11.7,11.7,0,0,1,6.53,3.42,10,10,0,0,1,2.08,6.71v14.9a9.69,9.69,0,0,1-2,6.47q-1.95,2.28-6.39,3.21a63.26,63.26,0,0,1-12.32.94H75.84ZM94,377.73a49.42,49.42,0,0,0,6.49-.31,5.89,5.89,0,0,0,3.17-1.21,3.69,3.69,0,0,0,1-2.83V358.32a3.68,3.68,0,0,0-2.45-3.64c-1.64-.7-4.26-1.05-7.84-1.05h-8v24.1Z" transform="translate(-30.06 -347.37)"/><path class="cls-1" d="M123.62,347.37h17.5a55,55,0,0,1,10.13.73,9.9,9.9,0,0,1,5.45,2.57,7.19,7.19,0,0,1,1.72,5.11v6.94a8,8,0,0,1-1.86,5.64,10.61,10.61,0,0,1-5.85,2.88,54.82,54.82,0,0,1-10.8.85h-5.79V384h-10.5Zm17.16,18.68a14.36,14.36,0,0,0,5.79-.82,2.87,2.87,0,0,0,1.68-2.79v-5.87a2.27,2.27,0,0,0-1.61-2.37,20.44,20.44,0,0,0-6-.57h-6.53v12.42Z" transform="translate(-30.06 -347.37)"/><path class="cls-1" d="M34,600.67V565q51,7.81,69.6,7.8,39,0,39-20.1v-12.6q0-9.59-5.55-14.7t-19.95-5.1H94.26q-64.2,0-64.2-51v-14.4q0-25.49,21.3-37.5t67.5-12q24,0,60.9,3.9v34.8q-45.3-5.4-62.4-5.4-23.7,0-31.8,3.9-8.72,4.21-8.7,13.2v13.8q0,15.3,25.8,15.3h23.4q33.3,0,48.3,12.3t15,37.5v12.9q0,34.81-24.9,47.1a90,90,0,0,1-26.55,8.85A205.92,205.92,0,0,1,103,606.07Q75.06,606.07,34,600.67Z" transform="translate(-30.06 -347.37)"/><path class="cls-1" d="M266.75,441.67h-60v-33.3h166.5v33.3h-59.7v161.4h-46.8Z" transform="translate(-30.06 -347.37)"/><path class="cls-1" d="M618.65,408.37h87.6q39,0,56.4,9.45t17.4,31.65v34.2q0,17.1-12.15,26.85T735.65,523l56.4,80.1h-54l-51-76.5h-21.6v76.5h-46.8Zm87,87.3q16.49,0,22.5-4.35t6-16.95v-13.8q0-10.8-6.45-14.85t-22.05-4.05h-40.2v54Z" transform="translate(-30.06 -347.37)"/><path class="cls-1" d="M819.05,408.37h148.5v33.3H865.85v44.7h91.8v33.3h-91.8v50.1h104.7v33.3H819.05Z" transform="translate(-30.06 -347.37)"/><path class="cls-1" d="M516.72,493.14a3.44,3.44,0,0,1-3.43-3.43V479.42a3.43,3.43,0,1,1,6.86,0v10.29A3.43,3.43,0,0,1,516.72,493.14Z" transform="translate(-30.06 -347.37)"/><path class="cls-1" d="M465.28,493.14a3.43,3.43,0,0,1-3.43-3.43V479.42a3.43,3.43,0,0,1,6.86,0v10.29A3.44,3.44,0,0,1,465.28,493.14Z" transform="translate(-30.06 -347.37)"/><path class="cls-1" d="M513.29,444.43a23,23,0,0,0-6.51-15.77A22.64,22.64,0,0,0,491,422.14a22.29,22.29,0,0,0-22.29,22.29V463h44.58Z" transform="translate(-30.06 -347.37)"/><path class="cls-1" d="M576.8,432.05a48.73,48.73,0,0,0-15.6-16.8q-9.3-6-23.7-10.2a152.7,152.7,0,0,0-22.8-4.35,238,238,0,0,0-24-1.05q-11.7,0-22.2.9a120.88,120.88,0,0,0-24.6,4.8,88.17,88.17,0,0,0-22.2,9.6,50.73,50.73,0,0,0-16.65,18,51.47,51.47,0,0,0-6.45,25.8V544q0,17.4,9,29.55t24.9,17.55a161.66,161.66,0,0,0,28.35,7.2,196.87,196.87,0,0,0,29.85,2.1q33.6,0,60.6-10.8,15-6,23.55-17.7T583.4,544v-85.2Q583.4,443.15,576.8,432.05Zm-21.9,37L535.33,559.8c-1.4,6.51-7.52,11.19-14.63,11.19H461.23c-7.06,0-13.15-4.65-14.54-11.12L427.1,469a5.12,5.12,0,0,1,5.26-6h29.49V444.43a29.15,29.15,0,1,1,58.3,0V463h29.46A5.15,5.15,0,0,1,554.9,469.05Z" transform="translate(-30.06 -347.37)"/></svg>