<svg xmlns="http://www.w3.org/2000/svg" width="21.312" height="25.575" viewBox="0 0 21.312 25.575"><path d="M63.918,21.571l-1.83-3.05A9.059,9.059,0,0,1,60.8,13.86V11.189a7.469,7.469,0,0,0-5.328-7.145V2.131a2.131,2.131,0,0,0-4.262,0V4.044a7.469,7.469,0,0,0-5.328,7.145V13.86a9.064,9.064,0,0,1-1.29,4.66l-1.83,3.05a.534.534,0,0,0,.456.808H63.461a.533.533,0,0,0,.457-.807Z" transform="translate(-42.682)" fill="#003480"/><path d="M192.177,471.464a3.725,3.725,0,0,0,3.356-2.131h-6.711A3.725,3.725,0,0,0,192.177,471.464Z" transform="translate(-181.521 -445.889)" fill="#003480"/></svg>