<?xml version="1.0" encoding="iso-8859-1"?>
<!-- Generator: Adobe Illustrator 21.0.0, SVG Export Plug-In . SVG Version: 6.00 Build 0)  -->
<svg xmlns="http://www.w3.org/2000/svg" xmlns:xlink="http://www.w3.org/1999/xlink" version="1.1" id="Capa_1" x="0px" y="0px" viewBox="0 0 512 512" style="enable-background:new 0 0 512 512;" xml:space="preserve" width="512" height="512">
<g>
	<path d="M497,389.503H15c-8.284,0-15,6.716-15,15v82.077c0,8.284,6.716,15,15,15h482c8.284,0,15-6.716,15-15v-82.077   C512,396.219,505.284,389.503,497,389.503z M273.136,460.542h-34.272c-8.284,0-15-6.716-15-15c0-8.284,6.716-15,15-15h34.272   c8.284,0,15,6.716,15,15C288.136,453.826,281.421,460.542,273.136,460.542z"/>
	<path d="M201,15.874l-7.402,2.692c-3.429,1.243-7.015,1.154-10.195,0L161,10.419l-22.403,8.146c-3.429,1.243-7.015,1.154-10.195,0   L121,15.874v193.627h80V15.874z"/>
	<rect x="311.09" y="98.946" width="106" height="26"/>
	<path d="M484,68.503c0-24.804-20.196-45-45-45H231v186h2c8.284,0,15,6.716,15,15c0,8.284-6.716,15-15,15H89   c-8.284,0-15-6.716-15-15c0-8.284,6.716-15,15-15h2v-186H73c-24.804,0-45,20.196-45,45v291h456V68.503z M302.09,334.945   c-8.262,0-15-6.739-15-15c0-8.262,6.739-15,15-15c8.262,0,15,6.738,15,15C317.09,328.207,310.352,334.945,302.09,334.945z    M302.09,274.946c-8.262,0-15-6.739-15-15c0-8.262,6.739-15,15-15c8.262,0,15,6.738,15,15   C317.09,268.207,310.352,274.946,302.09,274.946z M302.09,214.945c-8.262,0-15-6.739-15-15c0-8.262,6.739-15,15-15   c8.262,0,15,6.738,15,15C317.09,208.207,310.352,214.945,302.09,214.945z M362.089,334.945c-8.262,0-15-6.739-15-15   c0-8.262,6.739-15,15-15c8.262,0,15,6.738,15,15C377.09,328.207,370.351,334.945,362.089,334.945z M362.089,274.946   c-8.262,0-15-6.739-15-15c0-8.262,6.739-15,15-15c8.262,0,15,6.738,15,15C377.09,268.207,370.351,274.946,362.089,274.946z    M362.089,214.945c-8.262,0-15-6.739-15-15c0-8.262,6.739-15,15-15c8.262,0,15,6.738,15,15   C377.09,208.207,370.351,214.945,362.089,214.945z M422.09,334.945c-8.262,0-15-6.739-15-15c0-8.262,6.739-15,15-15s15,6.738,15,15   C437.09,328.207,430.352,334.945,422.09,334.945z M422.09,274.946c-8.262,0-15-6.739-15-15c0-8.262,6.739-15,15-15s15,6.738,15,15   C437.09,268.207,430.352,274.946,422.09,274.946z M422.09,214.945c-8.262,0-15-6.739-15-15c0-8.262,6.739-15,15-15s15,6.738,15,15   C437.09,208.207,430.352,214.945,422.09,214.945z M447.089,139.945c0,8.284-6.716,15-15,15h-136c-8.284,0-15-6.716-15-15v-56   c0-8.284,6.716-15,15-15h136c8.284,0,15,6.716,15,15V139.945z"/>
</g>















</svg>
