<svg xmlns="http://www.w3.org/2000/svg" width="23.932" height="24.602" viewBox="0 0 23.932 24.602"><g transform="translate(0)"><path d="M802.309,807.477a1.7,1.7,0,1,0,1.7-1.7,1.7,1.7,0,0,0-1.7,1.7Zm0,0" transform="translate(-781.775 -784.574)" fill="#003480"/><path d="M669.714,607.509a6.51,6.51,0,1,0-6.51,6.509,6.517,6.517,0,0,0,6.51-6.509Zm-7.964,2.269a.814.814,0,0,1-.576-1.389l1.217-1.217v-4.028a.814.814,0,1,1,1.627,0v4.365a.815.815,0,0,1-.238.576l-1.455,1.455a.809.809,0,0,1-.575.238Zm0,0" transform="translate(-651.239 -601)" fill="#003480"/><path d="M604,807.477a1.7,1.7,0,1,0,1.7-1.7,1.7,1.7,0,0,0-1.7,1.7Zm0,0" transform="translate(-604 -784.574)" fill="#003480"/><path d="M703.152,807.477a1.7,1.7,0,1,0,1.7-1.7,1.7,1.7,0,0,0-1.7,1.7Zm0,0" transform="translate(-692.885 -784.574)" fill="#003480"/><path d="M613.872,746.483a3.029,3.029,0,0,1,.872.128v-1.087h8.581v1.07a3.024,3.024,0,0,1,1.628,0v-1.07h8.581v1.087a3.039,3.039,0,0,1,1.628-.033v-1.867a.814.814,0,0,0-.814-.814h-9.394v-2.768a8.054,8.054,0,0,1-1.627,0V743.9H613.93a.814.814,0,0,0-.813.814v1.867a3.037,3.037,0,0,1,.755-.1Zm0,0" transform="translate(-612.173 -726.62)" fill="#003480"/></g></svg>