<svg xmlns="http://www.w3.org/2000/svg" xmlns:xlink="http://www.w3.org/1999/xlink" width="26.847" height="25.023" viewBox="0 0 26.847 25.023"><defs><clipPath id="a"><rect width="26.847" height="25.023" fill="#003480"/></clipPath></defs><g transform="translate(0 0)"><g transform="translate(0 0)" clip-path="url(#a)"><path d="M547.354,547.281l-4.062-4.062v-4.693a1.536,1.536,0,0,0-3.072,0v1.62l-3.025-3.025a4.042,4.042,0,0,0-5.587,0L521.45,547.281a1.537,1.537,0,0,0,2.173,2.173L533.78,539.3a.907.907,0,0,1,1.243,0l10.158,10.158a1.537,1.537,0,1,0,2.173-2.173Zm0,0" transform="translate(-521.001 -536.002)" fill="#003480"/></g><path d="M586.124,624.784a.754.754,0,0,0-1.067,0l-8.934,8.931a.756.756,0,0,0-.221.534v6.515a2.768,2.768,0,0,0,2.768,2.768h4.423v-6.85h4.994v6.85h4.424a2.768,2.768,0,0,0,2.768-2.768V634.25a.754.754,0,0,0-.221-.534Zm0,0" transform="translate(-572.189 -618.573)" fill="#003480"/></g></svg>