<svg xmlns="http://www.w3.org/2000/svg" width="29.592" height="24.15" viewBox="0 0 29.592 24.15"><g transform="translate(0 0)"><path d="M724.953,716.6c-6.6,0-11.953,4.113-11.953,9.2a8.218,8.218,0,0,0,3.386,6.4c-.126,1.687-.531,3.754-1.708,4.867,2.345,0,4.734-1.465,6.251-2.614a14.959,14.959,0,0,0,4.023.54c6.6,0,11.953-4.122,11.953-9.2s-5.352-9.2-11.953-9.2Zm0,0" transform="translate(-713 -712.919)" fill="#003480"/><path d="M735.293,728.767a7.55,7.55,0,0,0,1.582-4.571c0-5.083-5.352-9.2-11.953-9.2a14.269,14.269,0,0,0-7.644,2.12,16.821,16.821,0,0,1,3.046-.278c7.1,0,12.868,4.527,12.868,10.112a8.721,8.721,0,0,1-2.407,5.9c1.511,1.15,3.908,2.621,6.251,2.621-1.669-1.579-1.786-5.09-1.743-6.709Zm0,0" transform="translate(-707.444 -715)" fill="#003480"/></g></svg>