<svg xmlns="http://www.w3.org/2000/svg" width="21.36" height="23.972" viewBox="0 0 21.36 23.972"><g transform="translate(0 0)"><path d="M658.481,641.928c-.373,1.427-1.244,1.741-1.709,1.8a9.416,9.416,0,0,1-1.545,2.33,3.067,3.067,0,0,1-.971.589,4.283,4.283,0,0,1-3.151,0,3.069,3.069,0,0,1-.971-.589,9.387,9.387,0,0,1-1.545-2.33c-.465-.063-1.336-.377-1.709-1.8a2.271,2.271,0,0,1,.152-1.849,1.443,1.443,0,0,1,.444-.439c0-.152.007-.343.025-.56a2.623,2.623,0,0,1-.183-2.494,2.222,2.222,0,0,1,2.091-1.617,3.626,3.626,0,0,1,1.12-1.227,4.319,4.319,0,0,1,2.482-.741,5.6,5.6,0,0,1,3.313,1.159c1.669,1.23,1.526,3.956,1.484,4.451a7.363,7.363,0,0,1,.078,1.029,1.442,1.442,0,0,1,.444.439,2.272,2.272,0,0,1,.152,1.849Zm4.879,10.626v3.87a.548.548,0,0,1-.548.548H642.548a.548.548,0,0,1-.548-.548v-3.87a3.837,3.837,0,0,1,2.424-3.58l4.794-1.918a.549.549,0,0,1,.719.323l1.205,3.332.239-.686L651,649.1a.548.548,0,0,1,.508-.755h2.342a.548.548,0,0,1,.508.755l-.38.929.239.686,1.2-3.332a.549.549,0,0,1,.719-.323l4.794,1.918a3.838,3.838,0,0,1,2.424,3.58Zm-2.919.421a.548.548,0,0,0-.548-.548h-3.682a.548.548,0,0,0-.548.548v1.709a.548.548,0,0,0,.548.548h3.682a.548.548,0,0,0,.548-.548Zm0,0" transform="translate(-642 -633)" fill="#003480"/></g></svg>