<svg height="496pt" viewBox="0 0 496 496" width="496pt" xmlns="http://www.w3.org/2000/svg"><path d="m480 16h-32c-8.824219 0-16 7.175781-16 16h-46.3125c-4.75 0-9.351562-1.390625-13.3125-4.03125l-31.878906-21.25c-6.59375-4.390625-14.265625-6.71875-22.183594-6.71875h-118.3125c-13.230469 0-24 10.769531-24 24 0 2.816406.574219 5.488281 1.472656 8h-25.472656c-13.230469 0-24 10.769531-24 24 0 3.160156.648438 6.160156 1.761719 8.929688-10.203125 2.757812-17.761719 12.007812-17.761719 23.070312s7.558594 20.3125 17.761719 23.070312c-1.113281 2.769532-1.761719 5.769532-1.761719 8.929688 0 2.816406.574219 5.488281 1.472656 8h-97.472656v208h-16c-8.824219 0-16 7.175781-16 16v128c0 8.824219 7.175781 16 16 16h32c8.824219 0 16-7.175781 16-16h49.832031c3.078125 0 6.070313.574219 8.910157 1.71875l28.546874 11.417969c4.742188 1.902343 9.742188 2.863281 14.878907 2.863281h153.832031c13.230469 0 24-10.769531 24-24 0-2.816406-.574219-5.488281-1.472656-8h1.472656c13.230469 0 24-10.769531 24-24 0-3.160156-.648438-6.160156-1.761719-8.929688 10.203125-2.765624 17.761719-12.007812 17.761719-23.070312s-7.558594-20.3125-17.761719-23.070312c1.113281-2.769532 1.761719-5.769532 1.761719-8.929688 0-2.816406-.574219-5.488281-1.472656-8h97.472656v-192h16c8.824219 0 16-7.175781 16-16v-128c0-8.824219-7.175781-16-16-16zm-336 104c0-4.40625 3.585938-8 8-8h128v-16h-144c-4.414062 0-8-3.59375-8-8s3.585938-8 8-8h128v-16h-112c-4.414062 0-8-3.59375-8-8s3.585938-8 8-8h137.59375c6.328125 24.910156 20.941406 46.902344 41.605469 62.398438l9.59375-12.796876c-19.058594-14.296874-32.121094-35.035156-36.953125-59.175781l-1.289063-6.425781h-102.550781c-4.414062 0-8-3.59375-8-8s3.585938-8 8-8h118.3125c4.75 0 9.351562 1.390625 13.3125 4.03125l31.871094 21.25c6.601562 4.390625 14.273437 6.71875 22.191406 6.71875h46.3125v80h-280c-4.414062 0-8-3.59375-8-8zm-128 360v-128h32l.015625 128zm336-104c0 4.414062-3.585938 8-8 8h-112v16h128c4.414062 0 8 3.585938 8 8s-3.585938 8-8 8h-128v16h112c4.414062 0 8 3.585938 8 8s-3.585938 8-8 8h-112v16h88c4.414062 0 8 3.585938 8 8s-3.585938 8-8 8h-153.832031c-3.078125 0-6.070313-.574219-8.910157-1.71875l-28.546874-11.417969c-4.742188-1.902343-9.742188-2.863281-14.878907-2.863281h-49.832031v-96h46.3125c7.925781 0 15.597656-2.320312 22.183594-6.71875l31.871094-21.25c3.960937-2.640625 8.5625-4.03125 13.320312-4.03125h118.3125c4.414062 0 8 3.585938 8 8s-3.585938 8-8 8h-96v16h144c4.414062 0 8 3.585938 8 8zm-184-128c0-44.113281 35.886719-80 80-80s80 35.886719 80 80c0 30.839844-17.230469 58.414062-44.96875 71.945312l.023438.054688h-69.742188c-27.542969-13.296875-45.3125-41.34375-45.3125-72zm280 104h-129.472656c.898437-2.511719 1.472656-5.183594 1.472656-8 0-8.945312-4.976562-16.671875-12.257812-20.800781 22.746093-17.953125 36.257812-45.289063 36.257812-75.199219 0-52.9375-43.0625-96-96-96s-96 43.0625-96 96c0 27.894531 12.230469 54.03125 32.542969 72h-6.863281c-7.925782 0-15.601563 2.320312-22.183594 6.71875l-31.871094 21.25c-3.953125 2.640625-8.554688 4.03125-13.3125 4.03125h-46.3125c0-8.824219-7.175781-16-16-16v-192h400zm32-192h-16v-32h-16v-96h32zm0 0"/><path d="m260 240h-24c-6.617188 0-12-5.382812-12-12s5.382812-12 12-12h24c6.617188 0 12 5.382812 12 12h16c0-15.441406-12.558594-28-28-28h-4v-16h-16v16h-4c-15.441406 0-28 12.558594-28 28s12.558594 28 28 28h24c6.617188 0 12 5.382812 12 12s-5.382812 12-12 12h-24c-6.617188 0-12-5.382812-12-12h-16c0 15.441406 12.558594 28 28 28h4v16h16v-16h4c15.441406 0 28-12.558594 28-28s-12.558594-28-28-28zm0 0"/><path d="m64 200h16v-24h24v-16h-40zm0 0"/><path d="m80 296h-16v40h40v-16h-24zm0 0"/><path d="m416 200h16v-40h-40v16h24zm0 0"/><path d="m432 296h-16v24h-24v16h40zm0 0"/></svg>