<svg xmlns="http://www.w3.org/2000/svg" xmlns:xlink="http://www.w3.org/1999/xlink" width="27.062" height="27.089" viewBox="0 0 27.062 27.089"><defs><clipPath id="a"><rect width="27.062" height="27.089" fill="#003480"/></clipPath></defs><g clip-path="url(#a)"><path d="M638.883,624.986a.878.878,0,0,0-.867-.664,2.977,2.977,0,0,1-2.038-5.182.749.749,0,0,0,.082-1.017,13.347,13.347,0,0,0-2.136-2.157.751.751,0,0,0-1.025.083,3.108,3.108,0,0,1-3.363.755,3,3,0,0,1-1.821-2.927.749.749,0,0,0-.662-.788,13.45,13.45,0,0,0-3.034-.008.75.75,0,0,0-.667.772,3,3,0,0,1-1.847,2.877,3.116,3.116,0,0,1-3.338-.76.751.751,0,0,0-1.018-.085,13.4,13.4,0,0,0-2.181,2.157.75.75,0,0,0,.08,1.025,2.988,2.988,0,0,1,.754,3.365,3.117,3.117,0,0,1-2.934,1.823.733.733,0,0,0-.779.662,13.5,13.5,0,0,0-.006,3.066.893.893,0,0,0,.884.664,2.957,2.957,0,0,1,2.774,1.848,3,3,0,0,1-.754,3.335.748.748,0,0,0-.082,1.016A13.385,13.385,0,0,0,617.04,637a.75.75,0,0,0,1.026-.081,3.1,3.1,0,0,1,3.362-.756,2.991,2.991,0,0,1,1.825,2.926.748.748,0,0,0,.661.788,13.439,13.439,0,0,0,3.034.008.75.75,0,0,0,.667-.772,3,3,0,0,1,1.845-2.876,3.113,3.113,0,0,1,3.339.76.753.753,0,0,0,1.018.085A13.433,13.433,0,0,0,636,634.926a.749.749,0,0,0-.08-1.025,2.987,2.987,0,0,1-.755-3.364,3.019,3.019,0,0,1,2.758-1.828l.167,0a.75.75,0,0,0,.789-.661,13.46,13.46,0,0,0,.006-3.066ZM625.5,631.01a4.5,4.5,0,1,1,4.5-4.5,4.5,4.5,0,0,1-4.5,4.5Zm0,0" transform="translate(-612 -612.999)" fill="#003480" fill-rule="evenodd"/></g></svg>