<svg xmlns="http://www.w3.org/2000/svg" width="24.052" height="25" viewBox="0 0 24.052 25"><path d="M719.217,732a2.5,2.5,0,1,0,2.4,2.5,2.462,2.462,0,0,0-2.4-2.5ZM712,712v2.5h2.408l4.326,9.5-1.685,3a4.668,4.668,0,0,0-.241,1.244,2.464,2.464,0,0,0,2.408,2.5h14.426v-2.5H719.7a.259.259,0,0,1-.24-.25v-.122l1.081-2.123h8.9a2.192,2.192,0,0,0,2.043-1.252l4.328-8.123a.71.71,0,0,0,.24-.63,1.158,1.158,0,0,0-1.2-1.244h-17.8L715.97,712Zm19.243,20a2.5,2.5,0,1,0,2.4,2.5,2.463,2.463,0,0,0-2.4-2.5Zm0,0" transform="translate(-712 -712)" fill="#003480"/></svg>