<svg xmlns="http://www.w3.org/2000/svg" width="30.646" height="24.388" viewBox="0 0 30.646 24.388"><g transform="translate(0 0)"><path d="M15.688,145.735a8.446,8.446,0,0,1,.072-1.1H9.137a2.091,2.091,0,0,0-2.089,2.089h0v9.842a3.476,3.476,0,0,0-1.823.2v-8.505H3.171A3.174,3.174,0,0,0,0,151.437v7.606a1.867,1.867,0,0,0,1.865,1.865H3.142a3.486,3.486,0,0,0,6.736,0H14.99a3.485,3.485,0,0,0,6.735,0h1.061a2.091,2.091,0,0,0,2.089-2.089v-4.8a8.445,8.445,0,0,1-.857.044A8.339,8.339,0,0,1,15.688,145.735ZM7.229,160.55a.865.865,0,0,1-.081.094c-.02.02-.042.041-.065.059l-.035.026-.036.026a.865.865,0,0,1-.075.046.995.995,0,0,1-.162.067c-.028.008-.056.016-.085.022a.863.863,0,0,1-.175.017.878.878,0,0,1-.089,0c-.029,0-.058-.007-.087-.013s-.057-.013-.086-.022a.854.854,0,0,1-.083-.03.807.807,0,0,1-.08-.037c-.026-.014-.051-.029-.075-.046a.769.769,0,0,1-.071-.052c-.023-.019-.045-.039-.066-.059a.9.9,0,0,1-.263-.635.867.867,0,0,1,0-.088.855.855,0,0,1,.013-.087c.006-.029.013-.057.022-.085a.993.993,0,0,1,.067-.162,1.006,1.006,0,0,1,.1-.147.768.768,0,0,1,.059-.065.9.9,0,0,1,.723-.259.855.855,0,0,1,.087.013.7.7,0,0,1,.085.022c.028.008.056.019.083.029s.054.024.08.038a.859.859,0,0,1,.075.045l.036.024.035.028a.922.922,0,0,1,.124.125.874.874,0,0,1,.053.071.853.853,0,0,1,.045.075c.014.026.026.053.038.08s.021.054.029.083a.707.707,0,0,1,.022.085.855.855,0,0,1,.013.087.868.868,0,0,1,0,.088A.9.9,0,0,1,7.229,160.55ZM19,160.644c-.02.02-.042.041-.065.059a1,1,0,0,1-.147.1,1,1,0,0,1-.162.067c-.028.008-.056.016-.085.022a.863.863,0,0,1-.175.017.878.878,0,0,1-.089,0c-.029,0-.058-.007-.087-.013s-.057-.013-.086-.022a.993.993,0,0,1-.162-.067c-.026-.014-.051-.029-.075-.046a.87.87,0,0,1-.071-.052c-.023-.019-.045-.039-.065-.059a.9.9,0,0,1-.263-.635.867.867,0,0,1,0-.088.856.856,0,0,1,.013-.087c.006-.029.013-.057.022-.085a.993.993,0,0,1,.067-.162c.014-.026.029-.051.045-.075s.034-.048.053-.071a.769.769,0,0,1,.059-.065.866.866,0,0,1,.065-.059.877.877,0,0,1,.071-.053q.037-.024.075-.045c.026-.014.053-.026.08-.038s.054-.021.083-.029a.708.708,0,0,1,.086-.022.88.88,0,0,1,.263-.013.855.855,0,0,1,.087.013.672.672,0,0,1,.085.022c.028.008.056.019.083.029s.054.024.08.038a.885.885,0,0,1,.147.1.918.918,0,0,1,.124.125.874.874,0,0,1,.053.071.861.861,0,0,1,.045.075c.014.026.026.053.038.08s.021.054.029.083a.708.708,0,0,1,.022.085.854.854,0,0,1,.013.087.867.867,0,0,1,0,.088A.9.9,0,0,1,19,160.644Z" transform="translate(0 -139.107)" fill="#003480"/><path d="M297.167,52.278a6.628,6.628,0,1,0,6.628,6.628A6.635,6.635,0,0,0,297.167,52.278Zm.9,9.142a.9.9,0,1,1-1.8,0V58.833a.9.9,0,0,1,1.8,0Zm0-4.94c0,.029-.008.058-.013.087s-.013.057-.022.085-.019.056-.03.083-.024.053-.038.079-.029.051-.045.076-.034.048-.052.071-.039.045-.059.066-.043.041-.066.059-.047.036-.071.052a.872.872,0,0,1-.076.045q-.039.021-.079.038a.817.817,0,0,1-.083.029.673.673,0,0,1-.085.021.694.694,0,0,1-.087.013.838.838,0,0,1-.088,0,.86.86,0,0,1-.089,0,.7.7,0,0,1-.087-.013.728.728,0,0,1-.086-.021c-.028-.008-.056-.018-.083-.029s-.054-.024-.08-.038-.051-.029-.075-.045-.048-.034-.071-.052-.045-.039-.066-.059-.041-.043-.059-.066-.036-.047-.052-.071a.855.855,0,0,1-.045-.076q-.021-.039-.038-.079c-.011-.027-.021-.055-.03-.083s-.016-.056-.022-.085-.01-.058-.013-.087,0-.059,0-.089,0-.059,0-.089.008-.058.013-.087.013-.057.022-.086.019-.056.03-.083.024-.054.038-.08.029-.051.045-.075a.842.842,0,0,1,.052-.071c.019-.023.039-.045.059-.066s.043-.041.066-.059a.856.856,0,0,1,.071-.052c.025-.016.05-.032.075-.045s.053-.026.08-.037a.856.856,0,0,1,.083-.03c.028-.008.057-.016.086-.022s.058-.01.087-.013a.87.87,0,0,1,.176,0c.029,0,.059.008.087.013s.057.013.085.022a.8.8,0,0,1,.083.03c.027.011.053.024.079.037a.861.861,0,0,1,.076.045c.024.016.048.034.071.052s.045.039.066.059.041.043.059.066.036.046.052.071.031.05.045.075.026.053.038.08.021.055.03.083.016.057.022.086.01.058.013.087,0,.059,0,.089S298.063,56.451,298.06,56.48Z" transform="translate(-273.149 -52.278)" fill="#003480"/></g></svg>