<svg xmlns="http://www.w3.org/2000/svg" width="22.014" height="24.734" viewBox="0 0 22.014 24.734"><g transform="translate(0 0)"><path d="M573.988,761.157a5.379,5.379,0,0,1-4.354,2.222h-2.508a2,2,0,0,1-1.884-1.32,6.363,6.363,0,0,1-1.013-.4,6.819,6.819,0,0,1-1.892-1.4A8.079,8.079,0,0,0,556,768.146v.5a1.257,1.257,0,0,0,1.257,1.257h19.5a1.257,1.257,0,0,0,1.257-1.257v-.5a8.075,8.075,0,0,0-4.026-6.989Zm0,0" transform="translate(-556 -745.173)" fill="#003480"/><path d="M610.5,548.493a1.431,1.431,0,0,0,1.254-.741l.019.052.006.015a5.586,5.586,0,0,0,3.15,3.316,2,2,0,0,1,1.7-.938h2.508a1.405,1.405,0,0,0,.687-.185,2.836,2.836,0,0,0,.81-.936,7.223,7.223,0,0,0,.627-1.326,1.438,1.438,0,0,0,.4.456v.615a2.524,2.524,0,0,1-2.521,2.521h-2.508a.859.859,0,1,0,0,1.717h2.508a4.243,4.243,0,0,0,4.238-4.238v-.615a1.429,1.429,0,0,0,.573-1.145V543.48a1.429,1.429,0,0,0-.594-1.161,6.865,6.865,0,0,0-13.687,0,1.429,1.429,0,0,0-.594,1.161v3.582a1.432,1.432,0,0,0,1.431,1.431Zm6.007-10.776a5.155,5.155,0,0,1,5.123,4.637,1.435,1.435,0,0,0-.4.5,4.9,4.9,0,0,0-9.438-.008l0,.008a1.435,1.435,0,0,0-.4-.5,5.155,5.155,0,0,1,5.123-4.637Zm0,0" transform="translate(-605.497 -536)" fill="#003480"/></g></svg>