<svg width="19" height="18" viewBox="0 0 19 18" fill="none" xmlns="http://www.w3.org/2000/svg">
<path d="M5.16273 1.86822L2.93018 4.72093V14.7054C2.93018 15.0837 3.08699 15.4465 3.36611 15.714C3.64523 15.9815 4.02381 16.1318 4.41855 16.1318H14.8372C15.2319 16.1318 15.6105 15.9815 15.8896 15.714C16.1687 15.4465 16.3255 15.0837 16.3255 14.7054V4.72093L14.093 1.86822H5.16273Z" stroke="#B0B0B0" stroke-linecap="round" stroke-linejoin="round"/>
<path d="M2.93018 4.72093H16.3255" stroke="#B0B0B0" stroke-linecap="round" stroke-linejoin="round"/>
<path d="M12.6049 7.57364C12.6049 8.33023 12.2912 9.05583 11.733 9.59082C11.1747 10.1258 10.4176 10.4264 9.62811 10.4264C8.83863 10.4264 8.08148 10.1258 7.52324 9.59082C6.96499 9.05583 6.65137 8.33023 6.65137 7.57364" stroke="#B0B0B0" stroke-linecap="round" stroke-linejoin="round"/>
</svg>
