<svg xmlns="http://www.w3.org/2000/svg" width="17.455" height="13.714" viewBox="0 0 17.455 13.714"><defs><style>.a{fill:#f7aa03;}</style></defs><g transform="translate(-661 -674)"><path class="a" d="M662.675,678.228q.331.234,2,1.388t2.552,1.778q.1.068.414.3t.526.37c.139.095.308.2.507.317a2.935,2.935,0,0,0,.56.263,1.552,1.552,0,0,0,.487.088h.019a1.552,1.552,0,0,0,.487-.088,2.984,2.984,0,0,0,.56-.263c.2-.117.367-.222.507-.317s.315-.217.525-.37.35-.252.414-.3q.9-.624,4.559-3.166a4.623,4.623,0,0,0,1.188-1.2,2.574,2.574,0,0,0,.478-1.471A1.572,1.572,0,0,0,676.9,674H662.559a1.391,1.391,0,0,0-1.155.507,1.966,1.966,0,0,0-.4,1.266,2.275,2.275,0,0,0,.536,1.33,4.828,4.828,0,0,0,1.14,1.125Zm0,0"/><path class="a" d="M677.481,704.438q-3.194,2.162-4.851,3.36-.555.41-.9.638a5.48,5.48,0,0,1-.92.468,2.8,2.8,0,0,1-1.072.239h-.019a2.8,2.8,0,0,1-1.072-.239,5.512,5.512,0,0,1-.921-.468q-.345-.228-.9-.638-1.316-.964-4.841-3.36a5.17,5.17,0,0,1-.984-.848v7.734a1.562,1.562,0,0,0,1.559,1.559H676.9a1.563,1.563,0,0,0,1.559-1.559V703.59a5.4,5.4,0,0,1-.974.848Zm0,0" transform="translate(0 -25.168)"/></g></svg>