<svg xmlns="http://www.w3.org/2000/svg" width="32" height="32" viewBox="0 0 32 32"><defs><style>.a{fill:#005589;}.b,.d{fill:none;}.b{stroke:#005589;stroke-width:2px;}.c{stroke:none;}</style></defs><g transform="translate(-518.682 -6543)"><g transform="translate(518.682 6543)"><g transform="translate(8.348 8.348)"><path class="a" d="M663.277,653H656.3a4.3,4.3,0,0,0-4.3,4.3v6.979a4.3,4.3,0,0,0,4.3,4.3h6.979a4.3,4.3,0,0,0,4.3-4.3V657.3a4.3,4.3,0,0,0-4.3-4.3Zm2.916,11.277a2.919,2.919,0,0,1-2.916,2.916H656.3a2.919,2.919,0,0,1-2.916-2.916V657.3a2.919,2.919,0,0,1,2.916-2.916h6.979a2.919,2.919,0,0,1,2.916,2.916Zm0,0" transform="translate(-652 -653)"/><path class="a" d="M688.786,685.778a4.013,4.013,0,1,0,4.013,4.013,4.018,4.018,0,0,0-4.013-4.013Zm0,6.644a2.631,2.631,0,1,1,2.631-2.631,2.634,2.634,0,0,1-2.631,2.631Zm0,0" transform="translate(-680.999 -682.003)"/><path class="a" d="M748.151,675.6a1.013,1.013,0,1,0,.716.3,1.016,1.016,0,0,0-.716-.3Zm0,0" transform="translate(-736.181 -672.999)"/></g><g class="b"><circle class="c" cx="16" cy="16" r="16"/><circle class="d" cx="16" cy="16" r="15"/></g></g></g></svg>