<svg xmlns="http://www.w3.org/2000/svg" xmlns:xlink="http://www.w3.org/1999/xlink" width="16.999" height="17" viewBox="0 0 16.999 17"><defs><style>.a{fill:#f7aa03;}.b{clip-path:url(#a);}</style><clipPath id="a"><rect class="a" width="16.998" height="17"/></clipPath></defs><g transform="translate(-1194 -6474)"><g transform="translate(706 5985)"><g transform="translate(488 489)"><g class="b" transform="translate(0 0)"><path class="a" d="M504.973,502.393a.821.821,0,0,1-.252.719l-2.391,2.373a1.347,1.347,0,0,1-.422.306,1.75,1.75,0,0,1-.512.162q-.018,0-.108.009t-.234.009a8.287,8.287,0,0,1-1.105-.117,8.382,8.382,0,0,1-1.87-.575,15.708,15.708,0,0,1-2.508-1.375,18.7,18.7,0,0,1-2.984-2.517,19.7,19.7,0,0,1-2.085-2.373,16.9,16.9,0,0,1-1.33-2.094,11.256,11.256,0,0,1-.755-1.744,9.246,9.246,0,0,1-.342-1.348,4.443,4.443,0,0,1-.072-.89q.018-.324.018-.36a1.748,1.748,0,0,1,.162-.512,1.345,1.345,0,0,1,.306-.422l2.391-2.391a.792.792,0,0,1,.575-.252.67.67,0,0,1,.413.135,1.251,1.251,0,0,1,.306.333l1.923,3.649a.876.876,0,0,1,.09.629,1.119,1.119,0,0,1-.306.575L493,495.2a.3.3,0,0,0-.063.117.445.445,0,0,0-.027.135,3.241,3.241,0,0,0,.324.863,7.923,7.923,0,0,0,.665,1.052,11.681,11.681,0,0,0,1.276,1.429,11.9,11.9,0,0,0,1.438,1.285,8.3,8.3,0,0,0,1.052.674,2.8,2.8,0,0,0,.647.261l.225.045a.431.431,0,0,0,.117-.027.3.3,0,0,0,.117-.063l1.025-1.043a1.1,1.1,0,0,1,.755-.288.94.94,0,0,1,.485.108h.018l3.469,2.049a.9.9,0,0,1,.45.593Zm0,0" transform="translate(-488 -489)"/></g></g></g></g></svg>