<svg xmlns="http://www.w3.org/2000/svg" xmlns:xlink="http://www.w3.org/1999/xlink" width="32" height="32" viewBox="0 0 32 32"><defs><style>.a{fill:#005589;}.b{clip-path:url(#a);}.c,.e{fill:none;}.c{stroke:#005589;stroke-width:2px;}.d{stroke:none;}</style><clipPath id="a"><rect class="a" width="16.683" height="14.596"/></clipPath></defs><g transform="translate(-397 -6543)"><g transform="translate(397 6543)"><g transform="translate(7.652 9.043)"><g transform="translate(0)"><g class="b"><path class="a" d="M600.295,622.812l3.848,1.436,1.49,4.79a.453.453,0,0,0,.719.217l2.145-1.749a.64.64,0,0,1,.78-.022l3.869,2.809a.453.453,0,0,0,.71-.274l2.834-13.632a.454.454,0,0,0-.607-.515l-15.792,6.092a.454.454,0,0,0,0,.849Zm5.1.672,7.52-4.632a.131.131,0,0,1,.158.207l-6.207,5.769a1.288,1.288,0,0,0-.4.77l-.211,1.567a.194.194,0,0,1-.38.028l-.813-2.857a.757.757,0,0,1,.331-.852Zm0,0" transform="translate(-600 -615.851)"/></g></g></g><g class="c"><circle class="d" cx="16" cy="16" r="16"/><circle class="e" cx="16" cy="16" r="15"/></g></g></g></svg>